M48
; DRILL file {KiCad (5.1.2-1)-1} date 2019 May 23, Thursday 14:33:00
; FORMAT={-:-/ absolute / metric / decimal}
; #@! TF.CreationDate,2019-05-23T14:33:00+02:00
; #@! TF.GenerationSoftware,Kicad,Pcbnew,(5.1.2-1)-1
; #@! TF.FileFunction,Plated,1,2,PTH
FMAT,2
METRIC
T1C0.300
T2C0.400
T3C0.600
T4C1.000
T5C1.016
T6C1.100
T7C1.200
%
G90
G05
T1
X59.69Y-45.085
T2
X38.862Y-65.659
X44.196Y-65.659
X46.228Y-32.385
X46.99Y-28.067
X46.99Y-57.785
X46.99Y-61.087
X51.562Y-52.197
X51.562Y-54.737
X51.562Y-57.277
X51.562Y-59.817
X51.562Y-62.103
X52.07Y-28.321
X52.07Y-43.053
X53.188Y-41.427
X55.88Y-32.893
X56.591Y-49.454
X56.591Y-50.724
X56.591Y-51.994
X56.642Y-35.687
X57.404Y-63.881
X59.182Y-63.881
X59.69Y-29.845
X60.447Y-26.294
X61.023Y-35.687
X64.262Y-56.769
X65.278Y-56.769
X66.624Y-55.093
X66.802Y-38.989
X68.834Y-48.895
X69.229Y-53.34
X71.374Y-51.689
X72.644Y-60.071
X73.152Y-53.975
X73.152Y-57.912
X73.406Y-49.403
X74.168Y-52.197
X74.422Y-65.405
X75.692Y-40.005
X76.225Y-65.811
X77.216Y-27.051
X77.953Y-43.739
X78.003Y-65.316
X78.105Y-59.563
X78.842Y-50.317
X79.223Y-53.416
X79.995Y-55.143
X81.356Y-37.744
X81.763Y-53.543
X83.312Y-54.991
X83.439Y-52.959
X83.82Y-58.039
X86.106Y-41.783
X86.36Y-55.753
X86.36Y-57.023
X88.201Y-53.873
X88.24Y-52.972
X97.104Y-59.639
T3
X38.551Y-36.493
X61.123Y-39.421
X61.125Y-65.367
X64.262Y-37.871
X67.589Y-32.588
X68.166Y-45.941
X68.326Y-37.186
X76.086Y-36.639
X78.847Y-47.696
X79.647Y-43.612
X81.636Y-47.727
X83.16Y-51.569
X83.261Y-33.299
X91.669Y-40.208
X92.507Y-46.711
X95.364Y-36.259
X97.519Y-62.695
X98.781Y-26.06
X99.771Y-64.948
X100.66Y-42.164
X102.083Y-64.618
X103.581Y-30.828
T4
X67.31Y-63.5
X69.85Y-63.5
X72.39Y-63.5
X74.93Y-63.5
X77.47Y-63.5
X80.01Y-63.5
X82.55Y-63.5
X85.09Y-63.5
X87.63Y-63.5
X90.17Y-63.5
X91.123Y-29.21
X91.123Y-31.75
X91.123Y-34.29
X57.15Y-38.621
X49.53Y-40.64
X49.53Y-43.18
X49.53Y-45.72
X49.53Y-48.26
X49.53Y-50.8
X49.53Y-53.34
X49.53Y-55.88
X49.53Y-58.42
X49.53Y-60.96
X49.53Y-63.5
T5
X98.298Y-49.682
X98.298Y-52.222
X98.298Y-54.762
X98.298Y-57.302
X100.838Y-49.682
X100.838Y-52.222
X100.838Y-54.762
X100.838Y-57.302
T6
X34.29Y-20.32
X34.29Y-22.86
X34.29Y-68.58
X34.29Y-71.12
X36.83Y-20.32
X36.83Y-22.86
X36.83Y-68.58
X36.83Y-71.12
X39.37Y-20.32
X39.37Y-22.86
X39.37Y-68.58
X39.37Y-71.12
X41.91Y-20.32
X41.91Y-22.86
X41.91Y-68.58
X41.91Y-71.12
X44.45Y-20.32
X44.45Y-22.86
X44.45Y-68.58
X44.45Y-71.12
X46.99Y-20.32
X46.99Y-22.86
X46.99Y-68.58
X46.99Y-71.12
X49.53Y-20.32
X49.53Y-22.86
X49.53Y-68.58
X49.53Y-71.12
X52.07Y-20.32
X52.07Y-22.86
X52.07Y-68.58
X52.07Y-71.12
X54.61Y-20.32
X54.61Y-22.86
X54.61Y-68.58
X54.61Y-71.12
X57.15Y-20.32
X57.15Y-22.86
X57.15Y-68.58
X57.15Y-71.12
X59.69Y-20.32
X59.69Y-22.86
X59.69Y-68.58
X59.69Y-71.12
X62.23Y-20.32
X62.23Y-22.86
X62.23Y-68.58
X62.23Y-71.12
X64.77Y-20.32
X64.77Y-22.86
X64.77Y-68.58
X64.77Y-71.12
X67.31Y-20.32
X67.31Y-22.86
X67.31Y-68.58
X67.31Y-71.12
X69.85Y-20.32
X69.85Y-22.86
X69.85Y-68.58
X69.85Y-71.12
X72.39Y-20.32
X72.39Y-22.86
X72.39Y-68.58
X72.39Y-71.12
X74.93Y-20.32
X74.93Y-22.86
X74.93Y-68.58
X74.93Y-71.12
X77.47Y-20.32
X77.47Y-22.86
X77.47Y-68.58
X77.47Y-71.12
X80.01Y-20.32
X80.01Y-22.86
X80.01Y-68.58
X80.01Y-71.12
X82.55Y-20.32
X82.55Y-22.86
X82.55Y-68.58
X82.55Y-71.12
X85.09Y-20.32
X85.09Y-22.86
X85.09Y-68.58
X85.09Y-71.12
X87.63Y-20.32
X87.63Y-22.86
X87.63Y-68.58
X87.63Y-71.12
X90.17Y-20.32
X90.17Y-22.86
X90.17Y-68.58
X90.17Y-71.12
X100.711Y-20.32
X100.711Y-22.86
T7
X97.98Y-29.964
X97.98Y-33.465
X73.279Y-28.854
X75.819Y-28.854
X78.359Y-28.854
X80.899Y-28.854
X54.813Y-45.771
X54.813Y-48.311
X54.813Y-50.851
X54.813Y-53.391
X54.813Y-55.931
X54.813Y-58.471
X54.813Y-61.011
X54.813Y-63.551
X61.874Y-42.418
X61.874Y-44.958
X61.874Y-47.498
X61.874Y-50.038
X61.874Y-52.578
X61.874Y-55.118
X61.874Y-57.658
X61.874Y-60.198
T0
M30
