G04 #@! TF.GenerationSoftware,KiCad,Pcbnew,(5.1.2-1)-1*
G04 #@! TF.CreationDate,2019-05-23T21:51:25+02:00*
G04 #@! TF.ProjectId,wearable_cape,77656172-6162-46c6-955f-636170652e6b,v02*
G04 #@! TF.SameCoordinates,Original*
G04 #@! TF.FileFunction,Soldermask,Top*
G04 #@! TF.FilePolarity,Negative*
%FSLAX46Y46*%
G04 Gerber Fmt 4.6, Leading zero omitted, Abs format (unit mm)*
G04 Created by KiCad (PCBNEW (5.1.2-1)-1) date 2019-05-23 21:51:25*
%MOMM*%
%LPD*%
G04 APERTURE LIST*
%ADD10C,0.100000*%
%ADD11C,1.000000*%
%ADD12C,1.500000*%
%ADD13C,2.400000*%
%ADD14R,2.400000X2.400000*%
%ADD15C,1.350000*%
%ADD16C,1.700000*%
%ADD17C,2.200000*%
%ADD18R,2.200000X2.200000*%
%ADD19R,2.203400X2.000200*%
%ADD20R,2.000200X2.203400*%
%ADD21C,1.650000*%
%ADD22O,2.100000X2.100000*%
%ADD23R,2.100000X2.100000*%
%ADD24O,2.127200X2.127200*%
%ADD25R,2.127200X2.127200*%
%ADD26C,2.800000*%
%ADD27R,2.800000X2.800000*%
%ADD28O,2.600000X2.140000*%
%ADD29C,2.140000*%
%ADD30O,2.140000X2.600000*%
%ADD31R,2.000000X2.400000*%
%ADD32R,2.400000X2.000000*%
%ADD33R,1.300000X1.200000*%
G04 APERTURE END LIST*
D10*
G36*
X71616344Y-49252184D02*
G01*
X71640613Y-49255784D01*
X71664411Y-49261745D01*
X71687511Y-49270010D01*
X71709689Y-49280500D01*
X71730733Y-49293113D01*
X71750438Y-49307727D01*
X71768617Y-49324203D01*
X71785093Y-49342382D01*
X71799707Y-49362087D01*
X71812320Y-49383131D01*
X71822810Y-49405309D01*
X71831075Y-49428409D01*
X71837036Y-49452207D01*
X71840636Y-49476476D01*
X71841840Y-49500980D01*
X71841840Y-50000980D01*
X71840636Y-50025484D01*
X71837036Y-50049753D01*
X71831075Y-50073551D01*
X71822810Y-50096651D01*
X71812320Y-50118829D01*
X71799707Y-50139873D01*
X71785093Y-50159578D01*
X71768617Y-50177757D01*
X71750438Y-50194233D01*
X71730733Y-50208847D01*
X71709689Y-50221460D01*
X71687511Y-50231950D01*
X71664411Y-50240215D01*
X71640613Y-50246176D01*
X71616344Y-50249776D01*
X71591840Y-50250980D01*
X69741840Y-50250980D01*
X69717336Y-50249776D01*
X69693067Y-50246176D01*
X69669269Y-50240215D01*
X69646169Y-50231950D01*
X69623991Y-50221460D01*
X69602947Y-50208847D01*
X69583242Y-50194233D01*
X69565063Y-50177757D01*
X69548587Y-50159578D01*
X69533973Y-50139873D01*
X69521360Y-50118829D01*
X69510870Y-50096651D01*
X69502605Y-50073551D01*
X69496644Y-50049753D01*
X69493044Y-50025484D01*
X69491840Y-50000980D01*
X69491840Y-49500980D01*
X69493044Y-49476476D01*
X69496644Y-49452207D01*
X69502605Y-49428409D01*
X69510870Y-49405309D01*
X69521360Y-49383131D01*
X69533973Y-49362087D01*
X69548587Y-49342382D01*
X69565063Y-49324203D01*
X69583242Y-49307727D01*
X69602947Y-49293113D01*
X69623991Y-49280500D01*
X69646169Y-49270010D01*
X69669269Y-49261745D01*
X69693067Y-49255784D01*
X69717336Y-49252184D01*
X69741840Y-49250980D01*
X71591840Y-49250980D01*
X71616344Y-49252184D01*
X71616344Y-49252184D01*
G37*
D11*
X70666840Y-49750980D03*
D10*
G36*
X71616344Y-47982184D02*
G01*
X71640613Y-47985784D01*
X71664411Y-47991745D01*
X71687511Y-48000010D01*
X71709689Y-48010500D01*
X71730733Y-48023113D01*
X71750438Y-48037727D01*
X71768617Y-48054203D01*
X71785093Y-48072382D01*
X71799707Y-48092087D01*
X71812320Y-48113131D01*
X71822810Y-48135309D01*
X71831075Y-48158409D01*
X71837036Y-48182207D01*
X71840636Y-48206476D01*
X71841840Y-48230980D01*
X71841840Y-48730980D01*
X71840636Y-48755484D01*
X71837036Y-48779753D01*
X71831075Y-48803551D01*
X71822810Y-48826651D01*
X71812320Y-48848829D01*
X71799707Y-48869873D01*
X71785093Y-48889578D01*
X71768617Y-48907757D01*
X71750438Y-48924233D01*
X71730733Y-48938847D01*
X71709689Y-48951460D01*
X71687511Y-48961950D01*
X71664411Y-48970215D01*
X71640613Y-48976176D01*
X71616344Y-48979776D01*
X71591840Y-48980980D01*
X69741840Y-48980980D01*
X69717336Y-48979776D01*
X69693067Y-48976176D01*
X69669269Y-48970215D01*
X69646169Y-48961950D01*
X69623991Y-48951460D01*
X69602947Y-48938847D01*
X69583242Y-48924233D01*
X69565063Y-48907757D01*
X69548587Y-48889578D01*
X69533973Y-48869873D01*
X69521360Y-48848829D01*
X69510870Y-48826651D01*
X69502605Y-48803551D01*
X69496644Y-48779753D01*
X69493044Y-48755484D01*
X69491840Y-48730980D01*
X69491840Y-48230980D01*
X69493044Y-48206476D01*
X69496644Y-48182207D01*
X69502605Y-48158409D01*
X69510870Y-48135309D01*
X69521360Y-48113131D01*
X69533973Y-48092087D01*
X69548587Y-48072382D01*
X69565063Y-48054203D01*
X69583242Y-48037727D01*
X69602947Y-48023113D01*
X69623991Y-48010500D01*
X69646169Y-48000010D01*
X69669269Y-47991745D01*
X69693067Y-47985784D01*
X69717336Y-47982184D01*
X69741840Y-47980980D01*
X71591840Y-47980980D01*
X71616344Y-47982184D01*
X71616344Y-47982184D01*
G37*
D11*
X70666840Y-48480980D03*
D10*
G36*
X71616344Y-46712184D02*
G01*
X71640613Y-46715784D01*
X71664411Y-46721745D01*
X71687511Y-46730010D01*
X71709689Y-46740500D01*
X71730733Y-46753113D01*
X71750438Y-46767727D01*
X71768617Y-46784203D01*
X71785093Y-46802382D01*
X71799707Y-46822087D01*
X71812320Y-46843131D01*
X71822810Y-46865309D01*
X71831075Y-46888409D01*
X71837036Y-46912207D01*
X71840636Y-46936476D01*
X71841840Y-46960980D01*
X71841840Y-47460980D01*
X71840636Y-47485484D01*
X71837036Y-47509753D01*
X71831075Y-47533551D01*
X71822810Y-47556651D01*
X71812320Y-47578829D01*
X71799707Y-47599873D01*
X71785093Y-47619578D01*
X71768617Y-47637757D01*
X71750438Y-47654233D01*
X71730733Y-47668847D01*
X71709689Y-47681460D01*
X71687511Y-47691950D01*
X71664411Y-47700215D01*
X71640613Y-47706176D01*
X71616344Y-47709776D01*
X71591840Y-47710980D01*
X69741840Y-47710980D01*
X69717336Y-47709776D01*
X69693067Y-47706176D01*
X69669269Y-47700215D01*
X69646169Y-47691950D01*
X69623991Y-47681460D01*
X69602947Y-47668847D01*
X69583242Y-47654233D01*
X69565063Y-47637757D01*
X69548587Y-47619578D01*
X69533973Y-47599873D01*
X69521360Y-47578829D01*
X69510870Y-47556651D01*
X69502605Y-47533551D01*
X69496644Y-47509753D01*
X69493044Y-47485484D01*
X69491840Y-47460980D01*
X69491840Y-46960980D01*
X69493044Y-46936476D01*
X69496644Y-46912207D01*
X69502605Y-46888409D01*
X69510870Y-46865309D01*
X69521360Y-46843131D01*
X69533973Y-46822087D01*
X69548587Y-46802382D01*
X69565063Y-46784203D01*
X69583242Y-46767727D01*
X69602947Y-46753113D01*
X69623991Y-46740500D01*
X69646169Y-46730010D01*
X69669269Y-46721745D01*
X69693067Y-46715784D01*
X69717336Y-46712184D01*
X69741840Y-46710980D01*
X71591840Y-46710980D01*
X71616344Y-46712184D01*
X71616344Y-46712184D01*
G37*
D11*
X70666840Y-47210980D03*
D10*
G36*
X71616344Y-45442184D02*
G01*
X71640613Y-45445784D01*
X71664411Y-45451745D01*
X71687511Y-45460010D01*
X71709689Y-45470500D01*
X71730733Y-45483113D01*
X71750438Y-45497727D01*
X71768617Y-45514203D01*
X71785093Y-45532382D01*
X71799707Y-45552087D01*
X71812320Y-45573131D01*
X71822810Y-45595309D01*
X71831075Y-45618409D01*
X71837036Y-45642207D01*
X71840636Y-45666476D01*
X71841840Y-45690980D01*
X71841840Y-46190980D01*
X71840636Y-46215484D01*
X71837036Y-46239753D01*
X71831075Y-46263551D01*
X71822810Y-46286651D01*
X71812320Y-46308829D01*
X71799707Y-46329873D01*
X71785093Y-46349578D01*
X71768617Y-46367757D01*
X71750438Y-46384233D01*
X71730733Y-46398847D01*
X71709689Y-46411460D01*
X71687511Y-46421950D01*
X71664411Y-46430215D01*
X71640613Y-46436176D01*
X71616344Y-46439776D01*
X71591840Y-46440980D01*
X69741840Y-46440980D01*
X69717336Y-46439776D01*
X69693067Y-46436176D01*
X69669269Y-46430215D01*
X69646169Y-46421950D01*
X69623991Y-46411460D01*
X69602947Y-46398847D01*
X69583242Y-46384233D01*
X69565063Y-46367757D01*
X69548587Y-46349578D01*
X69533973Y-46329873D01*
X69521360Y-46308829D01*
X69510870Y-46286651D01*
X69502605Y-46263551D01*
X69496644Y-46239753D01*
X69493044Y-46215484D01*
X69491840Y-46190980D01*
X69491840Y-45690980D01*
X69493044Y-45666476D01*
X69496644Y-45642207D01*
X69502605Y-45618409D01*
X69510870Y-45595309D01*
X69521360Y-45573131D01*
X69533973Y-45552087D01*
X69548587Y-45532382D01*
X69565063Y-45514203D01*
X69583242Y-45497727D01*
X69602947Y-45483113D01*
X69623991Y-45470500D01*
X69646169Y-45460010D01*
X69669269Y-45451745D01*
X69693067Y-45445784D01*
X69717336Y-45442184D01*
X69741840Y-45440980D01*
X71591840Y-45440980D01*
X71616344Y-45442184D01*
X71616344Y-45442184D01*
G37*
D11*
X70666840Y-45940980D03*
D10*
G36*
X71616344Y-44172184D02*
G01*
X71640613Y-44175784D01*
X71664411Y-44181745D01*
X71687511Y-44190010D01*
X71709689Y-44200500D01*
X71730733Y-44213113D01*
X71750438Y-44227727D01*
X71768617Y-44244203D01*
X71785093Y-44262382D01*
X71799707Y-44282087D01*
X71812320Y-44303131D01*
X71822810Y-44325309D01*
X71831075Y-44348409D01*
X71837036Y-44372207D01*
X71840636Y-44396476D01*
X71841840Y-44420980D01*
X71841840Y-44920980D01*
X71840636Y-44945484D01*
X71837036Y-44969753D01*
X71831075Y-44993551D01*
X71822810Y-45016651D01*
X71812320Y-45038829D01*
X71799707Y-45059873D01*
X71785093Y-45079578D01*
X71768617Y-45097757D01*
X71750438Y-45114233D01*
X71730733Y-45128847D01*
X71709689Y-45141460D01*
X71687511Y-45151950D01*
X71664411Y-45160215D01*
X71640613Y-45166176D01*
X71616344Y-45169776D01*
X71591840Y-45170980D01*
X69741840Y-45170980D01*
X69717336Y-45169776D01*
X69693067Y-45166176D01*
X69669269Y-45160215D01*
X69646169Y-45151950D01*
X69623991Y-45141460D01*
X69602947Y-45128847D01*
X69583242Y-45114233D01*
X69565063Y-45097757D01*
X69548587Y-45079578D01*
X69533973Y-45059873D01*
X69521360Y-45038829D01*
X69510870Y-45016651D01*
X69502605Y-44993551D01*
X69496644Y-44969753D01*
X69493044Y-44945484D01*
X69491840Y-44920980D01*
X69491840Y-44420980D01*
X69493044Y-44396476D01*
X69496644Y-44372207D01*
X69502605Y-44348409D01*
X69510870Y-44325309D01*
X69521360Y-44303131D01*
X69533973Y-44282087D01*
X69548587Y-44262382D01*
X69565063Y-44244203D01*
X69583242Y-44227727D01*
X69602947Y-44213113D01*
X69623991Y-44200500D01*
X69646169Y-44190010D01*
X69669269Y-44181745D01*
X69693067Y-44175784D01*
X69717336Y-44172184D01*
X69741840Y-44170980D01*
X71591840Y-44170980D01*
X71616344Y-44172184D01*
X71616344Y-44172184D01*
G37*
D11*
X70666840Y-44670980D03*
D10*
G36*
X71616344Y-42902184D02*
G01*
X71640613Y-42905784D01*
X71664411Y-42911745D01*
X71687511Y-42920010D01*
X71709689Y-42930500D01*
X71730733Y-42943113D01*
X71750438Y-42957727D01*
X71768617Y-42974203D01*
X71785093Y-42992382D01*
X71799707Y-43012087D01*
X71812320Y-43033131D01*
X71822810Y-43055309D01*
X71831075Y-43078409D01*
X71837036Y-43102207D01*
X71840636Y-43126476D01*
X71841840Y-43150980D01*
X71841840Y-43650980D01*
X71840636Y-43675484D01*
X71837036Y-43699753D01*
X71831075Y-43723551D01*
X71822810Y-43746651D01*
X71812320Y-43768829D01*
X71799707Y-43789873D01*
X71785093Y-43809578D01*
X71768617Y-43827757D01*
X71750438Y-43844233D01*
X71730733Y-43858847D01*
X71709689Y-43871460D01*
X71687511Y-43881950D01*
X71664411Y-43890215D01*
X71640613Y-43896176D01*
X71616344Y-43899776D01*
X71591840Y-43900980D01*
X69741840Y-43900980D01*
X69717336Y-43899776D01*
X69693067Y-43896176D01*
X69669269Y-43890215D01*
X69646169Y-43881950D01*
X69623991Y-43871460D01*
X69602947Y-43858847D01*
X69583242Y-43844233D01*
X69565063Y-43827757D01*
X69548587Y-43809578D01*
X69533973Y-43789873D01*
X69521360Y-43768829D01*
X69510870Y-43746651D01*
X69502605Y-43723551D01*
X69496644Y-43699753D01*
X69493044Y-43675484D01*
X69491840Y-43650980D01*
X69491840Y-43150980D01*
X69493044Y-43126476D01*
X69496644Y-43102207D01*
X69502605Y-43078409D01*
X69510870Y-43055309D01*
X69521360Y-43033131D01*
X69533973Y-43012087D01*
X69548587Y-42992382D01*
X69565063Y-42974203D01*
X69583242Y-42957727D01*
X69602947Y-42943113D01*
X69623991Y-42930500D01*
X69646169Y-42920010D01*
X69669269Y-42911745D01*
X69693067Y-42905784D01*
X69717336Y-42902184D01*
X69741840Y-42900980D01*
X71591840Y-42900980D01*
X71616344Y-42902184D01*
X71616344Y-42902184D01*
G37*
D11*
X70666840Y-43400980D03*
D10*
G36*
X71616344Y-41632184D02*
G01*
X71640613Y-41635784D01*
X71664411Y-41641745D01*
X71687511Y-41650010D01*
X71709689Y-41660500D01*
X71730733Y-41673113D01*
X71750438Y-41687727D01*
X71768617Y-41704203D01*
X71785093Y-41722382D01*
X71799707Y-41742087D01*
X71812320Y-41763131D01*
X71822810Y-41785309D01*
X71831075Y-41808409D01*
X71837036Y-41832207D01*
X71840636Y-41856476D01*
X71841840Y-41880980D01*
X71841840Y-42380980D01*
X71840636Y-42405484D01*
X71837036Y-42429753D01*
X71831075Y-42453551D01*
X71822810Y-42476651D01*
X71812320Y-42498829D01*
X71799707Y-42519873D01*
X71785093Y-42539578D01*
X71768617Y-42557757D01*
X71750438Y-42574233D01*
X71730733Y-42588847D01*
X71709689Y-42601460D01*
X71687511Y-42611950D01*
X71664411Y-42620215D01*
X71640613Y-42626176D01*
X71616344Y-42629776D01*
X71591840Y-42630980D01*
X69741840Y-42630980D01*
X69717336Y-42629776D01*
X69693067Y-42626176D01*
X69669269Y-42620215D01*
X69646169Y-42611950D01*
X69623991Y-42601460D01*
X69602947Y-42588847D01*
X69583242Y-42574233D01*
X69565063Y-42557757D01*
X69548587Y-42539578D01*
X69533973Y-42519873D01*
X69521360Y-42498829D01*
X69510870Y-42476651D01*
X69502605Y-42453551D01*
X69496644Y-42429753D01*
X69493044Y-42405484D01*
X69491840Y-42380980D01*
X69491840Y-41880980D01*
X69493044Y-41856476D01*
X69496644Y-41832207D01*
X69502605Y-41808409D01*
X69510870Y-41785309D01*
X69521360Y-41763131D01*
X69533973Y-41742087D01*
X69548587Y-41722382D01*
X69565063Y-41704203D01*
X69583242Y-41687727D01*
X69602947Y-41673113D01*
X69623991Y-41660500D01*
X69646169Y-41650010D01*
X69669269Y-41641745D01*
X69693067Y-41635784D01*
X69717336Y-41632184D01*
X69741840Y-41630980D01*
X71591840Y-41630980D01*
X71616344Y-41632184D01*
X71616344Y-41632184D01*
G37*
D11*
X70666840Y-42130980D03*
D10*
G36*
X76566344Y-41632184D02*
G01*
X76590613Y-41635784D01*
X76614411Y-41641745D01*
X76637511Y-41650010D01*
X76659689Y-41660500D01*
X76680733Y-41673113D01*
X76700438Y-41687727D01*
X76718617Y-41704203D01*
X76735093Y-41722382D01*
X76749707Y-41742087D01*
X76762320Y-41763131D01*
X76772810Y-41785309D01*
X76781075Y-41808409D01*
X76787036Y-41832207D01*
X76790636Y-41856476D01*
X76791840Y-41880980D01*
X76791840Y-42380980D01*
X76790636Y-42405484D01*
X76787036Y-42429753D01*
X76781075Y-42453551D01*
X76772810Y-42476651D01*
X76762320Y-42498829D01*
X76749707Y-42519873D01*
X76735093Y-42539578D01*
X76718617Y-42557757D01*
X76700438Y-42574233D01*
X76680733Y-42588847D01*
X76659689Y-42601460D01*
X76637511Y-42611950D01*
X76614411Y-42620215D01*
X76590613Y-42626176D01*
X76566344Y-42629776D01*
X76541840Y-42630980D01*
X74691840Y-42630980D01*
X74667336Y-42629776D01*
X74643067Y-42626176D01*
X74619269Y-42620215D01*
X74596169Y-42611950D01*
X74573991Y-42601460D01*
X74552947Y-42588847D01*
X74533242Y-42574233D01*
X74515063Y-42557757D01*
X74498587Y-42539578D01*
X74483973Y-42519873D01*
X74471360Y-42498829D01*
X74460870Y-42476651D01*
X74452605Y-42453551D01*
X74446644Y-42429753D01*
X74443044Y-42405484D01*
X74441840Y-42380980D01*
X74441840Y-41880980D01*
X74443044Y-41856476D01*
X74446644Y-41832207D01*
X74452605Y-41808409D01*
X74460870Y-41785309D01*
X74471360Y-41763131D01*
X74483973Y-41742087D01*
X74498587Y-41722382D01*
X74515063Y-41704203D01*
X74533242Y-41687727D01*
X74552947Y-41673113D01*
X74573991Y-41660500D01*
X74596169Y-41650010D01*
X74619269Y-41641745D01*
X74643067Y-41635784D01*
X74667336Y-41632184D01*
X74691840Y-41630980D01*
X76541840Y-41630980D01*
X76566344Y-41632184D01*
X76566344Y-41632184D01*
G37*
D11*
X75616840Y-42130980D03*
D10*
G36*
X76566344Y-42902184D02*
G01*
X76590613Y-42905784D01*
X76614411Y-42911745D01*
X76637511Y-42920010D01*
X76659689Y-42930500D01*
X76680733Y-42943113D01*
X76700438Y-42957727D01*
X76718617Y-42974203D01*
X76735093Y-42992382D01*
X76749707Y-43012087D01*
X76762320Y-43033131D01*
X76772810Y-43055309D01*
X76781075Y-43078409D01*
X76787036Y-43102207D01*
X76790636Y-43126476D01*
X76791840Y-43150980D01*
X76791840Y-43650980D01*
X76790636Y-43675484D01*
X76787036Y-43699753D01*
X76781075Y-43723551D01*
X76772810Y-43746651D01*
X76762320Y-43768829D01*
X76749707Y-43789873D01*
X76735093Y-43809578D01*
X76718617Y-43827757D01*
X76700438Y-43844233D01*
X76680733Y-43858847D01*
X76659689Y-43871460D01*
X76637511Y-43881950D01*
X76614411Y-43890215D01*
X76590613Y-43896176D01*
X76566344Y-43899776D01*
X76541840Y-43900980D01*
X74691840Y-43900980D01*
X74667336Y-43899776D01*
X74643067Y-43896176D01*
X74619269Y-43890215D01*
X74596169Y-43881950D01*
X74573991Y-43871460D01*
X74552947Y-43858847D01*
X74533242Y-43844233D01*
X74515063Y-43827757D01*
X74498587Y-43809578D01*
X74483973Y-43789873D01*
X74471360Y-43768829D01*
X74460870Y-43746651D01*
X74452605Y-43723551D01*
X74446644Y-43699753D01*
X74443044Y-43675484D01*
X74441840Y-43650980D01*
X74441840Y-43150980D01*
X74443044Y-43126476D01*
X74446644Y-43102207D01*
X74452605Y-43078409D01*
X74460870Y-43055309D01*
X74471360Y-43033131D01*
X74483973Y-43012087D01*
X74498587Y-42992382D01*
X74515063Y-42974203D01*
X74533242Y-42957727D01*
X74552947Y-42943113D01*
X74573991Y-42930500D01*
X74596169Y-42920010D01*
X74619269Y-42911745D01*
X74643067Y-42905784D01*
X74667336Y-42902184D01*
X74691840Y-42900980D01*
X76541840Y-42900980D01*
X76566344Y-42902184D01*
X76566344Y-42902184D01*
G37*
D11*
X75616840Y-43400980D03*
D10*
G36*
X76566344Y-44172184D02*
G01*
X76590613Y-44175784D01*
X76614411Y-44181745D01*
X76637511Y-44190010D01*
X76659689Y-44200500D01*
X76680733Y-44213113D01*
X76700438Y-44227727D01*
X76718617Y-44244203D01*
X76735093Y-44262382D01*
X76749707Y-44282087D01*
X76762320Y-44303131D01*
X76772810Y-44325309D01*
X76781075Y-44348409D01*
X76787036Y-44372207D01*
X76790636Y-44396476D01*
X76791840Y-44420980D01*
X76791840Y-44920980D01*
X76790636Y-44945484D01*
X76787036Y-44969753D01*
X76781075Y-44993551D01*
X76772810Y-45016651D01*
X76762320Y-45038829D01*
X76749707Y-45059873D01*
X76735093Y-45079578D01*
X76718617Y-45097757D01*
X76700438Y-45114233D01*
X76680733Y-45128847D01*
X76659689Y-45141460D01*
X76637511Y-45151950D01*
X76614411Y-45160215D01*
X76590613Y-45166176D01*
X76566344Y-45169776D01*
X76541840Y-45170980D01*
X74691840Y-45170980D01*
X74667336Y-45169776D01*
X74643067Y-45166176D01*
X74619269Y-45160215D01*
X74596169Y-45151950D01*
X74573991Y-45141460D01*
X74552947Y-45128847D01*
X74533242Y-45114233D01*
X74515063Y-45097757D01*
X74498587Y-45079578D01*
X74483973Y-45059873D01*
X74471360Y-45038829D01*
X74460870Y-45016651D01*
X74452605Y-44993551D01*
X74446644Y-44969753D01*
X74443044Y-44945484D01*
X74441840Y-44920980D01*
X74441840Y-44420980D01*
X74443044Y-44396476D01*
X74446644Y-44372207D01*
X74452605Y-44348409D01*
X74460870Y-44325309D01*
X74471360Y-44303131D01*
X74483973Y-44282087D01*
X74498587Y-44262382D01*
X74515063Y-44244203D01*
X74533242Y-44227727D01*
X74552947Y-44213113D01*
X74573991Y-44200500D01*
X74596169Y-44190010D01*
X74619269Y-44181745D01*
X74643067Y-44175784D01*
X74667336Y-44172184D01*
X74691840Y-44170980D01*
X76541840Y-44170980D01*
X76566344Y-44172184D01*
X76566344Y-44172184D01*
G37*
D11*
X75616840Y-44670980D03*
D10*
G36*
X76566344Y-45442184D02*
G01*
X76590613Y-45445784D01*
X76614411Y-45451745D01*
X76637511Y-45460010D01*
X76659689Y-45470500D01*
X76680733Y-45483113D01*
X76700438Y-45497727D01*
X76718617Y-45514203D01*
X76735093Y-45532382D01*
X76749707Y-45552087D01*
X76762320Y-45573131D01*
X76772810Y-45595309D01*
X76781075Y-45618409D01*
X76787036Y-45642207D01*
X76790636Y-45666476D01*
X76791840Y-45690980D01*
X76791840Y-46190980D01*
X76790636Y-46215484D01*
X76787036Y-46239753D01*
X76781075Y-46263551D01*
X76772810Y-46286651D01*
X76762320Y-46308829D01*
X76749707Y-46329873D01*
X76735093Y-46349578D01*
X76718617Y-46367757D01*
X76700438Y-46384233D01*
X76680733Y-46398847D01*
X76659689Y-46411460D01*
X76637511Y-46421950D01*
X76614411Y-46430215D01*
X76590613Y-46436176D01*
X76566344Y-46439776D01*
X76541840Y-46440980D01*
X74691840Y-46440980D01*
X74667336Y-46439776D01*
X74643067Y-46436176D01*
X74619269Y-46430215D01*
X74596169Y-46421950D01*
X74573991Y-46411460D01*
X74552947Y-46398847D01*
X74533242Y-46384233D01*
X74515063Y-46367757D01*
X74498587Y-46349578D01*
X74483973Y-46329873D01*
X74471360Y-46308829D01*
X74460870Y-46286651D01*
X74452605Y-46263551D01*
X74446644Y-46239753D01*
X74443044Y-46215484D01*
X74441840Y-46190980D01*
X74441840Y-45690980D01*
X74443044Y-45666476D01*
X74446644Y-45642207D01*
X74452605Y-45618409D01*
X74460870Y-45595309D01*
X74471360Y-45573131D01*
X74483973Y-45552087D01*
X74498587Y-45532382D01*
X74515063Y-45514203D01*
X74533242Y-45497727D01*
X74552947Y-45483113D01*
X74573991Y-45470500D01*
X74596169Y-45460010D01*
X74619269Y-45451745D01*
X74643067Y-45445784D01*
X74667336Y-45442184D01*
X74691840Y-45440980D01*
X76541840Y-45440980D01*
X76566344Y-45442184D01*
X76566344Y-45442184D01*
G37*
D11*
X75616840Y-45940980D03*
D10*
G36*
X76566344Y-46712184D02*
G01*
X76590613Y-46715784D01*
X76614411Y-46721745D01*
X76637511Y-46730010D01*
X76659689Y-46740500D01*
X76680733Y-46753113D01*
X76700438Y-46767727D01*
X76718617Y-46784203D01*
X76735093Y-46802382D01*
X76749707Y-46822087D01*
X76762320Y-46843131D01*
X76772810Y-46865309D01*
X76781075Y-46888409D01*
X76787036Y-46912207D01*
X76790636Y-46936476D01*
X76791840Y-46960980D01*
X76791840Y-47460980D01*
X76790636Y-47485484D01*
X76787036Y-47509753D01*
X76781075Y-47533551D01*
X76772810Y-47556651D01*
X76762320Y-47578829D01*
X76749707Y-47599873D01*
X76735093Y-47619578D01*
X76718617Y-47637757D01*
X76700438Y-47654233D01*
X76680733Y-47668847D01*
X76659689Y-47681460D01*
X76637511Y-47691950D01*
X76614411Y-47700215D01*
X76590613Y-47706176D01*
X76566344Y-47709776D01*
X76541840Y-47710980D01*
X74691840Y-47710980D01*
X74667336Y-47709776D01*
X74643067Y-47706176D01*
X74619269Y-47700215D01*
X74596169Y-47691950D01*
X74573991Y-47681460D01*
X74552947Y-47668847D01*
X74533242Y-47654233D01*
X74515063Y-47637757D01*
X74498587Y-47619578D01*
X74483973Y-47599873D01*
X74471360Y-47578829D01*
X74460870Y-47556651D01*
X74452605Y-47533551D01*
X74446644Y-47509753D01*
X74443044Y-47485484D01*
X74441840Y-47460980D01*
X74441840Y-46960980D01*
X74443044Y-46936476D01*
X74446644Y-46912207D01*
X74452605Y-46888409D01*
X74460870Y-46865309D01*
X74471360Y-46843131D01*
X74483973Y-46822087D01*
X74498587Y-46802382D01*
X74515063Y-46784203D01*
X74533242Y-46767727D01*
X74552947Y-46753113D01*
X74573991Y-46740500D01*
X74596169Y-46730010D01*
X74619269Y-46721745D01*
X74643067Y-46715784D01*
X74667336Y-46712184D01*
X74691840Y-46710980D01*
X76541840Y-46710980D01*
X76566344Y-46712184D01*
X76566344Y-46712184D01*
G37*
D11*
X75616840Y-47210980D03*
D10*
G36*
X76566344Y-47982184D02*
G01*
X76590613Y-47985784D01*
X76614411Y-47991745D01*
X76637511Y-48000010D01*
X76659689Y-48010500D01*
X76680733Y-48023113D01*
X76700438Y-48037727D01*
X76718617Y-48054203D01*
X76735093Y-48072382D01*
X76749707Y-48092087D01*
X76762320Y-48113131D01*
X76772810Y-48135309D01*
X76781075Y-48158409D01*
X76787036Y-48182207D01*
X76790636Y-48206476D01*
X76791840Y-48230980D01*
X76791840Y-48730980D01*
X76790636Y-48755484D01*
X76787036Y-48779753D01*
X76781075Y-48803551D01*
X76772810Y-48826651D01*
X76762320Y-48848829D01*
X76749707Y-48869873D01*
X76735093Y-48889578D01*
X76718617Y-48907757D01*
X76700438Y-48924233D01*
X76680733Y-48938847D01*
X76659689Y-48951460D01*
X76637511Y-48961950D01*
X76614411Y-48970215D01*
X76590613Y-48976176D01*
X76566344Y-48979776D01*
X76541840Y-48980980D01*
X74691840Y-48980980D01*
X74667336Y-48979776D01*
X74643067Y-48976176D01*
X74619269Y-48970215D01*
X74596169Y-48961950D01*
X74573991Y-48951460D01*
X74552947Y-48938847D01*
X74533242Y-48924233D01*
X74515063Y-48907757D01*
X74498587Y-48889578D01*
X74483973Y-48869873D01*
X74471360Y-48848829D01*
X74460870Y-48826651D01*
X74452605Y-48803551D01*
X74446644Y-48779753D01*
X74443044Y-48755484D01*
X74441840Y-48730980D01*
X74441840Y-48230980D01*
X74443044Y-48206476D01*
X74446644Y-48182207D01*
X74452605Y-48158409D01*
X74460870Y-48135309D01*
X74471360Y-48113131D01*
X74483973Y-48092087D01*
X74498587Y-48072382D01*
X74515063Y-48054203D01*
X74533242Y-48037727D01*
X74552947Y-48023113D01*
X74573991Y-48010500D01*
X74596169Y-48000010D01*
X74619269Y-47991745D01*
X74643067Y-47985784D01*
X74667336Y-47982184D01*
X74691840Y-47980980D01*
X76541840Y-47980980D01*
X76566344Y-47982184D01*
X76566344Y-47982184D01*
G37*
D11*
X75616840Y-48480980D03*
D10*
G36*
X76566344Y-49252184D02*
G01*
X76590613Y-49255784D01*
X76614411Y-49261745D01*
X76637511Y-49270010D01*
X76659689Y-49280500D01*
X76680733Y-49293113D01*
X76700438Y-49307727D01*
X76718617Y-49324203D01*
X76735093Y-49342382D01*
X76749707Y-49362087D01*
X76762320Y-49383131D01*
X76772810Y-49405309D01*
X76781075Y-49428409D01*
X76787036Y-49452207D01*
X76790636Y-49476476D01*
X76791840Y-49500980D01*
X76791840Y-50000980D01*
X76790636Y-50025484D01*
X76787036Y-50049753D01*
X76781075Y-50073551D01*
X76772810Y-50096651D01*
X76762320Y-50118829D01*
X76749707Y-50139873D01*
X76735093Y-50159578D01*
X76718617Y-50177757D01*
X76700438Y-50194233D01*
X76680733Y-50208847D01*
X76659689Y-50221460D01*
X76637511Y-50231950D01*
X76614411Y-50240215D01*
X76590613Y-50246176D01*
X76566344Y-50249776D01*
X76541840Y-50250980D01*
X74691840Y-50250980D01*
X74667336Y-50249776D01*
X74643067Y-50246176D01*
X74619269Y-50240215D01*
X74596169Y-50231950D01*
X74573991Y-50221460D01*
X74552947Y-50208847D01*
X74533242Y-50194233D01*
X74515063Y-50177757D01*
X74498587Y-50159578D01*
X74483973Y-50139873D01*
X74471360Y-50118829D01*
X74460870Y-50096651D01*
X74452605Y-50073551D01*
X74446644Y-50049753D01*
X74443044Y-50025484D01*
X74441840Y-50000980D01*
X74441840Y-49500980D01*
X74443044Y-49476476D01*
X74446644Y-49452207D01*
X74452605Y-49428409D01*
X74460870Y-49405309D01*
X74471360Y-49383131D01*
X74483973Y-49362087D01*
X74498587Y-49342382D01*
X74515063Y-49324203D01*
X74533242Y-49307727D01*
X74552947Y-49293113D01*
X74573991Y-49280500D01*
X74596169Y-49270010D01*
X74619269Y-49261745D01*
X74643067Y-49255784D01*
X74667336Y-49252184D01*
X74691840Y-49250980D01*
X76541840Y-49250980D01*
X76566344Y-49252184D01*
X76566344Y-49252184D01*
G37*
D11*
X75616840Y-49750980D03*
D10*
G36*
X91156104Y-43671804D02*
G01*
X91180373Y-43675404D01*
X91204171Y-43681365D01*
X91227271Y-43689630D01*
X91249449Y-43700120D01*
X91270493Y-43712733D01*
X91290198Y-43727347D01*
X91308377Y-43743823D01*
X91324853Y-43762002D01*
X91339467Y-43781707D01*
X91352080Y-43802751D01*
X91362570Y-43824929D01*
X91370835Y-43848029D01*
X91376796Y-43871827D01*
X91380396Y-43896096D01*
X91381600Y-43920600D01*
X91381600Y-44420600D01*
X91380396Y-44445104D01*
X91376796Y-44469373D01*
X91370835Y-44493171D01*
X91362570Y-44516271D01*
X91352080Y-44538449D01*
X91339467Y-44559493D01*
X91324853Y-44579198D01*
X91308377Y-44597377D01*
X91290198Y-44613853D01*
X91270493Y-44628467D01*
X91249449Y-44641080D01*
X91227271Y-44651570D01*
X91204171Y-44659835D01*
X91180373Y-44665796D01*
X91156104Y-44669396D01*
X91131600Y-44670600D01*
X89281600Y-44670600D01*
X89257096Y-44669396D01*
X89232827Y-44665796D01*
X89209029Y-44659835D01*
X89185929Y-44651570D01*
X89163751Y-44641080D01*
X89142707Y-44628467D01*
X89123002Y-44613853D01*
X89104823Y-44597377D01*
X89088347Y-44579198D01*
X89073733Y-44559493D01*
X89061120Y-44538449D01*
X89050630Y-44516271D01*
X89042365Y-44493171D01*
X89036404Y-44469373D01*
X89032804Y-44445104D01*
X89031600Y-44420600D01*
X89031600Y-43920600D01*
X89032804Y-43896096D01*
X89036404Y-43871827D01*
X89042365Y-43848029D01*
X89050630Y-43824929D01*
X89061120Y-43802751D01*
X89073733Y-43781707D01*
X89088347Y-43762002D01*
X89104823Y-43743823D01*
X89123002Y-43727347D01*
X89142707Y-43712733D01*
X89163751Y-43700120D01*
X89185929Y-43689630D01*
X89209029Y-43681365D01*
X89232827Y-43675404D01*
X89257096Y-43671804D01*
X89281600Y-43670600D01*
X91131600Y-43670600D01*
X91156104Y-43671804D01*
X91156104Y-43671804D01*
G37*
D11*
X90206600Y-44170600D03*
D10*
G36*
X91156104Y-44941804D02*
G01*
X91180373Y-44945404D01*
X91204171Y-44951365D01*
X91227271Y-44959630D01*
X91249449Y-44970120D01*
X91270493Y-44982733D01*
X91290198Y-44997347D01*
X91308377Y-45013823D01*
X91324853Y-45032002D01*
X91339467Y-45051707D01*
X91352080Y-45072751D01*
X91362570Y-45094929D01*
X91370835Y-45118029D01*
X91376796Y-45141827D01*
X91380396Y-45166096D01*
X91381600Y-45190600D01*
X91381600Y-45690600D01*
X91380396Y-45715104D01*
X91376796Y-45739373D01*
X91370835Y-45763171D01*
X91362570Y-45786271D01*
X91352080Y-45808449D01*
X91339467Y-45829493D01*
X91324853Y-45849198D01*
X91308377Y-45867377D01*
X91290198Y-45883853D01*
X91270493Y-45898467D01*
X91249449Y-45911080D01*
X91227271Y-45921570D01*
X91204171Y-45929835D01*
X91180373Y-45935796D01*
X91156104Y-45939396D01*
X91131600Y-45940600D01*
X89281600Y-45940600D01*
X89257096Y-45939396D01*
X89232827Y-45935796D01*
X89209029Y-45929835D01*
X89185929Y-45921570D01*
X89163751Y-45911080D01*
X89142707Y-45898467D01*
X89123002Y-45883853D01*
X89104823Y-45867377D01*
X89088347Y-45849198D01*
X89073733Y-45829493D01*
X89061120Y-45808449D01*
X89050630Y-45786271D01*
X89042365Y-45763171D01*
X89036404Y-45739373D01*
X89032804Y-45715104D01*
X89031600Y-45690600D01*
X89031600Y-45190600D01*
X89032804Y-45166096D01*
X89036404Y-45141827D01*
X89042365Y-45118029D01*
X89050630Y-45094929D01*
X89061120Y-45072751D01*
X89073733Y-45051707D01*
X89088347Y-45032002D01*
X89104823Y-45013823D01*
X89123002Y-44997347D01*
X89142707Y-44982733D01*
X89163751Y-44970120D01*
X89185929Y-44959630D01*
X89209029Y-44951365D01*
X89232827Y-44945404D01*
X89257096Y-44941804D01*
X89281600Y-44940600D01*
X91131600Y-44940600D01*
X91156104Y-44941804D01*
X91156104Y-44941804D01*
G37*
D11*
X90206600Y-45440600D03*
D10*
G36*
X91156104Y-46211804D02*
G01*
X91180373Y-46215404D01*
X91204171Y-46221365D01*
X91227271Y-46229630D01*
X91249449Y-46240120D01*
X91270493Y-46252733D01*
X91290198Y-46267347D01*
X91308377Y-46283823D01*
X91324853Y-46302002D01*
X91339467Y-46321707D01*
X91352080Y-46342751D01*
X91362570Y-46364929D01*
X91370835Y-46388029D01*
X91376796Y-46411827D01*
X91380396Y-46436096D01*
X91381600Y-46460600D01*
X91381600Y-46960600D01*
X91380396Y-46985104D01*
X91376796Y-47009373D01*
X91370835Y-47033171D01*
X91362570Y-47056271D01*
X91352080Y-47078449D01*
X91339467Y-47099493D01*
X91324853Y-47119198D01*
X91308377Y-47137377D01*
X91290198Y-47153853D01*
X91270493Y-47168467D01*
X91249449Y-47181080D01*
X91227271Y-47191570D01*
X91204171Y-47199835D01*
X91180373Y-47205796D01*
X91156104Y-47209396D01*
X91131600Y-47210600D01*
X89281600Y-47210600D01*
X89257096Y-47209396D01*
X89232827Y-47205796D01*
X89209029Y-47199835D01*
X89185929Y-47191570D01*
X89163751Y-47181080D01*
X89142707Y-47168467D01*
X89123002Y-47153853D01*
X89104823Y-47137377D01*
X89088347Y-47119198D01*
X89073733Y-47099493D01*
X89061120Y-47078449D01*
X89050630Y-47056271D01*
X89042365Y-47033171D01*
X89036404Y-47009373D01*
X89032804Y-46985104D01*
X89031600Y-46960600D01*
X89031600Y-46460600D01*
X89032804Y-46436096D01*
X89036404Y-46411827D01*
X89042365Y-46388029D01*
X89050630Y-46364929D01*
X89061120Y-46342751D01*
X89073733Y-46321707D01*
X89088347Y-46302002D01*
X89104823Y-46283823D01*
X89123002Y-46267347D01*
X89142707Y-46252733D01*
X89163751Y-46240120D01*
X89185929Y-46229630D01*
X89209029Y-46221365D01*
X89232827Y-46215404D01*
X89257096Y-46211804D01*
X89281600Y-46210600D01*
X91131600Y-46210600D01*
X91156104Y-46211804D01*
X91156104Y-46211804D01*
G37*
D11*
X90206600Y-46710600D03*
D10*
G36*
X91156104Y-47481804D02*
G01*
X91180373Y-47485404D01*
X91204171Y-47491365D01*
X91227271Y-47499630D01*
X91249449Y-47510120D01*
X91270493Y-47522733D01*
X91290198Y-47537347D01*
X91308377Y-47553823D01*
X91324853Y-47572002D01*
X91339467Y-47591707D01*
X91352080Y-47612751D01*
X91362570Y-47634929D01*
X91370835Y-47658029D01*
X91376796Y-47681827D01*
X91380396Y-47706096D01*
X91381600Y-47730600D01*
X91381600Y-48230600D01*
X91380396Y-48255104D01*
X91376796Y-48279373D01*
X91370835Y-48303171D01*
X91362570Y-48326271D01*
X91352080Y-48348449D01*
X91339467Y-48369493D01*
X91324853Y-48389198D01*
X91308377Y-48407377D01*
X91290198Y-48423853D01*
X91270493Y-48438467D01*
X91249449Y-48451080D01*
X91227271Y-48461570D01*
X91204171Y-48469835D01*
X91180373Y-48475796D01*
X91156104Y-48479396D01*
X91131600Y-48480600D01*
X89281600Y-48480600D01*
X89257096Y-48479396D01*
X89232827Y-48475796D01*
X89209029Y-48469835D01*
X89185929Y-48461570D01*
X89163751Y-48451080D01*
X89142707Y-48438467D01*
X89123002Y-48423853D01*
X89104823Y-48407377D01*
X89088347Y-48389198D01*
X89073733Y-48369493D01*
X89061120Y-48348449D01*
X89050630Y-48326271D01*
X89042365Y-48303171D01*
X89036404Y-48279373D01*
X89032804Y-48255104D01*
X89031600Y-48230600D01*
X89031600Y-47730600D01*
X89032804Y-47706096D01*
X89036404Y-47681827D01*
X89042365Y-47658029D01*
X89050630Y-47634929D01*
X89061120Y-47612751D01*
X89073733Y-47591707D01*
X89088347Y-47572002D01*
X89104823Y-47553823D01*
X89123002Y-47537347D01*
X89142707Y-47522733D01*
X89163751Y-47510120D01*
X89185929Y-47499630D01*
X89209029Y-47491365D01*
X89232827Y-47485404D01*
X89257096Y-47481804D01*
X89281600Y-47480600D01*
X91131600Y-47480600D01*
X91156104Y-47481804D01*
X91156104Y-47481804D01*
G37*
D11*
X90206600Y-47980600D03*
D10*
G36*
X91156104Y-48751804D02*
G01*
X91180373Y-48755404D01*
X91204171Y-48761365D01*
X91227271Y-48769630D01*
X91249449Y-48780120D01*
X91270493Y-48792733D01*
X91290198Y-48807347D01*
X91308377Y-48823823D01*
X91324853Y-48842002D01*
X91339467Y-48861707D01*
X91352080Y-48882751D01*
X91362570Y-48904929D01*
X91370835Y-48928029D01*
X91376796Y-48951827D01*
X91380396Y-48976096D01*
X91381600Y-49000600D01*
X91381600Y-49500600D01*
X91380396Y-49525104D01*
X91376796Y-49549373D01*
X91370835Y-49573171D01*
X91362570Y-49596271D01*
X91352080Y-49618449D01*
X91339467Y-49639493D01*
X91324853Y-49659198D01*
X91308377Y-49677377D01*
X91290198Y-49693853D01*
X91270493Y-49708467D01*
X91249449Y-49721080D01*
X91227271Y-49731570D01*
X91204171Y-49739835D01*
X91180373Y-49745796D01*
X91156104Y-49749396D01*
X91131600Y-49750600D01*
X89281600Y-49750600D01*
X89257096Y-49749396D01*
X89232827Y-49745796D01*
X89209029Y-49739835D01*
X89185929Y-49731570D01*
X89163751Y-49721080D01*
X89142707Y-49708467D01*
X89123002Y-49693853D01*
X89104823Y-49677377D01*
X89088347Y-49659198D01*
X89073733Y-49639493D01*
X89061120Y-49618449D01*
X89050630Y-49596271D01*
X89042365Y-49573171D01*
X89036404Y-49549373D01*
X89032804Y-49525104D01*
X89031600Y-49500600D01*
X89031600Y-49000600D01*
X89032804Y-48976096D01*
X89036404Y-48951827D01*
X89042365Y-48928029D01*
X89050630Y-48904929D01*
X89061120Y-48882751D01*
X89073733Y-48861707D01*
X89088347Y-48842002D01*
X89104823Y-48823823D01*
X89123002Y-48807347D01*
X89142707Y-48792733D01*
X89163751Y-48780120D01*
X89185929Y-48769630D01*
X89209029Y-48761365D01*
X89232827Y-48755404D01*
X89257096Y-48751804D01*
X89281600Y-48750600D01*
X91131600Y-48750600D01*
X91156104Y-48751804D01*
X91156104Y-48751804D01*
G37*
D11*
X90206600Y-49250600D03*
D10*
G36*
X91156104Y-50021804D02*
G01*
X91180373Y-50025404D01*
X91204171Y-50031365D01*
X91227271Y-50039630D01*
X91249449Y-50050120D01*
X91270493Y-50062733D01*
X91290198Y-50077347D01*
X91308377Y-50093823D01*
X91324853Y-50112002D01*
X91339467Y-50131707D01*
X91352080Y-50152751D01*
X91362570Y-50174929D01*
X91370835Y-50198029D01*
X91376796Y-50221827D01*
X91380396Y-50246096D01*
X91381600Y-50270600D01*
X91381600Y-50770600D01*
X91380396Y-50795104D01*
X91376796Y-50819373D01*
X91370835Y-50843171D01*
X91362570Y-50866271D01*
X91352080Y-50888449D01*
X91339467Y-50909493D01*
X91324853Y-50929198D01*
X91308377Y-50947377D01*
X91290198Y-50963853D01*
X91270493Y-50978467D01*
X91249449Y-50991080D01*
X91227271Y-51001570D01*
X91204171Y-51009835D01*
X91180373Y-51015796D01*
X91156104Y-51019396D01*
X91131600Y-51020600D01*
X89281600Y-51020600D01*
X89257096Y-51019396D01*
X89232827Y-51015796D01*
X89209029Y-51009835D01*
X89185929Y-51001570D01*
X89163751Y-50991080D01*
X89142707Y-50978467D01*
X89123002Y-50963853D01*
X89104823Y-50947377D01*
X89088347Y-50929198D01*
X89073733Y-50909493D01*
X89061120Y-50888449D01*
X89050630Y-50866271D01*
X89042365Y-50843171D01*
X89036404Y-50819373D01*
X89032804Y-50795104D01*
X89031600Y-50770600D01*
X89031600Y-50270600D01*
X89032804Y-50246096D01*
X89036404Y-50221827D01*
X89042365Y-50198029D01*
X89050630Y-50174929D01*
X89061120Y-50152751D01*
X89073733Y-50131707D01*
X89088347Y-50112002D01*
X89104823Y-50093823D01*
X89123002Y-50077347D01*
X89142707Y-50062733D01*
X89163751Y-50050120D01*
X89185929Y-50039630D01*
X89209029Y-50031365D01*
X89232827Y-50025404D01*
X89257096Y-50021804D01*
X89281600Y-50020600D01*
X91131600Y-50020600D01*
X91156104Y-50021804D01*
X91156104Y-50021804D01*
G37*
D11*
X90206600Y-50520600D03*
D10*
G36*
X91156104Y-51291804D02*
G01*
X91180373Y-51295404D01*
X91204171Y-51301365D01*
X91227271Y-51309630D01*
X91249449Y-51320120D01*
X91270493Y-51332733D01*
X91290198Y-51347347D01*
X91308377Y-51363823D01*
X91324853Y-51382002D01*
X91339467Y-51401707D01*
X91352080Y-51422751D01*
X91362570Y-51444929D01*
X91370835Y-51468029D01*
X91376796Y-51491827D01*
X91380396Y-51516096D01*
X91381600Y-51540600D01*
X91381600Y-52040600D01*
X91380396Y-52065104D01*
X91376796Y-52089373D01*
X91370835Y-52113171D01*
X91362570Y-52136271D01*
X91352080Y-52158449D01*
X91339467Y-52179493D01*
X91324853Y-52199198D01*
X91308377Y-52217377D01*
X91290198Y-52233853D01*
X91270493Y-52248467D01*
X91249449Y-52261080D01*
X91227271Y-52271570D01*
X91204171Y-52279835D01*
X91180373Y-52285796D01*
X91156104Y-52289396D01*
X91131600Y-52290600D01*
X89281600Y-52290600D01*
X89257096Y-52289396D01*
X89232827Y-52285796D01*
X89209029Y-52279835D01*
X89185929Y-52271570D01*
X89163751Y-52261080D01*
X89142707Y-52248467D01*
X89123002Y-52233853D01*
X89104823Y-52217377D01*
X89088347Y-52199198D01*
X89073733Y-52179493D01*
X89061120Y-52158449D01*
X89050630Y-52136271D01*
X89042365Y-52113171D01*
X89036404Y-52089373D01*
X89032804Y-52065104D01*
X89031600Y-52040600D01*
X89031600Y-51540600D01*
X89032804Y-51516096D01*
X89036404Y-51491827D01*
X89042365Y-51468029D01*
X89050630Y-51444929D01*
X89061120Y-51422751D01*
X89073733Y-51401707D01*
X89088347Y-51382002D01*
X89104823Y-51363823D01*
X89123002Y-51347347D01*
X89142707Y-51332733D01*
X89163751Y-51320120D01*
X89185929Y-51309630D01*
X89209029Y-51301365D01*
X89232827Y-51295404D01*
X89257096Y-51291804D01*
X89281600Y-51290600D01*
X91131600Y-51290600D01*
X91156104Y-51291804D01*
X91156104Y-51291804D01*
G37*
D11*
X90206600Y-51790600D03*
D10*
G36*
X86206104Y-51291804D02*
G01*
X86230373Y-51295404D01*
X86254171Y-51301365D01*
X86277271Y-51309630D01*
X86299449Y-51320120D01*
X86320493Y-51332733D01*
X86340198Y-51347347D01*
X86358377Y-51363823D01*
X86374853Y-51382002D01*
X86389467Y-51401707D01*
X86402080Y-51422751D01*
X86412570Y-51444929D01*
X86420835Y-51468029D01*
X86426796Y-51491827D01*
X86430396Y-51516096D01*
X86431600Y-51540600D01*
X86431600Y-52040600D01*
X86430396Y-52065104D01*
X86426796Y-52089373D01*
X86420835Y-52113171D01*
X86412570Y-52136271D01*
X86402080Y-52158449D01*
X86389467Y-52179493D01*
X86374853Y-52199198D01*
X86358377Y-52217377D01*
X86340198Y-52233853D01*
X86320493Y-52248467D01*
X86299449Y-52261080D01*
X86277271Y-52271570D01*
X86254171Y-52279835D01*
X86230373Y-52285796D01*
X86206104Y-52289396D01*
X86181600Y-52290600D01*
X84331600Y-52290600D01*
X84307096Y-52289396D01*
X84282827Y-52285796D01*
X84259029Y-52279835D01*
X84235929Y-52271570D01*
X84213751Y-52261080D01*
X84192707Y-52248467D01*
X84173002Y-52233853D01*
X84154823Y-52217377D01*
X84138347Y-52199198D01*
X84123733Y-52179493D01*
X84111120Y-52158449D01*
X84100630Y-52136271D01*
X84092365Y-52113171D01*
X84086404Y-52089373D01*
X84082804Y-52065104D01*
X84081600Y-52040600D01*
X84081600Y-51540600D01*
X84082804Y-51516096D01*
X84086404Y-51491827D01*
X84092365Y-51468029D01*
X84100630Y-51444929D01*
X84111120Y-51422751D01*
X84123733Y-51401707D01*
X84138347Y-51382002D01*
X84154823Y-51363823D01*
X84173002Y-51347347D01*
X84192707Y-51332733D01*
X84213751Y-51320120D01*
X84235929Y-51309630D01*
X84259029Y-51301365D01*
X84282827Y-51295404D01*
X84307096Y-51291804D01*
X84331600Y-51290600D01*
X86181600Y-51290600D01*
X86206104Y-51291804D01*
X86206104Y-51291804D01*
G37*
D11*
X85256600Y-51790600D03*
D10*
G36*
X86206104Y-50021804D02*
G01*
X86230373Y-50025404D01*
X86254171Y-50031365D01*
X86277271Y-50039630D01*
X86299449Y-50050120D01*
X86320493Y-50062733D01*
X86340198Y-50077347D01*
X86358377Y-50093823D01*
X86374853Y-50112002D01*
X86389467Y-50131707D01*
X86402080Y-50152751D01*
X86412570Y-50174929D01*
X86420835Y-50198029D01*
X86426796Y-50221827D01*
X86430396Y-50246096D01*
X86431600Y-50270600D01*
X86431600Y-50770600D01*
X86430396Y-50795104D01*
X86426796Y-50819373D01*
X86420835Y-50843171D01*
X86412570Y-50866271D01*
X86402080Y-50888449D01*
X86389467Y-50909493D01*
X86374853Y-50929198D01*
X86358377Y-50947377D01*
X86340198Y-50963853D01*
X86320493Y-50978467D01*
X86299449Y-50991080D01*
X86277271Y-51001570D01*
X86254171Y-51009835D01*
X86230373Y-51015796D01*
X86206104Y-51019396D01*
X86181600Y-51020600D01*
X84331600Y-51020600D01*
X84307096Y-51019396D01*
X84282827Y-51015796D01*
X84259029Y-51009835D01*
X84235929Y-51001570D01*
X84213751Y-50991080D01*
X84192707Y-50978467D01*
X84173002Y-50963853D01*
X84154823Y-50947377D01*
X84138347Y-50929198D01*
X84123733Y-50909493D01*
X84111120Y-50888449D01*
X84100630Y-50866271D01*
X84092365Y-50843171D01*
X84086404Y-50819373D01*
X84082804Y-50795104D01*
X84081600Y-50770600D01*
X84081600Y-50270600D01*
X84082804Y-50246096D01*
X84086404Y-50221827D01*
X84092365Y-50198029D01*
X84100630Y-50174929D01*
X84111120Y-50152751D01*
X84123733Y-50131707D01*
X84138347Y-50112002D01*
X84154823Y-50093823D01*
X84173002Y-50077347D01*
X84192707Y-50062733D01*
X84213751Y-50050120D01*
X84235929Y-50039630D01*
X84259029Y-50031365D01*
X84282827Y-50025404D01*
X84307096Y-50021804D01*
X84331600Y-50020600D01*
X86181600Y-50020600D01*
X86206104Y-50021804D01*
X86206104Y-50021804D01*
G37*
D11*
X85256600Y-50520600D03*
D10*
G36*
X86206104Y-48751804D02*
G01*
X86230373Y-48755404D01*
X86254171Y-48761365D01*
X86277271Y-48769630D01*
X86299449Y-48780120D01*
X86320493Y-48792733D01*
X86340198Y-48807347D01*
X86358377Y-48823823D01*
X86374853Y-48842002D01*
X86389467Y-48861707D01*
X86402080Y-48882751D01*
X86412570Y-48904929D01*
X86420835Y-48928029D01*
X86426796Y-48951827D01*
X86430396Y-48976096D01*
X86431600Y-49000600D01*
X86431600Y-49500600D01*
X86430396Y-49525104D01*
X86426796Y-49549373D01*
X86420835Y-49573171D01*
X86412570Y-49596271D01*
X86402080Y-49618449D01*
X86389467Y-49639493D01*
X86374853Y-49659198D01*
X86358377Y-49677377D01*
X86340198Y-49693853D01*
X86320493Y-49708467D01*
X86299449Y-49721080D01*
X86277271Y-49731570D01*
X86254171Y-49739835D01*
X86230373Y-49745796D01*
X86206104Y-49749396D01*
X86181600Y-49750600D01*
X84331600Y-49750600D01*
X84307096Y-49749396D01*
X84282827Y-49745796D01*
X84259029Y-49739835D01*
X84235929Y-49731570D01*
X84213751Y-49721080D01*
X84192707Y-49708467D01*
X84173002Y-49693853D01*
X84154823Y-49677377D01*
X84138347Y-49659198D01*
X84123733Y-49639493D01*
X84111120Y-49618449D01*
X84100630Y-49596271D01*
X84092365Y-49573171D01*
X84086404Y-49549373D01*
X84082804Y-49525104D01*
X84081600Y-49500600D01*
X84081600Y-49000600D01*
X84082804Y-48976096D01*
X84086404Y-48951827D01*
X84092365Y-48928029D01*
X84100630Y-48904929D01*
X84111120Y-48882751D01*
X84123733Y-48861707D01*
X84138347Y-48842002D01*
X84154823Y-48823823D01*
X84173002Y-48807347D01*
X84192707Y-48792733D01*
X84213751Y-48780120D01*
X84235929Y-48769630D01*
X84259029Y-48761365D01*
X84282827Y-48755404D01*
X84307096Y-48751804D01*
X84331600Y-48750600D01*
X86181600Y-48750600D01*
X86206104Y-48751804D01*
X86206104Y-48751804D01*
G37*
D11*
X85256600Y-49250600D03*
D10*
G36*
X86206104Y-47481804D02*
G01*
X86230373Y-47485404D01*
X86254171Y-47491365D01*
X86277271Y-47499630D01*
X86299449Y-47510120D01*
X86320493Y-47522733D01*
X86340198Y-47537347D01*
X86358377Y-47553823D01*
X86374853Y-47572002D01*
X86389467Y-47591707D01*
X86402080Y-47612751D01*
X86412570Y-47634929D01*
X86420835Y-47658029D01*
X86426796Y-47681827D01*
X86430396Y-47706096D01*
X86431600Y-47730600D01*
X86431600Y-48230600D01*
X86430396Y-48255104D01*
X86426796Y-48279373D01*
X86420835Y-48303171D01*
X86412570Y-48326271D01*
X86402080Y-48348449D01*
X86389467Y-48369493D01*
X86374853Y-48389198D01*
X86358377Y-48407377D01*
X86340198Y-48423853D01*
X86320493Y-48438467D01*
X86299449Y-48451080D01*
X86277271Y-48461570D01*
X86254171Y-48469835D01*
X86230373Y-48475796D01*
X86206104Y-48479396D01*
X86181600Y-48480600D01*
X84331600Y-48480600D01*
X84307096Y-48479396D01*
X84282827Y-48475796D01*
X84259029Y-48469835D01*
X84235929Y-48461570D01*
X84213751Y-48451080D01*
X84192707Y-48438467D01*
X84173002Y-48423853D01*
X84154823Y-48407377D01*
X84138347Y-48389198D01*
X84123733Y-48369493D01*
X84111120Y-48348449D01*
X84100630Y-48326271D01*
X84092365Y-48303171D01*
X84086404Y-48279373D01*
X84082804Y-48255104D01*
X84081600Y-48230600D01*
X84081600Y-47730600D01*
X84082804Y-47706096D01*
X84086404Y-47681827D01*
X84092365Y-47658029D01*
X84100630Y-47634929D01*
X84111120Y-47612751D01*
X84123733Y-47591707D01*
X84138347Y-47572002D01*
X84154823Y-47553823D01*
X84173002Y-47537347D01*
X84192707Y-47522733D01*
X84213751Y-47510120D01*
X84235929Y-47499630D01*
X84259029Y-47491365D01*
X84282827Y-47485404D01*
X84307096Y-47481804D01*
X84331600Y-47480600D01*
X86181600Y-47480600D01*
X86206104Y-47481804D01*
X86206104Y-47481804D01*
G37*
D11*
X85256600Y-47980600D03*
D10*
G36*
X86206104Y-46211804D02*
G01*
X86230373Y-46215404D01*
X86254171Y-46221365D01*
X86277271Y-46229630D01*
X86299449Y-46240120D01*
X86320493Y-46252733D01*
X86340198Y-46267347D01*
X86358377Y-46283823D01*
X86374853Y-46302002D01*
X86389467Y-46321707D01*
X86402080Y-46342751D01*
X86412570Y-46364929D01*
X86420835Y-46388029D01*
X86426796Y-46411827D01*
X86430396Y-46436096D01*
X86431600Y-46460600D01*
X86431600Y-46960600D01*
X86430396Y-46985104D01*
X86426796Y-47009373D01*
X86420835Y-47033171D01*
X86412570Y-47056271D01*
X86402080Y-47078449D01*
X86389467Y-47099493D01*
X86374853Y-47119198D01*
X86358377Y-47137377D01*
X86340198Y-47153853D01*
X86320493Y-47168467D01*
X86299449Y-47181080D01*
X86277271Y-47191570D01*
X86254171Y-47199835D01*
X86230373Y-47205796D01*
X86206104Y-47209396D01*
X86181600Y-47210600D01*
X84331600Y-47210600D01*
X84307096Y-47209396D01*
X84282827Y-47205796D01*
X84259029Y-47199835D01*
X84235929Y-47191570D01*
X84213751Y-47181080D01*
X84192707Y-47168467D01*
X84173002Y-47153853D01*
X84154823Y-47137377D01*
X84138347Y-47119198D01*
X84123733Y-47099493D01*
X84111120Y-47078449D01*
X84100630Y-47056271D01*
X84092365Y-47033171D01*
X84086404Y-47009373D01*
X84082804Y-46985104D01*
X84081600Y-46960600D01*
X84081600Y-46460600D01*
X84082804Y-46436096D01*
X84086404Y-46411827D01*
X84092365Y-46388029D01*
X84100630Y-46364929D01*
X84111120Y-46342751D01*
X84123733Y-46321707D01*
X84138347Y-46302002D01*
X84154823Y-46283823D01*
X84173002Y-46267347D01*
X84192707Y-46252733D01*
X84213751Y-46240120D01*
X84235929Y-46229630D01*
X84259029Y-46221365D01*
X84282827Y-46215404D01*
X84307096Y-46211804D01*
X84331600Y-46210600D01*
X86181600Y-46210600D01*
X86206104Y-46211804D01*
X86206104Y-46211804D01*
G37*
D11*
X85256600Y-46710600D03*
D10*
G36*
X86206104Y-44941804D02*
G01*
X86230373Y-44945404D01*
X86254171Y-44951365D01*
X86277271Y-44959630D01*
X86299449Y-44970120D01*
X86320493Y-44982733D01*
X86340198Y-44997347D01*
X86358377Y-45013823D01*
X86374853Y-45032002D01*
X86389467Y-45051707D01*
X86402080Y-45072751D01*
X86412570Y-45094929D01*
X86420835Y-45118029D01*
X86426796Y-45141827D01*
X86430396Y-45166096D01*
X86431600Y-45190600D01*
X86431600Y-45690600D01*
X86430396Y-45715104D01*
X86426796Y-45739373D01*
X86420835Y-45763171D01*
X86412570Y-45786271D01*
X86402080Y-45808449D01*
X86389467Y-45829493D01*
X86374853Y-45849198D01*
X86358377Y-45867377D01*
X86340198Y-45883853D01*
X86320493Y-45898467D01*
X86299449Y-45911080D01*
X86277271Y-45921570D01*
X86254171Y-45929835D01*
X86230373Y-45935796D01*
X86206104Y-45939396D01*
X86181600Y-45940600D01*
X84331600Y-45940600D01*
X84307096Y-45939396D01*
X84282827Y-45935796D01*
X84259029Y-45929835D01*
X84235929Y-45921570D01*
X84213751Y-45911080D01*
X84192707Y-45898467D01*
X84173002Y-45883853D01*
X84154823Y-45867377D01*
X84138347Y-45849198D01*
X84123733Y-45829493D01*
X84111120Y-45808449D01*
X84100630Y-45786271D01*
X84092365Y-45763171D01*
X84086404Y-45739373D01*
X84082804Y-45715104D01*
X84081600Y-45690600D01*
X84081600Y-45190600D01*
X84082804Y-45166096D01*
X84086404Y-45141827D01*
X84092365Y-45118029D01*
X84100630Y-45094929D01*
X84111120Y-45072751D01*
X84123733Y-45051707D01*
X84138347Y-45032002D01*
X84154823Y-45013823D01*
X84173002Y-44997347D01*
X84192707Y-44982733D01*
X84213751Y-44970120D01*
X84235929Y-44959630D01*
X84259029Y-44951365D01*
X84282827Y-44945404D01*
X84307096Y-44941804D01*
X84331600Y-44940600D01*
X86181600Y-44940600D01*
X86206104Y-44941804D01*
X86206104Y-44941804D01*
G37*
D11*
X85256600Y-45440600D03*
D10*
G36*
X86206104Y-43671804D02*
G01*
X86230373Y-43675404D01*
X86254171Y-43681365D01*
X86277271Y-43689630D01*
X86299449Y-43700120D01*
X86320493Y-43712733D01*
X86340198Y-43727347D01*
X86358377Y-43743823D01*
X86374853Y-43762002D01*
X86389467Y-43781707D01*
X86402080Y-43802751D01*
X86412570Y-43824929D01*
X86420835Y-43848029D01*
X86426796Y-43871827D01*
X86430396Y-43896096D01*
X86431600Y-43920600D01*
X86431600Y-44420600D01*
X86430396Y-44445104D01*
X86426796Y-44469373D01*
X86420835Y-44493171D01*
X86412570Y-44516271D01*
X86402080Y-44538449D01*
X86389467Y-44559493D01*
X86374853Y-44579198D01*
X86358377Y-44597377D01*
X86340198Y-44613853D01*
X86320493Y-44628467D01*
X86299449Y-44641080D01*
X86277271Y-44651570D01*
X86254171Y-44659835D01*
X86230373Y-44665796D01*
X86206104Y-44669396D01*
X86181600Y-44670600D01*
X84331600Y-44670600D01*
X84307096Y-44669396D01*
X84282827Y-44665796D01*
X84259029Y-44659835D01*
X84235929Y-44651570D01*
X84213751Y-44641080D01*
X84192707Y-44628467D01*
X84173002Y-44613853D01*
X84154823Y-44597377D01*
X84138347Y-44579198D01*
X84123733Y-44559493D01*
X84111120Y-44538449D01*
X84100630Y-44516271D01*
X84092365Y-44493171D01*
X84086404Y-44469373D01*
X84082804Y-44445104D01*
X84081600Y-44420600D01*
X84081600Y-43920600D01*
X84082804Y-43896096D01*
X84086404Y-43871827D01*
X84092365Y-43848029D01*
X84100630Y-43824929D01*
X84111120Y-43802751D01*
X84123733Y-43781707D01*
X84138347Y-43762002D01*
X84154823Y-43743823D01*
X84173002Y-43727347D01*
X84192707Y-43712733D01*
X84213751Y-43700120D01*
X84235929Y-43689630D01*
X84259029Y-43681365D01*
X84282827Y-43675404D01*
X84307096Y-43671804D01*
X84331600Y-43670600D01*
X86181600Y-43670600D01*
X86206104Y-43671804D01*
X86206104Y-43671804D01*
G37*
D11*
X85256600Y-44170600D03*
D12*
X103251000Y-20320000D03*
D13*
X100711000Y-20320000D03*
D12*
X103251000Y-22860000D03*
D14*
X100711000Y-22860000D03*
D10*
G36*
X82730081Y-59968625D02*
G01*
X82762843Y-59973485D01*
X82794971Y-59981533D01*
X82826156Y-59992691D01*
X82856096Y-60006852D01*
X82884505Y-60023879D01*
X82911108Y-60043609D01*
X82935649Y-60065851D01*
X82957891Y-60090392D01*
X82977621Y-60116995D01*
X82994648Y-60145404D01*
X83008809Y-60175344D01*
X83019967Y-60206529D01*
X83028015Y-60238657D01*
X83032875Y-60271419D01*
X83034500Y-60304500D01*
X83034500Y-61079500D01*
X83032875Y-61112581D01*
X83028015Y-61145343D01*
X83019967Y-61177471D01*
X83008809Y-61208656D01*
X82994648Y-61238596D01*
X82977621Y-61267005D01*
X82957891Y-61293608D01*
X82935649Y-61318149D01*
X82911108Y-61340391D01*
X82884505Y-61360121D01*
X82856096Y-61377148D01*
X82826156Y-61391309D01*
X82794971Y-61402467D01*
X82762843Y-61410515D01*
X82730081Y-61415375D01*
X82697000Y-61417000D01*
X82022000Y-61417000D01*
X81988919Y-61415375D01*
X81956157Y-61410515D01*
X81924029Y-61402467D01*
X81892844Y-61391309D01*
X81862904Y-61377148D01*
X81834495Y-61360121D01*
X81807892Y-61340391D01*
X81783351Y-61318149D01*
X81761109Y-61293608D01*
X81741379Y-61267005D01*
X81724352Y-61238596D01*
X81710191Y-61208656D01*
X81699033Y-61177471D01*
X81690985Y-61145343D01*
X81686125Y-61112581D01*
X81684500Y-61079500D01*
X81684500Y-60304500D01*
X81686125Y-60271419D01*
X81690985Y-60238657D01*
X81699033Y-60206529D01*
X81710191Y-60175344D01*
X81724352Y-60145404D01*
X81741379Y-60116995D01*
X81761109Y-60090392D01*
X81783351Y-60065851D01*
X81807892Y-60043609D01*
X81834495Y-60023879D01*
X81862904Y-60006852D01*
X81892844Y-59992691D01*
X81924029Y-59981533D01*
X81956157Y-59973485D01*
X81988919Y-59968625D01*
X82022000Y-59967000D01*
X82697000Y-59967000D01*
X82730081Y-59968625D01*
X82730081Y-59968625D01*
G37*
D15*
X82359500Y-60692000D03*
D10*
G36*
X82730081Y-58218625D02*
G01*
X82762843Y-58223485D01*
X82794971Y-58231533D01*
X82826156Y-58242691D01*
X82856096Y-58256852D01*
X82884505Y-58273879D01*
X82911108Y-58293609D01*
X82935649Y-58315851D01*
X82957891Y-58340392D01*
X82977621Y-58366995D01*
X82994648Y-58395404D01*
X83008809Y-58425344D01*
X83019967Y-58456529D01*
X83028015Y-58488657D01*
X83032875Y-58521419D01*
X83034500Y-58554500D01*
X83034500Y-59329500D01*
X83032875Y-59362581D01*
X83028015Y-59395343D01*
X83019967Y-59427471D01*
X83008809Y-59458656D01*
X82994648Y-59488596D01*
X82977621Y-59517005D01*
X82957891Y-59543608D01*
X82935649Y-59568149D01*
X82911108Y-59590391D01*
X82884505Y-59610121D01*
X82856096Y-59627148D01*
X82826156Y-59641309D01*
X82794971Y-59652467D01*
X82762843Y-59660515D01*
X82730081Y-59665375D01*
X82697000Y-59667000D01*
X82022000Y-59667000D01*
X81988919Y-59665375D01*
X81956157Y-59660515D01*
X81924029Y-59652467D01*
X81892844Y-59641309D01*
X81862904Y-59627148D01*
X81834495Y-59610121D01*
X81807892Y-59590391D01*
X81783351Y-59568149D01*
X81761109Y-59543608D01*
X81741379Y-59517005D01*
X81724352Y-59488596D01*
X81710191Y-59458656D01*
X81699033Y-59427471D01*
X81690985Y-59395343D01*
X81686125Y-59362581D01*
X81684500Y-59329500D01*
X81684500Y-58554500D01*
X81686125Y-58521419D01*
X81690985Y-58488657D01*
X81699033Y-58456529D01*
X81710191Y-58425344D01*
X81724352Y-58395404D01*
X81741379Y-58366995D01*
X81761109Y-58340392D01*
X81783351Y-58315851D01*
X81807892Y-58293609D01*
X81834495Y-58273879D01*
X81862904Y-58256852D01*
X81892844Y-58242691D01*
X81924029Y-58231533D01*
X81956157Y-58223485D01*
X81988919Y-58218625D01*
X82022000Y-58217000D01*
X82697000Y-58217000D01*
X82730081Y-58218625D01*
X82730081Y-58218625D01*
G37*
D15*
X82359500Y-58942000D03*
D16*
X40550000Y-30250000D03*
X34250000Y-30250000D03*
D14*
X35250000Y-25750000D03*
X35250000Y-34750000D03*
X42000000Y-26250000D03*
X45200000Y-30250000D03*
X42000000Y-34250000D03*
D17*
X34290000Y-71120000D03*
X34290000Y-68580000D03*
X36830000Y-71120000D03*
X36830000Y-68580000D03*
X39370000Y-71120000D03*
X39370000Y-68580000D03*
X41910000Y-71120000D03*
X41910000Y-68580000D03*
X44450000Y-71120000D03*
X44450000Y-68580000D03*
X46990000Y-71120000D03*
X46990000Y-68580000D03*
X49530000Y-71120000D03*
X49530000Y-68580000D03*
X52070000Y-71120000D03*
X52070000Y-68580000D03*
X54610000Y-71120000D03*
X54610000Y-68580000D03*
X57150000Y-71120000D03*
X57150000Y-68580000D03*
X59690000Y-71120000D03*
X59690000Y-68580000D03*
X62230000Y-71120000D03*
X62230000Y-68580000D03*
X64770000Y-71120000D03*
X64770000Y-68580000D03*
X67310000Y-71120000D03*
X67310000Y-68580000D03*
X69850000Y-71120000D03*
X69850000Y-68580000D03*
X72390000Y-71120000D03*
X72390000Y-68580000D03*
X74930000Y-71120000D03*
X74930000Y-68580000D03*
X77470000Y-71120000D03*
X77470000Y-68580000D03*
X80010000Y-71120000D03*
X80010000Y-68580000D03*
X82550000Y-71120000D03*
X82550000Y-68580000D03*
X85090000Y-71120000D03*
X85090000Y-68580000D03*
X87630000Y-71120000D03*
X87630000Y-68580000D03*
X90170000Y-71120000D03*
D18*
X90170000Y-68580000D03*
D17*
X34290000Y-22860000D03*
X34290000Y-20320000D03*
X36830000Y-22860000D03*
X36830000Y-20320000D03*
X39370000Y-22860000D03*
X39370000Y-20320000D03*
X41910000Y-22860000D03*
X41910000Y-20320000D03*
X44450000Y-22860000D03*
X44450000Y-20320000D03*
X46990000Y-22860000D03*
X46990000Y-20320000D03*
X49530000Y-22860000D03*
X49530000Y-20320000D03*
X52070000Y-22860000D03*
X52070000Y-20320000D03*
X54610000Y-22860000D03*
X54610000Y-20320000D03*
X57150000Y-22860000D03*
X57150000Y-20320000D03*
X59690000Y-22860000D03*
X59690000Y-20320000D03*
X62230000Y-22860000D03*
X62230000Y-20320000D03*
X64770000Y-22860000D03*
X64770000Y-20320000D03*
X67310000Y-22860000D03*
X67310000Y-20320000D03*
X69850000Y-22860000D03*
X69850000Y-20320000D03*
X72390000Y-22860000D03*
X72390000Y-20320000D03*
X74930000Y-22860000D03*
X74930000Y-20320000D03*
X77470000Y-22860000D03*
X77470000Y-20320000D03*
X80010000Y-22860000D03*
X80010000Y-20320000D03*
X82550000Y-22860000D03*
X82550000Y-20320000D03*
X85090000Y-22860000D03*
X85090000Y-20320000D03*
X87630000Y-22860000D03*
X87630000Y-20320000D03*
X90170000Y-22860000D03*
D18*
X90170000Y-20320000D03*
D16*
X40550000Y-44950000D03*
X34250000Y-44950000D03*
D14*
X35250000Y-40450000D03*
X35250000Y-49450000D03*
X42000000Y-40950000D03*
X45200000Y-44950000D03*
X42000000Y-48950000D03*
D16*
X40550000Y-59650000D03*
X34250000Y-59650000D03*
D14*
X35250000Y-55150000D03*
X35250000Y-64150000D03*
X42000000Y-55650000D03*
X45200000Y-59650000D03*
X42000000Y-63650000D03*
D10*
G36*
X85333581Y-36374625D02*
G01*
X85366343Y-36379485D01*
X85398471Y-36387533D01*
X85429656Y-36398691D01*
X85459596Y-36412852D01*
X85488005Y-36429879D01*
X85514608Y-36449609D01*
X85539149Y-36471851D01*
X85561391Y-36496392D01*
X85581121Y-36522995D01*
X85598148Y-36551404D01*
X85612309Y-36581344D01*
X85623467Y-36612529D01*
X85631515Y-36644657D01*
X85636375Y-36677419D01*
X85638000Y-36710500D01*
X85638000Y-37485500D01*
X85636375Y-37518581D01*
X85631515Y-37551343D01*
X85623467Y-37583471D01*
X85612309Y-37614656D01*
X85598148Y-37644596D01*
X85581121Y-37673005D01*
X85561391Y-37699608D01*
X85539149Y-37724149D01*
X85514608Y-37746391D01*
X85488005Y-37766121D01*
X85459596Y-37783148D01*
X85429656Y-37797309D01*
X85398471Y-37808467D01*
X85366343Y-37816515D01*
X85333581Y-37821375D01*
X85300500Y-37823000D01*
X84625500Y-37823000D01*
X84592419Y-37821375D01*
X84559657Y-37816515D01*
X84527529Y-37808467D01*
X84496344Y-37797309D01*
X84466404Y-37783148D01*
X84437995Y-37766121D01*
X84411392Y-37746391D01*
X84386851Y-37724149D01*
X84364609Y-37699608D01*
X84344879Y-37673005D01*
X84327852Y-37644596D01*
X84313691Y-37614656D01*
X84302533Y-37583471D01*
X84294485Y-37551343D01*
X84289625Y-37518581D01*
X84288000Y-37485500D01*
X84288000Y-36710500D01*
X84289625Y-36677419D01*
X84294485Y-36644657D01*
X84302533Y-36612529D01*
X84313691Y-36581344D01*
X84327852Y-36551404D01*
X84344879Y-36522995D01*
X84364609Y-36496392D01*
X84386851Y-36471851D01*
X84411392Y-36449609D01*
X84437995Y-36429879D01*
X84466404Y-36412852D01*
X84496344Y-36398691D01*
X84527529Y-36387533D01*
X84559657Y-36379485D01*
X84592419Y-36374625D01*
X84625500Y-36373000D01*
X85300500Y-36373000D01*
X85333581Y-36374625D01*
X85333581Y-36374625D01*
G37*
D15*
X84963000Y-37098000D03*
D10*
G36*
X85333581Y-38124625D02*
G01*
X85366343Y-38129485D01*
X85398471Y-38137533D01*
X85429656Y-38148691D01*
X85459596Y-38162852D01*
X85488005Y-38179879D01*
X85514608Y-38199609D01*
X85539149Y-38221851D01*
X85561391Y-38246392D01*
X85581121Y-38272995D01*
X85598148Y-38301404D01*
X85612309Y-38331344D01*
X85623467Y-38362529D01*
X85631515Y-38394657D01*
X85636375Y-38427419D01*
X85638000Y-38460500D01*
X85638000Y-39235500D01*
X85636375Y-39268581D01*
X85631515Y-39301343D01*
X85623467Y-39333471D01*
X85612309Y-39364656D01*
X85598148Y-39394596D01*
X85581121Y-39423005D01*
X85561391Y-39449608D01*
X85539149Y-39474149D01*
X85514608Y-39496391D01*
X85488005Y-39516121D01*
X85459596Y-39533148D01*
X85429656Y-39547309D01*
X85398471Y-39558467D01*
X85366343Y-39566515D01*
X85333581Y-39571375D01*
X85300500Y-39573000D01*
X84625500Y-39573000D01*
X84592419Y-39571375D01*
X84559657Y-39566515D01*
X84527529Y-39558467D01*
X84496344Y-39547309D01*
X84466404Y-39533148D01*
X84437995Y-39516121D01*
X84411392Y-39496391D01*
X84386851Y-39474149D01*
X84364609Y-39449608D01*
X84344879Y-39423005D01*
X84327852Y-39394596D01*
X84313691Y-39364656D01*
X84302533Y-39333471D01*
X84294485Y-39301343D01*
X84289625Y-39268581D01*
X84288000Y-39235500D01*
X84288000Y-38460500D01*
X84289625Y-38427419D01*
X84294485Y-38394657D01*
X84302533Y-38362529D01*
X84313691Y-38331344D01*
X84327852Y-38301404D01*
X84344879Y-38272995D01*
X84364609Y-38246392D01*
X84386851Y-38221851D01*
X84411392Y-38199609D01*
X84437995Y-38179879D01*
X84466404Y-38162852D01*
X84496344Y-38148691D01*
X84527529Y-38137533D01*
X84559657Y-38129485D01*
X84592419Y-38124625D01*
X84625500Y-38123000D01*
X85300500Y-38123000D01*
X85333581Y-38124625D01*
X85333581Y-38124625D01*
G37*
D15*
X84963000Y-38848000D03*
D10*
G36*
X83428581Y-36374625D02*
G01*
X83461343Y-36379485D01*
X83493471Y-36387533D01*
X83524656Y-36398691D01*
X83554596Y-36412852D01*
X83583005Y-36429879D01*
X83609608Y-36449609D01*
X83634149Y-36471851D01*
X83656391Y-36496392D01*
X83676121Y-36522995D01*
X83693148Y-36551404D01*
X83707309Y-36581344D01*
X83718467Y-36612529D01*
X83726515Y-36644657D01*
X83731375Y-36677419D01*
X83733000Y-36710500D01*
X83733000Y-37485500D01*
X83731375Y-37518581D01*
X83726515Y-37551343D01*
X83718467Y-37583471D01*
X83707309Y-37614656D01*
X83693148Y-37644596D01*
X83676121Y-37673005D01*
X83656391Y-37699608D01*
X83634149Y-37724149D01*
X83609608Y-37746391D01*
X83583005Y-37766121D01*
X83554596Y-37783148D01*
X83524656Y-37797309D01*
X83493471Y-37808467D01*
X83461343Y-37816515D01*
X83428581Y-37821375D01*
X83395500Y-37823000D01*
X82720500Y-37823000D01*
X82687419Y-37821375D01*
X82654657Y-37816515D01*
X82622529Y-37808467D01*
X82591344Y-37797309D01*
X82561404Y-37783148D01*
X82532995Y-37766121D01*
X82506392Y-37746391D01*
X82481851Y-37724149D01*
X82459609Y-37699608D01*
X82439879Y-37673005D01*
X82422852Y-37644596D01*
X82408691Y-37614656D01*
X82397533Y-37583471D01*
X82389485Y-37551343D01*
X82384625Y-37518581D01*
X82383000Y-37485500D01*
X82383000Y-36710500D01*
X82384625Y-36677419D01*
X82389485Y-36644657D01*
X82397533Y-36612529D01*
X82408691Y-36581344D01*
X82422852Y-36551404D01*
X82439879Y-36522995D01*
X82459609Y-36496392D01*
X82481851Y-36471851D01*
X82506392Y-36449609D01*
X82532995Y-36429879D01*
X82561404Y-36412852D01*
X82591344Y-36398691D01*
X82622529Y-36387533D01*
X82654657Y-36379485D01*
X82687419Y-36374625D01*
X82720500Y-36373000D01*
X83395500Y-36373000D01*
X83428581Y-36374625D01*
X83428581Y-36374625D01*
G37*
D15*
X83058000Y-37098000D03*
D10*
G36*
X83428581Y-38124625D02*
G01*
X83461343Y-38129485D01*
X83493471Y-38137533D01*
X83524656Y-38148691D01*
X83554596Y-38162852D01*
X83583005Y-38179879D01*
X83609608Y-38199609D01*
X83634149Y-38221851D01*
X83656391Y-38246392D01*
X83676121Y-38272995D01*
X83693148Y-38301404D01*
X83707309Y-38331344D01*
X83718467Y-38362529D01*
X83726515Y-38394657D01*
X83731375Y-38427419D01*
X83733000Y-38460500D01*
X83733000Y-39235500D01*
X83731375Y-39268581D01*
X83726515Y-39301343D01*
X83718467Y-39333471D01*
X83707309Y-39364656D01*
X83693148Y-39394596D01*
X83676121Y-39423005D01*
X83656391Y-39449608D01*
X83634149Y-39474149D01*
X83609608Y-39496391D01*
X83583005Y-39516121D01*
X83554596Y-39533148D01*
X83524656Y-39547309D01*
X83493471Y-39558467D01*
X83461343Y-39566515D01*
X83428581Y-39571375D01*
X83395500Y-39573000D01*
X82720500Y-39573000D01*
X82687419Y-39571375D01*
X82654657Y-39566515D01*
X82622529Y-39558467D01*
X82591344Y-39547309D01*
X82561404Y-39533148D01*
X82532995Y-39516121D01*
X82506392Y-39496391D01*
X82481851Y-39474149D01*
X82459609Y-39449608D01*
X82439879Y-39423005D01*
X82422852Y-39394596D01*
X82408691Y-39364656D01*
X82397533Y-39333471D01*
X82389485Y-39301343D01*
X82384625Y-39268581D01*
X82383000Y-39235500D01*
X82383000Y-38460500D01*
X82384625Y-38427419D01*
X82389485Y-38394657D01*
X82397533Y-38362529D01*
X82408691Y-38331344D01*
X82422852Y-38301404D01*
X82439879Y-38272995D01*
X82459609Y-38246392D01*
X82481851Y-38221851D01*
X82506392Y-38199609D01*
X82532995Y-38179879D01*
X82561404Y-38162852D01*
X82591344Y-38148691D01*
X82622529Y-38137533D01*
X82654657Y-38129485D01*
X82687419Y-38124625D01*
X82720500Y-38123000D01*
X83395500Y-38123000D01*
X83428581Y-38124625D01*
X83428581Y-38124625D01*
G37*
D15*
X83058000Y-38848000D03*
D10*
G36*
X76468981Y-52729625D02*
G01*
X76501743Y-52734485D01*
X76533871Y-52742533D01*
X76565056Y-52753691D01*
X76594996Y-52767852D01*
X76623405Y-52784879D01*
X76650008Y-52804609D01*
X76674549Y-52826851D01*
X76696791Y-52851392D01*
X76716521Y-52877995D01*
X76733548Y-52906404D01*
X76747709Y-52936344D01*
X76758867Y-52967529D01*
X76766915Y-52999657D01*
X76771775Y-53032419D01*
X76773400Y-53065500D01*
X76773400Y-53840500D01*
X76771775Y-53873581D01*
X76766915Y-53906343D01*
X76758867Y-53938471D01*
X76747709Y-53969656D01*
X76733548Y-53999596D01*
X76716521Y-54028005D01*
X76696791Y-54054608D01*
X76674549Y-54079149D01*
X76650008Y-54101391D01*
X76623405Y-54121121D01*
X76594996Y-54138148D01*
X76565056Y-54152309D01*
X76533871Y-54163467D01*
X76501743Y-54171515D01*
X76468981Y-54176375D01*
X76435900Y-54178000D01*
X75760900Y-54178000D01*
X75727819Y-54176375D01*
X75695057Y-54171515D01*
X75662929Y-54163467D01*
X75631744Y-54152309D01*
X75601804Y-54138148D01*
X75573395Y-54121121D01*
X75546792Y-54101391D01*
X75522251Y-54079149D01*
X75500009Y-54054608D01*
X75480279Y-54028005D01*
X75463252Y-53999596D01*
X75449091Y-53969656D01*
X75437933Y-53938471D01*
X75429885Y-53906343D01*
X75425025Y-53873581D01*
X75423400Y-53840500D01*
X75423400Y-53065500D01*
X75425025Y-53032419D01*
X75429885Y-52999657D01*
X75437933Y-52967529D01*
X75449091Y-52936344D01*
X75463252Y-52906404D01*
X75480279Y-52877995D01*
X75500009Y-52851392D01*
X75522251Y-52826851D01*
X75546792Y-52804609D01*
X75573395Y-52784879D01*
X75601804Y-52767852D01*
X75631744Y-52753691D01*
X75662929Y-52742533D01*
X75695057Y-52734485D01*
X75727819Y-52729625D01*
X75760900Y-52728000D01*
X76435900Y-52728000D01*
X76468981Y-52729625D01*
X76468981Y-52729625D01*
G37*
D15*
X76098400Y-53453000D03*
D10*
G36*
X76468981Y-50979625D02*
G01*
X76501743Y-50984485D01*
X76533871Y-50992533D01*
X76565056Y-51003691D01*
X76594996Y-51017852D01*
X76623405Y-51034879D01*
X76650008Y-51054609D01*
X76674549Y-51076851D01*
X76696791Y-51101392D01*
X76716521Y-51127995D01*
X76733548Y-51156404D01*
X76747709Y-51186344D01*
X76758867Y-51217529D01*
X76766915Y-51249657D01*
X76771775Y-51282419D01*
X76773400Y-51315500D01*
X76773400Y-52090500D01*
X76771775Y-52123581D01*
X76766915Y-52156343D01*
X76758867Y-52188471D01*
X76747709Y-52219656D01*
X76733548Y-52249596D01*
X76716521Y-52278005D01*
X76696791Y-52304608D01*
X76674549Y-52329149D01*
X76650008Y-52351391D01*
X76623405Y-52371121D01*
X76594996Y-52388148D01*
X76565056Y-52402309D01*
X76533871Y-52413467D01*
X76501743Y-52421515D01*
X76468981Y-52426375D01*
X76435900Y-52428000D01*
X75760900Y-52428000D01*
X75727819Y-52426375D01*
X75695057Y-52421515D01*
X75662929Y-52413467D01*
X75631744Y-52402309D01*
X75601804Y-52388148D01*
X75573395Y-52371121D01*
X75546792Y-52351391D01*
X75522251Y-52329149D01*
X75500009Y-52304608D01*
X75480279Y-52278005D01*
X75463252Y-52249596D01*
X75449091Y-52219656D01*
X75437933Y-52188471D01*
X75429885Y-52156343D01*
X75425025Y-52123581D01*
X75423400Y-52090500D01*
X75423400Y-51315500D01*
X75425025Y-51282419D01*
X75429885Y-51249657D01*
X75437933Y-51217529D01*
X75449091Y-51186344D01*
X75463252Y-51156404D01*
X75480279Y-51127995D01*
X75500009Y-51101392D01*
X75522251Y-51076851D01*
X75546792Y-51054609D01*
X75573395Y-51034879D01*
X75601804Y-51017852D01*
X75631744Y-51003691D01*
X75662929Y-50992533D01*
X75695057Y-50984485D01*
X75727819Y-50979625D01*
X75760900Y-50978000D01*
X76435900Y-50978000D01*
X76468981Y-50979625D01*
X76468981Y-50979625D01*
G37*
D15*
X76098400Y-51703000D03*
D10*
G36*
X80416581Y-39585625D02*
G01*
X80449343Y-39590485D01*
X80481471Y-39598533D01*
X80512656Y-39609691D01*
X80542596Y-39623852D01*
X80571005Y-39640879D01*
X80597608Y-39660609D01*
X80622149Y-39682851D01*
X80644391Y-39707392D01*
X80664121Y-39733995D01*
X80681148Y-39762404D01*
X80695309Y-39792344D01*
X80706467Y-39823529D01*
X80714515Y-39855657D01*
X80719375Y-39888419D01*
X80721000Y-39921500D01*
X80721000Y-40596500D01*
X80719375Y-40629581D01*
X80714515Y-40662343D01*
X80706467Y-40694471D01*
X80695309Y-40725656D01*
X80681148Y-40755596D01*
X80664121Y-40784005D01*
X80644391Y-40810608D01*
X80622149Y-40835149D01*
X80597608Y-40857391D01*
X80571005Y-40877121D01*
X80542596Y-40894148D01*
X80512656Y-40908309D01*
X80481471Y-40919467D01*
X80449343Y-40927515D01*
X80416581Y-40932375D01*
X80383500Y-40934000D01*
X79608500Y-40934000D01*
X79575419Y-40932375D01*
X79542657Y-40927515D01*
X79510529Y-40919467D01*
X79479344Y-40908309D01*
X79449404Y-40894148D01*
X79420995Y-40877121D01*
X79394392Y-40857391D01*
X79369851Y-40835149D01*
X79347609Y-40810608D01*
X79327879Y-40784005D01*
X79310852Y-40755596D01*
X79296691Y-40725656D01*
X79285533Y-40694471D01*
X79277485Y-40662343D01*
X79272625Y-40629581D01*
X79271000Y-40596500D01*
X79271000Y-39921500D01*
X79272625Y-39888419D01*
X79277485Y-39855657D01*
X79285533Y-39823529D01*
X79296691Y-39792344D01*
X79310852Y-39762404D01*
X79327879Y-39733995D01*
X79347609Y-39707392D01*
X79369851Y-39682851D01*
X79394392Y-39660609D01*
X79420995Y-39640879D01*
X79449404Y-39623852D01*
X79479344Y-39609691D01*
X79510529Y-39598533D01*
X79542657Y-39590485D01*
X79575419Y-39585625D01*
X79608500Y-39584000D01*
X80383500Y-39584000D01*
X80416581Y-39585625D01*
X80416581Y-39585625D01*
G37*
D15*
X79996000Y-40259000D03*
D10*
G36*
X78666581Y-39585625D02*
G01*
X78699343Y-39590485D01*
X78731471Y-39598533D01*
X78762656Y-39609691D01*
X78792596Y-39623852D01*
X78821005Y-39640879D01*
X78847608Y-39660609D01*
X78872149Y-39682851D01*
X78894391Y-39707392D01*
X78914121Y-39733995D01*
X78931148Y-39762404D01*
X78945309Y-39792344D01*
X78956467Y-39823529D01*
X78964515Y-39855657D01*
X78969375Y-39888419D01*
X78971000Y-39921500D01*
X78971000Y-40596500D01*
X78969375Y-40629581D01*
X78964515Y-40662343D01*
X78956467Y-40694471D01*
X78945309Y-40725656D01*
X78931148Y-40755596D01*
X78914121Y-40784005D01*
X78894391Y-40810608D01*
X78872149Y-40835149D01*
X78847608Y-40857391D01*
X78821005Y-40877121D01*
X78792596Y-40894148D01*
X78762656Y-40908309D01*
X78731471Y-40919467D01*
X78699343Y-40927515D01*
X78666581Y-40932375D01*
X78633500Y-40934000D01*
X77858500Y-40934000D01*
X77825419Y-40932375D01*
X77792657Y-40927515D01*
X77760529Y-40919467D01*
X77729344Y-40908309D01*
X77699404Y-40894148D01*
X77670995Y-40877121D01*
X77644392Y-40857391D01*
X77619851Y-40835149D01*
X77597609Y-40810608D01*
X77577879Y-40784005D01*
X77560852Y-40755596D01*
X77546691Y-40725656D01*
X77535533Y-40694471D01*
X77527485Y-40662343D01*
X77522625Y-40629581D01*
X77521000Y-40596500D01*
X77521000Y-39921500D01*
X77522625Y-39888419D01*
X77527485Y-39855657D01*
X77535533Y-39823529D01*
X77546691Y-39792344D01*
X77560852Y-39762404D01*
X77577879Y-39733995D01*
X77597609Y-39707392D01*
X77619851Y-39682851D01*
X77644392Y-39660609D01*
X77670995Y-39640879D01*
X77699404Y-39623852D01*
X77729344Y-39609691D01*
X77760529Y-39598533D01*
X77792657Y-39590485D01*
X77825419Y-39585625D01*
X77858500Y-39584000D01*
X78633500Y-39584000D01*
X78666581Y-39585625D01*
X78666581Y-39585625D01*
G37*
D15*
X78246000Y-40259000D03*
D10*
G36*
X80010181Y-45224425D02*
G01*
X80042943Y-45229285D01*
X80075071Y-45237333D01*
X80106256Y-45248491D01*
X80136196Y-45262652D01*
X80164605Y-45279679D01*
X80191208Y-45299409D01*
X80215749Y-45321651D01*
X80237991Y-45346192D01*
X80257721Y-45372795D01*
X80274748Y-45401204D01*
X80288909Y-45431144D01*
X80300067Y-45462329D01*
X80308115Y-45494457D01*
X80312975Y-45527219D01*
X80314600Y-45560300D01*
X80314600Y-46235300D01*
X80312975Y-46268381D01*
X80308115Y-46301143D01*
X80300067Y-46333271D01*
X80288909Y-46364456D01*
X80274748Y-46394396D01*
X80257721Y-46422805D01*
X80237991Y-46449408D01*
X80215749Y-46473949D01*
X80191208Y-46496191D01*
X80164605Y-46515921D01*
X80136196Y-46532948D01*
X80106256Y-46547109D01*
X80075071Y-46558267D01*
X80042943Y-46566315D01*
X80010181Y-46571175D01*
X79977100Y-46572800D01*
X79202100Y-46572800D01*
X79169019Y-46571175D01*
X79136257Y-46566315D01*
X79104129Y-46558267D01*
X79072944Y-46547109D01*
X79043004Y-46532948D01*
X79014595Y-46515921D01*
X78987992Y-46496191D01*
X78963451Y-46473949D01*
X78941209Y-46449408D01*
X78921479Y-46422805D01*
X78904452Y-46394396D01*
X78890291Y-46364456D01*
X78879133Y-46333271D01*
X78871085Y-46301143D01*
X78866225Y-46268381D01*
X78864600Y-46235300D01*
X78864600Y-45560300D01*
X78866225Y-45527219D01*
X78871085Y-45494457D01*
X78879133Y-45462329D01*
X78890291Y-45431144D01*
X78904452Y-45401204D01*
X78921479Y-45372795D01*
X78941209Y-45346192D01*
X78963451Y-45321651D01*
X78987992Y-45299409D01*
X79014595Y-45279679D01*
X79043004Y-45262652D01*
X79072944Y-45248491D01*
X79104129Y-45237333D01*
X79136257Y-45229285D01*
X79169019Y-45224425D01*
X79202100Y-45222800D01*
X79977100Y-45222800D01*
X80010181Y-45224425D01*
X80010181Y-45224425D01*
G37*
D15*
X79589600Y-45897800D03*
D10*
G36*
X78260181Y-45224425D02*
G01*
X78292943Y-45229285D01*
X78325071Y-45237333D01*
X78356256Y-45248491D01*
X78386196Y-45262652D01*
X78414605Y-45279679D01*
X78441208Y-45299409D01*
X78465749Y-45321651D01*
X78487991Y-45346192D01*
X78507721Y-45372795D01*
X78524748Y-45401204D01*
X78538909Y-45431144D01*
X78550067Y-45462329D01*
X78558115Y-45494457D01*
X78562975Y-45527219D01*
X78564600Y-45560300D01*
X78564600Y-46235300D01*
X78562975Y-46268381D01*
X78558115Y-46301143D01*
X78550067Y-46333271D01*
X78538909Y-46364456D01*
X78524748Y-46394396D01*
X78507721Y-46422805D01*
X78487991Y-46449408D01*
X78465749Y-46473949D01*
X78441208Y-46496191D01*
X78414605Y-46515921D01*
X78386196Y-46532948D01*
X78356256Y-46547109D01*
X78325071Y-46558267D01*
X78292943Y-46566315D01*
X78260181Y-46571175D01*
X78227100Y-46572800D01*
X77452100Y-46572800D01*
X77419019Y-46571175D01*
X77386257Y-46566315D01*
X77354129Y-46558267D01*
X77322944Y-46547109D01*
X77293004Y-46532948D01*
X77264595Y-46515921D01*
X77237992Y-46496191D01*
X77213451Y-46473949D01*
X77191209Y-46449408D01*
X77171479Y-46422805D01*
X77154452Y-46394396D01*
X77140291Y-46364456D01*
X77129133Y-46333271D01*
X77121085Y-46301143D01*
X77116225Y-46268381D01*
X77114600Y-46235300D01*
X77114600Y-45560300D01*
X77116225Y-45527219D01*
X77121085Y-45494457D01*
X77129133Y-45462329D01*
X77140291Y-45431144D01*
X77154452Y-45401204D01*
X77171479Y-45372795D01*
X77191209Y-45346192D01*
X77213451Y-45321651D01*
X77237992Y-45299409D01*
X77264595Y-45279679D01*
X77293004Y-45262652D01*
X77322944Y-45248491D01*
X77354129Y-45237333D01*
X77386257Y-45229285D01*
X77419019Y-45224425D01*
X77452100Y-45222800D01*
X78227100Y-45222800D01*
X78260181Y-45224425D01*
X78260181Y-45224425D01*
G37*
D15*
X77839600Y-45897800D03*
D19*
X46189900Y-51904900D03*
X46189900Y-49110900D03*
D20*
X53009800Y-30340300D03*
X55803800Y-30340300D03*
D10*
G36*
X70322181Y-36501625D02*
G01*
X70354943Y-36506485D01*
X70387071Y-36514533D01*
X70418256Y-36525691D01*
X70448196Y-36539852D01*
X70476605Y-36556879D01*
X70503208Y-36576609D01*
X70527749Y-36598851D01*
X70549991Y-36623392D01*
X70569721Y-36649995D01*
X70586748Y-36678404D01*
X70600909Y-36708344D01*
X70612067Y-36739529D01*
X70620115Y-36771657D01*
X70624975Y-36804419D01*
X70626600Y-36837500D01*
X70626600Y-37612500D01*
X70624975Y-37645581D01*
X70620115Y-37678343D01*
X70612067Y-37710471D01*
X70600909Y-37741656D01*
X70586748Y-37771596D01*
X70569721Y-37800005D01*
X70549991Y-37826608D01*
X70527749Y-37851149D01*
X70503208Y-37873391D01*
X70476605Y-37893121D01*
X70448196Y-37910148D01*
X70418256Y-37924309D01*
X70387071Y-37935467D01*
X70354943Y-37943515D01*
X70322181Y-37948375D01*
X70289100Y-37950000D01*
X69614100Y-37950000D01*
X69581019Y-37948375D01*
X69548257Y-37943515D01*
X69516129Y-37935467D01*
X69484944Y-37924309D01*
X69455004Y-37910148D01*
X69426595Y-37893121D01*
X69399992Y-37873391D01*
X69375451Y-37851149D01*
X69353209Y-37826608D01*
X69333479Y-37800005D01*
X69316452Y-37771596D01*
X69302291Y-37741656D01*
X69291133Y-37710471D01*
X69283085Y-37678343D01*
X69278225Y-37645581D01*
X69276600Y-37612500D01*
X69276600Y-36837500D01*
X69278225Y-36804419D01*
X69283085Y-36771657D01*
X69291133Y-36739529D01*
X69302291Y-36708344D01*
X69316452Y-36678404D01*
X69333479Y-36649995D01*
X69353209Y-36623392D01*
X69375451Y-36598851D01*
X69399992Y-36576609D01*
X69426595Y-36556879D01*
X69455004Y-36539852D01*
X69484944Y-36525691D01*
X69516129Y-36514533D01*
X69548257Y-36506485D01*
X69581019Y-36501625D01*
X69614100Y-36500000D01*
X70289100Y-36500000D01*
X70322181Y-36501625D01*
X70322181Y-36501625D01*
G37*
D15*
X69951600Y-37225000D03*
D10*
G36*
X70322181Y-38251625D02*
G01*
X70354943Y-38256485D01*
X70387071Y-38264533D01*
X70418256Y-38275691D01*
X70448196Y-38289852D01*
X70476605Y-38306879D01*
X70503208Y-38326609D01*
X70527749Y-38348851D01*
X70549991Y-38373392D01*
X70569721Y-38399995D01*
X70586748Y-38428404D01*
X70600909Y-38458344D01*
X70612067Y-38489529D01*
X70620115Y-38521657D01*
X70624975Y-38554419D01*
X70626600Y-38587500D01*
X70626600Y-39362500D01*
X70624975Y-39395581D01*
X70620115Y-39428343D01*
X70612067Y-39460471D01*
X70600909Y-39491656D01*
X70586748Y-39521596D01*
X70569721Y-39550005D01*
X70549991Y-39576608D01*
X70527749Y-39601149D01*
X70503208Y-39623391D01*
X70476605Y-39643121D01*
X70448196Y-39660148D01*
X70418256Y-39674309D01*
X70387071Y-39685467D01*
X70354943Y-39693515D01*
X70322181Y-39698375D01*
X70289100Y-39700000D01*
X69614100Y-39700000D01*
X69581019Y-39698375D01*
X69548257Y-39693515D01*
X69516129Y-39685467D01*
X69484944Y-39674309D01*
X69455004Y-39660148D01*
X69426595Y-39643121D01*
X69399992Y-39623391D01*
X69375451Y-39601149D01*
X69353209Y-39576608D01*
X69333479Y-39550005D01*
X69316452Y-39521596D01*
X69302291Y-39491656D01*
X69291133Y-39460471D01*
X69283085Y-39428343D01*
X69278225Y-39395581D01*
X69276600Y-39362500D01*
X69276600Y-38587500D01*
X69278225Y-38554419D01*
X69283085Y-38521657D01*
X69291133Y-38489529D01*
X69302291Y-38458344D01*
X69316452Y-38428404D01*
X69333479Y-38399995D01*
X69353209Y-38373392D01*
X69375451Y-38348851D01*
X69399992Y-38326609D01*
X69426595Y-38306879D01*
X69455004Y-38289852D01*
X69484944Y-38275691D01*
X69516129Y-38264533D01*
X69548257Y-38256485D01*
X69581019Y-38251625D01*
X69614100Y-38250000D01*
X70289100Y-38250000D01*
X70322181Y-38251625D01*
X70322181Y-38251625D01*
G37*
D15*
X69951600Y-38975000D03*
D10*
G36*
X72303381Y-36501625D02*
G01*
X72336143Y-36506485D01*
X72368271Y-36514533D01*
X72399456Y-36525691D01*
X72429396Y-36539852D01*
X72457805Y-36556879D01*
X72484408Y-36576609D01*
X72508949Y-36598851D01*
X72531191Y-36623392D01*
X72550921Y-36649995D01*
X72567948Y-36678404D01*
X72582109Y-36708344D01*
X72593267Y-36739529D01*
X72601315Y-36771657D01*
X72606175Y-36804419D01*
X72607800Y-36837500D01*
X72607800Y-37612500D01*
X72606175Y-37645581D01*
X72601315Y-37678343D01*
X72593267Y-37710471D01*
X72582109Y-37741656D01*
X72567948Y-37771596D01*
X72550921Y-37800005D01*
X72531191Y-37826608D01*
X72508949Y-37851149D01*
X72484408Y-37873391D01*
X72457805Y-37893121D01*
X72429396Y-37910148D01*
X72399456Y-37924309D01*
X72368271Y-37935467D01*
X72336143Y-37943515D01*
X72303381Y-37948375D01*
X72270300Y-37950000D01*
X71595300Y-37950000D01*
X71562219Y-37948375D01*
X71529457Y-37943515D01*
X71497329Y-37935467D01*
X71466144Y-37924309D01*
X71436204Y-37910148D01*
X71407795Y-37893121D01*
X71381192Y-37873391D01*
X71356651Y-37851149D01*
X71334409Y-37826608D01*
X71314679Y-37800005D01*
X71297652Y-37771596D01*
X71283491Y-37741656D01*
X71272333Y-37710471D01*
X71264285Y-37678343D01*
X71259425Y-37645581D01*
X71257800Y-37612500D01*
X71257800Y-36837500D01*
X71259425Y-36804419D01*
X71264285Y-36771657D01*
X71272333Y-36739529D01*
X71283491Y-36708344D01*
X71297652Y-36678404D01*
X71314679Y-36649995D01*
X71334409Y-36623392D01*
X71356651Y-36598851D01*
X71381192Y-36576609D01*
X71407795Y-36556879D01*
X71436204Y-36539852D01*
X71466144Y-36525691D01*
X71497329Y-36514533D01*
X71529457Y-36506485D01*
X71562219Y-36501625D01*
X71595300Y-36500000D01*
X72270300Y-36500000D01*
X72303381Y-36501625D01*
X72303381Y-36501625D01*
G37*
D15*
X71932800Y-37225000D03*
D10*
G36*
X72303381Y-38251625D02*
G01*
X72336143Y-38256485D01*
X72368271Y-38264533D01*
X72399456Y-38275691D01*
X72429396Y-38289852D01*
X72457805Y-38306879D01*
X72484408Y-38326609D01*
X72508949Y-38348851D01*
X72531191Y-38373392D01*
X72550921Y-38399995D01*
X72567948Y-38428404D01*
X72582109Y-38458344D01*
X72593267Y-38489529D01*
X72601315Y-38521657D01*
X72606175Y-38554419D01*
X72607800Y-38587500D01*
X72607800Y-39362500D01*
X72606175Y-39395581D01*
X72601315Y-39428343D01*
X72593267Y-39460471D01*
X72582109Y-39491656D01*
X72567948Y-39521596D01*
X72550921Y-39550005D01*
X72531191Y-39576608D01*
X72508949Y-39601149D01*
X72484408Y-39623391D01*
X72457805Y-39643121D01*
X72429396Y-39660148D01*
X72399456Y-39674309D01*
X72368271Y-39685467D01*
X72336143Y-39693515D01*
X72303381Y-39698375D01*
X72270300Y-39700000D01*
X71595300Y-39700000D01*
X71562219Y-39698375D01*
X71529457Y-39693515D01*
X71497329Y-39685467D01*
X71466144Y-39674309D01*
X71436204Y-39660148D01*
X71407795Y-39643121D01*
X71381192Y-39623391D01*
X71356651Y-39601149D01*
X71334409Y-39576608D01*
X71314679Y-39550005D01*
X71297652Y-39521596D01*
X71283491Y-39491656D01*
X71272333Y-39460471D01*
X71264285Y-39428343D01*
X71259425Y-39395581D01*
X71257800Y-39362500D01*
X71257800Y-38587500D01*
X71259425Y-38554419D01*
X71264285Y-38521657D01*
X71272333Y-38489529D01*
X71283491Y-38458344D01*
X71297652Y-38428404D01*
X71314679Y-38399995D01*
X71334409Y-38373392D01*
X71356651Y-38348851D01*
X71381192Y-38326609D01*
X71407795Y-38306879D01*
X71436204Y-38289852D01*
X71466144Y-38275691D01*
X71497329Y-38264533D01*
X71529457Y-38256485D01*
X71562219Y-38251625D01*
X71595300Y-38250000D01*
X72270300Y-38250000D01*
X72303381Y-38251625D01*
X72303381Y-38251625D01*
G37*
D15*
X71932800Y-38975000D03*
D10*
G36*
X66652381Y-39661825D02*
G01*
X66685143Y-39666685D01*
X66717271Y-39674733D01*
X66748456Y-39685891D01*
X66778396Y-39700052D01*
X66806805Y-39717079D01*
X66833408Y-39736809D01*
X66857949Y-39759051D01*
X66880191Y-39783592D01*
X66899921Y-39810195D01*
X66916948Y-39838604D01*
X66931109Y-39868544D01*
X66942267Y-39899729D01*
X66950315Y-39931857D01*
X66955175Y-39964619D01*
X66956800Y-39997700D01*
X66956800Y-40672700D01*
X66955175Y-40705781D01*
X66950315Y-40738543D01*
X66942267Y-40770671D01*
X66931109Y-40801856D01*
X66916948Y-40831796D01*
X66899921Y-40860205D01*
X66880191Y-40886808D01*
X66857949Y-40911349D01*
X66833408Y-40933591D01*
X66806805Y-40953321D01*
X66778396Y-40970348D01*
X66748456Y-40984509D01*
X66717271Y-40995667D01*
X66685143Y-41003715D01*
X66652381Y-41008575D01*
X66619300Y-41010200D01*
X65844300Y-41010200D01*
X65811219Y-41008575D01*
X65778457Y-41003715D01*
X65746329Y-40995667D01*
X65715144Y-40984509D01*
X65685204Y-40970348D01*
X65656795Y-40953321D01*
X65630192Y-40933591D01*
X65605651Y-40911349D01*
X65583409Y-40886808D01*
X65563679Y-40860205D01*
X65546652Y-40831796D01*
X65532491Y-40801856D01*
X65521333Y-40770671D01*
X65513285Y-40738543D01*
X65508425Y-40705781D01*
X65506800Y-40672700D01*
X65506800Y-39997700D01*
X65508425Y-39964619D01*
X65513285Y-39931857D01*
X65521333Y-39899729D01*
X65532491Y-39868544D01*
X65546652Y-39838604D01*
X65563679Y-39810195D01*
X65583409Y-39783592D01*
X65605651Y-39759051D01*
X65630192Y-39736809D01*
X65656795Y-39717079D01*
X65685204Y-39700052D01*
X65715144Y-39685891D01*
X65746329Y-39674733D01*
X65778457Y-39666685D01*
X65811219Y-39661825D01*
X65844300Y-39660200D01*
X66619300Y-39660200D01*
X66652381Y-39661825D01*
X66652381Y-39661825D01*
G37*
D15*
X66231800Y-40335200D03*
D10*
G36*
X68402381Y-39661825D02*
G01*
X68435143Y-39666685D01*
X68467271Y-39674733D01*
X68498456Y-39685891D01*
X68528396Y-39700052D01*
X68556805Y-39717079D01*
X68583408Y-39736809D01*
X68607949Y-39759051D01*
X68630191Y-39783592D01*
X68649921Y-39810195D01*
X68666948Y-39838604D01*
X68681109Y-39868544D01*
X68692267Y-39899729D01*
X68700315Y-39931857D01*
X68705175Y-39964619D01*
X68706800Y-39997700D01*
X68706800Y-40672700D01*
X68705175Y-40705781D01*
X68700315Y-40738543D01*
X68692267Y-40770671D01*
X68681109Y-40801856D01*
X68666948Y-40831796D01*
X68649921Y-40860205D01*
X68630191Y-40886808D01*
X68607949Y-40911349D01*
X68583408Y-40933591D01*
X68556805Y-40953321D01*
X68528396Y-40970348D01*
X68498456Y-40984509D01*
X68467271Y-40995667D01*
X68435143Y-41003715D01*
X68402381Y-41008575D01*
X68369300Y-41010200D01*
X67594300Y-41010200D01*
X67561219Y-41008575D01*
X67528457Y-41003715D01*
X67496329Y-40995667D01*
X67465144Y-40984509D01*
X67435204Y-40970348D01*
X67406795Y-40953321D01*
X67380192Y-40933591D01*
X67355651Y-40911349D01*
X67333409Y-40886808D01*
X67313679Y-40860205D01*
X67296652Y-40831796D01*
X67282491Y-40801856D01*
X67271333Y-40770671D01*
X67263285Y-40738543D01*
X67258425Y-40705781D01*
X67256800Y-40672700D01*
X67256800Y-39997700D01*
X67258425Y-39964619D01*
X67263285Y-39931857D01*
X67271333Y-39899729D01*
X67282491Y-39868544D01*
X67296652Y-39838604D01*
X67313679Y-39810195D01*
X67333409Y-39783592D01*
X67355651Y-39759051D01*
X67380192Y-39736809D01*
X67406795Y-39717079D01*
X67435204Y-39700052D01*
X67465144Y-39685891D01*
X67496329Y-39674733D01*
X67528457Y-39666685D01*
X67561219Y-39661825D01*
X67594300Y-39660200D01*
X68369300Y-39660200D01*
X68402381Y-39661825D01*
X68402381Y-39661825D01*
G37*
D15*
X67981800Y-40335200D03*
D10*
G36*
X69621581Y-50888625D02*
G01*
X69654343Y-50893485D01*
X69686471Y-50901533D01*
X69717656Y-50912691D01*
X69747596Y-50926852D01*
X69776005Y-50943879D01*
X69802608Y-50963609D01*
X69827149Y-50985851D01*
X69849391Y-51010392D01*
X69869121Y-51036995D01*
X69886148Y-51065404D01*
X69900309Y-51095344D01*
X69911467Y-51126529D01*
X69919515Y-51158657D01*
X69924375Y-51191419D01*
X69926000Y-51224500D01*
X69926000Y-51899500D01*
X69924375Y-51932581D01*
X69919515Y-51965343D01*
X69911467Y-51997471D01*
X69900309Y-52028656D01*
X69886148Y-52058596D01*
X69869121Y-52087005D01*
X69849391Y-52113608D01*
X69827149Y-52138149D01*
X69802608Y-52160391D01*
X69776005Y-52180121D01*
X69747596Y-52197148D01*
X69717656Y-52211309D01*
X69686471Y-52222467D01*
X69654343Y-52230515D01*
X69621581Y-52235375D01*
X69588500Y-52237000D01*
X68813500Y-52237000D01*
X68780419Y-52235375D01*
X68747657Y-52230515D01*
X68715529Y-52222467D01*
X68684344Y-52211309D01*
X68654404Y-52197148D01*
X68625995Y-52180121D01*
X68599392Y-52160391D01*
X68574851Y-52138149D01*
X68552609Y-52113608D01*
X68532879Y-52087005D01*
X68515852Y-52058596D01*
X68501691Y-52028656D01*
X68490533Y-51997471D01*
X68482485Y-51965343D01*
X68477625Y-51932581D01*
X68476000Y-51899500D01*
X68476000Y-51224500D01*
X68477625Y-51191419D01*
X68482485Y-51158657D01*
X68490533Y-51126529D01*
X68501691Y-51095344D01*
X68515852Y-51065404D01*
X68532879Y-51036995D01*
X68552609Y-51010392D01*
X68574851Y-50985851D01*
X68599392Y-50963609D01*
X68625995Y-50943879D01*
X68654404Y-50926852D01*
X68684344Y-50912691D01*
X68715529Y-50901533D01*
X68747657Y-50893485D01*
X68780419Y-50888625D01*
X68813500Y-50887000D01*
X69588500Y-50887000D01*
X69621581Y-50888625D01*
X69621581Y-50888625D01*
G37*
D15*
X69201000Y-51562000D03*
D10*
G36*
X67871581Y-50888625D02*
G01*
X67904343Y-50893485D01*
X67936471Y-50901533D01*
X67967656Y-50912691D01*
X67997596Y-50926852D01*
X68026005Y-50943879D01*
X68052608Y-50963609D01*
X68077149Y-50985851D01*
X68099391Y-51010392D01*
X68119121Y-51036995D01*
X68136148Y-51065404D01*
X68150309Y-51095344D01*
X68161467Y-51126529D01*
X68169515Y-51158657D01*
X68174375Y-51191419D01*
X68176000Y-51224500D01*
X68176000Y-51899500D01*
X68174375Y-51932581D01*
X68169515Y-51965343D01*
X68161467Y-51997471D01*
X68150309Y-52028656D01*
X68136148Y-52058596D01*
X68119121Y-52087005D01*
X68099391Y-52113608D01*
X68077149Y-52138149D01*
X68052608Y-52160391D01*
X68026005Y-52180121D01*
X67997596Y-52197148D01*
X67967656Y-52211309D01*
X67936471Y-52222467D01*
X67904343Y-52230515D01*
X67871581Y-52235375D01*
X67838500Y-52237000D01*
X67063500Y-52237000D01*
X67030419Y-52235375D01*
X66997657Y-52230515D01*
X66965529Y-52222467D01*
X66934344Y-52211309D01*
X66904404Y-52197148D01*
X66875995Y-52180121D01*
X66849392Y-52160391D01*
X66824851Y-52138149D01*
X66802609Y-52113608D01*
X66782879Y-52087005D01*
X66765852Y-52058596D01*
X66751691Y-52028656D01*
X66740533Y-51997471D01*
X66732485Y-51965343D01*
X66727625Y-51932581D01*
X66726000Y-51899500D01*
X66726000Y-51224500D01*
X66727625Y-51191419D01*
X66732485Y-51158657D01*
X66740533Y-51126529D01*
X66751691Y-51095344D01*
X66765852Y-51065404D01*
X66782879Y-51036995D01*
X66802609Y-51010392D01*
X66824851Y-50985851D01*
X66849392Y-50963609D01*
X66875995Y-50943879D01*
X66904404Y-50926852D01*
X66934344Y-50912691D01*
X66965529Y-50901533D01*
X66997657Y-50893485D01*
X67030419Y-50888625D01*
X67063500Y-50887000D01*
X67838500Y-50887000D01*
X67871581Y-50888625D01*
X67871581Y-50888625D01*
G37*
D15*
X67451000Y-51562000D03*
D20*
X48361600Y-36728400D03*
X51155600Y-36728400D03*
X48361600Y-33832800D03*
X51155600Y-33832800D03*
D10*
G36*
X87238581Y-36374625D02*
G01*
X87271343Y-36379485D01*
X87303471Y-36387533D01*
X87334656Y-36398691D01*
X87364596Y-36412852D01*
X87393005Y-36429879D01*
X87419608Y-36449609D01*
X87444149Y-36471851D01*
X87466391Y-36496392D01*
X87486121Y-36522995D01*
X87503148Y-36551404D01*
X87517309Y-36581344D01*
X87528467Y-36612529D01*
X87536515Y-36644657D01*
X87541375Y-36677419D01*
X87543000Y-36710500D01*
X87543000Y-37485500D01*
X87541375Y-37518581D01*
X87536515Y-37551343D01*
X87528467Y-37583471D01*
X87517309Y-37614656D01*
X87503148Y-37644596D01*
X87486121Y-37673005D01*
X87466391Y-37699608D01*
X87444149Y-37724149D01*
X87419608Y-37746391D01*
X87393005Y-37766121D01*
X87364596Y-37783148D01*
X87334656Y-37797309D01*
X87303471Y-37808467D01*
X87271343Y-37816515D01*
X87238581Y-37821375D01*
X87205500Y-37823000D01*
X86530500Y-37823000D01*
X86497419Y-37821375D01*
X86464657Y-37816515D01*
X86432529Y-37808467D01*
X86401344Y-37797309D01*
X86371404Y-37783148D01*
X86342995Y-37766121D01*
X86316392Y-37746391D01*
X86291851Y-37724149D01*
X86269609Y-37699608D01*
X86249879Y-37673005D01*
X86232852Y-37644596D01*
X86218691Y-37614656D01*
X86207533Y-37583471D01*
X86199485Y-37551343D01*
X86194625Y-37518581D01*
X86193000Y-37485500D01*
X86193000Y-36710500D01*
X86194625Y-36677419D01*
X86199485Y-36644657D01*
X86207533Y-36612529D01*
X86218691Y-36581344D01*
X86232852Y-36551404D01*
X86249879Y-36522995D01*
X86269609Y-36496392D01*
X86291851Y-36471851D01*
X86316392Y-36449609D01*
X86342995Y-36429879D01*
X86371404Y-36412852D01*
X86401344Y-36398691D01*
X86432529Y-36387533D01*
X86464657Y-36379485D01*
X86497419Y-36374625D01*
X86530500Y-36373000D01*
X87205500Y-36373000D01*
X87238581Y-36374625D01*
X87238581Y-36374625D01*
G37*
D15*
X86868000Y-37098000D03*
D10*
G36*
X87238581Y-38124625D02*
G01*
X87271343Y-38129485D01*
X87303471Y-38137533D01*
X87334656Y-38148691D01*
X87364596Y-38162852D01*
X87393005Y-38179879D01*
X87419608Y-38199609D01*
X87444149Y-38221851D01*
X87466391Y-38246392D01*
X87486121Y-38272995D01*
X87503148Y-38301404D01*
X87517309Y-38331344D01*
X87528467Y-38362529D01*
X87536515Y-38394657D01*
X87541375Y-38427419D01*
X87543000Y-38460500D01*
X87543000Y-39235500D01*
X87541375Y-39268581D01*
X87536515Y-39301343D01*
X87528467Y-39333471D01*
X87517309Y-39364656D01*
X87503148Y-39394596D01*
X87486121Y-39423005D01*
X87466391Y-39449608D01*
X87444149Y-39474149D01*
X87419608Y-39496391D01*
X87393005Y-39516121D01*
X87364596Y-39533148D01*
X87334656Y-39547309D01*
X87303471Y-39558467D01*
X87271343Y-39566515D01*
X87238581Y-39571375D01*
X87205500Y-39573000D01*
X86530500Y-39573000D01*
X86497419Y-39571375D01*
X86464657Y-39566515D01*
X86432529Y-39558467D01*
X86401344Y-39547309D01*
X86371404Y-39533148D01*
X86342995Y-39516121D01*
X86316392Y-39496391D01*
X86291851Y-39474149D01*
X86269609Y-39449608D01*
X86249879Y-39423005D01*
X86232852Y-39394596D01*
X86218691Y-39364656D01*
X86207533Y-39333471D01*
X86199485Y-39301343D01*
X86194625Y-39268581D01*
X86193000Y-39235500D01*
X86193000Y-38460500D01*
X86194625Y-38427419D01*
X86199485Y-38394657D01*
X86207533Y-38362529D01*
X86218691Y-38331344D01*
X86232852Y-38301404D01*
X86249879Y-38272995D01*
X86269609Y-38246392D01*
X86291851Y-38221851D01*
X86316392Y-38199609D01*
X86342995Y-38179879D01*
X86371404Y-38162852D01*
X86401344Y-38148691D01*
X86432529Y-38137533D01*
X86464657Y-38129485D01*
X86497419Y-38124625D01*
X86530500Y-38123000D01*
X87205500Y-38123000D01*
X87238581Y-38124625D01*
X87238581Y-38124625D01*
G37*
D15*
X86868000Y-38848000D03*
D10*
G36*
X89143581Y-36374625D02*
G01*
X89176343Y-36379485D01*
X89208471Y-36387533D01*
X89239656Y-36398691D01*
X89269596Y-36412852D01*
X89298005Y-36429879D01*
X89324608Y-36449609D01*
X89349149Y-36471851D01*
X89371391Y-36496392D01*
X89391121Y-36522995D01*
X89408148Y-36551404D01*
X89422309Y-36581344D01*
X89433467Y-36612529D01*
X89441515Y-36644657D01*
X89446375Y-36677419D01*
X89448000Y-36710500D01*
X89448000Y-37485500D01*
X89446375Y-37518581D01*
X89441515Y-37551343D01*
X89433467Y-37583471D01*
X89422309Y-37614656D01*
X89408148Y-37644596D01*
X89391121Y-37673005D01*
X89371391Y-37699608D01*
X89349149Y-37724149D01*
X89324608Y-37746391D01*
X89298005Y-37766121D01*
X89269596Y-37783148D01*
X89239656Y-37797309D01*
X89208471Y-37808467D01*
X89176343Y-37816515D01*
X89143581Y-37821375D01*
X89110500Y-37823000D01*
X88435500Y-37823000D01*
X88402419Y-37821375D01*
X88369657Y-37816515D01*
X88337529Y-37808467D01*
X88306344Y-37797309D01*
X88276404Y-37783148D01*
X88247995Y-37766121D01*
X88221392Y-37746391D01*
X88196851Y-37724149D01*
X88174609Y-37699608D01*
X88154879Y-37673005D01*
X88137852Y-37644596D01*
X88123691Y-37614656D01*
X88112533Y-37583471D01*
X88104485Y-37551343D01*
X88099625Y-37518581D01*
X88098000Y-37485500D01*
X88098000Y-36710500D01*
X88099625Y-36677419D01*
X88104485Y-36644657D01*
X88112533Y-36612529D01*
X88123691Y-36581344D01*
X88137852Y-36551404D01*
X88154879Y-36522995D01*
X88174609Y-36496392D01*
X88196851Y-36471851D01*
X88221392Y-36449609D01*
X88247995Y-36429879D01*
X88276404Y-36412852D01*
X88306344Y-36398691D01*
X88337529Y-36387533D01*
X88369657Y-36379485D01*
X88402419Y-36374625D01*
X88435500Y-36373000D01*
X89110500Y-36373000D01*
X89143581Y-36374625D01*
X89143581Y-36374625D01*
G37*
D15*
X88773000Y-37098000D03*
D10*
G36*
X89143581Y-38124625D02*
G01*
X89176343Y-38129485D01*
X89208471Y-38137533D01*
X89239656Y-38148691D01*
X89269596Y-38162852D01*
X89298005Y-38179879D01*
X89324608Y-38199609D01*
X89349149Y-38221851D01*
X89371391Y-38246392D01*
X89391121Y-38272995D01*
X89408148Y-38301404D01*
X89422309Y-38331344D01*
X89433467Y-38362529D01*
X89441515Y-38394657D01*
X89446375Y-38427419D01*
X89448000Y-38460500D01*
X89448000Y-39235500D01*
X89446375Y-39268581D01*
X89441515Y-39301343D01*
X89433467Y-39333471D01*
X89422309Y-39364656D01*
X89408148Y-39394596D01*
X89391121Y-39423005D01*
X89371391Y-39449608D01*
X89349149Y-39474149D01*
X89324608Y-39496391D01*
X89298005Y-39516121D01*
X89269596Y-39533148D01*
X89239656Y-39547309D01*
X89208471Y-39558467D01*
X89176343Y-39566515D01*
X89143581Y-39571375D01*
X89110500Y-39573000D01*
X88435500Y-39573000D01*
X88402419Y-39571375D01*
X88369657Y-39566515D01*
X88337529Y-39558467D01*
X88306344Y-39547309D01*
X88276404Y-39533148D01*
X88247995Y-39516121D01*
X88221392Y-39496391D01*
X88196851Y-39474149D01*
X88174609Y-39449608D01*
X88154879Y-39423005D01*
X88137852Y-39394596D01*
X88123691Y-39364656D01*
X88112533Y-39333471D01*
X88104485Y-39301343D01*
X88099625Y-39268581D01*
X88098000Y-39235500D01*
X88098000Y-38460500D01*
X88099625Y-38427419D01*
X88104485Y-38394657D01*
X88112533Y-38362529D01*
X88123691Y-38331344D01*
X88137852Y-38301404D01*
X88154879Y-38272995D01*
X88174609Y-38246392D01*
X88196851Y-38221851D01*
X88221392Y-38199609D01*
X88247995Y-38179879D01*
X88276404Y-38162852D01*
X88306344Y-38148691D01*
X88337529Y-38137533D01*
X88369657Y-38129485D01*
X88402419Y-38124625D01*
X88435500Y-38123000D01*
X89110500Y-38123000D01*
X89143581Y-38124625D01*
X89143581Y-38124625D01*
G37*
D15*
X88773000Y-38848000D03*
D10*
G36*
X83390981Y-41312825D02*
G01*
X83423743Y-41317685D01*
X83455871Y-41325733D01*
X83487056Y-41336891D01*
X83516996Y-41351052D01*
X83545405Y-41368079D01*
X83572008Y-41387809D01*
X83596549Y-41410051D01*
X83618791Y-41434592D01*
X83638521Y-41461195D01*
X83655548Y-41489604D01*
X83669709Y-41519544D01*
X83680867Y-41550729D01*
X83688915Y-41582857D01*
X83693775Y-41615619D01*
X83695400Y-41648700D01*
X83695400Y-42323700D01*
X83693775Y-42356781D01*
X83688915Y-42389543D01*
X83680867Y-42421671D01*
X83669709Y-42452856D01*
X83655548Y-42482796D01*
X83638521Y-42511205D01*
X83618791Y-42537808D01*
X83596549Y-42562349D01*
X83572008Y-42584591D01*
X83545405Y-42604321D01*
X83516996Y-42621348D01*
X83487056Y-42635509D01*
X83455871Y-42646667D01*
X83423743Y-42654715D01*
X83390981Y-42659575D01*
X83357900Y-42661200D01*
X82582900Y-42661200D01*
X82549819Y-42659575D01*
X82517057Y-42654715D01*
X82484929Y-42646667D01*
X82453744Y-42635509D01*
X82423804Y-42621348D01*
X82395395Y-42604321D01*
X82368792Y-42584591D01*
X82344251Y-42562349D01*
X82322009Y-42537808D01*
X82302279Y-42511205D01*
X82285252Y-42482796D01*
X82271091Y-42452856D01*
X82259933Y-42421671D01*
X82251885Y-42389543D01*
X82247025Y-42356781D01*
X82245400Y-42323700D01*
X82245400Y-41648700D01*
X82247025Y-41615619D01*
X82251885Y-41582857D01*
X82259933Y-41550729D01*
X82271091Y-41519544D01*
X82285252Y-41489604D01*
X82302279Y-41461195D01*
X82322009Y-41434592D01*
X82344251Y-41410051D01*
X82368792Y-41387809D01*
X82395395Y-41368079D01*
X82423804Y-41351052D01*
X82453744Y-41336891D01*
X82484929Y-41325733D01*
X82517057Y-41317685D01*
X82549819Y-41312825D01*
X82582900Y-41311200D01*
X83357900Y-41311200D01*
X83390981Y-41312825D01*
X83390981Y-41312825D01*
G37*
D15*
X82970400Y-41986200D03*
D10*
G36*
X85140981Y-41312825D02*
G01*
X85173743Y-41317685D01*
X85205871Y-41325733D01*
X85237056Y-41336891D01*
X85266996Y-41351052D01*
X85295405Y-41368079D01*
X85322008Y-41387809D01*
X85346549Y-41410051D01*
X85368791Y-41434592D01*
X85388521Y-41461195D01*
X85405548Y-41489604D01*
X85419709Y-41519544D01*
X85430867Y-41550729D01*
X85438915Y-41582857D01*
X85443775Y-41615619D01*
X85445400Y-41648700D01*
X85445400Y-42323700D01*
X85443775Y-42356781D01*
X85438915Y-42389543D01*
X85430867Y-42421671D01*
X85419709Y-42452856D01*
X85405548Y-42482796D01*
X85388521Y-42511205D01*
X85368791Y-42537808D01*
X85346549Y-42562349D01*
X85322008Y-42584591D01*
X85295405Y-42604321D01*
X85266996Y-42621348D01*
X85237056Y-42635509D01*
X85205871Y-42646667D01*
X85173743Y-42654715D01*
X85140981Y-42659575D01*
X85107900Y-42661200D01*
X84332900Y-42661200D01*
X84299819Y-42659575D01*
X84267057Y-42654715D01*
X84234929Y-42646667D01*
X84203744Y-42635509D01*
X84173804Y-42621348D01*
X84145395Y-42604321D01*
X84118792Y-42584591D01*
X84094251Y-42562349D01*
X84072009Y-42537808D01*
X84052279Y-42511205D01*
X84035252Y-42482796D01*
X84021091Y-42452856D01*
X84009933Y-42421671D01*
X84001885Y-42389543D01*
X83997025Y-42356781D01*
X83995400Y-42323700D01*
X83995400Y-41648700D01*
X83997025Y-41615619D01*
X84001885Y-41582857D01*
X84009933Y-41550729D01*
X84021091Y-41519544D01*
X84035252Y-41489604D01*
X84052279Y-41461195D01*
X84072009Y-41434592D01*
X84094251Y-41410051D01*
X84118792Y-41387809D01*
X84145395Y-41368079D01*
X84173804Y-41351052D01*
X84203744Y-41336891D01*
X84234929Y-41325733D01*
X84267057Y-41317685D01*
X84299819Y-41312825D01*
X84332900Y-41311200D01*
X85107900Y-41311200D01*
X85140981Y-41312825D01*
X85140981Y-41312825D01*
G37*
D15*
X84720400Y-41986200D03*
D10*
G36*
X76987581Y-55841625D02*
G01*
X77020343Y-55846485D01*
X77052471Y-55854533D01*
X77083656Y-55865691D01*
X77113596Y-55879852D01*
X77142005Y-55896879D01*
X77168608Y-55916609D01*
X77193149Y-55938851D01*
X77215391Y-55963392D01*
X77235121Y-55989995D01*
X77252148Y-56018404D01*
X77266309Y-56048344D01*
X77277467Y-56079529D01*
X77285515Y-56111657D01*
X77290375Y-56144419D01*
X77292000Y-56177500D01*
X77292000Y-56852500D01*
X77290375Y-56885581D01*
X77285515Y-56918343D01*
X77277467Y-56950471D01*
X77266309Y-56981656D01*
X77252148Y-57011596D01*
X77235121Y-57040005D01*
X77215391Y-57066608D01*
X77193149Y-57091149D01*
X77168608Y-57113391D01*
X77142005Y-57133121D01*
X77113596Y-57150148D01*
X77083656Y-57164309D01*
X77052471Y-57175467D01*
X77020343Y-57183515D01*
X76987581Y-57188375D01*
X76954500Y-57190000D01*
X76179500Y-57190000D01*
X76146419Y-57188375D01*
X76113657Y-57183515D01*
X76081529Y-57175467D01*
X76050344Y-57164309D01*
X76020404Y-57150148D01*
X75991995Y-57133121D01*
X75965392Y-57113391D01*
X75940851Y-57091149D01*
X75918609Y-57066608D01*
X75898879Y-57040005D01*
X75881852Y-57011596D01*
X75867691Y-56981656D01*
X75856533Y-56950471D01*
X75848485Y-56918343D01*
X75843625Y-56885581D01*
X75842000Y-56852500D01*
X75842000Y-56177500D01*
X75843625Y-56144419D01*
X75848485Y-56111657D01*
X75856533Y-56079529D01*
X75867691Y-56048344D01*
X75881852Y-56018404D01*
X75898879Y-55989995D01*
X75918609Y-55963392D01*
X75940851Y-55938851D01*
X75965392Y-55916609D01*
X75991995Y-55896879D01*
X76020404Y-55879852D01*
X76050344Y-55865691D01*
X76081529Y-55854533D01*
X76113657Y-55846485D01*
X76146419Y-55841625D01*
X76179500Y-55840000D01*
X76954500Y-55840000D01*
X76987581Y-55841625D01*
X76987581Y-55841625D01*
G37*
D15*
X76567000Y-56515000D03*
D10*
G36*
X75237581Y-55841625D02*
G01*
X75270343Y-55846485D01*
X75302471Y-55854533D01*
X75333656Y-55865691D01*
X75363596Y-55879852D01*
X75392005Y-55896879D01*
X75418608Y-55916609D01*
X75443149Y-55938851D01*
X75465391Y-55963392D01*
X75485121Y-55989995D01*
X75502148Y-56018404D01*
X75516309Y-56048344D01*
X75527467Y-56079529D01*
X75535515Y-56111657D01*
X75540375Y-56144419D01*
X75542000Y-56177500D01*
X75542000Y-56852500D01*
X75540375Y-56885581D01*
X75535515Y-56918343D01*
X75527467Y-56950471D01*
X75516309Y-56981656D01*
X75502148Y-57011596D01*
X75485121Y-57040005D01*
X75465391Y-57066608D01*
X75443149Y-57091149D01*
X75418608Y-57113391D01*
X75392005Y-57133121D01*
X75363596Y-57150148D01*
X75333656Y-57164309D01*
X75302471Y-57175467D01*
X75270343Y-57183515D01*
X75237581Y-57188375D01*
X75204500Y-57190000D01*
X74429500Y-57190000D01*
X74396419Y-57188375D01*
X74363657Y-57183515D01*
X74331529Y-57175467D01*
X74300344Y-57164309D01*
X74270404Y-57150148D01*
X74241995Y-57133121D01*
X74215392Y-57113391D01*
X74190851Y-57091149D01*
X74168609Y-57066608D01*
X74148879Y-57040005D01*
X74131852Y-57011596D01*
X74117691Y-56981656D01*
X74106533Y-56950471D01*
X74098485Y-56918343D01*
X74093625Y-56885581D01*
X74092000Y-56852500D01*
X74092000Y-56177500D01*
X74093625Y-56144419D01*
X74098485Y-56111657D01*
X74106533Y-56079529D01*
X74117691Y-56048344D01*
X74131852Y-56018404D01*
X74148879Y-55989995D01*
X74168609Y-55963392D01*
X74190851Y-55938851D01*
X74215392Y-55916609D01*
X74241995Y-55896879D01*
X74270404Y-55879852D01*
X74300344Y-55865691D01*
X74331529Y-55854533D01*
X74363657Y-55846485D01*
X74396419Y-55841625D01*
X74429500Y-55840000D01*
X75204500Y-55840000D01*
X75237581Y-55841625D01*
X75237581Y-55841625D01*
G37*
D15*
X74817000Y-56515000D03*
D20*
X53009800Y-26327100D03*
X55803800Y-26327100D03*
X67322700Y-59918600D03*
X70116700Y-59918600D03*
D10*
G36*
X83530181Y-49122825D02*
G01*
X83562943Y-49127685D01*
X83595071Y-49135733D01*
X83626256Y-49146891D01*
X83656196Y-49161052D01*
X83684605Y-49178079D01*
X83711208Y-49197809D01*
X83735749Y-49220051D01*
X83757991Y-49244592D01*
X83777721Y-49271195D01*
X83794748Y-49299604D01*
X83808909Y-49329544D01*
X83820067Y-49360729D01*
X83828115Y-49392857D01*
X83832975Y-49425619D01*
X83834600Y-49458700D01*
X83834600Y-50233700D01*
X83832975Y-50266781D01*
X83828115Y-50299543D01*
X83820067Y-50331671D01*
X83808909Y-50362856D01*
X83794748Y-50392796D01*
X83777721Y-50421205D01*
X83757991Y-50447808D01*
X83735749Y-50472349D01*
X83711208Y-50494591D01*
X83684605Y-50514321D01*
X83656196Y-50531348D01*
X83626256Y-50545509D01*
X83595071Y-50556667D01*
X83562943Y-50564715D01*
X83530181Y-50569575D01*
X83497100Y-50571200D01*
X82822100Y-50571200D01*
X82789019Y-50569575D01*
X82756257Y-50564715D01*
X82724129Y-50556667D01*
X82692944Y-50545509D01*
X82663004Y-50531348D01*
X82634595Y-50514321D01*
X82607992Y-50494591D01*
X82583451Y-50472349D01*
X82561209Y-50447808D01*
X82541479Y-50421205D01*
X82524452Y-50392796D01*
X82510291Y-50362856D01*
X82499133Y-50331671D01*
X82491085Y-50299543D01*
X82486225Y-50266781D01*
X82484600Y-50233700D01*
X82484600Y-49458700D01*
X82486225Y-49425619D01*
X82491085Y-49392857D01*
X82499133Y-49360729D01*
X82510291Y-49329544D01*
X82524452Y-49299604D01*
X82541479Y-49271195D01*
X82561209Y-49244592D01*
X82583451Y-49220051D01*
X82607992Y-49197809D01*
X82634595Y-49178079D01*
X82663004Y-49161052D01*
X82692944Y-49146891D01*
X82724129Y-49135733D01*
X82756257Y-49127685D01*
X82789019Y-49122825D01*
X82822100Y-49121200D01*
X83497100Y-49121200D01*
X83530181Y-49122825D01*
X83530181Y-49122825D01*
G37*
D15*
X83159600Y-49846200D03*
D10*
G36*
X83530181Y-47372825D02*
G01*
X83562943Y-47377685D01*
X83595071Y-47385733D01*
X83626256Y-47396891D01*
X83656196Y-47411052D01*
X83684605Y-47428079D01*
X83711208Y-47447809D01*
X83735749Y-47470051D01*
X83757991Y-47494592D01*
X83777721Y-47521195D01*
X83794748Y-47549604D01*
X83808909Y-47579544D01*
X83820067Y-47610729D01*
X83828115Y-47642857D01*
X83832975Y-47675619D01*
X83834600Y-47708700D01*
X83834600Y-48483700D01*
X83832975Y-48516781D01*
X83828115Y-48549543D01*
X83820067Y-48581671D01*
X83808909Y-48612856D01*
X83794748Y-48642796D01*
X83777721Y-48671205D01*
X83757991Y-48697808D01*
X83735749Y-48722349D01*
X83711208Y-48744591D01*
X83684605Y-48764321D01*
X83656196Y-48781348D01*
X83626256Y-48795509D01*
X83595071Y-48806667D01*
X83562943Y-48814715D01*
X83530181Y-48819575D01*
X83497100Y-48821200D01*
X82822100Y-48821200D01*
X82789019Y-48819575D01*
X82756257Y-48814715D01*
X82724129Y-48806667D01*
X82692944Y-48795509D01*
X82663004Y-48781348D01*
X82634595Y-48764321D01*
X82607992Y-48744591D01*
X82583451Y-48722349D01*
X82561209Y-48697808D01*
X82541479Y-48671205D01*
X82524452Y-48642796D01*
X82510291Y-48612856D01*
X82499133Y-48581671D01*
X82491085Y-48549543D01*
X82486225Y-48516781D01*
X82484600Y-48483700D01*
X82484600Y-47708700D01*
X82486225Y-47675619D01*
X82491085Y-47642857D01*
X82499133Y-47610729D01*
X82510291Y-47579544D01*
X82524452Y-47549604D01*
X82541479Y-47521195D01*
X82561209Y-47494592D01*
X82583451Y-47470051D01*
X82607992Y-47447809D01*
X82634595Y-47428079D01*
X82663004Y-47411052D01*
X82692944Y-47396891D01*
X82724129Y-47385733D01*
X82756257Y-47377685D01*
X82789019Y-47372825D01*
X82822100Y-47371200D01*
X83497100Y-47371200D01*
X83530181Y-47372825D01*
X83530181Y-47372825D01*
G37*
D15*
X83159600Y-48096200D03*
D10*
G36*
X95397846Y-22293589D02*
G01*
X95429880Y-22298341D01*
X95461294Y-22306210D01*
X95491786Y-22317120D01*
X95521061Y-22330966D01*
X95548838Y-22347615D01*
X95574850Y-22366907D01*
X95598845Y-22388655D01*
X95620593Y-22412650D01*
X95639885Y-22438662D01*
X95656534Y-22466439D01*
X95670380Y-22495714D01*
X95681290Y-22526206D01*
X95689159Y-22557620D01*
X95693911Y-22589654D01*
X95695500Y-22622000D01*
X95695500Y-23612000D01*
X95693911Y-23644346D01*
X95689159Y-23676380D01*
X95681290Y-23707794D01*
X95670380Y-23738286D01*
X95656534Y-23767561D01*
X95639885Y-23795338D01*
X95620593Y-23821350D01*
X95598845Y-23845345D01*
X95574850Y-23867093D01*
X95548838Y-23886385D01*
X95521061Y-23903034D01*
X95491786Y-23916880D01*
X95461294Y-23927790D01*
X95429880Y-23935659D01*
X95397846Y-23940411D01*
X95365500Y-23942000D01*
X92975500Y-23942000D01*
X92943154Y-23940411D01*
X92911120Y-23935659D01*
X92879706Y-23927790D01*
X92849214Y-23916880D01*
X92819939Y-23903034D01*
X92792162Y-23886385D01*
X92766150Y-23867093D01*
X92742155Y-23845345D01*
X92720407Y-23821350D01*
X92701115Y-23795338D01*
X92684466Y-23767561D01*
X92670620Y-23738286D01*
X92659710Y-23707794D01*
X92651841Y-23676380D01*
X92647089Y-23644346D01*
X92645500Y-23612000D01*
X92645500Y-22622000D01*
X92647089Y-22589654D01*
X92651841Y-22557620D01*
X92659710Y-22526206D01*
X92670620Y-22495714D01*
X92684466Y-22466439D01*
X92701115Y-22438662D01*
X92720407Y-22412650D01*
X92742155Y-22388655D01*
X92766150Y-22366907D01*
X92792162Y-22347615D01*
X92819939Y-22330966D01*
X92849214Y-22317120D01*
X92879706Y-22306210D01*
X92911120Y-22298341D01*
X92943154Y-22293589D01*
X92975500Y-22292000D01*
X95365500Y-22292000D01*
X95397846Y-22293589D01*
X95397846Y-22293589D01*
G37*
D21*
X94170500Y-23117000D03*
D10*
G36*
X95397846Y-19493589D02*
G01*
X95429880Y-19498341D01*
X95461294Y-19506210D01*
X95491786Y-19517120D01*
X95521061Y-19530966D01*
X95548838Y-19547615D01*
X95574850Y-19566907D01*
X95598845Y-19588655D01*
X95620593Y-19612650D01*
X95639885Y-19638662D01*
X95656534Y-19666439D01*
X95670380Y-19695714D01*
X95681290Y-19726206D01*
X95689159Y-19757620D01*
X95693911Y-19789654D01*
X95695500Y-19822000D01*
X95695500Y-20812000D01*
X95693911Y-20844346D01*
X95689159Y-20876380D01*
X95681290Y-20907794D01*
X95670380Y-20938286D01*
X95656534Y-20967561D01*
X95639885Y-20995338D01*
X95620593Y-21021350D01*
X95598845Y-21045345D01*
X95574850Y-21067093D01*
X95548838Y-21086385D01*
X95521061Y-21103034D01*
X95491786Y-21116880D01*
X95461294Y-21127790D01*
X95429880Y-21135659D01*
X95397846Y-21140411D01*
X95365500Y-21142000D01*
X92975500Y-21142000D01*
X92943154Y-21140411D01*
X92911120Y-21135659D01*
X92879706Y-21127790D01*
X92849214Y-21116880D01*
X92819939Y-21103034D01*
X92792162Y-21086385D01*
X92766150Y-21067093D01*
X92742155Y-21045345D01*
X92720407Y-21021350D01*
X92701115Y-20995338D01*
X92684466Y-20967561D01*
X92670620Y-20938286D01*
X92659710Y-20907794D01*
X92651841Y-20876380D01*
X92647089Y-20844346D01*
X92645500Y-20812000D01*
X92645500Y-19822000D01*
X92647089Y-19789654D01*
X92651841Y-19757620D01*
X92659710Y-19726206D01*
X92670620Y-19695714D01*
X92684466Y-19666439D01*
X92701115Y-19638662D01*
X92720407Y-19612650D01*
X92742155Y-19588655D01*
X92766150Y-19566907D01*
X92792162Y-19547615D01*
X92819939Y-19530966D01*
X92849214Y-19517120D01*
X92879706Y-19506210D01*
X92911120Y-19498341D01*
X92943154Y-19493589D01*
X92975500Y-19492000D01*
X95365500Y-19492000D01*
X95397846Y-19493589D01*
X95397846Y-19493589D01*
G37*
D21*
X94170500Y-20317000D03*
D10*
G36*
X89047846Y-30860089D02*
G01*
X89079880Y-30864841D01*
X89111294Y-30872710D01*
X89141786Y-30883620D01*
X89171061Y-30897466D01*
X89198838Y-30914115D01*
X89224850Y-30933407D01*
X89248845Y-30955155D01*
X89270593Y-30979150D01*
X89289885Y-31005162D01*
X89306534Y-31032939D01*
X89320380Y-31062214D01*
X89331290Y-31092706D01*
X89339159Y-31124120D01*
X89343911Y-31156154D01*
X89345500Y-31188500D01*
X89345500Y-32178500D01*
X89343911Y-32210846D01*
X89339159Y-32242880D01*
X89331290Y-32274294D01*
X89320380Y-32304786D01*
X89306534Y-32334061D01*
X89289885Y-32361838D01*
X89270593Y-32387850D01*
X89248845Y-32411845D01*
X89224850Y-32433593D01*
X89198838Y-32452885D01*
X89171061Y-32469534D01*
X89141786Y-32483380D01*
X89111294Y-32494290D01*
X89079880Y-32502159D01*
X89047846Y-32506911D01*
X89015500Y-32508500D01*
X86625500Y-32508500D01*
X86593154Y-32506911D01*
X86561120Y-32502159D01*
X86529706Y-32494290D01*
X86499214Y-32483380D01*
X86469939Y-32469534D01*
X86442162Y-32452885D01*
X86416150Y-32433593D01*
X86392155Y-32411845D01*
X86370407Y-32387850D01*
X86351115Y-32361838D01*
X86334466Y-32334061D01*
X86320620Y-32304786D01*
X86309710Y-32274294D01*
X86301841Y-32242880D01*
X86297089Y-32210846D01*
X86295500Y-32178500D01*
X86295500Y-31188500D01*
X86297089Y-31156154D01*
X86301841Y-31124120D01*
X86309710Y-31092706D01*
X86320620Y-31062214D01*
X86334466Y-31032939D01*
X86351115Y-31005162D01*
X86370407Y-30979150D01*
X86392155Y-30955155D01*
X86416150Y-30933407D01*
X86442162Y-30914115D01*
X86469939Y-30897466D01*
X86499214Y-30883620D01*
X86529706Y-30872710D01*
X86561120Y-30864841D01*
X86593154Y-30860089D01*
X86625500Y-30858500D01*
X89015500Y-30858500D01*
X89047846Y-30860089D01*
X89047846Y-30860089D01*
G37*
D21*
X87820500Y-31683500D03*
D10*
G36*
X89047846Y-33660089D02*
G01*
X89079880Y-33664841D01*
X89111294Y-33672710D01*
X89141786Y-33683620D01*
X89171061Y-33697466D01*
X89198838Y-33714115D01*
X89224850Y-33733407D01*
X89248845Y-33755155D01*
X89270593Y-33779150D01*
X89289885Y-33805162D01*
X89306534Y-33832939D01*
X89320380Y-33862214D01*
X89331290Y-33892706D01*
X89339159Y-33924120D01*
X89343911Y-33956154D01*
X89345500Y-33988500D01*
X89345500Y-34978500D01*
X89343911Y-35010846D01*
X89339159Y-35042880D01*
X89331290Y-35074294D01*
X89320380Y-35104786D01*
X89306534Y-35134061D01*
X89289885Y-35161838D01*
X89270593Y-35187850D01*
X89248845Y-35211845D01*
X89224850Y-35233593D01*
X89198838Y-35252885D01*
X89171061Y-35269534D01*
X89141786Y-35283380D01*
X89111294Y-35294290D01*
X89079880Y-35302159D01*
X89047846Y-35306911D01*
X89015500Y-35308500D01*
X86625500Y-35308500D01*
X86593154Y-35306911D01*
X86561120Y-35302159D01*
X86529706Y-35294290D01*
X86499214Y-35283380D01*
X86469939Y-35269534D01*
X86442162Y-35252885D01*
X86416150Y-35233593D01*
X86392155Y-35211845D01*
X86370407Y-35187850D01*
X86351115Y-35161838D01*
X86334466Y-35134061D01*
X86320620Y-35104786D01*
X86309710Y-35074294D01*
X86301841Y-35042880D01*
X86297089Y-35010846D01*
X86295500Y-34978500D01*
X86295500Y-33988500D01*
X86297089Y-33956154D01*
X86301841Y-33924120D01*
X86309710Y-33892706D01*
X86320620Y-33862214D01*
X86334466Y-33832939D01*
X86351115Y-33805162D01*
X86370407Y-33779150D01*
X86392155Y-33755155D01*
X86416150Y-33733407D01*
X86442162Y-33714115D01*
X86469939Y-33697466D01*
X86499214Y-33683620D01*
X86529706Y-33672710D01*
X86561120Y-33664841D01*
X86593154Y-33660089D01*
X86625500Y-33658500D01*
X89015500Y-33658500D01*
X89047846Y-33660089D01*
X89047846Y-33660089D01*
G37*
D21*
X87820500Y-34483500D03*
D10*
G36*
X93906081Y-29869625D02*
G01*
X93938843Y-29874485D01*
X93970971Y-29882533D01*
X94002156Y-29893691D01*
X94032096Y-29907852D01*
X94060505Y-29924879D01*
X94087108Y-29944609D01*
X94111649Y-29966851D01*
X94133891Y-29991392D01*
X94153621Y-30017995D01*
X94170648Y-30046404D01*
X94184809Y-30076344D01*
X94195967Y-30107529D01*
X94204015Y-30139657D01*
X94208875Y-30172419D01*
X94210500Y-30205500D01*
X94210500Y-30980500D01*
X94208875Y-31013581D01*
X94204015Y-31046343D01*
X94195967Y-31078471D01*
X94184809Y-31109656D01*
X94170648Y-31139596D01*
X94153621Y-31168005D01*
X94133891Y-31194608D01*
X94111649Y-31219149D01*
X94087108Y-31241391D01*
X94060505Y-31261121D01*
X94032096Y-31278148D01*
X94002156Y-31292309D01*
X93970971Y-31303467D01*
X93938843Y-31311515D01*
X93906081Y-31316375D01*
X93873000Y-31318000D01*
X93198000Y-31318000D01*
X93164919Y-31316375D01*
X93132157Y-31311515D01*
X93100029Y-31303467D01*
X93068844Y-31292309D01*
X93038904Y-31278148D01*
X93010495Y-31261121D01*
X92983892Y-31241391D01*
X92959351Y-31219149D01*
X92937109Y-31194608D01*
X92917379Y-31168005D01*
X92900352Y-31139596D01*
X92886191Y-31109656D01*
X92875033Y-31078471D01*
X92866985Y-31046343D01*
X92862125Y-31013581D01*
X92860500Y-30980500D01*
X92860500Y-30205500D01*
X92862125Y-30172419D01*
X92866985Y-30139657D01*
X92875033Y-30107529D01*
X92886191Y-30076344D01*
X92900352Y-30046404D01*
X92917379Y-30017995D01*
X92937109Y-29991392D01*
X92959351Y-29966851D01*
X92983892Y-29944609D01*
X93010495Y-29924879D01*
X93038904Y-29907852D01*
X93068844Y-29893691D01*
X93100029Y-29882533D01*
X93132157Y-29874485D01*
X93164919Y-29869625D01*
X93198000Y-29868000D01*
X93873000Y-29868000D01*
X93906081Y-29869625D01*
X93906081Y-29869625D01*
G37*
D15*
X93535500Y-30593000D03*
D10*
G36*
X93906081Y-28119625D02*
G01*
X93938843Y-28124485D01*
X93970971Y-28132533D01*
X94002156Y-28143691D01*
X94032096Y-28157852D01*
X94060505Y-28174879D01*
X94087108Y-28194609D01*
X94111649Y-28216851D01*
X94133891Y-28241392D01*
X94153621Y-28267995D01*
X94170648Y-28296404D01*
X94184809Y-28326344D01*
X94195967Y-28357529D01*
X94204015Y-28389657D01*
X94208875Y-28422419D01*
X94210500Y-28455500D01*
X94210500Y-29230500D01*
X94208875Y-29263581D01*
X94204015Y-29296343D01*
X94195967Y-29328471D01*
X94184809Y-29359656D01*
X94170648Y-29389596D01*
X94153621Y-29418005D01*
X94133891Y-29444608D01*
X94111649Y-29469149D01*
X94087108Y-29491391D01*
X94060505Y-29511121D01*
X94032096Y-29528148D01*
X94002156Y-29542309D01*
X93970971Y-29553467D01*
X93938843Y-29561515D01*
X93906081Y-29566375D01*
X93873000Y-29568000D01*
X93198000Y-29568000D01*
X93164919Y-29566375D01*
X93132157Y-29561515D01*
X93100029Y-29553467D01*
X93068844Y-29542309D01*
X93038904Y-29528148D01*
X93010495Y-29511121D01*
X92983892Y-29491391D01*
X92959351Y-29469149D01*
X92937109Y-29444608D01*
X92917379Y-29418005D01*
X92900352Y-29389596D01*
X92886191Y-29359656D01*
X92875033Y-29328471D01*
X92866985Y-29296343D01*
X92862125Y-29263581D01*
X92860500Y-29230500D01*
X92860500Y-28455500D01*
X92862125Y-28422419D01*
X92866985Y-28389657D01*
X92875033Y-28357529D01*
X92886191Y-28326344D01*
X92900352Y-28296404D01*
X92917379Y-28267995D01*
X92937109Y-28241392D01*
X92959351Y-28216851D01*
X92983892Y-28194609D01*
X93010495Y-28174879D01*
X93038904Y-28157852D01*
X93068844Y-28143691D01*
X93100029Y-28132533D01*
X93132157Y-28124485D01*
X93164919Y-28119625D01*
X93198000Y-28118000D01*
X93873000Y-28118000D01*
X93906081Y-28119625D01*
X93906081Y-28119625D01*
G37*
D15*
X93535500Y-28843000D03*
D10*
G36*
X93906081Y-31993125D02*
G01*
X93938843Y-31997985D01*
X93970971Y-32006033D01*
X94002156Y-32017191D01*
X94032096Y-32031352D01*
X94060505Y-32048379D01*
X94087108Y-32068109D01*
X94111649Y-32090351D01*
X94133891Y-32114892D01*
X94153621Y-32141495D01*
X94170648Y-32169904D01*
X94184809Y-32199844D01*
X94195967Y-32231029D01*
X94204015Y-32263157D01*
X94208875Y-32295919D01*
X94210500Y-32329000D01*
X94210500Y-33104000D01*
X94208875Y-33137081D01*
X94204015Y-33169843D01*
X94195967Y-33201971D01*
X94184809Y-33233156D01*
X94170648Y-33263096D01*
X94153621Y-33291505D01*
X94133891Y-33318108D01*
X94111649Y-33342649D01*
X94087108Y-33364891D01*
X94060505Y-33384621D01*
X94032096Y-33401648D01*
X94002156Y-33415809D01*
X93970971Y-33426967D01*
X93938843Y-33435015D01*
X93906081Y-33439875D01*
X93873000Y-33441500D01*
X93198000Y-33441500D01*
X93164919Y-33439875D01*
X93132157Y-33435015D01*
X93100029Y-33426967D01*
X93068844Y-33415809D01*
X93038904Y-33401648D01*
X93010495Y-33384621D01*
X92983892Y-33364891D01*
X92959351Y-33342649D01*
X92937109Y-33318108D01*
X92917379Y-33291505D01*
X92900352Y-33263096D01*
X92886191Y-33233156D01*
X92875033Y-33201971D01*
X92866985Y-33169843D01*
X92862125Y-33137081D01*
X92860500Y-33104000D01*
X92860500Y-32329000D01*
X92862125Y-32295919D01*
X92866985Y-32263157D01*
X92875033Y-32231029D01*
X92886191Y-32199844D01*
X92900352Y-32169904D01*
X92917379Y-32141495D01*
X92937109Y-32114892D01*
X92959351Y-32090351D01*
X92983892Y-32068109D01*
X93010495Y-32048379D01*
X93038904Y-32031352D01*
X93068844Y-32017191D01*
X93100029Y-32006033D01*
X93132157Y-31997985D01*
X93164919Y-31993125D01*
X93198000Y-31991500D01*
X93873000Y-31991500D01*
X93906081Y-31993125D01*
X93906081Y-31993125D01*
G37*
D15*
X93535500Y-32716500D03*
D10*
G36*
X93906081Y-33743125D02*
G01*
X93938843Y-33747985D01*
X93970971Y-33756033D01*
X94002156Y-33767191D01*
X94032096Y-33781352D01*
X94060505Y-33798379D01*
X94087108Y-33818109D01*
X94111649Y-33840351D01*
X94133891Y-33864892D01*
X94153621Y-33891495D01*
X94170648Y-33919904D01*
X94184809Y-33949844D01*
X94195967Y-33981029D01*
X94204015Y-34013157D01*
X94208875Y-34045919D01*
X94210500Y-34079000D01*
X94210500Y-34854000D01*
X94208875Y-34887081D01*
X94204015Y-34919843D01*
X94195967Y-34951971D01*
X94184809Y-34983156D01*
X94170648Y-35013096D01*
X94153621Y-35041505D01*
X94133891Y-35068108D01*
X94111649Y-35092649D01*
X94087108Y-35114891D01*
X94060505Y-35134621D01*
X94032096Y-35151648D01*
X94002156Y-35165809D01*
X93970971Y-35176967D01*
X93938843Y-35185015D01*
X93906081Y-35189875D01*
X93873000Y-35191500D01*
X93198000Y-35191500D01*
X93164919Y-35189875D01*
X93132157Y-35185015D01*
X93100029Y-35176967D01*
X93068844Y-35165809D01*
X93038904Y-35151648D01*
X93010495Y-35134621D01*
X92983892Y-35114891D01*
X92959351Y-35092649D01*
X92937109Y-35068108D01*
X92917379Y-35041505D01*
X92900352Y-35013096D01*
X92886191Y-34983156D01*
X92875033Y-34951971D01*
X92866985Y-34919843D01*
X92862125Y-34887081D01*
X92860500Y-34854000D01*
X92860500Y-34079000D01*
X92862125Y-34045919D01*
X92866985Y-34013157D01*
X92875033Y-33981029D01*
X92886191Y-33949844D01*
X92900352Y-33919904D01*
X92917379Y-33891495D01*
X92937109Y-33864892D01*
X92959351Y-33840351D01*
X92983892Y-33818109D01*
X93010495Y-33798379D01*
X93038904Y-33781352D01*
X93068844Y-33767191D01*
X93100029Y-33756033D01*
X93132157Y-33747985D01*
X93164919Y-33743125D01*
X93198000Y-33741500D01*
X93873000Y-33741500D01*
X93906081Y-33743125D01*
X93906081Y-33743125D01*
G37*
D15*
X93535500Y-34466500D03*
D10*
G36*
X101030781Y-39724825D02*
G01*
X101063543Y-39729685D01*
X101095671Y-39737733D01*
X101126856Y-39748891D01*
X101156796Y-39763052D01*
X101185205Y-39780079D01*
X101211808Y-39799809D01*
X101236349Y-39822051D01*
X101258591Y-39846592D01*
X101278321Y-39873195D01*
X101295348Y-39901604D01*
X101309509Y-39931544D01*
X101320667Y-39962729D01*
X101328715Y-39994857D01*
X101333575Y-40027619D01*
X101335200Y-40060700D01*
X101335200Y-40835700D01*
X101333575Y-40868781D01*
X101328715Y-40901543D01*
X101320667Y-40933671D01*
X101309509Y-40964856D01*
X101295348Y-40994796D01*
X101278321Y-41023205D01*
X101258591Y-41049808D01*
X101236349Y-41074349D01*
X101211808Y-41096591D01*
X101185205Y-41116321D01*
X101156796Y-41133348D01*
X101126856Y-41147509D01*
X101095671Y-41158667D01*
X101063543Y-41166715D01*
X101030781Y-41171575D01*
X100997700Y-41173200D01*
X100322700Y-41173200D01*
X100289619Y-41171575D01*
X100256857Y-41166715D01*
X100224729Y-41158667D01*
X100193544Y-41147509D01*
X100163604Y-41133348D01*
X100135195Y-41116321D01*
X100108592Y-41096591D01*
X100084051Y-41074349D01*
X100061809Y-41049808D01*
X100042079Y-41023205D01*
X100025052Y-40994796D01*
X100010891Y-40964856D01*
X99999733Y-40933671D01*
X99991685Y-40901543D01*
X99986825Y-40868781D01*
X99985200Y-40835700D01*
X99985200Y-40060700D01*
X99986825Y-40027619D01*
X99991685Y-39994857D01*
X99999733Y-39962729D01*
X100010891Y-39931544D01*
X100025052Y-39901604D01*
X100042079Y-39873195D01*
X100061809Y-39846592D01*
X100084051Y-39822051D01*
X100108592Y-39799809D01*
X100135195Y-39780079D01*
X100163604Y-39763052D01*
X100193544Y-39748891D01*
X100224729Y-39737733D01*
X100256857Y-39729685D01*
X100289619Y-39724825D01*
X100322700Y-39723200D01*
X100997700Y-39723200D01*
X101030781Y-39724825D01*
X101030781Y-39724825D01*
G37*
D15*
X100660200Y-40448200D03*
D10*
G36*
X101030781Y-37974825D02*
G01*
X101063543Y-37979685D01*
X101095671Y-37987733D01*
X101126856Y-37998891D01*
X101156796Y-38013052D01*
X101185205Y-38030079D01*
X101211808Y-38049809D01*
X101236349Y-38072051D01*
X101258591Y-38096592D01*
X101278321Y-38123195D01*
X101295348Y-38151604D01*
X101309509Y-38181544D01*
X101320667Y-38212729D01*
X101328715Y-38244857D01*
X101333575Y-38277619D01*
X101335200Y-38310700D01*
X101335200Y-39085700D01*
X101333575Y-39118781D01*
X101328715Y-39151543D01*
X101320667Y-39183671D01*
X101309509Y-39214856D01*
X101295348Y-39244796D01*
X101278321Y-39273205D01*
X101258591Y-39299808D01*
X101236349Y-39324349D01*
X101211808Y-39346591D01*
X101185205Y-39366321D01*
X101156796Y-39383348D01*
X101126856Y-39397509D01*
X101095671Y-39408667D01*
X101063543Y-39416715D01*
X101030781Y-39421575D01*
X100997700Y-39423200D01*
X100322700Y-39423200D01*
X100289619Y-39421575D01*
X100256857Y-39416715D01*
X100224729Y-39408667D01*
X100193544Y-39397509D01*
X100163604Y-39383348D01*
X100135195Y-39366321D01*
X100108592Y-39346591D01*
X100084051Y-39324349D01*
X100061809Y-39299808D01*
X100042079Y-39273205D01*
X100025052Y-39244796D01*
X100010891Y-39214856D01*
X99999733Y-39183671D01*
X99991685Y-39151543D01*
X99986825Y-39118781D01*
X99985200Y-39085700D01*
X99985200Y-38310700D01*
X99986825Y-38277619D01*
X99991685Y-38244857D01*
X99999733Y-38212729D01*
X100010891Y-38181544D01*
X100025052Y-38151604D01*
X100042079Y-38123195D01*
X100061809Y-38096592D01*
X100084051Y-38072051D01*
X100108592Y-38049809D01*
X100135195Y-38030079D01*
X100163604Y-38013052D01*
X100193544Y-37998891D01*
X100224729Y-37987733D01*
X100256857Y-37979685D01*
X100289619Y-37974825D01*
X100322700Y-37973200D01*
X100997700Y-37973200D01*
X101030781Y-37974825D01*
X101030781Y-37974825D01*
G37*
D15*
X100660200Y-38698200D03*
D19*
X93675200Y-38582600D03*
X93675200Y-41376600D03*
D10*
G36*
X64556381Y-64261225D02*
G01*
X64589143Y-64266085D01*
X64621271Y-64274133D01*
X64652456Y-64285291D01*
X64682396Y-64299452D01*
X64710805Y-64316479D01*
X64737408Y-64336209D01*
X64761949Y-64358451D01*
X64784191Y-64382992D01*
X64803921Y-64409595D01*
X64820948Y-64438004D01*
X64835109Y-64467944D01*
X64846267Y-64499129D01*
X64854315Y-64531257D01*
X64859175Y-64564019D01*
X64860800Y-64597100D01*
X64860800Y-65372100D01*
X64859175Y-65405181D01*
X64854315Y-65437943D01*
X64846267Y-65470071D01*
X64835109Y-65501256D01*
X64820948Y-65531196D01*
X64803921Y-65559605D01*
X64784191Y-65586208D01*
X64761949Y-65610749D01*
X64737408Y-65632991D01*
X64710805Y-65652721D01*
X64682396Y-65669748D01*
X64652456Y-65683909D01*
X64621271Y-65695067D01*
X64589143Y-65703115D01*
X64556381Y-65707975D01*
X64523300Y-65709600D01*
X63848300Y-65709600D01*
X63815219Y-65707975D01*
X63782457Y-65703115D01*
X63750329Y-65695067D01*
X63719144Y-65683909D01*
X63689204Y-65669748D01*
X63660795Y-65652721D01*
X63634192Y-65632991D01*
X63609651Y-65610749D01*
X63587409Y-65586208D01*
X63567679Y-65559605D01*
X63550652Y-65531196D01*
X63536491Y-65501256D01*
X63525333Y-65470071D01*
X63517285Y-65437943D01*
X63512425Y-65405181D01*
X63510800Y-65372100D01*
X63510800Y-64597100D01*
X63512425Y-64564019D01*
X63517285Y-64531257D01*
X63525333Y-64499129D01*
X63536491Y-64467944D01*
X63550652Y-64438004D01*
X63567679Y-64409595D01*
X63587409Y-64382992D01*
X63609651Y-64358451D01*
X63634192Y-64336209D01*
X63660795Y-64316479D01*
X63689204Y-64299452D01*
X63719144Y-64285291D01*
X63750329Y-64274133D01*
X63782457Y-64266085D01*
X63815219Y-64261225D01*
X63848300Y-64259600D01*
X64523300Y-64259600D01*
X64556381Y-64261225D01*
X64556381Y-64261225D01*
G37*
D15*
X64185800Y-64984600D03*
D10*
G36*
X64556381Y-62511225D02*
G01*
X64589143Y-62516085D01*
X64621271Y-62524133D01*
X64652456Y-62535291D01*
X64682396Y-62549452D01*
X64710805Y-62566479D01*
X64737408Y-62586209D01*
X64761949Y-62608451D01*
X64784191Y-62632992D01*
X64803921Y-62659595D01*
X64820948Y-62688004D01*
X64835109Y-62717944D01*
X64846267Y-62749129D01*
X64854315Y-62781257D01*
X64859175Y-62814019D01*
X64860800Y-62847100D01*
X64860800Y-63622100D01*
X64859175Y-63655181D01*
X64854315Y-63687943D01*
X64846267Y-63720071D01*
X64835109Y-63751256D01*
X64820948Y-63781196D01*
X64803921Y-63809605D01*
X64784191Y-63836208D01*
X64761949Y-63860749D01*
X64737408Y-63882991D01*
X64710805Y-63902721D01*
X64682396Y-63919748D01*
X64652456Y-63933909D01*
X64621271Y-63945067D01*
X64589143Y-63953115D01*
X64556381Y-63957975D01*
X64523300Y-63959600D01*
X63848300Y-63959600D01*
X63815219Y-63957975D01*
X63782457Y-63953115D01*
X63750329Y-63945067D01*
X63719144Y-63933909D01*
X63689204Y-63919748D01*
X63660795Y-63902721D01*
X63634192Y-63882991D01*
X63609651Y-63860749D01*
X63587409Y-63836208D01*
X63567679Y-63809605D01*
X63550652Y-63781196D01*
X63536491Y-63751256D01*
X63525333Y-63720071D01*
X63517285Y-63687943D01*
X63512425Y-63655181D01*
X63510800Y-63622100D01*
X63510800Y-62847100D01*
X63512425Y-62814019D01*
X63517285Y-62781257D01*
X63525333Y-62749129D01*
X63536491Y-62717944D01*
X63550652Y-62688004D01*
X63567679Y-62659595D01*
X63587409Y-62632992D01*
X63609651Y-62608451D01*
X63634192Y-62586209D01*
X63660795Y-62566479D01*
X63689204Y-62549452D01*
X63719144Y-62535291D01*
X63750329Y-62524133D01*
X63782457Y-62516085D01*
X63815219Y-62511225D01*
X63848300Y-62509600D01*
X64523300Y-62509600D01*
X64556381Y-62511225D01*
X64556381Y-62511225D01*
G37*
D15*
X64185800Y-63234600D03*
D22*
X49530000Y-63500000D03*
X49530000Y-60960000D03*
X49530000Y-58420000D03*
X49530000Y-55880000D03*
X49530000Y-53340000D03*
X49530000Y-50800000D03*
X49530000Y-48260000D03*
X49530000Y-45720000D03*
X49530000Y-43180000D03*
D23*
X49530000Y-40640000D03*
D24*
X98298000Y-49682400D03*
X100838000Y-49682400D03*
X98298000Y-52222400D03*
X100838000Y-52222400D03*
X98298000Y-54762400D03*
X100838000Y-54762400D03*
X98298000Y-57302400D03*
D25*
X100838000Y-57302400D03*
D26*
X97980500Y-29964500D03*
D27*
X97980500Y-33464500D03*
D22*
X90170000Y-63500000D03*
X87630000Y-63500000D03*
X85090000Y-63500000D03*
X82550000Y-63500000D03*
X80010000Y-63500000D03*
X77470000Y-63500000D03*
X74930000Y-63500000D03*
X72390000Y-63500000D03*
X69850000Y-63500000D03*
D23*
X67310000Y-63500000D03*
D28*
X61874400Y-60198000D03*
X61874400Y-57658000D03*
X61874400Y-55118000D03*
X61874400Y-52578000D03*
X61874400Y-50038000D03*
X61874400Y-47498000D03*
X61874400Y-44958000D03*
D10*
G36*
X62897067Y-41349481D02*
G01*
X62926914Y-41353908D01*
X62956184Y-41361240D01*
X62984594Y-41371405D01*
X63011870Y-41384306D01*
X63037751Y-41399818D01*
X63061987Y-41417792D01*
X63084344Y-41438056D01*
X63104608Y-41460413D01*
X63122582Y-41484649D01*
X63138094Y-41510530D01*
X63150995Y-41537806D01*
X63161160Y-41566216D01*
X63168492Y-41595486D01*
X63172919Y-41625333D01*
X63174400Y-41655470D01*
X63174400Y-43180530D01*
X63172919Y-43210667D01*
X63168492Y-43240514D01*
X63161160Y-43269784D01*
X63150995Y-43298194D01*
X63138094Y-43325470D01*
X63122582Y-43351351D01*
X63104608Y-43375587D01*
X63084344Y-43397944D01*
X63061987Y-43418208D01*
X63037751Y-43436182D01*
X63011870Y-43451694D01*
X62984594Y-43464595D01*
X62956184Y-43474760D01*
X62926914Y-43482092D01*
X62897067Y-43486519D01*
X62866930Y-43488000D01*
X60881870Y-43488000D01*
X60851733Y-43486519D01*
X60821886Y-43482092D01*
X60792616Y-43474760D01*
X60764206Y-43464595D01*
X60736930Y-43451694D01*
X60711049Y-43436182D01*
X60686813Y-43418208D01*
X60664456Y-43397944D01*
X60644192Y-43375587D01*
X60626218Y-43351351D01*
X60610706Y-43325470D01*
X60597805Y-43298194D01*
X60587640Y-43269784D01*
X60580308Y-43240514D01*
X60575881Y-43210667D01*
X60574400Y-43180530D01*
X60574400Y-41655470D01*
X60575881Y-41625333D01*
X60580308Y-41595486D01*
X60587640Y-41566216D01*
X60597805Y-41537806D01*
X60610706Y-41510530D01*
X60626218Y-41484649D01*
X60644192Y-41460413D01*
X60664456Y-41438056D01*
X60686813Y-41417792D01*
X60711049Y-41399818D01*
X60736930Y-41384306D01*
X60764206Y-41371405D01*
X60792616Y-41361240D01*
X60821886Y-41353908D01*
X60851733Y-41349481D01*
X60881870Y-41348000D01*
X62866930Y-41348000D01*
X62897067Y-41349481D01*
X62897067Y-41349481D01*
G37*
D29*
X61874400Y-42418000D03*
D28*
X54813200Y-63550800D03*
X54813200Y-61010800D03*
X54813200Y-58470800D03*
X54813200Y-55930800D03*
X54813200Y-53390800D03*
X54813200Y-50850800D03*
X54813200Y-48310800D03*
D10*
G36*
X55835867Y-44702281D02*
G01*
X55865714Y-44706708D01*
X55894984Y-44714040D01*
X55923394Y-44724205D01*
X55950670Y-44737106D01*
X55976551Y-44752618D01*
X56000787Y-44770592D01*
X56023144Y-44790856D01*
X56043408Y-44813213D01*
X56061382Y-44837449D01*
X56076894Y-44863330D01*
X56089795Y-44890606D01*
X56099960Y-44919016D01*
X56107292Y-44948286D01*
X56111719Y-44978133D01*
X56113200Y-45008270D01*
X56113200Y-46533330D01*
X56111719Y-46563467D01*
X56107292Y-46593314D01*
X56099960Y-46622584D01*
X56089795Y-46650994D01*
X56076894Y-46678270D01*
X56061382Y-46704151D01*
X56043408Y-46728387D01*
X56023144Y-46750744D01*
X56000787Y-46771008D01*
X55976551Y-46788982D01*
X55950670Y-46804494D01*
X55923394Y-46817395D01*
X55894984Y-46827560D01*
X55865714Y-46834892D01*
X55835867Y-46839319D01*
X55805730Y-46840800D01*
X53820670Y-46840800D01*
X53790533Y-46839319D01*
X53760686Y-46834892D01*
X53731416Y-46827560D01*
X53703006Y-46817395D01*
X53675730Y-46804494D01*
X53649849Y-46788982D01*
X53625613Y-46771008D01*
X53603256Y-46750744D01*
X53582992Y-46728387D01*
X53565018Y-46704151D01*
X53549506Y-46678270D01*
X53536605Y-46650994D01*
X53526440Y-46622584D01*
X53519108Y-46593314D01*
X53514681Y-46563467D01*
X53513200Y-46533330D01*
X53513200Y-45008270D01*
X53514681Y-44978133D01*
X53519108Y-44948286D01*
X53526440Y-44919016D01*
X53536605Y-44890606D01*
X53549506Y-44863330D01*
X53565018Y-44837449D01*
X53582992Y-44813213D01*
X53603256Y-44790856D01*
X53625613Y-44770592D01*
X53649849Y-44752618D01*
X53675730Y-44737106D01*
X53703006Y-44724205D01*
X53731416Y-44714040D01*
X53760686Y-44706708D01*
X53790533Y-44702281D01*
X53820670Y-44700800D01*
X55805730Y-44700800D01*
X55835867Y-44702281D01*
X55835867Y-44702281D01*
G37*
D29*
X54813200Y-45770800D03*
D30*
X80899000Y-28854400D03*
X78359000Y-28854400D03*
X75819000Y-28854400D03*
D10*
G36*
X74071667Y-27555881D02*
G01*
X74101514Y-27560308D01*
X74130784Y-27567640D01*
X74159194Y-27577805D01*
X74186470Y-27590706D01*
X74212351Y-27606218D01*
X74236587Y-27624192D01*
X74258944Y-27644456D01*
X74279208Y-27666813D01*
X74297182Y-27691049D01*
X74312694Y-27716930D01*
X74325595Y-27744206D01*
X74335760Y-27772616D01*
X74343092Y-27801886D01*
X74347519Y-27831733D01*
X74349000Y-27861870D01*
X74349000Y-29846930D01*
X74347519Y-29877067D01*
X74343092Y-29906914D01*
X74335760Y-29936184D01*
X74325595Y-29964594D01*
X74312694Y-29991870D01*
X74297182Y-30017751D01*
X74279208Y-30041987D01*
X74258944Y-30064344D01*
X74236587Y-30084608D01*
X74212351Y-30102582D01*
X74186470Y-30118094D01*
X74159194Y-30130995D01*
X74130784Y-30141160D01*
X74101514Y-30148492D01*
X74071667Y-30152919D01*
X74041530Y-30154400D01*
X72516470Y-30154400D01*
X72486333Y-30152919D01*
X72456486Y-30148492D01*
X72427216Y-30141160D01*
X72398806Y-30130995D01*
X72371530Y-30118094D01*
X72345649Y-30102582D01*
X72321413Y-30084608D01*
X72299056Y-30064344D01*
X72278792Y-30041987D01*
X72260818Y-30017751D01*
X72245306Y-29991870D01*
X72232405Y-29964594D01*
X72222240Y-29936184D01*
X72214908Y-29906914D01*
X72210481Y-29877067D01*
X72209000Y-29846930D01*
X72209000Y-27861870D01*
X72210481Y-27831733D01*
X72214908Y-27801886D01*
X72222240Y-27772616D01*
X72232405Y-27744206D01*
X72245306Y-27716930D01*
X72260818Y-27691049D01*
X72278792Y-27666813D01*
X72299056Y-27644456D01*
X72321413Y-27624192D01*
X72345649Y-27606218D01*
X72371530Y-27590706D01*
X72398806Y-27577805D01*
X72427216Y-27567640D01*
X72456486Y-27560308D01*
X72486333Y-27555881D01*
X72516470Y-27554400D01*
X74041530Y-27554400D01*
X74071667Y-27555881D01*
X74071667Y-27555881D01*
G37*
D29*
X73279000Y-28854400D03*
D23*
X57150000Y-38620700D03*
D10*
G36*
X59222381Y-27304225D02*
G01*
X59255143Y-27309085D01*
X59287271Y-27317133D01*
X59318456Y-27328291D01*
X59348396Y-27342452D01*
X59376805Y-27359479D01*
X59403408Y-27379209D01*
X59427949Y-27401451D01*
X59450191Y-27425992D01*
X59469921Y-27452595D01*
X59486948Y-27481004D01*
X59501109Y-27510944D01*
X59512267Y-27542129D01*
X59520315Y-27574257D01*
X59525175Y-27607019D01*
X59526800Y-27640100D01*
X59526800Y-28415100D01*
X59525175Y-28448181D01*
X59520315Y-28480943D01*
X59512267Y-28513071D01*
X59501109Y-28544256D01*
X59486948Y-28574196D01*
X59469921Y-28602605D01*
X59450191Y-28629208D01*
X59427949Y-28653749D01*
X59403408Y-28675991D01*
X59376805Y-28695721D01*
X59348396Y-28712748D01*
X59318456Y-28726909D01*
X59287271Y-28738067D01*
X59255143Y-28746115D01*
X59222381Y-28750975D01*
X59189300Y-28752600D01*
X58514300Y-28752600D01*
X58481219Y-28750975D01*
X58448457Y-28746115D01*
X58416329Y-28738067D01*
X58385144Y-28726909D01*
X58355204Y-28712748D01*
X58326795Y-28695721D01*
X58300192Y-28675991D01*
X58275651Y-28653749D01*
X58253409Y-28629208D01*
X58233679Y-28602605D01*
X58216652Y-28574196D01*
X58202491Y-28544256D01*
X58191333Y-28513071D01*
X58183285Y-28480943D01*
X58178425Y-28448181D01*
X58176800Y-28415100D01*
X58176800Y-27640100D01*
X58178425Y-27607019D01*
X58183285Y-27574257D01*
X58191333Y-27542129D01*
X58202491Y-27510944D01*
X58216652Y-27481004D01*
X58233679Y-27452595D01*
X58253409Y-27425992D01*
X58275651Y-27401451D01*
X58300192Y-27379209D01*
X58326795Y-27359479D01*
X58355204Y-27342452D01*
X58385144Y-27328291D01*
X58416329Y-27317133D01*
X58448457Y-27309085D01*
X58481219Y-27304225D01*
X58514300Y-27302600D01*
X59189300Y-27302600D01*
X59222381Y-27304225D01*
X59222381Y-27304225D01*
G37*
D15*
X58851800Y-28027600D03*
D10*
G36*
X59222381Y-25554225D02*
G01*
X59255143Y-25559085D01*
X59287271Y-25567133D01*
X59318456Y-25578291D01*
X59348396Y-25592452D01*
X59376805Y-25609479D01*
X59403408Y-25629209D01*
X59427949Y-25651451D01*
X59450191Y-25675992D01*
X59469921Y-25702595D01*
X59486948Y-25731004D01*
X59501109Y-25760944D01*
X59512267Y-25792129D01*
X59520315Y-25824257D01*
X59525175Y-25857019D01*
X59526800Y-25890100D01*
X59526800Y-26665100D01*
X59525175Y-26698181D01*
X59520315Y-26730943D01*
X59512267Y-26763071D01*
X59501109Y-26794256D01*
X59486948Y-26824196D01*
X59469921Y-26852605D01*
X59450191Y-26879208D01*
X59427949Y-26903749D01*
X59403408Y-26925991D01*
X59376805Y-26945721D01*
X59348396Y-26962748D01*
X59318456Y-26976909D01*
X59287271Y-26988067D01*
X59255143Y-26996115D01*
X59222381Y-27000975D01*
X59189300Y-27002600D01*
X58514300Y-27002600D01*
X58481219Y-27000975D01*
X58448457Y-26996115D01*
X58416329Y-26988067D01*
X58385144Y-26976909D01*
X58355204Y-26962748D01*
X58326795Y-26945721D01*
X58300192Y-26925991D01*
X58275651Y-26903749D01*
X58253409Y-26879208D01*
X58233679Y-26852605D01*
X58216652Y-26824196D01*
X58202491Y-26794256D01*
X58191333Y-26763071D01*
X58183285Y-26730943D01*
X58178425Y-26698181D01*
X58176800Y-26665100D01*
X58176800Y-25890100D01*
X58178425Y-25857019D01*
X58183285Y-25824257D01*
X58191333Y-25792129D01*
X58202491Y-25760944D01*
X58216652Y-25731004D01*
X58233679Y-25702595D01*
X58253409Y-25675992D01*
X58275651Y-25651451D01*
X58300192Y-25629209D01*
X58326795Y-25609479D01*
X58355204Y-25592452D01*
X58385144Y-25578291D01*
X58416329Y-25567133D01*
X58448457Y-25559085D01*
X58481219Y-25554225D01*
X58514300Y-25552600D01*
X59189300Y-25552600D01*
X59222381Y-25554225D01*
X59222381Y-25554225D01*
G37*
D15*
X58851800Y-26277600D03*
D10*
G36*
X85841581Y-59714625D02*
G01*
X85874343Y-59719485D01*
X85906471Y-59727533D01*
X85937656Y-59738691D01*
X85967596Y-59752852D01*
X85996005Y-59769879D01*
X86022608Y-59789609D01*
X86047149Y-59811851D01*
X86069391Y-59836392D01*
X86089121Y-59862995D01*
X86106148Y-59891404D01*
X86120309Y-59921344D01*
X86131467Y-59952529D01*
X86139515Y-59984657D01*
X86144375Y-60017419D01*
X86146000Y-60050500D01*
X86146000Y-60825500D01*
X86144375Y-60858581D01*
X86139515Y-60891343D01*
X86131467Y-60923471D01*
X86120309Y-60954656D01*
X86106148Y-60984596D01*
X86089121Y-61013005D01*
X86069391Y-61039608D01*
X86047149Y-61064149D01*
X86022608Y-61086391D01*
X85996005Y-61106121D01*
X85967596Y-61123148D01*
X85937656Y-61137309D01*
X85906471Y-61148467D01*
X85874343Y-61156515D01*
X85841581Y-61161375D01*
X85808500Y-61163000D01*
X85133500Y-61163000D01*
X85100419Y-61161375D01*
X85067657Y-61156515D01*
X85035529Y-61148467D01*
X85004344Y-61137309D01*
X84974404Y-61123148D01*
X84945995Y-61106121D01*
X84919392Y-61086391D01*
X84894851Y-61064149D01*
X84872609Y-61039608D01*
X84852879Y-61013005D01*
X84835852Y-60984596D01*
X84821691Y-60954656D01*
X84810533Y-60923471D01*
X84802485Y-60891343D01*
X84797625Y-60858581D01*
X84796000Y-60825500D01*
X84796000Y-60050500D01*
X84797625Y-60017419D01*
X84802485Y-59984657D01*
X84810533Y-59952529D01*
X84821691Y-59921344D01*
X84835852Y-59891404D01*
X84852879Y-59862995D01*
X84872609Y-59836392D01*
X84894851Y-59811851D01*
X84919392Y-59789609D01*
X84945995Y-59769879D01*
X84974404Y-59752852D01*
X85004344Y-59738691D01*
X85035529Y-59727533D01*
X85067657Y-59719485D01*
X85100419Y-59714625D01*
X85133500Y-59713000D01*
X85808500Y-59713000D01*
X85841581Y-59714625D01*
X85841581Y-59714625D01*
G37*
D15*
X85471000Y-60438000D03*
D10*
G36*
X85841581Y-57964625D02*
G01*
X85874343Y-57969485D01*
X85906471Y-57977533D01*
X85937656Y-57988691D01*
X85967596Y-58002852D01*
X85996005Y-58019879D01*
X86022608Y-58039609D01*
X86047149Y-58061851D01*
X86069391Y-58086392D01*
X86089121Y-58112995D01*
X86106148Y-58141404D01*
X86120309Y-58171344D01*
X86131467Y-58202529D01*
X86139515Y-58234657D01*
X86144375Y-58267419D01*
X86146000Y-58300500D01*
X86146000Y-59075500D01*
X86144375Y-59108581D01*
X86139515Y-59141343D01*
X86131467Y-59173471D01*
X86120309Y-59204656D01*
X86106148Y-59234596D01*
X86089121Y-59263005D01*
X86069391Y-59289608D01*
X86047149Y-59314149D01*
X86022608Y-59336391D01*
X85996005Y-59356121D01*
X85967596Y-59373148D01*
X85937656Y-59387309D01*
X85906471Y-59398467D01*
X85874343Y-59406515D01*
X85841581Y-59411375D01*
X85808500Y-59413000D01*
X85133500Y-59413000D01*
X85100419Y-59411375D01*
X85067657Y-59406515D01*
X85035529Y-59398467D01*
X85004344Y-59387309D01*
X84974404Y-59373148D01*
X84945995Y-59356121D01*
X84919392Y-59336391D01*
X84894851Y-59314149D01*
X84872609Y-59289608D01*
X84852879Y-59263005D01*
X84835852Y-59234596D01*
X84821691Y-59204656D01*
X84810533Y-59173471D01*
X84802485Y-59141343D01*
X84797625Y-59108581D01*
X84796000Y-59075500D01*
X84796000Y-58300500D01*
X84797625Y-58267419D01*
X84802485Y-58234657D01*
X84810533Y-58202529D01*
X84821691Y-58171344D01*
X84835852Y-58141404D01*
X84852879Y-58112995D01*
X84872609Y-58086392D01*
X84894851Y-58061851D01*
X84919392Y-58039609D01*
X84945995Y-58019879D01*
X84974404Y-58002852D01*
X85004344Y-57988691D01*
X85035529Y-57977533D01*
X85067657Y-57969485D01*
X85100419Y-57964625D01*
X85133500Y-57963000D01*
X85808500Y-57963000D01*
X85841581Y-57964625D01*
X85841581Y-57964625D01*
G37*
D15*
X85471000Y-58688000D03*
D10*
G36*
X78221581Y-52704225D02*
G01*
X78254343Y-52709085D01*
X78286471Y-52717133D01*
X78317656Y-52728291D01*
X78347596Y-52742452D01*
X78376005Y-52759479D01*
X78402608Y-52779209D01*
X78427149Y-52801451D01*
X78449391Y-52825992D01*
X78469121Y-52852595D01*
X78486148Y-52881004D01*
X78500309Y-52910944D01*
X78511467Y-52942129D01*
X78519515Y-52974257D01*
X78524375Y-53007019D01*
X78526000Y-53040100D01*
X78526000Y-53815100D01*
X78524375Y-53848181D01*
X78519515Y-53880943D01*
X78511467Y-53913071D01*
X78500309Y-53944256D01*
X78486148Y-53974196D01*
X78469121Y-54002605D01*
X78449391Y-54029208D01*
X78427149Y-54053749D01*
X78402608Y-54075991D01*
X78376005Y-54095721D01*
X78347596Y-54112748D01*
X78317656Y-54126909D01*
X78286471Y-54138067D01*
X78254343Y-54146115D01*
X78221581Y-54150975D01*
X78188500Y-54152600D01*
X77513500Y-54152600D01*
X77480419Y-54150975D01*
X77447657Y-54146115D01*
X77415529Y-54138067D01*
X77384344Y-54126909D01*
X77354404Y-54112748D01*
X77325995Y-54095721D01*
X77299392Y-54075991D01*
X77274851Y-54053749D01*
X77252609Y-54029208D01*
X77232879Y-54002605D01*
X77215852Y-53974196D01*
X77201691Y-53944256D01*
X77190533Y-53913071D01*
X77182485Y-53880943D01*
X77177625Y-53848181D01*
X77176000Y-53815100D01*
X77176000Y-53040100D01*
X77177625Y-53007019D01*
X77182485Y-52974257D01*
X77190533Y-52942129D01*
X77201691Y-52910944D01*
X77215852Y-52881004D01*
X77232879Y-52852595D01*
X77252609Y-52825992D01*
X77274851Y-52801451D01*
X77299392Y-52779209D01*
X77325995Y-52759479D01*
X77354404Y-52742452D01*
X77384344Y-52728291D01*
X77415529Y-52717133D01*
X77447657Y-52709085D01*
X77480419Y-52704225D01*
X77513500Y-52702600D01*
X78188500Y-52702600D01*
X78221581Y-52704225D01*
X78221581Y-52704225D01*
G37*
D15*
X77851000Y-53427600D03*
D10*
G36*
X78221581Y-50954225D02*
G01*
X78254343Y-50959085D01*
X78286471Y-50967133D01*
X78317656Y-50978291D01*
X78347596Y-50992452D01*
X78376005Y-51009479D01*
X78402608Y-51029209D01*
X78427149Y-51051451D01*
X78449391Y-51075992D01*
X78469121Y-51102595D01*
X78486148Y-51131004D01*
X78500309Y-51160944D01*
X78511467Y-51192129D01*
X78519515Y-51224257D01*
X78524375Y-51257019D01*
X78526000Y-51290100D01*
X78526000Y-52065100D01*
X78524375Y-52098181D01*
X78519515Y-52130943D01*
X78511467Y-52163071D01*
X78500309Y-52194256D01*
X78486148Y-52224196D01*
X78469121Y-52252605D01*
X78449391Y-52279208D01*
X78427149Y-52303749D01*
X78402608Y-52325991D01*
X78376005Y-52345721D01*
X78347596Y-52362748D01*
X78317656Y-52376909D01*
X78286471Y-52388067D01*
X78254343Y-52396115D01*
X78221581Y-52400975D01*
X78188500Y-52402600D01*
X77513500Y-52402600D01*
X77480419Y-52400975D01*
X77447657Y-52396115D01*
X77415529Y-52388067D01*
X77384344Y-52376909D01*
X77354404Y-52362748D01*
X77325995Y-52345721D01*
X77299392Y-52325991D01*
X77274851Y-52303749D01*
X77252609Y-52279208D01*
X77232879Y-52252605D01*
X77215852Y-52224196D01*
X77201691Y-52194256D01*
X77190533Y-52163071D01*
X77182485Y-52130943D01*
X77177625Y-52098181D01*
X77176000Y-52065100D01*
X77176000Y-51290100D01*
X77177625Y-51257019D01*
X77182485Y-51224257D01*
X77190533Y-51192129D01*
X77201691Y-51160944D01*
X77215852Y-51131004D01*
X77232879Y-51102595D01*
X77252609Y-51075992D01*
X77274851Y-51051451D01*
X77299392Y-51029209D01*
X77325995Y-51009479D01*
X77354404Y-50992452D01*
X77384344Y-50978291D01*
X77415529Y-50967133D01*
X77447657Y-50959085D01*
X77480419Y-50954225D01*
X77513500Y-50952600D01*
X78188500Y-50952600D01*
X78221581Y-50954225D01*
X78221581Y-50954225D01*
G37*
D15*
X77851000Y-51677600D03*
D10*
G36*
X80416581Y-41363625D02*
G01*
X80449343Y-41368485D01*
X80481471Y-41376533D01*
X80512656Y-41387691D01*
X80542596Y-41401852D01*
X80571005Y-41418879D01*
X80597608Y-41438609D01*
X80622149Y-41460851D01*
X80644391Y-41485392D01*
X80664121Y-41511995D01*
X80681148Y-41540404D01*
X80695309Y-41570344D01*
X80706467Y-41601529D01*
X80714515Y-41633657D01*
X80719375Y-41666419D01*
X80721000Y-41699500D01*
X80721000Y-42374500D01*
X80719375Y-42407581D01*
X80714515Y-42440343D01*
X80706467Y-42472471D01*
X80695309Y-42503656D01*
X80681148Y-42533596D01*
X80664121Y-42562005D01*
X80644391Y-42588608D01*
X80622149Y-42613149D01*
X80597608Y-42635391D01*
X80571005Y-42655121D01*
X80542596Y-42672148D01*
X80512656Y-42686309D01*
X80481471Y-42697467D01*
X80449343Y-42705515D01*
X80416581Y-42710375D01*
X80383500Y-42712000D01*
X79608500Y-42712000D01*
X79575419Y-42710375D01*
X79542657Y-42705515D01*
X79510529Y-42697467D01*
X79479344Y-42686309D01*
X79449404Y-42672148D01*
X79420995Y-42655121D01*
X79394392Y-42635391D01*
X79369851Y-42613149D01*
X79347609Y-42588608D01*
X79327879Y-42562005D01*
X79310852Y-42533596D01*
X79296691Y-42503656D01*
X79285533Y-42472471D01*
X79277485Y-42440343D01*
X79272625Y-42407581D01*
X79271000Y-42374500D01*
X79271000Y-41699500D01*
X79272625Y-41666419D01*
X79277485Y-41633657D01*
X79285533Y-41601529D01*
X79296691Y-41570344D01*
X79310852Y-41540404D01*
X79327879Y-41511995D01*
X79347609Y-41485392D01*
X79369851Y-41460851D01*
X79394392Y-41438609D01*
X79420995Y-41418879D01*
X79449404Y-41401852D01*
X79479344Y-41387691D01*
X79510529Y-41376533D01*
X79542657Y-41368485D01*
X79575419Y-41363625D01*
X79608500Y-41362000D01*
X80383500Y-41362000D01*
X80416581Y-41363625D01*
X80416581Y-41363625D01*
G37*
D15*
X79996000Y-42037000D03*
D10*
G36*
X78666581Y-41363625D02*
G01*
X78699343Y-41368485D01*
X78731471Y-41376533D01*
X78762656Y-41387691D01*
X78792596Y-41401852D01*
X78821005Y-41418879D01*
X78847608Y-41438609D01*
X78872149Y-41460851D01*
X78894391Y-41485392D01*
X78914121Y-41511995D01*
X78931148Y-41540404D01*
X78945309Y-41570344D01*
X78956467Y-41601529D01*
X78964515Y-41633657D01*
X78969375Y-41666419D01*
X78971000Y-41699500D01*
X78971000Y-42374500D01*
X78969375Y-42407581D01*
X78964515Y-42440343D01*
X78956467Y-42472471D01*
X78945309Y-42503656D01*
X78931148Y-42533596D01*
X78914121Y-42562005D01*
X78894391Y-42588608D01*
X78872149Y-42613149D01*
X78847608Y-42635391D01*
X78821005Y-42655121D01*
X78792596Y-42672148D01*
X78762656Y-42686309D01*
X78731471Y-42697467D01*
X78699343Y-42705515D01*
X78666581Y-42710375D01*
X78633500Y-42712000D01*
X77858500Y-42712000D01*
X77825419Y-42710375D01*
X77792657Y-42705515D01*
X77760529Y-42697467D01*
X77729344Y-42686309D01*
X77699404Y-42672148D01*
X77670995Y-42655121D01*
X77644392Y-42635391D01*
X77619851Y-42613149D01*
X77597609Y-42588608D01*
X77577879Y-42562005D01*
X77560852Y-42533596D01*
X77546691Y-42503656D01*
X77535533Y-42472471D01*
X77527485Y-42440343D01*
X77522625Y-42407581D01*
X77521000Y-42374500D01*
X77521000Y-41699500D01*
X77522625Y-41666419D01*
X77527485Y-41633657D01*
X77535533Y-41601529D01*
X77546691Y-41570344D01*
X77560852Y-41540404D01*
X77577879Y-41511995D01*
X77597609Y-41485392D01*
X77619851Y-41460851D01*
X77644392Y-41438609D01*
X77670995Y-41418879D01*
X77699404Y-41401852D01*
X77729344Y-41387691D01*
X77760529Y-41376533D01*
X77792657Y-41368485D01*
X77825419Y-41363625D01*
X77858500Y-41362000D01*
X78633500Y-41362000D01*
X78666581Y-41363625D01*
X78666581Y-41363625D01*
G37*
D15*
X78246000Y-42037000D03*
D10*
G36*
X88254581Y-59714625D02*
G01*
X88287343Y-59719485D01*
X88319471Y-59727533D01*
X88350656Y-59738691D01*
X88380596Y-59752852D01*
X88409005Y-59769879D01*
X88435608Y-59789609D01*
X88460149Y-59811851D01*
X88482391Y-59836392D01*
X88502121Y-59862995D01*
X88519148Y-59891404D01*
X88533309Y-59921344D01*
X88544467Y-59952529D01*
X88552515Y-59984657D01*
X88557375Y-60017419D01*
X88559000Y-60050500D01*
X88559000Y-60825500D01*
X88557375Y-60858581D01*
X88552515Y-60891343D01*
X88544467Y-60923471D01*
X88533309Y-60954656D01*
X88519148Y-60984596D01*
X88502121Y-61013005D01*
X88482391Y-61039608D01*
X88460149Y-61064149D01*
X88435608Y-61086391D01*
X88409005Y-61106121D01*
X88380596Y-61123148D01*
X88350656Y-61137309D01*
X88319471Y-61148467D01*
X88287343Y-61156515D01*
X88254581Y-61161375D01*
X88221500Y-61163000D01*
X87546500Y-61163000D01*
X87513419Y-61161375D01*
X87480657Y-61156515D01*
X87448529Y-61148467D01*
X87417344Y-61137309D01*
X87387404Y-61123148D01*
X87358995Y-61106121D01*
X87332392Y-61086391D01*
X87307851Y-61064149D01*
X87285609Y-61039608D01*
X87265879Y-61013005D01*
X87248852Y-60984596D01*
X87234691Y-60954656D01*
X87223533Y-60923471D01*
X87215485Y-60891343D01*
X87210625Y-60858581D01*
X87209000Y-60825500D01*
X87209000Y-60050500D01*
X87210625Y-60017419D01*
X87215485Y-59984657D01*
X87223533Y-59952529D01*
X87234691Y-59921344D01*
X87248852Y-59891404D01*
X87265879Y-59862995D01*
X87285609Y-59836392D01*
X87307851Y-59811851D01*
X87332392Y-59789609D01*
X87358995Y-59769879D01*
X87387404Y-59752852D01*
X87417344Y-59738691D01*
X87448529Y-59727533D01*
X87480657Y-59719485D01*
X87513419Y-59714625D01*
X87546500Y-59713000D01*
X88221500Y-59713000D01*
X88254581Y-59714625D01*
X88254581Y-59714625D01*
G37*
D15*
X87884000Y-60438000D03*
D10*
G36*
X88254581Y-57964625D02*
G01*
X88287343Y-57969485D01*
X88319471Y-57977533D01*
X88350656Y-57988691D01*
X88380596Y-58002852D01*
X88409005Y-58019879D01*
X88435608Y-58039609D01*
X88460149Y-58061851D01*
X88482391Y-58086392D01*
X88502121Y-58112995D01*
X88519148Y-58141404D01*
X88533309Y-58171344D01*
X88544467Y-58202529D01*
X88552515Y-58234657D01*
X88557375Y-58267419D01*
X88559000Y-58300500D01*
X88559000Y-59075500D01*
X88557375Y-59108581D01*
X88552515Y-59141343D01*
X88544467Y-59173471D01*
X88533309Y-59204656D01*
X88519148Y-59234596D01*
X88502121Y-59263005D01*
X88482391Y-59289608D01*
X88460149Y-59314149D01*
X88435608Y-59336391D01*
X88409005Y-59356121D01*
X88380596Y-59373148D01*
X88350656Y-59387309D01*
X88319471Y-59398467D01*
X88287343Y-59406515D01*
X88254581Y-59411375D01*
X88221500Y-59413000D01*
X87546500Y-59413000D01*
X87513419Y-59411375D01*
X87480657Y-59406515D01*
X87448529Y-59398467D01*
X87417344Y-59387309D01*
X87387404Y-59373148D01*
X87358995Y-59356121D01*
X87332392Y-59336391D01*
X87307851Y-59314149D01*
X87285609Y-59289608D01*
X87265879Y-59263005D01*
X87248852Y-59234596D01*
X87234691Y-59204656D01*
X87223533Y-59173471D01*
X87215485Y-59141343D01*
X87210625Y-59108581D01*
X87209000Y-59075500D01*
X87209000Y-58300500D01*
X87210625Y-58267419D01*
X87215485Y-58234657D01*
X87223533Y-58202529D01*
X87234691Y-58171344D01*
X87248852Y-58141404D01*
X87265879Y-58112995D01*
X87285609Y-58086392D01*
X87307851Y-58061851D01*
X87332392Y-58039609D01*
X87358995Y-58019879D01*
X87387404Y-58002852D01*
X87417344Y-57988691D01*
X87448529Y-57977533D01*
X87480657Y-57969485D01*
X87513419Y-57964625D01*
X87546500Y-57963000D01*
X88221500Y-57963000D01*
X88254581Y-57964625D01*
X88254581Y-57964625D01*
G37*
D15*
X87884000Y-58688000D03*
D10*
G36*
X91112081Y-59714625D02*
G01*
X91144843Y-59719485D01*
X91176971Y-59727533D01*
X91208156Y-59738691D01*
X91238096Y-59752852D01*
X91266505Y-59769879D01*
X91293108Y-59789609D01*
X91317649Y-59811851D01*
X91339891Y-59836392D01*
X91359621Y-59862995D01*
X91376648Y-59891404D01*
X91390809Y-59921344D01*
X91401967Y-59952529D01*
X91410015Y-59984657D01*
X91414875Y-60017419D01*
X91416500Y-60050500D01*
X91416500Y-60825500D01*
X91414875Y-60858581D01*
X91410015Y-60891343D01*
X91401967Y-60923471D01*
X91390809Y-60954656D01*
X91376648Y-60984596D01*
X91359621Y-61013005D01*
X91339891Y-61039608D01*
X91317649Y-61064149D01*
X91293108Y-61086391D01*
X91266505Y-61106121D01*
X91238096Y-61123148D01*
X91208156Y-61137309D01*
X91176971Y-61148467D01*
X91144843Y-61156515D01*
X91112081Y-61161375D01*
X91079000Y-61163000D01*
X90404000Y-61163000D01*
X90370919Y-61161375D01*
X90338157Y-61156515D01*
X90306029Y-61148467D01*
X90274844Y-61137309D01*
X90244904Y-61123148D01*
X90216495Y-61106121D01*
X90189892Y-61086391D01*
X90165351Y-61064149D01*
X90143109Y-61039608D01*
X90123379Y-61013005D01*
X90106352Y-60984596D01*
X90092191Y-60954656D01*
X90081033Y-60923471D01*
X90072985Y-60891343D01*
X90068125Y-60858581D01*
X90066500Y-60825500D01*
X90066500Y-60050500D01*
X90068125Y-60017419D01*
X90072985Y-59984657D01*
X90081033Y-59952529D01*
X90092191Y-59921344D01*
X90106352Y-59891404D01*
X90123379Y-59862995D01*
X90143109Y-59836392D01*
X90165351Y-59811851D01*
X90189892Y-59789609D01*
X90216495Y-59769879D01*
X90244904Y-59752852D01*
X90274844Y-59738691D01*
X90306029Y-59727533D01*
X90338157Y-59719485D01*
X90370919Y-59714625D01*
X90404000Y-59713000D01*
X91079000Y-59713000D01*
X91112081Y-59714625D01*
X91112081Y-59714625D01*
G37*
D15*
X90741500Y-60438000D03*
D10*
G36*
X91112081Y-57964625D02*
G01*
X91144843Y-57969485D01*
X91176971Y-57977533D01*
X91208156Y-57988691D01*
X91238096Y-58002852D01*
X91266505Y-58019879D01*
X91293108Y-58039609D01*
X91317649Y-58061851D01*
X91339891Y-58086392D01*
X91359621Y-58112995D01*
X91376648Y-58141404D01*
X91390809Y-58171344D01*
X91401967Y-58202529D01*
X91410015Y-58234657D01*
X91414875Y-58267419D01*
X91416500Y-58300500D01*
X91416500Y-59075500D01*
X91414875Y-59108581D01*
X91410015Y-59141343D01*
X91401967Y-59173471D01*
X91390809Y-59204656D01*
X91376648Y-59234596D01*
X91359621Y-59263005D01*
X91339891Y-59289608D01*
X91317649Y-59314149D01*
X91293108Y-59336391D01*
X91266505Y-59356121D01*
X91238096Y-59373148D01*
X91208156Y-59387309D01*
X91176971Y-59398467D01*
X91144843Y-59406515D01*
X91112081Y-59411375D01*
X91079000Y-59413000D01*
X90404000Y-59413000D01*
X90370919Y-59411375D01*
X90338157Y-59406515D01*
X90306029Y-59398467D01*
X90274844Y-59387309D01*
X90244904Y-59373148D01*
X90216495Y-59356121D01*
X90189892Y-59336391D01*
X90165351Y-59314149D01*
X90143109Y-59289608D01*
X90123379Y-59263005D01*
X90106352Y-59234596D01*
X90092191Y-59204656D01*
X90081033Y-59173471D01*
X90072985Y-59141343D01*
X90068125Y-59108581D01*
X90066500Y-59075500D01*
X90066500Y-58300500D01*
X90068125Y-58267419D01*
X90072985Y-58234657D01*
X90081033Y-58202529D01*
X90092191Y-58171344D01*
X90106352Y-58141404D01*
X90123379Y-58112995D01*
X90143109Y-58086392D01*
X90165351Y-58061851D01*
X90189892Y-58039609D01*
X90216495Y-58019879D01*
X90244904Y-58002852D01*
X90274844Y-57988691D01*
X90306029Y-57977533D01*
X90338157Y-57969485D01*
X90370919Y-57964625D01*
X90404000Y-57963000D01*
X91079000Y-57963000D01*
X91112081Y-57964625D01*
X91112081Y-57964625D01*
G37*
D15*
X90741500Y-58688000D03*
D10*
G36*
X66703181Y-41643025D02*
G01*
X66735943Y-41647885D01*
X66768071Y-41655933D01*
X66799256Y-41667091D01*
X66829196Y-41681252D01*
X66857605Y-41698279D01*
X66884208Y-41718009D01*
X66908749Y-41740251D01*
X66930991Y-41764792D01*
X66950721Y-41791395D01*
X66967748Y-41819804D01*
X66981909Y-41849744D01*
X66993067Y-41880929D01*
X67001115Y-41913057D01*
X67005975Y-41945819D01*
X67007600Y-41978900D01*
X67007600Y-42653900D01*
X67005975Y-42686981D01*
X67001115Y-42719743D01*
X66993067Y-42751871D01*
X66981909Y-42783056D01*
X66967748Y-42812996D01*
X66950721Y-42841405D01*
X66930991Y-42868008D01*
X66908749Y-42892549D01*
X66884208Y-42914791D01*
X66857605Y-42934521D01*
X66829196Y-42951548D01*
X66799256Y-42965709D01*
X66768071Y-42976867D01*
X66735943Y-42984915D01*
X66703181Y-42989775D01*
X66670100Y-42991400D01*
X65895100Y-42991400D01*
X65862019Y-42989775D01*
X65829257Y-42984915D01*
X65797129Y-42976867D01*
X65765944Y-42965709D01*
X65736004Y-42951548D01*
X65707595Y-42934521D01*
X65680992Y-42914791D01*
X65656451Y-42892549D01*
X65634209Y-42868008D01*
X65614479Y-42841405D01*
X65597452Y-42812996D01*
X65583291Y-42783056D01*
X65572133Y-42751871D01*
X65564085Y-42719743D01*
X65559225Y-42686981D01*
X65557600Y-42653900D01*
X65557600Y-41978900D01*
X65559225Y-41945819D01*
X65564085Y-41913057D01*
X65572133Y-41880929D01*
X65583291Y-41849744D01*
X65597452Y-41819804D01*
X65614479Y-41791395D01*
X65634209Y-41764792D01*
X65656451Y-41740251D01*
X65680992Y-41718009D01*
X65707595Y-41698279D01*
X65736004Y-41681252D01*
X65765944Y-41667091D01*
X65797129Y-41655933D01*
X65829257Y-41647885D01*
X65862019Y-41643025D01*
X65895100Y-41641400D01*
X66670100Y-41641400D01*
X66703181Y-41643025D01*
X66703181Y-41643025D01*
G37*
D15*
X66282600Y-42316400D03*
D10*
G36*
X68453181Y-41643025D02*
G01*
X68485943Y-41647885D01*
X68518071Y-41655933D01*
X68549256Y-41667091D01*
X68579196Y-41681252D01*
X68607605Y-41698279D01*
X68634208Y-41718009D01*
X68658749Y-41740251D01*
X68680991Y-41764792D01*
X68700721Y-41791395D01*
X68717748Y-41819804D01*
X68731909Y-41849744D01*
X68743067Y-41880929D01*
X68751115Y-41913057D01*
X68755975Y-41945819D01*
X68757600Y-41978900D01*
X68757600Y-42653900D01*
X68755975Y-42686981D01*
X68751115Y-42719743D01*
X68743067Y-42751871D01*
X68731909Y-42783056D01*
X68717748Y-42812996D01*
X68700721Y-42841405D01*
X68680991Y-42868008D01*
X68658749Y-42892549D01*
X68634208Y-42914791D01*
X68607605Y-42934521D01*
X68579196Y-42951548D01*
X68549256Y-42965709D01*
X68518071Y-42976867D01*
X68485943Y-42984915D01*
X68453181Y-42989775D01*
X68420100Y-42991400D01*
X67645100Y-42991400D01*
X67612019Y-42989775D01*
X67579257Y-42984915D01*
X67547129Y-42976867D01*
X67515944Y-42965709D01*
X67486004Y-42951548D01*
X67457595Y-42934521D01*
X67430992Y-42914791D01*
X67406451Y-42892549D01*
X67384209Y-42868008D01*
X67364479Y-42841405D01*
X67347452Y-42812996D01*
X67333291Y-42783056D01*
X67322133Y-42751871D01*
X67314085Y-42719743D01*
X67309225Y-42686981D01*
X67307600Y-42653900D01*
X67307600Y-41978900D01*
X67309225Y-41945819D01*
X67314085Y-41913057D01*
X67322133Y-41880929D01*
X67333291Y-41849744D01*
X67347452Y-41819804D01*
X67364479Y-41791395D01*
X67384209Y-41764792D01*
X67406451Y-41740251D01*
X67430992Y-41718009D01*
X67457595Y-41698279D01*
X67486004Y-41681252D01*
X67515944Y-41667091D01*
X67547129Y-41655933D01*
X67579257Y-41647885D01*
X67612019Y-41643025D01*
X67645100Y-41641400D01*
X68420100Y-41641400D01*
X68453181Y-41643025D01*
X68453181Y-41643025D01*
G37*
D15*
X68032600Y-42316400D03*
D10*
G36*
X67401181Y-47144225D02*
G01*
X67433943Y-47149085D01*
X67466071Y-47157133D01*
X67497256Y-47168291D01*
X67527196Y-47182452D01*
X67555605Y-47199479D01*
X67582208Y-47219209D01*
X67606749Y-47241451D01*
X67628991Y-47265992D01*
X67648721Y-47292595D01*
X67665748Y-47321004D01*
X67679909Y-47350944D01*
X67691067Y-47382129D01*
X67699115Y-47414257D01*
X67703975Y-47447019D01*
X67705600Y-47480100D01*
X67705600Y-48255100D01*
X67703975Y-48288181D01*
X67699115Y-48320943D01*
X67691067Y-48353071D01*
X67679909Y-48384256D01*
X67665748Y-48414196D01*
X67648721Y-48442605D01*
X67628991Y-48469208D01*
X67606749Y-48493749D01*
X67582208Y-48515991D01*
X67555605Y-48535721D01*
X67527196Y-48552748D01*
X67497256Y-48566909D01*
X67466071Y-48578067D01*
X67433943Y-48586115D01*
X67401181Y-48590975D01*
X67368100Y-48592600D01*
X66693100Y-48592600D01*
X66660019Y-48590975D01*
X66627257Y-48586115D01*
X66595129Y-48578067D01*
X66563944Y-48566909D01*
X66534004Y-48552748D01*
X66505595Y-48535721D01*
X66478992Y-48515991D01*
X66454451Y-48493749D01*
X66432209Y-48469208D01*
X66412479Y-48442605D01*
X66395452Y-48414196D01*
X66381291Y-48384256D01*
X66370133Y-48353071D01*
X66362085Y-48320943D01*
X66357225Y-48288181D01*
X66355600Y-48255100D01*
X66355600Y-47480100D01*
X66357225Y-47447019D01*
X66362085Y-47414257D01*
X66370133Y-47382129D01*
X66381291Y-47350944D01*
X66395452Y-47321004D01*
X66412479Y-47292595D01*
X66432209Y-47265992D01*
X66454451Y-47241451D01*
X66478992Y-47219209D01*
X66505595Y-47199479D01*
X66534004Y-47182452D01*
X66563944Y-47168291D01*
X66595129Y-47157133D01*
X66627257Y-47149085D01*
X66660019Y-47144225D01*
X66693100Y-47142600D01*
X67368100Y-47142600D01*
X67401181Y-47144225D01*
X67401181Y-47144225D01*
G37*
D15*
X67030600Y-47867600D03*
D10*
G36*
X67401181Y-48894225D02*
G01*
X67433943Y-48899085D01*
X67466071Y-48907133D01*
X67497256Y-48918291D01*
X67527196Y-48932452D01*
X67555605Y-48949479D01*
X67582208Y-48969209D01*
X67606749Y-48991451D01*
X67628991Y-49015992D01*
X67648721Y-49042595D01*
X67665748Y-49071004D01*
X67679909Y-49100944D01*
X67691067Y-49132129D01*
X67699115Y-49164257D01*
X67703975Y-49197019D01*
X67705600Y-49230100D01*
X67705600Y-50005100D01*
X67703975Y-50038181D01*
X67699115Y-50070943D01*
X67691067Y-50103071D01*
X67679909Y-50134256D01*
X67665748Y-50164196D01*
X67648721Y-50192605D01*
X67628991Y-50219208D01*
X67606749Y-50243749D01*
X67582208Y-50265991D01*
X67555605Y-50285721D01*
X67527196Y-50302748D01*
X67497256Y-50316909D01*
X67466071Y-50328067D01*
X67433943Y-50336115D01*
X67401181Y-50340975D01*
X67368100Y-50342600D01*
X66693100Y-50342600D01*
X66660019Y-50340975D01*
X66627257Y-50336115D01*
X66595129Y-50328067D01*
X66563944Y-50316909D01*
X66534004Y-50302748D01*
X66505595Y-50285721D01*
X66478992Y-50265991D01*
X66454451Y-50243749D01*
X66432209Y-50219208D01*
X66412479Y-50192605D01*
X66395452Y-50164196D01*
X66381291Y-50134256D01*
X66370133Y-50103071D01*
X66362085Y-50070943D01*
X66357225Y-50038181D01*
X66355600Y-50005100D01*
X66355600Y-49230100D01*
X66357225Y-49197019D01*
X66362085Y-49164257D01*
X66370133Y-49132129D01*
X66381291Y-49100944D01*
X66395452Y-49071004D01*
X66412479Y-49042595D01*
X66432209Y-49015992D01*
X66454451Y-48991451D01*
X66478992Y-48969209D01*
X66505595Y-48949479D01*
X66534004Y-48932452D01*
X66563944Y-48918291D01*
X66595129Y-48907133D01*
X66627257Y-48899085D01*
X66660019Y-48894225D01*
X66693100Y-48892600D01*
X67368100Y-48892600D01*
X67401181Y-48894225D01*
X67401181Y-48894225D01*
G37*
D15*
X67030600Y-49617600D03*
D10*
G36*
X94223581Y-67540425D02*
G01*
X94256343Y-67545285D01*
X94288471Y-67553333D01*
X94319656Y-67564491D01*
X94349596Y-67578652D01*
X94378005Y-67595679D01*
X94404608Y-67615409D01*
X94429149Y-67637651D01*
X94451391Y-67662192D01*
X94471121Y-67688795D01*
X94488148Y-67717204D01*
X94502309Y-67747144D01*
X94513467Y-67778329D01*
X94521515Y-67810457D01*
X94526375Y-67843219D01*
X94528000Y-67876300D01*
X94528000Y-68651300D01*
X94526375Y-68684381D01*
X94521515Y-68717143D01*
X94513467Y-68749271D01*
X94502309Y-68780456D01*
X94488148Y-68810396D01*
X94471121Y-68838805D01*
X94451391Y-68865408D01*
X94429149Y-68889949D01*
X94404608Y-68912191D01*
X94378005Y-68931921D01*
X94349596Y-68948948D01*
X94319656Y-68963109D01*
X94288471Y-68974267D01*
X94256343Y-68982315D01*
X94223581Y-68987175D01*
X94190500Y-68988800D01*
X93515500Y-68988800D01*
X93482419Y-68987175D01*
X93449657Y-68982315D01*
X93417529Y-68974267D01*
X93386344Y-68963109D01*
X93356404Y-68948948D01*
X93327995Y-68931921D01*
X93301392Y-68912191D01*
X93276851Y-68889949D01*
X93254609Y-68865408D01*
X93234879Y-68838805D01*
X93217852Y-68810396D01*
X93203691Y-68780456D01*
X93192533Y-68749271D01*
X93184485Y-68717143D01*
X93179625Y-68684381D01*
X93178000Y-68651300D01*
X93178000Y-67876300D01*
X93179625Y-67843219D01*
X93184485Y-67810457D01*
X93192533Y-67778329D01*
X93203691Y-67747144D01*
X93217852Y-67717204D01*
X93234879Y-67688795D01*
X93254609Y-67662192D01*
X93276851Y-67637651D01*
X93301392Y-67615409D01*
X93327995Y-67595679D01*
X93356404Y-67578652D01*
X93386344Y-67564491D01*
X93417529Y-67553333D01*
X93449657Y-67545285D01*
X93482419Y-67540425D01*
X93515500Y-67538800D01*
X94190500Y-67538800D01*
X94223581Y-67540425D01*
X94223581Y-67540425D01*
G37*
D15*
X93853000Y-68263800D03*
D10*
G36*
X94223581Y-69290425D02*
G01*
X94256343Y-69295285D01*
X94288471Y-69303333D01*
X94319656Y-69314491D01*
X94349596Y-69328652D01*
X94378005Y-69345679D01*
X94404608Y-69365409D01*
X94429149Y-69387651D01*
X94451391Y-69412192D01*
X94471121Y-69438795D01*
X94488148Y-69467204D01*
X94502309Y-69497144D01*
X94513467Y-69528329D01*
X94521515Y-69560457D01*
X94526375Y-69593219D01*
X94528000Y-69626300D01*
X94528000Y-70401300D01*
X94526375Y-70434381D01*
X94521515Y-70467143D01*
X94513467Y-70499271D01*
X94502309Y-70530456D01*
X94488148Y-70560396D01*
X94471121Y-70588805D01*
X94451391Y-70615408D01*
X94429149Y-70639949D01*
X94404608Y-70662191D01*
X94378005Y-70681921D01*
X94349596Y-70698948D01*
X94319656Y-70713109D01*
X94288471Y-70724267D01*
X94256343Y-70732315D01*
X94223581Y-70737175D01*
X94190500Y-70738800D01*
X93515500Y-70738800D01*
X93482419Y-70737175D01*
X93449657Y-70732315D01*
X93417529Y-70724267D01*
X93386344Y-70713109D01*
X93356404Y-70698948D01*
X93327995Y-70681921D01*
X93301392Y-70662191D01*
X93276851Y-70639949D01*
X93254609Y-70615408D01*
X93234879Y-70588805D01*
X93217852Y-70560396D01*
X93203691Y-70530456D01*
X93192533Y-70499271D01*
X93184485Y-70467143D01*
X93179625Y-70434381D01*
X93178000Y-70401300D01*
X93178000Y-69626300D01*
X93179625Y-69593219D01*
X93184485Y-69560457D01*
X93192533Y-69528329D01*
X93203691Y-69497144D01*
X93217852Y-69467204D01*
X93234879Y-69438795D01*
X93254609Y-69412192D01*
X93276851Y-69387651D01*
X93301392Y-69365409D01*
X93327995Y-69345679D01*
X93356404Y-69328652D01*
X93386344Y-69314491D01*
X93417529Y-69303333D01*
X93449657Y-69295285D01*
X93482419Y-69290425D01*
X93515500Y-69288800D01*
X94190500Y-69288800D01*
X94223581Y-69290425D01*
X94223581Y-69290425D01*
G37*
D15*
X93853000Y-70013800D03*
D10*
G36*
X80571081Y-59905125D02*
G01*
X80603843Y-59909985D01*
X80635971Y-59918033D01*
X80667156Y-59929191D01*
X80697096Y-59943352D01*
X80725505Y-59960379D01*
X80752108Y-59980109D01*
X80776649Y-60002351D01*
X80798891Y-60026892D01*
X80818621Y-60053495D01*
X80835648Y-60081904D01*
X80849809Y-60111844D01*
X80860967Y-60143029D01*
X80869015Y-60175157D01*
X80873875Y-60207919D01*
X80875500Y-60241000D01*
X80875500Y-61016000D01*
X80873875Y-61049081D01*
X80869015Y-61081843D01*
X80860967Y-61113971D01*
X80849809Y-61145156D01*
X80835648Y-61175096D01*
X80818621Y-61203505D01*
X80798891Y-61230108D01*
X80776649Y-61254649D01*
X80752108Y-61276891D01*
X80725505Y-61296621D01*
X80697096Y-61313648D01*
X80667156Y-61327809D01*
X80635971Y-61338967D01*
X80603843Y-61347015D01*
X80571081Y-61351875D01*
X80538000Y-61353500D01*
X79863000Y-61353500D01*
X79829919Y-61351875D01*
X79797157Y-61347015D01*
X79765029Y-61338967D01*
X79733844Y-61327809D01*
X79703904Y-61313648D01*
X79675495Y-61296621D01*
X79648892Y-61276891D01*
X79624351Y-61254649D01*
X79602109Y-61230108D01*
X79582379Y-61203505D01*
X79565352Y-61175096D01*
X79551191Y-61145156D01*
X79540033Y-61113971D01*
X79531985Y-61081843D01*
X79527125Y-61049081D01*
X79525500Y-61016000D01*
X79525500Y-60241000D01*
X79527125Y-60207919D01*
X79531985Y-60175157D01*
X79540033Y-60143029D01*
X79551191Y-60111844D01*
X79565352Y-60081904D01*
X79582379Y-60053495D01*
X79602109Y-60026892D01*
X79624351Y-60002351D01*
X79648892Y-59980109D01*
X79675495Y-59960379D01*
X79703904Y-59943352D01*
X79733844Y-59929191D01*
X79765029Y-59918033D01*
X79797157Y-59909985D01*
X79829919Y-59905125D01*
X79863000Y-59903500D01*
X80538000Y-59903500D01*
X80571081Y-59905125D01*
X80571081Y-59905125D01*
G37*
D15*
X80200500Y-60628500D03*
D10*
G36*
X80571081Y-58155125D02*
G01*
X80603843Y-58159985D01*
X80635971Y-58168033D01*
X80667156Y-58179191D01*
X80697096Y-58193352D01*
X80725505Y-58210379D01*
X80752108Y-58230109D01*
X80776649Y-58252351D01*
X80798891Y-58276892D01*
X80818621Y-58303495D01*
X80835648Y-58331904D01*
X80849809Y-58361844D01*
X80860967Y-58393029D01*
X80869015Y-58425157D01*
X80873875Y-58457919D01*
X80875500Y-58491000D01*
X80875500Y-59266000D01*
X80873875Y-59299081D01*
X80869015Y-59331843D01*
X80860967Y-59363971D01*
X80849809Y-59395156D01*
X80835648Y-59425096D01*
X80818621Y-59453505D01*
X80798891Y-59480108D01*
X80776649Y-59504649D01*
X80752108Y-59526891D01*
X80725505Y-59546621D01*
X80697096Y-59563648D01*
X80667156Y-59577809D01*
X80635971Y-59588967D01*
X80603843Y-59597015D01*
X80571081Y-59601875D01*
X80538000Y-59603500D01*
X79863000Y-59603500D01*
X79829919Y-59601875D01*
X79797157Y-59597015D01*
X79765029Y-59588967D01*
X79733844Y-59577809D01*
X79703904Y-59563648D01*
X79675495Y-59546621D01*
X79648892Y-59526891D01*
X79624351Y-59504649D01*
X79602109Y-59480108D01*
X79582379Y-59453505D01*
X79565352Y-59425096D01*
X79551191Y-59395156D01*
X79540033Y-59363971D01*
X79531985Y-59331843D01*
X79527125Y-59299081D01*
X79525500Y-59266000D01*
X79525500Y-58491000D01*
X79527125Y-58457919D01*
X79531985Y-58425157D01*
X79540033Y-58393029D01*
X79551191Y-58361844D01*
X79565352Y-58331904D01*
X79582379Y-58303495D01*
X79602109Y-58276892D01*
X79624351Y-58252351D01*
X79648892Y-58230109D01*
X79675495Y-58210379D01*
X79703904Y-58193352D01*
X79733844Y-58179191D01*
X79765029Y-58168033D01*
X79797157Y-58159985D01*
X79829919Y-58155125D01*
X79863000Y-58153500D01*
X80538000Y-58153500D01*
X80571081Y-58155125D01*
X80571081Y-58155125D01*
G37*
D15*
X80200500Y-58878500D03*
D10*
G36*
X76987581Y-59651625D02*
G01*
X77020343Y-59656485D01*
X77052471Y-59664533D01*
X77083656Y-59675691D01*
X77113596Y-59689852D01*
X77142005Y-59706879D01*
X77168608Y-59726609D01*
X77193149Y-59748851D01*
X77215391Y-59773392D01*
X77235121Y-59799995D01*
X77252148Y-59828404D01*
X77266309Y-59858344D01*
X77277467Y-59889529D01*
X77285515Y-59921657D01*
X77290375Y-59954419D01*
X77292000Y-59987500D01*
X77292000Y-60662500D01*
X77290375Y-60695581D01*
X77285515Y-60728343D01*
X77277467Y-60760471D01*
X77266309Y-60791656D01*
X77252148Y-60821596D01*
X77235121Y-60850005D01*
X77215391Y-60876608D01*
X77193149Y-60901149D01*
X77168608Y-60923391D01*
X77142005Y-60943121D01*
X77113596Y-60960148D01*
X77083656Y-60974309D01*
X77052471Y-60985467D01*
X77020343Y-60993515D01*
X76987581Y-60998375D01*
X76954500Y-61000000D01*
X76179500Y-61000000D01*
X76146419Y-60998375D01*
X76113657Y-60993515D01*
X76081529Y-60985467D01*
X76050344Y-60974309D01*
X76020404Y-60960148D01*
X75991995Y-60943121D01*
X75965392Y-60923391D01*
X75940851Y-60901149D01*
X75918609Y-60876608D01*
X75898879Y-60850005D01*
X75881852Y-60821596D01*
X75867691Y-60791656D01*
X75856533Y-60760471D01*
X75848485Y-60728343D01*
X75843625Y-60695581D01*
X75842000Y-60662500D01*
X75842000Y-59987500D01*
X75843625Y-59954419D01*
X75848485Y-59921657D01*
X75856533Y-59889529D01*
X75867691Y-59858344D01*
X75881852Y-59828404D01*
X75898879Y-59799995D01*
X75918609Y-59773392D01*
X75940851Y-59748851D01*
X75965392Y-59726609D01*
X75991995Y-59706879D01*
X76020404Y-59689852D01*
X76050344Y-59675691D01*
X76081529Y-59664533D01*
X76113657Y-59656485D01*
X76146419Y-59651625D01*
X76179500Y-59650000D01*
X76954500Y-59650000D01*
X76987581Y-59651625D01*
X76987581Y-59651625D01*
G37*
D15*
X76567000Y-60325000D03*
D10*
G36*
X75237581Y-59651625D02*
G01*
X75270343Y-59656485D01*
X75302471Y-59664533D01*
X75333656Y-59675691D01*
X75363596Y-59689852D01*
X75392005Y-59706879D01*
X75418608Y-59726609D01*
X75443149Y-59748851D01*
X75465391Y-59773392D01*
X75485121Y-59799995D01*
X75502148Y-59828404D01*
X75516309Y-59858344D01*
X75527467Y-59889529D01*
X75535515Y-59921657D01*
X75540375Y-59954419D01*
X75542000Y-59987500D01*
X75542000Y-60662500D01*
X75540375Y-60695581D01*
X75535515Y-60728343D01*
X75527467Y-60760471D01*
X75516309Y-60791656D01*
X75502148Y-60821596D01*
X75485121Y-60850005D01*
X75465391Y-60876608D01*
X75443149Y-60901149D01*
X75418608Y-60923391D01*
X75392005Y-60943121D01*
X75363596Y-60960148D01*
X75333656Y-60974309D01*
X75302471Y-60985467D01*
X75270343Y-60993515D01*
X75237581Y-60998375D01*
X75204500Y-61000000D01*
X74429500Y-61000000D01*
X74396419Y-60998375D01*
X74363657Y-60993515D01*
X74331529Y-60985467D01*
X74300344Y-60974309D01*
X74270404Y-60960148D01*
X74241995Y-60943121D01*
X74215392Y-60923391D01*
X74190851Y-60901149D01*
X74168609Y-60876608D01*
X74148879Y-60850005D01*
X74131852Y-60821596D01*
X74117691Y-60791656D01*
X74106533Y-60760471D01*
X74098485Y-60728343D01*
X74093625Y-60695581D01*
X74092000Y-60662500D01*
X74092000Y-59987500D01*
X74093625Y-59954419D01*
X74098485Y-59921657D01*
X74106533Y-59889529D01*
X74117691Y-59858344D01*
X74131852Y-59828404D01*
X74148879Y-59799995D01*
X74168609Y-59773392D01*
X74190851Y-59748851D01*
X74215392Y-59726609D01*
X74241995Y-59706879D01*
X74270404Y-59689852D01*
X74300344Y-59675691D01*
X74331529Y-59664533D01*
X74363657Y-59656485D01*
X74396419Y-59651625D01*
X74429500Y-59650000D01*
X75204500Y-59650000D01*
X75237581Y-59651625D01*
X75237581Y-59651625D01*
G37*
D15*
X74817000Y-60325000D03*
D10*
G36*
X83276181Y-43080225D02*
G01*
X83308943Y-43085085D01*
X83341071Y-43093133D01*
X83372256Y-43104291D01*
X83402196Y-43118452D01*
X83430605Y-43135479D01*
X83457208Y-43155209D01*
X83481749Y-43177451D01*
X83503991Y-43201992D01*
X83523721Y-43228595D01*
X83540748Y-43257004D01*
X83554909Y-43286944D01*
X83566067Y-43318129D01*
X83574115Y-43350257D01*
X83578975Y-43383019D01*
X83580600Y-43416100D01*
X83580600Y-44191100D01*
X83578975Y-44224181D01*
X83574115Y-44256943D01*
X83566067Y-44289071D01*
X83554909Y-44320256D01*
X83540748Y-44350196D01*
X83523721Y-44378605D01*
X83503991Y-44405208D01*
X83481749Y-44429749D01*
X83457208Y-44451991D01*
X83430605Y-44471721D01*
X83402196Y-44488748D01*
X83372256Y-44502909D01*
X83341071Y-44514067D01*
X83308943Y-44522115D01*
X83276181Y-44526975D01*
X83243100Y-44528600D01*
X82568100Y-44528600D01*
X82535019Y-44526975D01*
X82502257Y-44522115D01*
X82470129Y-44514067D01*
X82438944Y-44502909D01*
X82409004Y-44488748D01*
X82380595Y-44471721D01*
X82353992Y-44451991D01*
X82329451Y-44429749D01*
X82307209Y-44405208D01*
X82287479Y-44378605D01*
X82270452Y-44350196D01*
X82256291Y-44320256D01*
X82245133Y-44289071D01*
X82237085Y-44256943D01*
X82232225Y-44224181D01*
X82230600Y-44191100D01*
X82230600Y-43416100D01*
X82232225Y-43383019D01*
X82237085Y-43350257D01*
X82245133Y-43318129D01*
X82256291Y-43286944D01*
X82270452Y-43257004D01*
X82287479Y-43228595D01*
X82307209Y-43201992D01*
X82329451Y-43177451D01*
X82353992Y-43155209D01*
X82380595Y-43135479D01*
X82409004Y-43118452D01*
X82438944Y-43104291D01*
X82470129Y-43093133D01*
X82502257Y-43085085D01*
X82535019Y-43080225D01*
X82568100Y-43078600D01*
X83243100Y-43078600D01*
X83276181Y-43080225D01*
X83276181Y-43080225D01*
G37*
D15*
X82905600Y-43803600D03*
D10*
G36*
X83276181Y-44830225D02*
G01*
X83308943Y-44835085D01*
X83341071Y-44843133D01*
X83372256Y-44854291D01*
X83402196Y-44868452D01*
X83430605Y-44885479D01*
X83457208Y-44905209D01*
X83481749Y-44927451D01*
X83503991Y-44951992D01*
X83523721Y-44978595D01*
X83540748Y-45007004D01*
X83554909Y-45036944D01*
X83566067Y-45068129D01*
X83574115Y-45100257D01*
X83578975Y-45133019D01*
X83580600Y-45166100D01*
X83580600Y-45941100D01*
X83578975Y-45974181D01*
X83574115Y-46006943D01*
X83566067Y-46039071D01*
X83554909Y-46070256D01*
X83540748Y-46100196D01*
X83523721Y-46128605D01*
X83503991Y-46155208D01*
X83481749Y-46179749D01*
X83457208Y-46201991D01*
X83430605Y-46221721D01*
X83402196Y-46238748D01*
X83372256Y-46252909D01*
X83341071Y-46264067D01*
X83308943Y-46272115D01*
X83276181Y-46276975D01*
X83243100Y-46278600D01*
X82568100Y-46278600D01*
X82535019Y-46276975D01*
X82502257Y-46272115D01*
X82470129Y-46264067D01*
X82438944Y-46252909D01*
X82409004Y-46238748D01*
X82380595Y-46221721D01*
X82353992Y-46201991D01*
X82329451Y-46179749D01*
X82307209Y-46155208D01*
X82287479Y-46128605D01*
X82270452Y-46100196D01*
X82256291Y-46070256D01*
X82245133Y-46039071D01*
X82237085Y-46006943D01*
X82232225Y-45974181D01*
X82230600Y-45941100D01*
X82230600Y-45166100D01*
X82232225Y-45133019D01*
X82237085Y-45100257D01*
X82245133Y-45068129D01*
X82256291Y-45036944D01*
X82270452Y-45007004D01*
X82287479Y-44978595D01*
X82307209Y-44951992D01*
X82329451Y-44927451D01*
X82353992Y-44905209D01*
X82380595Y-44885479D01*
X82409004Y-44868452D01*
X82438944Y-44854291D01*
X82470129Y-44843133D01*
X82502257Y-44835085D01*
X82535019Y-44830225D01*
X82568100Y-44828600D01*
X83243100Y-44828600D01*
X83276181Y-44830225D01*
X83276181Y-44830225D01*
G37*
D15*
X82905600Y-45553600D03*
D10*
G36*
X75237581Y-57873625D02*
G01*
X75270343Y-57878485D01*
X75302471Y-57886533D01*
X75333656Y-57897691D01*
X75363596Y-57911852D01*
X75392005Y-57928879D01*
X75418608Y-57948609D01*
X75443149Y-57970851D01*
X75465391Y-57995392D01*
X75485121Y-58021995D01*
X75502148Y-58050404D01*
X75516309Y-58080344D01*
X75527467Y-58111529D01*
X75535515Y-58143657D01*
X75540375Y-58176419D01*
X75542000Y-58209500D01*
X75542000Y-58884500D01*
X75540375Y-58917581D01*
X75535515Y-58950343D01*
X75527467Y-58982471D01*
X75516309Y-59013656D01*
X75502148Y-59043596D01*
X75485121Y-59072005D01*
X75465391Y-59098608D01*
X75443149Y-59123149D01*
X75418608Y-59145391D01*
X75392005Y-59165121D01*
X75363596Y-59182148D01*
X75333656Y-59196309D01*
X75302471Y-59207467D01*
X75270343Y-59215515D01*
X75237581Y-59220375D01*
X75204500Y-59222000D01*
X74429500Y-59222000D01*
X74396419Y-59220375D01*
X74363657Y-59215515D01*
X74331529Y-59207467D01*
X74300344Y-59196309D01*
X74270404Y-59182148D01*
X74241995Y-59165121D01*
X74215392Y-59145391D01*
X74190851Y-59123149D01*
X74168609Y-59098608D01*
X74148879Y-59072005D01*
X74131852Y-59043596D01*
X74117691Y-59013656D01*
X74106533Y-58982471D01*
X74098485Y-58950343D01*
X74093625Y-58917581D01*
X74092000Y-58884500D01*
X74092000Y-58209500D01*
X74093625Y-58176419D01*
X74098485Y-58143657D01*
X74106533Y-58111529D01*
X74117691Y-58080344D01*
X74131852Y-58050404D01*
X74148879Y-58021995D01*
X74168609Y-57995392D01*
X74190851Y-57970851D01*
X74215392Y-57948609D01*
X74241995Y-57928879D01*
X74270404Y-57911852D01*
X74300344Y-57897691D01*
X74331529Y-57886533D01*
X74363657Y-57878485D01*
X74396419Y-57873625D01*
X74429500Y-57872000D01*
X75204500Y-57872000D01*
X75237581Y-57873625D01*
X75237581Y-57873625D01*
G37*
D15*
X74817000Y-58547000D03*
D10*
G36*
X76987581Y-57873625D02*
G01*
X77020343Y-57878485D01*
X77052471Y-57886533D01*
X77083656Y-57897691D01*
X77113596Y-57911852D01*
X77142005Y-57928879D01*
X77168608Y-57948609D01*
X77193149Y-57970851D01*
X77215391Y-57995392D01*
X77235121Y-58021995D01*
X77252148Y-58050404D01*
X77266309Y-58080344D01*
X77277467Y-58111529D01*
X77285515Y-58143657D01*
X77290375Y-58176419D01*
X77292000Y-58209500D01*
X77292000Y-58884500D01*
X77290375Y-58917581D01*
X77285515Y-58950343D01*
X77277467Y-58982471D01*
X77266309Y-59013656D01*
X77252148Y-59043596D01*
X77235121Y-59072005D01*
X77215391Y-59098608D01*
X77193149Y-59123149D01*
X77168608Y-59145391D01*
X77142005Y-59165121D01*
X77113596Y-59182148D01*
X77083656Y-59196309D01*
X77052471Y-59207467D01*
X77020343Y-59215515D01*
X76987581Y-59220375D01*
X76954500Y-59222000D01*
X76179500Y-59222000D01*
X76146419Y-59220375D01*
X76113657Y-59215515D01*
X76081529Y-59207467D01*
X76050344Y-59196309D01*
X76020404Y-59182148D01*
X75991995Y-59165121D01*
X75965392Y-59145391D01*
X75940851Y-59123149D01*
X75918609Y-59098608D01*
X75898879Y-59072005D01*
X75881852Y-59043596D01*
X75867691Y-59013656D01*
X75856533Y-58982471D01*
X75848485Y-58950343D01*
X75843625Y-58917581D01*
X75842000Y-58884500D01*
X75842000Y-58209500D01*
X75843625Y-58176419D01*
X75848485Y-58143657D01*
X75856533Y-58111529D01*
X75867691Y-58080344D01*
X75881852Y-58050404D01*
X75898879Y-58021995D01*
X75918609Y-57995392D01*
X75940851Y-57970851D01*
X75965392Y-57948609D01*
X75991995Y-57928879D01*
X76020404Y-57911852D01*
X76050344Y-57897691D01*
X76081529Y-57886533D01*
X76113657Y-57878485D01*
X76146419Y-57873625D01*
X76179500Y-57872000D01*
X76954500Y-57872000D01*
X76987581Y-57873625D01*
X76987581Y-57873625D01*
G37*
D15*
X76567000Y-58547000D03*
D10*
G36*
X47111661Y-39395985D02*
G01*
X47144423Y-39400845D01*
X47176551Y-39408893D01*
X47207736Y-39420051D01*
X47237676Y-39434212D01*
X47266085Y-39451239D01*
X47292688Y-39470969D01*
X47317229Y-39493211D01*
X47339471Y-39517752D01*
X47359201Y-39544355D01*
X47376228Y-39572764D01*
X47390389Y-39602704D01*
X47401547Y-39633889D01*
X47409595Y-39666017D01*
X47414455Y-39698779D01*
X47416080Y-39731860D01*
X47416080Y-40506860D01*
X47414455Y-40539941D01*
X47409595Y-40572703D01*
X47401547Y-40604831D01*
X47390389Y-40636016D01*
X47376228Y-40665956D01*
X47359201Y-40694365D01*
X47339471Y-40720968D01*
X47317229Y-40745509D01*
X47292688Y-40767751D01*
X47266085Y-40787481D01*
X47237676Y-40804508D01*
X47207736Y-40818669D01*
X47176551Y-40829827D01*
X47144423Y-40837875D01*
X47111661Y-40842735D01*
X47078580Y-40844360D01*
X46403580Y-40844360D01*
X46370499Y-40842735D01*
X46337737Y-40837875D01*
X46305609Y-40829827D01*
X46274424Y-40818669D01*
X46244484Y-40804508D01*
X46216075Y-40787481D01*
X46189472Y-40767751D01*
X46164931Y-40745509D01*
X46142689Y-40720968D01*
X46122959Y-40694365D01*
X46105932Y-40665956D01*
X46091771Y-40636016D01*
X46080613Y-40604831D01*
X46072565Y-40572703D01*
X46067705Y-40539941D01*
X46066080Y-40506860D01*
X46066080Y-39731860D01*
X46067705Y-39698779D01*
X46072565Y-39666017D01*
X46080613Y-39633889D01*
X46091771Y-39602704D01*
X46105932Y-39572764D01*
X46122959Y-39544355D01*
X46142689Y-39517752D01*
X46164931Y-39493211D01*
X46189472Y-39470969D01*
X46216075Y-39451239D01*
X46244484Y-39434212D01*
X46274424Y-39420051D01*
X46305609Y-39408893D01*
X46337737Y-39400845D01*
X46370499Y-39395985D01*
X46403580Y-39394360D01*
X47078580Y-39394360D01*
X47111661Y-39395985D01*
X47111661Y-39395985D01*
G37*
D15*
X46741080Y-40119360D03*
D10*
G36*
X47111661Y-41145985D02*
G01*
X47144423Y-41150845D01*
X47176551Y-41158893D01*
X47207736Y-41170051D01*
X47237676Y-41184212D01*
X47266085Y-41201239D01*
X47292688Y-41220969D01*
X47317229Y-41243211D01*
X47339471Y-41267752D01*
X47359201Y-41294355D01*
X47376228Y-41322764D01*
X47390389Y-41352704D01*
X47401547Y-41383889D01*
X47409595Y-41416017D01*
X47414455Y-41448779D01*
X47416080Y-41481860D01*
X47416080Y-42256860D01*
X47414455Y-42289941D01*
X47409595Y-42322703D01*
X47401547Y-42354831D01*
X47390389Y-42386016D01*
X47376228Y-42415956D01*
X47359201Y-42444365D01*
X47339471Y-42470968D01*
X47317229Y-42495509D01*
X47292688Y-42517751D01*
X47266085Y-42537481D01*
X47237676Y-42554508D01*
X47207736Y-42568669D01*
X47176551Y-42579827D01*
X47144423Y-42587875D01*
X47111661Y-42592735D01*
X47078580Y-42594360D01*
X46403580Y-42594360D01*
X46370499Y-42592735D01*
X46337737Y-42587875D01*
X46305609Y-42579827D01*
X46274424Y-42568669D01*
X46244484Y-42554508D01*
X46216075Y-42537481D01*
X46189472Y-42517751D01*
X46164931Y-42495509D01*
X46142689Y-42470968D01*
X46122959Y-42444365D01*
X46105932Y-42415956D01*
X46091771Y-42386016D01*
X46080613Y-42354831D01*
X46072565Y-42322703D01*
X46067705Y-42289941D01*
X46066080Y-42256860D01*
X46066080Y-41481860D01*
X46067705Y-41448779D01*
X46072565Y-41416017D01*
X46080613Y-41383889D01*
X46091771Y-41352704D01*
X46105932Y-41322764D01*
X46122959Y-41294355D01*
X46142689Y-41267752D01*
X46164931Y-41243211D01*
X46189472Y-41220969D01*
X46216075Y-41201239D01*
X46244484Y-41184212D01*
X46274424Y-41170051D01*
X46305609Y-41158893D01*
X46337737Y-41150845D01*
X46370499Y-41145985D01*
X46403580Y-41144360D01*
X47078580Y-41144360D01*
X47111661Y-41145985D01*
X47111661Y-41145985D01*
G37*
D15*
X46741080Y-41869360D03*
D10*
G36*
X50952581Y-29628825D02*
G01*
X50985343Y-29633685D01*
X51017471Y-29641733D01*
X51048656Y-29652891D01*
X51078596Y-29667052D01*
X51107005Y-29684079D01*
X51133608Y-29703809D01*
X51158149Y-29726051D01*
X51180391Y-29750592D01*
X51200121Y-29777195D01*
X51217148Y-29805604D01*
X51231309Y-29835544D01*
X51242467Y-29866729D01*
X51250515Y-29898857D01*
X51255375Y-29931619D01*
X51257000Y-29964700D01*
X51257000Y-30639700D01*
X51255375Y-30672781D01*
X51250515Y-30705543D01*
X51242467Y-30737671D01*
X51231309Y-30768856D01*
X51217148Y-30798796D01*
X51200121Y-30827205D01*
X51180391Y-30853808D01*
X51158149Y-30878349D01*
X51133608Y-30900591D01*
X51107005Y-30920321D01*
X51078596Y-30937348D01*
X51048656Y-30951509D01*
X51017471Y-30962667D01*
X50985343Y-30970715D01*
X50952581Y-30975575D01*
X50919500Y-30977200D01*
X50144500Y-30977200D01*
X50111419Y-30975575D01*
X50078657Y-30970715D01*
X50046529Y-30962667D01*
X50015344Y-30951509D01*
X49985404Y-30937348D01*
X49956995Y-30920321D01*
X49930392Y-30900591D01*
X49905851Y-30878349D01*
X49883609Y-30853808D01*
X49863879Y-30827205D01*
X49846852Y-30798796D01*
X49832691Y-30768856D01*
X49821533Y-30737671D01*
X49813485Y-30705543D01*
X49808625Y-30672781D01*
X49807000Y-30639700D01*
X49807000Y-29964700D01*
X49808625Y-29931619D01*
X49813485Y-29898857D01*
X49821533Y-29866729D01*
X49832691Y-29835544D01*
X49846852Y-29805604D01*
X49863879Y-29777195D01*
X49883609Y-29750592D01*
X49905851Y-29726051D01*
X49930392Y-29703809D01*
X49956995Y-29684079D01*
X49985404Y-29667052D01*
X50015344Y-29652891D01*
X50046529Y-29641733D01*
X50078657Y-29633685D01*
X50111419Y-29628825D01*
X50144500Y-29627200D01*
X50919500Y-29627200D01*
X50952581Y-29628825D01*
X50952581Y-29628825D01*
G37*
D15*
X50532000Y-30302200D03*
D10*
G36*
X49202581Y-29628825D02*
G01*
X49235343Y-29633685D01*
X49267471Y-29641733D01*
X49298656Y-29652891D01*
X49328596Y-29667052D01*
X49357005Y-29684079D01*
X49383608Y-29703809D01*
X49408149Y-29726051D01*
X49430391Y-29750592D01*
X49450121Y-29777195D01*
X49467148Y-29805604D01*
X49481309Y-29835544D01*
X49492467Y-29866729D01*
X49500515Y-29898857D01*
X49505375Y-29931619D01*
X49507000Y-29964700D01*
X49507000Y-30639700D01*
X49505375Y-30672781D01*
X49500515Y-30705543D01*
X49492467Y-30737671D01*
X49481309Y-30768856D01*
X49467148Y-30798796D01*
X49450121Y-30827205D01*
X49430391Y-30853808D01*
X49408149Y-30878349D01*
X49383608Y-30900591D01*
X49357005Y-30920321D01*
X49328596Y-30937348D01*
X49298656Y-30951509D01*
X49267471Y-30962667D01*
X49235343Y-30970715D01*
X49202581Y-30975575D01*
X49169500Y-30977200D01*
X48394500Y-30977200D01*
X48361419Y-30975575D01*
X48328657Y-30970715D01*
X48296529Y-30962667D01*
X48265344Y-30951509D01*
X48235404Y-30937348D01*
X48206995Y-30920321D01*
X48180392Y-30900591D01*
X48155851Y-30878349D01*
X48133609Y-30853808D01*
X48113879Y-30827205D01*
X48096852Y-30798796D01*
X48082691Y-30768856D01*
X48071533Y-30737671D01*
X48063485Y-30705543D01*
X48058625Y-30672781D01*
X48057000Y-30639700D01*
X48057000Y-29964700D01*
X48058625Y-29931619D01*
X48063485Y-29898857D01*
X48071533Y-29866729D01*
X48082691Y-29835544D01*
X48096852Y-29805604D01*
X48113879Y-29777195D01*
X48133609Y-29750592D01*
X48155851Y-29726051D01*
X48180392Y-29703809D01*
X48206995Y-29684079D01*
X48235404Y-29667052D01*
X48265344Y-29652891D01*
X48296529Y-29641733D01*
X48328657Y-29633685D01*
X48361419Y-29628825D01*
X48394500Y-29627200D01*
X49169500Y-29627200D01*
X49202581Y-29628825D01*
X49202581Y-29628825D01*
G37*
D15*
X48782000Y-30302200D03*
D10*
G36*
X46471581Y-53837125D02*
G01*
X46504343Y-53841985D01*
X46536471Y-53850033D01*
X46567656Y-53861191D01*
X46597596Y-53875352D01*
X46626005Y-53892379D01*
X46652608Y-53912109D01*
X46677149Y-53934351D01*
X46699391Y-53958892D01*
X46719121Y-53985495D01*
X46736148Y-54013904D01*
X46750309Y-54043844D01*
X46761467Y-54075029D01*
X46769515Y-54107157D01*
X46774375Y-54139919D01*
X46776000Y-54173000D01*
X46776000Y-54948000D01*
X46774375Y-54981081D01*
X46769515Y-55013843D01*
X46761467Y-55045971D01*
X46750309Y-55077156D01*
X46736148Y-55107096D01*
X46719121Y-55135505D01*
X46699391Y-55162108D01*
X46677149Y-55186649D01*
X46652608Y-55208891D01*
X46626005Y-55228621D01*
X46597596Y-55245648D01*
X46567656Y-55259809D01*
X46536471Y-55270967D01*
X46504343Y-55279015D01*
X46471581Y-55283875D01*
X46438500Y-55285500D01*
X45763500Y-55285500D01*
X45730419Y-55283875D01*
X45697657Y-55279015D01*
X45665529Y-55270967D01*
X45634344Y-55259809D01*
X45604404Y-55245648D01*
X45575995Y-55228621D01*
X45549392Y-55208891D01*
X45524851Y-55186649D01*
X45502609Y-55162108D01*
X45482879Y-55135505D01*
X45465852Y-55107096D01*
X45451691Y-55077156D01*
X45440533Y-55045971D01*
X45432485Y-55013843D01*
X45427625Y-54981081D01*
X45426000Y-54948000D01*
X45426000Y-54173000D01*
X45427625Y-54139919D01*
X45432485Y-54107157D01*
X45440533Y-54075029D01*
X45451691Y-54043844D01*
X45465852Y-54013904D01*
X45482879Y-53985495D01*
X45502609Y-53958892D01*
X45524851Y-53934351D01*
X45549392Y-53912109D01*
X45575995Y-53892379D01*
X45604404Y-53875352D01*
X45634344Y-53861191D01*
X45665529Y-53850033D01*
X45697657Y-53841985D01*
X45730419Y-53837125D01*
X45763500Y-53835500D01*
X46438500Y-53835500D01*
X46471581Y-53837125D01*
X46471581Y-53837125D01*
G37*
D15*
X46101000Y-54560500D03*
D10*
G36*
X46471581Y-55587125D02*
G01*
X46504343Y-55591985D01*
X46536471Y-55600033D01*
X46567656Y-55611191D01*
X46597596Y-55625352D01*
X46626005Y-55642379D01*
X46652608Y-55662109D01*
X46677149Y-55684351D01*
X46699391Y-55708892D01*
X46719121Y-55735495D01*
X46736148Y-55763904D01*
X46750309Y-55793844D01*
X46761467Y-55825029D01*
X46769515Y-55857157D01*
X46774375Y-55889919D01*
X46776000Y-55923000D01*
X46776000Y-56698000D01*
X46774375Y-56731081D01*
X46769515Y-56763843D01*
X46761467Y-56795971D01*
X46750309Y-56827156D01*
X46736148Y-56857096D01*
X46719121Y-56885505D01*
X46699391Y-56912108D01*
X46677149Y-56936649D01*
X46652608Y-56958891D01*
X46626005Y-56978621D01*
X46597596Y-56995648D01*
X46567656Y-57009809D01*
X46536471Y-57020967D01*
X46504343Y-57029015D01*
X46471581Y-57033875D01*
X46438500Y-57035500D01*
X45763500Y-57035500D01*
X45730419Y-57033875D01*
X45697657Y-57029015D01*
X45665529Y-57020967D01*
X45634344Y-57009809D01*
X45604404Y-56995648D01*
X45575995Y-56978621D01*
X45549392Y-56958891D01*
X45524851Y-56936649D01*
X45502609Y-56912108D01*
X45482879Y-56885505D01*
X45465852Y-56857096D01*
X45451691Y-56827156D01*
X45440533Y-56795971D01*
X45432485Y-56763843D01*
X45427625Y-56731081D01*
X45426000Y-56698000D01*
X45426000Y-55923000D01*
X45427625Y-55889919D01*
X45432485Y-55857157D01*
X45440533Y-55825029D01*
X45451691Y-55793844D01*
X45465852Y-55763904D01*
X45482879Y-55735495D01*
X45502609Y-55708892D01*
X45524851Y-55684351D01*
X45549392Y-55662109D01*
X45575995Y-55642379D01*
X45604404Y-55625352D01*
X45634344Y-55611191D01*
X45665529Y-55600033D01*
X45697657Y-55591985D01*
X45730419Y-55587125D01*
X45763500Y-55585500D01*
X46438500Y-55585500D01*
X46471581Y-55587125D01*
X46471581Y-55587125D01*
G37*
D15*
X46101000Y-56310500D03*
D10*
G36*
X43827881Y-36905925D02*
G01*
X43860643Y-36910785D01*
X43892771Y-36918833D01*
X43923956Y-36929991D01*
X43953896Y-36944152D01*
X43982305Y-36961179D01*
X44008908Y-36980909D01*
X44033449Y-37003151D01*
X44055691Y-37027692D01*
X44075421Y-37054295D01*
X44092448Y-37082704D01*
X44106609Y-37112644D01*
X44117767Y-37143829D01*
X44125815Y-37175957D01*
X44130675Y-37208719D01*
X44132300Y-37241800D01*
X44132300Y-37916800D01*
X44130675Y-37949881D01*
X44125815Y-37982643D01*
X44117767Y-38014771D01*
X44106609Y-38045956D01*
X44092448Y-38075896D01*
X44075421Y-38104305D01*
X44055691Y-38130908D01*
X44033449Y-38155449D01*
X44008908Y-38177691D01*
X43982305Y-38197421D01*
X43953896Y-38214448D01*
X43923956Y-38228609D01*
X43892771Y-38239767D01*
X43860643Y-38247815D01*
X43827881Y-38252675D01*
X43794800Y-38254300D01*
X43019800Y-38254300D01*
X42986719Y-38252675D01*
X42953957Y-38247815D01*
X42921829Y-38239767D01*
X42890644Y-38228609D01*
X42860704Y-38214448D01*
X42832295Y-38197421D01*
X42805692Y-38177691D01*
X42781151Y-38155449D01*
X42758909Y-38130908D01*
X42739179Y-38104305D01*
X42722152Y-38075896D01*
X42707991Y-38045956D01*
X42696833Y-38014771D01*
X42688785Y-37982643D01*
X42683925Y-37949881D01*
X42682300Y-37916800D01*
X42682300Y-37241800D01*
X42683925Y-37208719D01*
X42688785Y-37175957D01*
X42696833Y-37143829D01*
X42707991Y-37112644D01*
X42722152Y-37082704D01*
X42739179Y-37054295D01*
X42758909Y-37027692D01*
X42781151Y-37003151D01*
X42805692Y-36980909D01*
X42832295Y-36961179D01*
X42860704Y-36944152D01*
X42890644Y-36929991D01*
X42921829Y-36918833D01*
X42953957Y-36910785D01*
X42986719Y-36905925D01*
X43019800Y-36904300D01*
X43794800Y-36904300D01*
X43827881Y-36905925D01*
X43827881Y-36905925D01*
G37*
D15*
X43407300Y-37579300D03*
D10*
G36*
X42077881Y-36905925D02*
G01*
X42110643Y-36910785D01*
X42142771Y-36918833D01*
X42173956Y-36929991D01*
X42203896Y-36944152D01*
X42232305Y-36961179D01*
X42258908Y-36980909D01*
X42283449Y-37003151D01*
X42305691Y-37027692D01*
X42325421Y-37054295D01*
X42342448Y-37082704D01*
X42356609Y-37112644D01*
X42367767Y-37143829D01*
X42375815Y-37175957D01*
X42380675Y-37208719D01*
X42382300Y-37241800D01*
X42382300Y-37916800D01*
X42380675Y-37949881D01*
X42375815Y-37982643D01*
X42367767Y-38014771D01*
X42356609Y-38045956D01*
X42342448Y-38075896D01*
X42325421Y-38104305D01*
X42305691Y-38130908D01*
X42283449Y-38155449D01*
X42258908Y-38177691D01*
X42232305Y-38197421D01*
X42203896Y-38214448D01*
X42173956Y-38228609D01*
X42142771Y-38239767D01*
X42110643Y-38247815D01*
X42077881Y-38252675D01*
X42044800Y-38254300D01*
X41269800Y-38254300D01*
X41236719Y-38252675D01*
X41203957Y-38247815D01*
X41171829Y-38239767D01*
X41140644Y-38228609D01*
X41110704Y-38214448D01*
X41082295Y-38197421D01*
X41055692Y-38177691D01*
X41031151Y-38155449D01*
X41008909Y-38130908D01*
X40989179Y-38104305D01*
X40972152Y-38075896D01*
X40957991Y-38045956D01*
X40946833Y-38014771D01*
X40938785Y-37982643D01*
X40933925Y-37949881D01*
X40932300Y-37916800D01*
X40932300Y-37241800D01*
X40933925Y-37208719D01*
X40938785Y-37175957D01*
X40946833Y-37143829D01*
X40957991Y-37112644D01*
X40972152Y-37082704D01*
X40989179Y-37054295D01*
X41008909Y-37027692D01*
X41031151Y-37003151D01*
X41055692Y-36980909D01*
X41082295Y-36961179D01*
X41110704Y-36944152D01*
X41140644Y-36929991D01*
X41171829Y-36918833D01*
X41203957Y-36910785D01*
X41236719Y-36905925D01*
X41269800Y-36904300D01*
X42044800Y-36904300D01*
X42077881Y-36905925D01*
X42077881Y-36905925D01*
G37*
D15*
X41657300Y-37579300D03*
D10*
G36*
X50901781Y-25653725D02*
G01*
X50934543Y-25658585D01*
X50966671Y-25666633D01*
X50997856Y-25677791D01*
X51027796Y-25691952D01*
X51056205Y-25708979D01*
X51082808Y-25728709D01*
X51107349Y-25750951D01*
X51129591Y-25775492D01*
X51149321Y-25802095D01*
X51166348Y-25830504D01*
X51180509Y-25860444D01*
X51191667Y-25891629D01*
X51199715Y-25923757D01*
X51204575Y-25956519D01*
X51206200Y-25989600D01*
X51206200Y-26664600D01*
X51204575Y-26697681D01*
X51199715Y-26730443D01*
X51191667Y-26762571D01*
X51180509Y-26793756D01*
X51166348Y-26823696D01*
X51149321Y-26852105D01*
X51129591Y-26878708D01*
X51107349Y-26903249D01*
X51082808Y-26925491D01*
X51056205Y-26945221D01*
X51027796Y-26962248D01*
X50997856Y-26976409D01*
X50966671Y-26987567D01*
X50934543Y-26995615D01*
X50901781Y-27000475D01*
X50868700Y-27002100D01*
X50093700Y-27002100D01*
X50060619Y-27000475D01*
X50027857Y-26995615D01*
X49995729Y-26987567D01*
X49964544Y-26976409D01*
X49934604Y-26962248D01*
X49906195Y-26945221D01*
X49879592Y-26925491D01*
X49855051Y-26903249D01*
X49832809Y-26878708D01*
X49813079Y-26852105D01*
X49796052Y-26823696D01*
X49781891Y-26793756D01*
X49770733Y-26762571D01*
X49762685Y-26730443D01*
X49757825Y-26697681D01*
X49756200Y-26664600D01*
X49756200Y-25989600D01*
X49757825Y-25956519D01*
X49762685Y-25923757D01*
X49770733Y-25891629D01*
X49781891Y-25860444D01*
X49796052Y-25830504D01*
X49813079Y-25802095D01*
X49832809Y-25775492D01*
X49855051Y-25750951D01*
X49879592Y-25728709D01*
X49906195Y-25708979D01*
X49934604Y-25691952D01*
X49964544Y-25677791D01*
X49995729Y-25666633D01*
X50027857Y-25658585D01*
X50060619Y-25653725D01*
X50093700Y-25652100D01*
X50868700Y-25652100D01*
X50901781Y-25653725D01*
X50901781Y-25653725D01*
G37*
D15*
X50481200Y-26327100D03*
D10*
G36*
X49151781Y-25653725D02*
G01*
X49184543Y-25658585D01*
X49216671Y-25666633D01*
X49247856Y-25677791D01*
X49277796Y-25691952D01*
X49306205Y-25708979D01*
X49332808Y-25728709D01*
X49357349Y-25750951D01*
X49379591Y-25775492D01*
X49399321Y-25802095D01*
X49416348Y-25830504D01*
X49430509Y-25860444D01*
X49441667Y-25891629D01*
X49449715Y-25923757D01*
X49454575Y-25956519D01*
X49456200Y-25989600D01*
X49456200Y-26664600D01*
X49454575Y-26697681D01*
X49449715Y-26730443D01*
X49441667Y-26762571D01*
X49430509Y-26793756D01*
X49416348Y-26823696D01*
X49399321Y-26852105D01*
X49379591Y-26878708D01*
X49357349Y-26903249D01*
X49332808Y-26925491D01*
X49306205Y-26945221D01*
X49277796Y-26962248D01*
X49247856Y-26976409D01*
X49216671Y-26987567D01*
X49184543Y-26995615D01*
X49151781Y-27000475D01*
X49118700Y-27002100D01*
X48343700Y-27002100D01*
X48310619Y-27000475D01*
X48277857Y-26995615D01*
X48245729Y-26987567D01*
X48214544Y-26976409D01*
X48184604Y-26962248D01*
X48156195Y-26945221D01*
X48129592Y-26925491D01*
X48105051Y-26903249D01*
X48082809Y-26878708D01*
X48063079Y-26852105D01*
X48046052Y-26823696D01*
X48031891Y-26793756D01*
X48020733Y-26762571D01*
X48012685Y-26730443D01*
X48007825Y-26697681D01*
X48006200Y-26664600D01*
X48006200Y-25989600D01*
X48007825Y-25956519D01*
X48012685Y-25923757D01*
X48020733Y-25891629D01*
X48031891Y-25860444D01*
X48046052Y-25830504D01*
X48063079Y-25802095D01*
X48082809Y-25775492D01*
X48105051Y-25750951D01*
X48129592Y-25728709D01*
X48156195Y-25708979D01*
X48184604Y-25691952D01*
X48214544Y-25677791D01*
X48245729Y-25666633D01*
X48277857Y-25658585D01*
X48310619Y-25653725D01*
X48343700Y-25652100D01*
X49118700Y-25652100D01*
X49151781Y-25653725D01*
X49151781Y-25653725D01*
G37*
D15*
X48731200Y-26327100D03*
D10*
G36*
X46217581Y-63207125D02*
G01*
X46250343Y-63211985D01*
X46282471Y-63220033D01*
X46313656Y-63231191D01*
X46343596Y-63245352D01*
X46372005Y-63262379D01*
X46398608Y-63282109D01*
X46423149Y-63304351D01*
X46445391Y-63328892D01*
X46465121Y-63355495D01*
X46482148Y-63383904D01*
X46496309Y-63413844D01*
X46507467Y-63445029D01*
X46515515Y-63477157D01*
X46520375Y-63509919D01*
X46522000Y-63543000D01*
X46522000Y-64318000D01*
X46520375Y-64351081D01*
X46515515Y-64383843D01*
X46507467Y-64415971D01*
X46496309Y-64447156D01*
X46482148Y-64477096D01*
X46465121Y-64505505D01*
X46445391Y-64532108D01*
X46423149Y-64556649D01*
X46398608Y-64578891D01*
X46372005Y-64598621D01*
X46343596Y-64615648D01*
X46313656Y-64629809D01*
X46282471Y-64640967D01*
X46250343Y-64649015D01*
X46217581Y-64653875D01*
X46184500Y-64655500D01*
X45509500Y-64655500D01*
X45476419Y-64653875D01*
X45443657Y-64649015D01*
X45411529Y-64640967D01*
X45380344Y-64629809D01*
X45350404Y-64615648D01*
X45321995Y-64598621D01*
X45295392Y-64578891D01*
X45270851Y-64556649D01*
X45248609Y-64532108D01*
X45228879Y-64505505D01*
X45211852Y-64477096D01*
X45197691Y-64447156D01*
X45186533Y-64415971D01*
X45178485Y-64383843D01*
X45173625Y-64351081D01*
X45172000Y-64318000D01*
X45172000Y-63543000D01*
X45173625Y-63509919D01*
X45178485Y-63477157D01*
X45186533Y-63445029D01*
X45197691Y-63413844D01*
X45211852Y-63383904D01*
X45228879Y-63355495D01*
X45248609Y-63328892D01*
X45270851Y-63304351D01*
X45295392Y-63282109D01*
X45321995Y-63262379D01*
X45350404Y-63245352D01*
X45380344Y-63231191D01*
X45411529Y-63220033D01*
X45443657Y-63211985D01*
X45476419Y-63207125D01*
X45509500Y-63205500D01*
X46184500Y-63205500D01*
X46217581Y-63207125D01*
X46217581Y-63207125D01*
G37*
D15*
X45847000Y-63930500D03*
D10*
G36*
X46217581Y-61457125D02*
G01*
X46250343Y-61461985D01*
X46282471Y-61470033D01*
X46313656Y-61481191D01*
X46343596Y-61495352D01*
X46372005Y-61512379D01*
X46398608Y-61532109D01*
X46423149Y-61554351D01*
X46445391Y-61578892D01*
X46465121Y-61605495D01*
X46482148Y-61633904D01*
X46496309Y-61663844D01*
X46507467Y-61695029D01*
X46515515Y-61727157D01*
X46520375Y-61759919D01*
X46522000Y-61793000D01*
X46522000Y-62568000D01*
X46520375Y-62601081D01*
X46515515Y-62633843D01*
X46507467Y-62665971D01*
X46496309Y-62697156D01*
X46482148Y-62727096D01*
X46465121Y-62755505D01*
X46445391Y-62782108D01*
X46423149Y-62806649D01*
X46398608Y-62828891D01*
X46372005Y-62848621D01*
X46343596Y-62865648D01*
X46313656Y-62879809D01*
X46282471Y-62890967D01*
X46250343Y-62899015D01*
X46217581Y-62903875D01*
X46184500Y-62905500D01*
X45509500Y-62905500D01*
X45476419Y-62903875D01*
X45443657Y-62899015D01*
X45411529Y-62890967D01*
X45380344Y-62879809D01*
X45350404Y-62865648D01*
X45321995Y-62848621D01*
X45295392Y-62828891D01*
X45270851Y-62806649D01*
X45248609Y-62782108D01*
X45228879Y-62755505D01*
X45211852Y-62727096D01*
X45197691Y-62697156D01*
X45186533Y-62665971D01*
X45178485Y-62633843D01*
X45173625Y-62601081D01*
X45172000Y-62568000D01*
X45172000Y-61793000D01*
X45173625Y-61759919D01*
X45178485Y-61727157D01*
X45186533Y-61695029D01*
X45197691Y-61663844D01*
X45211852Y-61633904D01*
X45228879Y-61605495D01*
X45248609Y-61578892D01*
X45270851Y-61554351D01*
X45295392Y-61532109D01*
X45321995Y-61512379D01*
X45350404Y-61495352D01*
X45380344Y-61481191D01*
X45411529Y-61470033D01*
X45443657Y-61461985D01*
X45476419Y-61457125D01*
X45509500Y-61455500D01*
X46184500Y-61455500D01*
X46217581Y-61457125D01*
X46217581Y-61457125D01*
G37*
D15*
X45847000Y-62180500D03*
D31*
X64211200Y-32570400D03*
X64211200Y-27170400D03*
D32*
X102141000Y-68300600D03*
X96741000Y-68300600D03*
D17*
X91122500Y-34290000D03*
X91122500Y-31750000D03*
D18*
X91122500Y-29210000D03*
D33*
X98612200Y-39751000D03*
X96612200Y-40701000D03*
X96612200Y-38801000D03*
M02*
