G04 #@! TF.GenerationSoftware,KiCad,Pcbnew,(5.1.2-1)-1*
G04 #@! TF.CreationDate,2019-05-23T21:51:25+02:00*
G04 #@! TF.ProjectId,wearable_cape,77656172-6162-46c6-955f-636170652e6b,v02*
G04 #@! TF.SameCoordinates,Original*
G04 #@! TF.FileFunction,Legend,Bot*
G04 #@! TF.FilePolarity,Positive*
%FSLAX46Y46*%
G04 Gerber Fmt 4.6, Leading zero omitted, Abs format (unit mm)*
G04 Created by KiCad (PCBNEW (5.1.2-1)-1) date 2019-05-23 21:51:25*
%MOMM*%
%LPD*%
G04 APERTURE LIST*
%ADD10C,0.120000*%
%ADD11C,0.150000*%
%ADD12C,1.500000*%
%ADD13C,2.400000*%
%ADD14R,2.400000X2.400000*%
%ADD15C,1.700000*%
%ADD16C,2.200000*%
%ADD17R,2.200000X2.200000*%
%ADD18O,2.100000X2.100000*%
%ADD19R,2.100000X2.100000*%
%ADD20O,2.127200X2.127200*%
%ADD21R,2.127200X2.127200*%
%ADD22C,2.800000*%
%ADD23R,2.800000X2.800000*%
%ADD24O,2.600000X2.140000*%
%ADD25C,0.100000*%
%ADD26C,2.140000*%
%ADD27O,2.140000X2.600000*%
G04 APERTURE END LIST*
D10*
X106482500Y-37090000D02*
X89722500Y-37090000D01*
X106482500Y-26430000D02*
X106482500Y-37090000D01*
X89722500Y-26430000D02*
X106482500Y-26430000D01*
X89722500Y-37090000D02*
X89722500Y-26440000D01*
D11*
X88034880Y-28448095D02*
X88844404Y-28448095D01*
X88939642Y-28495714D01*
X88987261Y-28543333D01*
X89034880Y-28638571D01*
X89034880Y-28829047D01*
X88987261Y-28924285D01*
X88939642Y-28971904D01*
X88844404Y-29019523D01*
X88034880Y-29019523D01*
X88368214Y-29924285D02*
X89034880Y-29924285D01*
X87987261Y-29686190D02*
X88701547Y-29448095D01*
X88701547Y-30067142D01*
%LPC*%
D12*
X103251000Y-20320000D03*
D13*
X100711000Y-20320000D03*
D12*
X103251000Y-22860000D03*
D14*
X100711000Y-22860000D03*
D15*
X40550000Y-30250000D03*
X34250000Y-30250000D03*
D16*
X34290000Y-71120000D03*
X34290000Y-68580000D03*
X36830000Y-71120000D03*
X36830000Y-68580000D03*
X39370000Y-71120000D03*
X39370000Y-68580000D03*
X41910000Y-71120000D03*
X41910000Y-68580000D03*
X44450000Y-71120000D03*
X44450000Y-68580000D03*
X46990000Y-71120000D03*
X46990000Y-68580000D03*
X49530000Y-71120000D03*
X49530000Y-68580000D03*
X52070000Y-71120000D03*
X52070000Y-68580000D03*
X54610000Y-71120000D03*
X54610000Y-68580000D03*
X57150000Y-71120000D03*
X57150000Y-68580000D03*
X59690000Y-71120000D03*
X59690000Y-68580000D03*
X62230000Y-71120000D03*
X62230000Y-68580000D03*
X64770000Y-71120000D03*
X64770000Y-68580000D03*
X67310000Y-71120000D03*
X67310000Y-68580000D03*
X69850000Y-71120000D03*
X69850000Y-68580000D03*
X72390000Y-71120000D03*
X72390000Y-68580000D03*
X74930000Y-71120000D03*
X74930000Y-68580000D03*
X77470000Y-71120000D03*
X77470000Y-68580000D03*
X80010000Y-71120000D03*
X80010000Y-68580000D03*
X82550000Y-71120000D03*
X82550000Y-68580000D03*
X85090000Y-71120000D03*
X85090000Y-68580000D03*
X87630000Y-71120000D03*
X87630000Y-68580000D03*
X90170000Y-71120000D03*
D17*
X90170000Y-68580000D03*
D16*
X34290000Y-22860000D03*
X34290000Y-20320000D03*
X36830000Y-22860000D03*
X36830000Y-20320000D03*
X39370000Y-22860000D03*
X39370000Y-20320000D03*
X41910000Y-22860000D03*
X41910000Y-20320000D03*
X44450000Y-22860000D03*
X44450000Y-20320000D03*
X46990000Y-22860000D03*
X46990000Y-20320000D03*
X49530000Y-22860000D03*
X49530000Y-20320000D03*
X52070000Y-22860000D03*
X52070000Y-20320000D03*
X54610000Y-22860000D03*
X54610000Y-20320000D03*
X57150000Y-22860000D03*
X57150000Y-20320000D03*
X59690000Y-22860000D03*
X59690000Y-20320000D03*
X62230000Y-22860000D03*
X62230000Y-20320000D03*
X64770000Y-22860000D03*
X64770000Y-20320000D03*
X67310000Y-22860000D03*
X67310000Y-20320000D03*
X69850000Y-22860000D03*
X69850000Y-20320000D03*
X72390000Y-22860000D03*
X72390000Y-20320000D03*
X74930000Y-22860000D03*
X74930000Y-20320000D03*
X77470000Y-22860000D03*
X77470000Y-20320000D03*
X80010000Y-22860000D03*
X80010000Y-20320000D03*
X82550000Y-22860000D03*
X82550000Y-20320000D03*
X85090000Y-22860000D03*
X85090000Y-20320000D03*
X87630000Y-22860000D03*
X87630000Y-20320000D03*
X90170000Y-22860000D03*
D17*
X90170000Y-20320000D03*
D15*
X40550000Y-44950000D03*
X34250000Y-44950000D03*
X40550000Y-59650000D03*
X34250000Y-59650000D03*
D18*
X49530000Y-63500000D03*
X49530000Y-60960000D03*
X49530000Y-58420000D03*
X49530000Y-55880000D03*
X49530000Y-53340000D03*
X49530000Y-50800000D03*
X49530000Y-48260000D03*
X49530000Y-45720000D03*
X49530000Y-43180000D03*
D19*
X49530000Y-40640000D03*
D20*
X98298000Y-49682400D03*
X100838000Y-49682400D03*
X98298000Y-52222400D03*
X100838000Y-52222400D03*
X98298000Y-54762400D03*
X100838000Y-54762400D03*
X98298000Y-57302400D03*
D21*
X100838000Y-57302400D03*
D22*
X97980500Y-29964500D03*
D23*
X97980500Y-33464500D03*
D18*
X90170000Y-63500000D03*
X87630000Y-63500000D03*
X85090000Y-63500000D03*
X82550000Y-63500000D03*
X80010000Y-63500000D03*
X77470000Y-63500000D03*
X74930000Y-63500000D03*
X72390000Y-63500000D03*
X69850000Y-63500000D03*
D19*
X67310000Y-63500000D03*
D24*
X61874400Y-60198000D03*
X61874400Y-57658000D03*
X61874400Y-55118000D03*
X61874400Y-52578000D03*
X61874400Y-50038000D03*
X61874400Y-47498000D03*
X61874400Y-44958000D03*
D25*
G36*
X62897067Y-41349481D02*
G01*
X62926914Y-41353908D01*
X62956184Y-41361240D01*
X62984594Y-41371405D01*
X63011870Y-41384306D01*
X63037751Y-41399818D01*
X63061987Y-41417792D01*
X63084344Y-41438056D01*
X63104608Y-41460413D01*
X63122582Y-41484649D01*
X63138094Y-41510530D01*
X63150995Y-41537806D01*
X63161160Y-41566216D01*
X63168492Y-41595486D01*
X63172919Y-41625333D01*
X63174400Y-41655470D01*
X63174400Y-43180530D01*
X63172919Y-43210667D01*
X63168492Y-43240514D01*
X63161160Y-43269784D01*
X63150995Y-43298194D01*
X63138094Y-43325470D01*
X63122582Y-43351351D01*
X63104608Y-43375587D01*
X63084344Y-43397944D01*
X63061987Y-43418208D01*
X63037751Y-43436182D01*
X63011870Y-43451694D01*
X62984594Y-43464595D01*
X62956184Y-43474760D01*
X62926914Y-43482092D01*
X62897067Y-43486519D01*
X62866930Y-43488000D01*
X60881870Y-43488000D01*
X60851733Y-43486519D01*
X60821886Y-43482092D01*
X60792616Y-43474760D01*
X60764206Y-43464595D01*
X60736930Y-43451694D01*
X60711049Y-43436182D01*
X60686813Y-43418208D01*
X60664456Y-43397944D01*
X60644192Y-43375587D01*
X60626218Y-43351351D01*
X60610706Y-43325470D01*
X60597805Y-43298194D01*
X60587640Y-43269784D01*
X60580308Y-43240514D01*
X60575881Y-43210667D01*
X60574400Y-43180530D01*
X60574400Y-41655470D01*
X60575881Y-41625333D01*
X60580308Y-41595486D01*
X60587640Y-41566216D01*
X60597805Y-41537806D01*
X60610706Y-41510530D01*
X60626218Y-41484649D01*
X60644192Y-41460413D01*
X60664456Y-41438056D01*
X60686813Y-41417792D01*
X60711049Y-41399818D01*
X60736930Y-41384306D01*
X60764206Y-41371405D01*
X60792616Y-41361240D01*
X60821886Y-41353908D01*
X60851733Y-41349481D01*
X60881870Y-41348000D01*
X62866930Y-41348000D01*
X62897067Y-41349481D01*
X62897067Y-41349481D01*
G37*
D26*
X61874400Y-42418000D03*
D24*
X54813200Y-63550800D03*
X54813200Y-61010800D03*
X54813200Y-58470800D03*
X54813200Y-55930800D03*
X54813200Y-53390800D03*
X54813200Y-50850800D03*
X54813200Y-48310800D03*
D25*
G36*
X55835867Y-44702281D02*
G01*
X55865714Y-44706708D01*
X55894984Y-44714040D01*
X55923394Y-44724205D01*
X55950670Y-44737106D01*
X55976551Y-44752618D01*
X56000787Y-44770592D01*
X56023144Y-44790856D01*
X56043408Y-44813213D01*
X56061382Y-44837449D01*
X56076894Y-44863330D01*
X56089795Y-44890606D01*
X56099960Y-44919016D01*
X56107292Y-44948286D01*
X56111719Y-44978133D01*
X56113200Y-45008270D01*
X56113200Y-46533330D01*
X56111719Y-46563467D01*
X56107292Y-46593314D01*
X56099960Y-46622584D01*
X56089795Y-46650994D01*
X56076894Y-46678270D01*
X56061382Y-46704151D01*
X56043408Y-46728387D01*
X56023144Y-46750744D01*
X56000787Y-46771008D01*
X55976551Y-46788982D01*
X55950670Y-46804494D01*
X55923394Y-46817395D01*
X55894984Y-46827560D01*
X55865714Y-46834892D01*
X55835867Y-46839319D01*
X55805730Y-46840800D01*
X53820670Y-46840800D01*
X53790533Y-46839319D01*
X53760686Y-46834892D01*
X53731416Y-46827560D01*
X53703006Y-46817395D01*
X53675730Y-46804494D01*
X53649849Y-46788982D01*
X53625613Y-46771008D01*
X53603256Y-46750744D01*
X53582992Y-46728387D01*
X53565018Y-46704151D01*
X53549506Y-46678270D01*
X53536605Y-46650994D01*
X53526440Y-46622584D01*
X53519108Y-46593314D01*
X53514681Y-46563467D01*
X53513200Y-46533330D01*
X53513200Y-45008270D01*
X53514681Y-44978133D01*
X53519108Y-44948286D01*
X53526440Y-44919016D01*
X53536605Y-44890606D01*
X53549506Y-44863330D01*
X53565018Y-44837449D01*
X53582992Y-44813213D01*
X53603256Y-44790856D01*
X53625613Y-44770592D01*
X53649849Y-44752618D01*
X53675730Y-44737106D01*
X53703006Y-44724205D01*
X53731416Y-44714040D01*
X53760686Y-44706708D01*
X53790533Y-44702281D01*
X53820670Y-44700800D01*
X55805730Y-44700800D01*
X55835867Y-44702281D01*
X55835867Y-44702281D01*
G37*
D26*
X54813200Y-45770800D03*
D27*
X80899000Y-28854400D03*
X78359000Y-28854400D03*
X75819000Y-28854400D03*
D25*
G36*
X74071667Y-27555881D02*
G01*
X74101514Y-27560308D01*
X74130784Y-27567640D01*
X74159194Y-27577805D01*
X74186470Y-27590706D01*
X74212351Y-27606218D01*
X74236587Y-27624192D01*
X74258944Y-27644456D01*
X74279208Y-27666813D01*
X74297182Y-27691049D01*
X74312694Y-27716930D01*
X74325595Y-27744206D01*
X74335760Y-27772616D01*
X74343092Y-27801886D01*
X74347519Y-27831733D01*
X74349000Y-27861870D01*
X74349000Y-29846930D01*
X74347519Y-29877067D01*
X74343092Y-29906914D01*
X74335760Y-29936184D01*
X74325595Y-29964594D01*
X74312694Y-29991870D01*
X74297182Y-30017751D01*
X74279208Y-30041987D01*
X74258944Y-30064344D01*
X74236587Y-30084608D01*
X74212351Y-30102582D01*
X74186470Y-30118094D01*
X74159194Y-30130995D01*
X74130784Y-30141160D01*
X74101514Y-30148492D01*
X74071667Y-30152919D01*
X74041530Y-30154400D01*
X72516470Y-30154400D01*
X72486333Y-30152919D01*
X72456486Y-30148492D01*
X72427216Y-30141160D01*
X72398806Y-30130995D01*
X72371530Y-30118094D01*
X72345649Y-30102582D01*
X72321413Y-30084608D01*
X72299056Y-30064344D01*
X72278792Y-30041987D01*
X72260818Y-30017751D01*
X72245306Y-29991870D01*
X72232405Y-29964594D01*
X72222240Y-29936184D01*
X72214908Y-29906914D01*
X72210481Y-29877067D01*
X72209000Y-29846930D01*
X72209000Y-27861870D01*
X72210481Y-27831733D01*
X72214908Y-27801886D01*
X72222240Y-27772616D01*
X72232405Y-27744206D01*
X72245306Y-27716930D01*
X72260818Y-27691049D01*
X72278792Y-27666813D01*
X72299056Y-27644456D01*
X72321413Y-27624192D01*
X72345649Y-27606218D01*
X72371530Y-27590706D01*
X72398806Y-27577805D01*
X72427216Y-27567640D01*
X72456486Y-27560308D01*
X72486333Y-27555881D01*
X72516470Y-27554400D01*
X74041530Y-27554400D01*
X74071667Y-27555881D01*
X74071667Y-27555881D01*
G37*
D26*
X73279000Y-28854400D03*
D19*
X57150000Y-38620700D03*
D16*
X91122500Y-34290000D03*
X91122500Y-31750000D03*
D17*
X91122500Y-29210000D03*
M02*
