G04 #@! TF.GenerationSoftware,KiCad,Pcbnew,(5.1.2-1)-1*
G04 #@! TF.CreationDate,2019-05-23T21:51:25+02:00*
G04 #@! TF.ProjectId,wearable_cape,77656172-6162-46c6-955f-636170652e6b,v02*
G04 #@! TF.SameCoordinates,Original*
G04 #@! TF.FileFunction,Copper,L2,Bot*
G04 #@! TF.FilePolarity,Positive*
%FSLAX46Y46*%
G04 Gerber Fmt 4.6, Leading zero omitted, Abs format (unit mm)*
G04 Created by KiCad (PCBNEW (5.1.2-1)-1) date 2019-05-23 21:51:25*
%MOMM*%
%LPD*%
G04 APERTURE LIST*
%ADD10C,2.000000*%
%ADD11R,2.000000X2.000000*%
%ADD12C,1.300000*%
%ADD13C,1.800000*%
%ADD14R,1.800000X1.800000*%
%ADD15O,1.700000X1.700000*%
%ADD16R,1.700000X1.700000*%
%ADD17O,1.727200X1.727200*%
%ADD18R,1.727200X1.727200*%
%ADD19C,2.400000*%
%ADD20R,2.400000X2.400000*%
%ADD21O,2.200000X1.740000*%
%ADD22C,0.100000*%
%ADD23C,1.740000*%
%ADD24O,1.740000X2.200000*%
%ADD25C,0.600000*%
%ADD26C,1.000000*%
%ADD27C,1.200000*%
%ADD28C,0.500000*%
%ADD29C,0.250000*%
%ADD30C,0.500000*%
%ADD31C,0.700000*%
%ADD32C,0.254000*%
G04 APERTURE END LIST*
D10*
X100711000Y-20320000D03*
D11*
X100711000Y-22860000D03*
D12*
X40550000Y-30250000D03*
X34250000Y-30250000D03*
D13*
X34290000Y-71120000D03*
X34290000Y-68580000D03*
X36830000Y-71120000D03*
X36830000Y-68580000D03*
X39370000Y-71120000D03*
X39370000Y-68580000D03*
X41910000Y-71120000D03*
X41910000Y-68580000D03*
X44450000Y-71120000D03*
X44450000Y-68580000D03*
X46990000Y-71120000D03*
X46990000Y-68580000D03*
X49530000Y-71120000D03*
X49530000Y-68580000D03*
X52070000Y-71120000D03*
X52070000Y-68580000D03*
X54610000Y-71120000D03*
X54610000Y-68580000D03*
X57150000Y-71120000D03*
X57150000Y-68580000D03*
X59690000Y-71120000D03*
X59690000Y-68580000D03*
X62230000Y-71120000D03*
X62230000Y-68580000D03*
X64770000Y-71120000D03*
X64770000Y-68580000D03*
X67310000Y-71120000D03*
X67310000Y-68580000D03*
X69850000Y-71120000D03*
X69850000Y-68580000D03*
X72390000Y-71120000D03*
X72390000Y-68580000D03*
X74930000Y-71120000D03*
X74930000Y-68580000D03*
X77470000Y-71120000D03*
X77470000Y-68580000D03*
X80010000Y-71120000D03*
X80010000Y-68580000D03*
X82550000Y-71120000D03*
X82550000Y-68580000D03*
X85090000Y-71120000D03*
X85090000Y-68580000D03*
X87630000Y-71120000D03*
X87630000Y-68580000D03*
X90170000Y-71120000D03*
D14*
X90170000Y-68580000D03*
D13*
X34290000Y-22860000D03*
X34290000Y-20320000D03*
X36830000Y-22860000D03*
X36830000Y-20320000D03*
X39370000Y-22860000D03*
X39370000Y-20320000D03*
X41910000Y-22860000D03*
X41910000Y-20320000D03*
X44450000Y-22860000D03*
X44450000Y-20320000D03*
X46990000Y-22860000D03*
X46990000Y-20320000D03*
X49530000Y-22860000D03*
X49530000Y-20320000D03*
X52070000Y-22860000D03*
X52070000Y-20320000D03*
X54610000Y-22860000D03*
X54610000Y-20320000D03*
X57150000Y-22860000D03*
X57150000Y-20320000D03*
X59690000Y-22860000D03*
X59690000Y-20320000D03*
X62230000Y-22860000D03*
X62230000Y-20320000D03*
X64770000Y-22860000D03*
X64770000Y-20320000D03*
X67310000Y-22860000D03*
X67310000Y-20320000D03*
X69850000Y-22860000D03*
X69850000Y-20320000D03*
X72390000Y-22860000D03*
X72390000Y-20320000D03*
X74930000Y-22860000D03*
X74930000Y-20320000D03*
X77470000Y-22860000D03*
X77470000Y-20320000D03*
X80010000Y-22860000D03*
X80010000Y-20320000D03*
X82550000Y-22860000D03*
X82550000Y-20320000D03*
X85090000Y-22860000D03*
X85090000Y-20320000D03*
X87630000Y-22860000D03*
X87630000Y-20320000D03*
X90170000Y-22860000D03*
D14*
X90170000Y-20320000D03*
D12*
X40550000Y-44950000D03*
X34250000Y-44950000D03*
X40550000Y-59650000D03*
X34250000Y-59650000D03*
D15*
X49530000Y-63500000D03*
X49530000Y-60960000D03*
X49530000Y-58420000D03*
X49530000Y-55880000D03*
X49530000Y-53340000D03*
X49530000Y-50800000D03*
X49530000Y-48260000D03*
X49530000Y-45720000D03*
X49530000Y-43180000D03*
D16*
X49530000Y-40640000D03*
D17*
X98298000Y-49682400D03*
X100838000Y-49682400D03*
X98298000Y-52222400D03*
X100838000Y-52222400D03*
X98298000Y-54762400D03*
X100838000Y-54762400D03*
X98298000Y-57302400D03*
D18*
X100838000Y-57302400D03*
D19*
X97980500Y-29964500D03*
D20*
X97980500Y-33464500D03*
D15*
X90170000Y-63500000D03*
X87630000Y-63500000D03*
X85090000Y-63500000D03*
X82550000Y-63500000D03*
X80010000Y-63500000D03*
X77470000Y-63500000D03*
X74930000Y-63500000D03*
X72390000Y-63500000D03*
X69850000Y-63500000D03*
D16*
X67310000Y-63500000D03*
D21*
X61874400Y-60198000D03*
X61874400Y-57658000D03*
X61874400Y-55118000D03*
X61874400Y-52578000D03*
X61874400Y-50038000D03*
X61874400Y-47498000D03*
X61874400Y-44958000D03*
D22*
G36*
X62748905Y-41549204D02*
G01*
X62773173Y-41552804D01*
X62796972Y-41558765D01*
X62820071Y-41567030D01*
X62842250Y-41577520D01*
X62863293Y-41590132D01*
X62882999Y-41604747D01*
X62901177Y-41621223D01*
X62917653Y-41639401D01*
X62932268Y-41659107D01*
X62944880Y-41680150D01*
X62955370Y-41702329D01*
X62963635Y-41725428D01*
X62969596Y-41749227D01*
X62973196Y-41773495D01*
X62974400Y-41797999D01*
X62974400Y-43038001D01*
X62973196Y-43062505D01*
X62969596Y-43086773D01*
X62963635Y-43110572D01*
X62955370Y-43133671D01*
X62944880Y-43155850D01*
X62932268Y-43176893D01*
X62917653Y-43196599D01*
X62901177Y-43214777D01*
X62882999Y-43231253D01*
X62863293Y-43245868D01*
X62842250Y-43258480D01*
X62820071Y-43268970D01*
X62796972Y-43277235D01*
X62773173Y-43283196D01*
X62748905Y-43286796D01*
X62724401Y-43288000D01*
X61024399Y-43288000D01*
X60999895Y-43286796D01*
X60975627Y-43283196D01*
X60951828Y-43277235D01*
X60928729Y-43268970D01*
X60906550Y-43258480D01*
X60885507Y-43245868D01*
X60865801Y-43231253D01*
X60847623Y-43214777D01*
X60831147Y-43196599D01*
X60816532Y-43176893D01*
X60803920Y-43155850D01*
X60793430Y-43133671D01*
X60785165Y-43110572D01*
X60779204Y-43086773D01*
X60775604Y-43062505D01*
X60774400Y-43038001D01*
X60774400Y-41797999D01*
X60775604Y-41773495D01*
X60779204Y-41749227D01*
X60785165Y-41725428D01*
X60793430Y-41702329D01*
X60803920Y-41680150D01*
X60816532Y-41659107D01*
X60831147Y-41639401D01*
X60847623Y-41621223D01*
X60865801Y-41604747D01*
X60885507Y-41590132D01*
X60906550Y-41577520D01*
X60928729Y-41567030D01*
X60951828Y-41558765D01*
X60975627Y-41552804D01*
X60999895Y-41549204D01*
X61024399Y-41548000D01*
X62724401Y-41548000D01*
X62748905Y-41549204D01*
X62748905Y-41549204D01*
G37*
D23*
X61874400Y-42418000D03*
D21*
X54813200Y-63550800D03*
X54813200Y-61010800D03*
X54813200Y-58470800D03*
X54813200Y-55930800D03*
X54813200Y-53390800D03*
X54813200Y-50850800D03*
X54813200Y-48310800D03*
D22*
G36*
X55687705Y-44902004D02*
G01*
X55711973Y-44905604D01*
X55735772Y-44911565D01*
X55758871Y-44919830D01*
X55781050Y-44930320D01*
X55802093Y-44942932D01*
X55821799Y-44957547D01*
X55839977Y-44974023D01*
X55856453Y-44992201D01*
X55871068Y-45011907D01*
X55883680Y-45032950D01*
X55894170Y-45055129D01*
X55902435Y-45078228D01*
X55908396Y-45102027D01*
X55911996Y-45126295D01*
X55913200Y-45150799D01*
X55913200Y-46390801D01*
X55911996Y-46415305D01*
X55908396Y-46439573D01*
X55902435Y-46463372D01*
X55894170Y-46486471D01*
X55883680Y-46508650D01*
X55871068Y-46529693D01*
X55856453Y-46549399D01*
X55839977Y-46567577D01*
X55821799Y-46584053D01*
X55802093Y-46598668D01*
X55781050Y-46611280D01*
X55758871Y-46621770D01*
X55735772Y-46630035D01*
X55711973Y-46635996D01*
X55687705Y-46639596D01*
X55663201Y-46640800D01*
X53963199Y-46640800D01*
X53938695Y-46639596D01*
X53914427Y-46635996D01*
X53890628Y-46630035D01*
X53867529Y-46621770D01*
X53845350Y-46611280D01*
X53824307Y-46598668D01*
X53804601Y-46584053D01*
X53786423Y-46567577D01*
X53769947Y-46549399D01*
X53755332Y-46529693D01*
X53742720Y-46508650D01*
X53732230Y-46486471D01*
X53723965Y-46463372D01*
X53718004Y-46439573D01*
X53714404Y-46415305D01*
X53713200Y-46390801D01*
X53713200Y-45150799D01*
X53714404Y-45126295D01*
X53718004Y-45102027D01*
X53723965Y-45078228D01*
X53732230Y-45055129D01*
X53742720Y-45032950D01*
X53755332Y-45011907D01*
X53769947Y-44992201D01*
X53786423Y-44974023D01*
X53804601Y-44957547D01*
X53824307Y-44942932D01*
X53845350Y-44930320D01*
X53867529Y-44919830D01*
X53890628Y-44911565D01*
X53914427Y-44905604D01*
X53938695Y-44902004D01*
X53963199Y-44900800D01*
X55663201Y-44900800D01*
X55687705Y-44902004D01*
X55687705Y-44902004D01*
G37*
D23*
X54813200Y-45770800D03*
D24*
X80899000Y-28854400D03*
X78359000Y-28854400D03*
X75819000Y-28854400D03*
D22*
G36*
X73923505Y-27755604D02*
G01*
X73947773Y-27759204D01*
X73971572Y-27765165D01*
X73994671Y-27773430D01*
X74016850Y-27783920D01*
X74037893Y-27796532D01*
X74057599Y-27811147D01*
X74075777Y-27827623D01*
X74092253Y-27845801D01*
X74106868Y-27865507D01*
X74119480Y-27886550D01*
X74129970Y-27908729D01*
X74138235Y-27931828D01*
X74144196Y-27955627D01*
X74147796Y-27979895D01*
X74149000Y-28004399D01*
X74149000Y-29704401D01*
X74147796Y-29728905D01*
X74144196Y-29753173D01*
X74138235Y-29776972D01*
X74129970Y-29800071D01*
X74119480Y-29822250D01*
X74106868Y-29843293D01*
X74092253Y-29862999D01*
X74075777Y-29881177D01*
X74057599Y-29897653D01*
X74037893Y-29912268D01*
X74016850Y-29924880D01*
X73994671Y-29935370D01*
X73971572Y-29943635D01*
X73947773Y-29949596D01*
X73923505Y-29953196D01*
X73899001Y-29954400D01*
X72658999Y-29954400D01*
X72634495Y-29953196D01*
X72610227Y-29949596D01*
X72586428Y-29943635D01*
X72563329Y-29935370D01*
X72541150Y-29924880D01*
X72520107Y-29912268D01*
X72500401Y-29897653D01*
X72482223Y-29881177D01*
X72465747Y-29862999D01*
X72451132Y-29843293D01*
X72438520Y-29822250D01*
X72428030Y-29800071D01*
X72419765Y-29776972D01*
X72413804Y-29753173D01*
X72410204Y-29728905D01*
X72409000Y-29704401D01*
X72409000Y-28004399D01*
X72410204Y-27979895D01*
X72413804Y-27955627D01*
X72419765Y-27931828D01*
X72428030Y-27908729D01*
X72438520Y-27886550D01*
X72451132Y-27865507D01*
X72465747Y-27845801D01*
X72482223Y-27827623D01*
X72500401Y-27811147D01*
X72520107Y-27796532D01*
X72541150Y-27783920D01*
X72563329Y-27773430D01*
X72586428Y-27765165D01*
X72610227Y-27759204D01*
X72634495Y-27755604D01*
X72658999Y-27754400D01*
X73899001Y-27754400D01*
X73923505Y-27755604D01*
X73923505Y-27755604D01*
G37*
D23*
X73279000Y-28854400D03*
D16*
X57150000Y-38620700D03*
D13*
X91122500Y-34290000D03*
X91122500Y-31750000D03*
D14*
X91122500Y-29210000D03*
D25*
X86106000Y-41783000D03*
X78841600Y-50317402D03*
D26*
X68326000Y-37185600D03*
X76085700Y-36639500D03*
D25*
X77952600Y-43738800D03*
X81356200Y-37744400D03*
X83439000Y-52959000D03*
X79222600Y-53416200D03*
D27*
X68165980Y-45940980D03*
X92506800Y-46710600D03*
X67589400Y-32588200D03*
X79646990Y-43611800D03*
X100660200Y-42164000D03*
X99771200Y-64947800D03*
X97518696Y-62695296D03*
D25*
X56642000Y-35687000D03*
X46228000Y-32385000D03*
X55880000Y-32893000D03*
X46990000Y-28067000D03*
X52070000Y-28321000D03*
X60446836Y-26294164D03*
X75692000Y-40005000D03*
X73406000Y-49403000D03*
X71374000Y-51689000D03*
X74168000Y-52197000D03*
X73152000Y-53975000D03*
X65278000Y-56769000D03*
X64262000Y-56769000D03*
X72644000Y-60071000D03*
X74422000Y-65405000D03*
X83312000Y-54991000D03*
X68834000Y-48895000D03*
X77216000Y-27051000D03*
X66802000Y-38989000D03*
X83820000Y-58039000D03*
D27*
X83159600Y-51569410D03*
X91668600Y-40208200D03*
D25*
X97104200Y-59639200D03*
X61023010Y-35687000D03*
X86360000Y-57023000D03*
X66624198Y-55092600D03*
X86360000Y-55753000D03*
X69228992Y-53340000D03*
X78105000Y-59563000D03*
X88239600Y-52971700D03*
X81762600Y-53543200D03*
X79994590Y-55143400D03*
X73152000Y-57912000D03*
X88201500Y-53873400D03*
D26*
X83261200Y-33299400D03*
X81635600Y-47726600D03*
X95364300Y-36258502D03*
X61123010Y-39420800D03*
X78846544Y-47695638D03*
X64262000Y-37871400D03*
X98780600Y-26060400D03*
X103581200Y-30828402D03*
X102082600Y-64617600D03*
D25*
X78003400Y-65316100D03*
X76225400Y-65811400D03*
D26*
X38550850Y-36493450D03*
D25*
X56591200Y-51993800D03*
X56591200Y-50723800D03*
X56591200Y-49453800D03*
X51562000Y-52197000D03*
X51562000Y-54737000D03*
X51562000Y-57277000D03*
X51562000Y-59817000D03*
X51562000Y-62103000D03*
X46990000Y-57785000D03*
X46990000Y-61087000D03*
X59182000Y-63881000D03*
X57404000Y-63881000D03*
X44196000Y-65659000D03*
X38862000Y-65659000D03*
X53187501Y-41427499D03*
X52070000Y-43053000D03*
D26*
X61125100Y-65366900D03*
D28*
X59690000Y-45085000D03*
D25*
X59690000Y-29845000D03*
D29*
X83438998Y-50317402D02*
X79265864Y-50317402D01*
X86106000Y-47650400D02*
X83438998Y-50317402D01*
X79265864Y-50317402D02*
X78841600Y-50317402D01*
X86106000Y-41783000D02*
X86106000Y-47650400D01*
D30*
X75585701Y-37139499D02*
X76085700Y-36639500D01*
X75539600Y-37185600D02*
X75585701Y-37139499D01*
X68326000Y-37185600D02*
X75539600Y-37185600D01*
D29*
X78252599Y-43438801D02*
X78252599Y-40848001D01*
X77952600Y-43738800D02*
X78252599Y-43438801D01*
X78252599Y-40848001D02*
X81356200Y-37744400D01*
X79522599Y-53116201D02*
X79222600Y-53416200D01*
X79969788Y-52669012D02*
X79522599Y-53116201D01*
X83439000Y-52959000D02*
X83014736Y-52959000D01*
X83014736Y-52959000D02*
X82724748Y-52669012D01*
X82724748Y-52669012D02*
X79969788Y-52669012D01*
D31*
X90170000Y-22860000D02*
X90106500Y-22860000D01*
X90360500Y-23050500D02*
X90170000Y-22860000D01*
X90170000Y-68580000D02*
X90170000Y-71120000D01*
X61734700Y-42532300D02*
X61722000Y-42545000D01*
X90170000Y-20320000D02*
X90170000Y-22860000D01*
X98611000Y-22860000D02*
X90170000Y-22860000D01*
X100711000Y-22860000D02*
X98611000Y-22860000D01*
X34290000Y-20320000D02*
X36830000Y-20320000D01*
X36830000Y-22860000D02*
X34290000Y-22860000D01*
X34290000Y-22860000D02*
X34290000Y-20320000D01*
X36830000Y-22860000D02*
X36830000Y-20320000D01*
X91630500Y-32258000D02*
X91122500Y-31750000D01*
X100711000Y-24960000D02*
X100711000Y-22860000D01*
X100711000Y-32934000D02*
X100711000Y-24960000D01*
X100180500Y-33464500D02*
X100711000Y-32934000D01*
X97980500Y-33464500D02*
X100180500Y-33464500D01*
X96266000Y-31750000D02*
X91122500Y-31750000D01*
X97980500Y-33464500D02*
X96266000Y-31750000D01*
X79646990Y-44460328D02*
X79646990Y-43611800D01*
X78166338Y-45940980D02*
X79646990Y-44460328D01*
X72737980Y-45940980D02*
X78166338Y-45940980D01*
X68165980Y-45940980D02*
X72737980Y-45940980D01*
X89849708Y-31750000D02*
X91122500Y-31750000D01*
X85664600Y-31750000D02*
X89849708Y-31750000D01*
X82769000Y-28854400D02*
X85664600Y-31750000D01*
X80899000Y-28854400D02*
X82769000Y-28854400D01*
X100838000Y-49682400D02*
X97980500Y-46824900D01*
X97980500Y-46037500D02*
X97980500Y-47561500D01*
X97980500Y-46824900D02*
X97980500Y-46037500D01*
X97866200Y-46710600D02*
X97980500Y-46824900D01*
X64770000Y-42545000D02*
X61722000Y-42545000D01*
X68165980Y-45940980D02*
X64770000Y-42545000D01*
X100060201Y-42789399D02*
X97980500Y-44869100D01*
X100060201Y-42763999D02*
X100060201Y-42789399D01*
X100660200Y-42164000D02*
X100060201Y-42763999D01*
X97980500Y-44869100D02*
X97980500Y-46037500D01*
X97980500Y-33464500D02*
X97980500Y-44869100D01*
X90170000Y-68580000D02*
X96139000Y-68580000D01*
X96139000Y-68580000D02*
X99771200Y-64947800D01*
X95250000Y-59578072D02*
X95250000Y-46710600D01*
X97518696Y-62695296D02*
X97518696Y-61846768D01*
X95250000Y-46710600D02*
X97866200Y-46710600D01*
X97518696Y-61846768D02*
X95250000Y-59578072D01*
X92506800Y-46710600D02*
X95250000Y-46710600D01*
X66740872Y-32588200D02*
X67589400Y-32588200D01*
X60187672Y-26035000D02*
X60446836Y-26294164D01*
X38989000Y-26035000D02*
X60187672Y-26035000D01*
X36830000Y-23876000D02*
X38989000Y-26035000D01*
X36830000Y-22860000D02*
X36830000Y-23876000D01*
X60446836Y-26294164D02*
X66740872Y-32588200D01*
X87647990Y-51569410D02*
X84008128Y-51569410D01*
X84008128Y-51569410D02*
X83159600Y-51569410D01*
X92506800Y-46710600D02*
X87647990Y-51569410D01*
X72737980Y-45940980D02*
X72737980Y-46116782D01*
X72737980Y-46116782D02*
X78252899Y-51631701D01*
X82248781Y-51631701D02*
X82311072Y-51569410D01*
X78252899Y-51631701D02*
X82248781Y-51631701D01*
X82311072Y-51569410D02*
X83159600Y-51569410D01*
X91668600Y-40208200D02*
X91668600Y-45872400D01*
X91668600Y-45872400D02*
X92506800Y-46710600D01*
D29*
X86360000Y-57023000D02*
X68554598Y-57023000D01*
X68554598Y-57023000D02*
X66924197Y-55392599D01*
X66924197Y-55392599D02*
X66624198Y-55092600D01*
X72454792Y-56565800D02*
X69528991Y-53639999D01*
X85547200Y-56565800D02*
X72454792Y-56565800D01*
X69528991Y-53639999D02*
X69228992Y-53340000D01*
X86360000Y-55753000D02*
X85547200Y-56565800D01*
X88539599Y-53271699D02*
X88239600Y-52971700D01*
X92024200Y-59867800D02*
X92024200Y-56756300D01*
X92024200Y-56756300D02*
X88539599Y-53271699D01*
X91313000Y-60579000D02*
X92024200Y-59867800D01*
X79121000Y-60579000D02*
X91313000Y-60579000D01*
X78105000Y-59563000D02*
X79121000Y-60579000D01*
X81762600Y-53543200D02*
X80162400Y-55143400D01*
X80162400Y-55143400D02*
X79994590Y-55143400D01*
X88501499Y-54173399D02*
X88201500Y-53873400D01*
X91567000Y-57238900D02*
X88501499Y-54173399D01*
X91567000Y-59182000D02*
X91567000Y-57238900D01*
X80452402Y-60096400D02*
X90652600Y-60096400D01*
X78268002Y-57912000D02*
X80452402Y-60096400D01*
X90652600Y-60096400D02*
X91567000Y-59182000D01*
X73152000Y-57912000D02*
X78268002Y-57912000D01*
D30*
X82550000Y-20320000D02*
X82550000Y-20447000D01*
X83261200Y-33299400D02*
X83261200Y-42011600D01*
X83261200Y-43230800D02*
X83261200Y-42011600D01*
X81635600Y-44856400D02*
X83261200Y-43230800D01*
X81635600Y-47726600D02*
X81635600Y-44856400D01*
X86220302Y-36258502D02*
X94657194Y-36258502D01*
X83261200Y-33299400D02*
X86220302Y-36258502D01*
X94657194Y-36258502D02*
X95364300Y-36258502D01*
X64388798Y-39420800D02*
X61830116Y-39420800D01*
X61830116Y-39420800D02*
X61123010Y-39420800D01*
X83261200Y-33299400D02*
X70510198Y-33299400D01*
X70510198Y-33299400D02*
X64388798Y-39420800D01*
X83261200Y-43280982D02*
X79346543Y-47195639D01*
X83261200Y-42011600D02*
X83261200Y-43280982D01*
X79346543Y-47195639D02*
X78846544Y-47695638D01*
D29*
X61722000Y-61658500D02*
X61722000Y-60325000D01*
X65959967Y-65896467D02*
X61722000Y-61658500D01*
X68438700Y-65896467D02*
X65959967Y-65896467D01*
X82550000Y-68580000D02*
X81089500Y-67119500D01*
X72834500Y-65900300D02*
X68442533Y-65900300D01*
X81089500Y-67119500D02*
X74053700Y-67119500D01*
X68442533Y-65900300D02*
X68438700Y-65896467D01*
X74053700Y-67119500D02*
X72834500Y-65900300D01*
D31*
X73279000Y-28854400D02*
X64262000Y-37871400D01*
X87630000Y-20320000D02*
X87630000Y-22860000D01*
X87630000Y-24132792D02*
X89557608Y-26060400D01*
X87630000Y-22860000D02*
X87630000Y-24132792D01*
X89557608Y-26060400D02*
X98780600Y-26060400D01*
X102082600Y-62407800D02*
X102082600Y-64617600D01*
X103581200Y-60909200D02*
X102082600Y-62407800D01*
X103581200Y-30828402D02*
X103581200Y-60909200D01*
X76365100Y-25768300D02*
X73279000Y-28854400D01*
X84721700Y-25768300D02*
X76365100Y-25768300D01*
X87630000Y-22860000D02*
X84721700Y-25768300D01*
D29*
X61952000Y-57785000D02*
X61722000Y-57785000D01*
X73660000Y-67462400D02*
X73660000Y-69850000D01*
X72547912Y-66350312D02*
X73660000Y-67462400D01*
X68256135Y-66350312D02*
X72547912Y-66350312D01*
X65533678Y-66346478D02*
X68252301Y-66346478D01*
X59842400Y-59434600D02*
X59842400Y-60655200D01*
X61492000Y-57785000D02*
X59842400Y-59434600D01*
X73660000Y-69850000D02*
X72390000Y-71120000D01*
X59842400Y-60655200D02*
X65533678Y-66346478D01*
X61722000Y-57785000D02*
X61492000Y-57785000D01*
X68252301Y-66346478D02*
X68256135Y-66350312D01*
X61492000Y-47625000D02*
X61722000Y-47625000D01*
X58942378Y-50174622D02*
X61492000Y-47625000D01*
X58942378Y-61028000D02*
X58942378Y-50174622D01*
X69850000Y-71120000D02*
X68580000Y-69850000D01*
X65160878Y-67246500D02*
X58942378Y-61028000D01*
X68580000Y-67947000D02*
X67879500Y-67246500D01*
X68580000Y-69850000D02*
X68580000Y-67947000D01*
X67879500Y-67246500D02*
X65160878Y-67246500D01*
X61952000Y-52705000D02*
X61722000Y-52705000D01*
X71490001Y-67680001D02*
X72390000Y-68580000D01*
X65347278Y-66796489D02*
X68065900Y-66796489D01*
X68065900Y-66796489D02*
X68069735Y-66800323D01*
X59392389Y-54804611D02*
X59392389Y-60841600D01*
X61492000Y-52705000D02*
X59392389Y-54804611D01*
X70610323Y-66800323D02*
X71490001Y-67680001D01*
X59392389Y-60841600D02*
X65347278Y-66796489D01*
X68069735Y-66800323D02*
X70610323Y-66800323D01*
X61722000Y-52705000D02*
X61492000Y-52705000D01*
D30*
X44450000Y-71120000D02*
X44450000Y-70942200D01*
D29*
X102269679Y-59655321D02*
X96608900Y-65316100D01*
X96608900Y-65316100D02*
X78427664Y-65316100D01*
X102269679Y-56194079D02*
X102269679Y-59655321D01*
X100838000Y-54762400D02*
X102269679Y-56194079D01*
X78427664Y-65316100D02*
X78003400Y-65316100D01*
D30*
X44450000Y-68072000D02*
X44450000Y-68580000D01*
D29*
X102719690Y-54104090D02*
X102719690Y-59841721D01*
X76525399Y-66111399D02*
X76225400Y-65811400D01*
X96450012Y-66111399D02*
X76525399Y-66111399D01*
X100838000Y-52222400D02*
X102719690Y-54104090D01*
X102719690Y-59841721D02*
X96450012Y-66111399D01*
D30*
X54871300Y-45700000D02*
X54229000Y-45700000D01*
X54229000Y-42468998D02*
X53187501Y-41427499D01*
X54229000Y-45700000D02*
X54229000Y-42468998D01*
X49428202Y-37668200D02*
X39725600Y-37668200D01*
X39725600Y-37668200D02*
X38550850Y-36493450D01*
X56591200Y-47294800D02*
X56591200Y-49453800D01*
X54996400Y-45700000D02*
X56591200Y-47294800D01*
X54229000Y-45700000D02*
X54996400Y-45700000D01*
X56591200Y-50723800D02*
X56591200Y-51993800D01*
X56591200Y-49453800D02*
X56591200Y-50723800D01*
X53187501Y-41427499D02*
X49428202Y-37668200D01*
X60625101Y-64866901D02*
X61125100Y-65366900D01*
X56591200Y-51993800D02*
X56591200Y-60833000D01*
X56591200Y-60833000D02*
X60625101Y-64866901D01*
D29*
X59440001Y-44835001D02*
X59690000Y-45085000D01*
X59182000Y-40652700D02*
X59182000Y-44577000D01*
X57150000Y-38620700D02*
X59182000Y-40652700D01*
X59182000Y-44577000D02*
X59440001Y-44835001D01*
X63398400Y-48488600D02*
X63398400Y-46705520D01*
X62928500Y-46235620D02*
X61139620Y-46235620D01*
X63398400Y-46705520D02*
X62928500Y-46235620D01*
X61722000Y-50165000D02*
X63398400Y-48488600D01*
X60265001Y-44808999D02*
X59690000Y-44233998D01*
X61139620Y-46235620D02*
X60265001Y-45361001D01*
X60265001Y-45361001D02*
X60265001Y-44808999D01*
X59690000Y-44233998D02*
X59690000Y-30269264D01*
X59690000Y-30269264D02*
X59690000Y-29845000D01*
D32*
G36*
X103684001Y-72315000D02*
G01*
X91011373Y-72315000D01*
X91054475Y-72184080D01*
X90170000Y-71299605D01*
X89285525Y-72184080D01*
X89328627Y-72315000D01*
X88604482Y-72315000D01*
X88608505Y-72312312D01*
X88822312Y-72098505D01*
X88924951Y-71944895D01*
X89105920Y-72004475D01*
X89990395Y-71120000D01*
X89976253Y-71105858D01*
X90155858Y-70926253D01*
X90170000Y-70940395D01*
X90184143Y-70926253D01*
X90363748Y-71105858D01*
X90349605Y-71120000D01*
X91234080Y-72004475D01*
X91488261Y-71920792D01*
X91619158Y-71648225D01*
X91694365Y-71355358D01*
X91710991Y-71053447D01*
X91668397Y-70754093D01*
X91568222Y-70468801D01*
X91488261Y-70319208D01*
X91234082Y-70235526D01*
X91350030Y-70119578D01*
X91303265Y-70072813D01*
X91314180Y-70069502D01*
X91424494Y-70010537D01*
X91521185Y-69931185D01*
X91600537Y-69834494D01*
X91659502Y-69724180D01*
X91695812Y-69604482D01*
X91708072Y-69480000D01*
X91705000Y-68865750D01*
X91546250Y-68707000D01*
X90297000Y-68707000D01*
X90297000Y-68727000D01*
X90043000Y-68727000D01*
X90043000Y-68707000D01*
X90023000Y-68707000D01*
X90023000Y-68453000D01*
X90043000Y-68453000D01*
X90043000Y-67203750D01*
X90297000Y-67203750D01*
X90297000Y-68453000D01*
X91546250Y-68453000D01*
X91705000Y-68294250D01*
X91708072Y-67680000D01*
X91695812Y-67555518D01*
X91659502Y-67435820D01*
X91600537Y-67325506D01*
X91521185Y-67228815D01*
X91424494Y-67149463D01*
X91314180Y-67090498D01*
X91194482Y-67054188D01*
X91070000Y-67041928D01*
X90455750Y-67045000D01*
X90297000Y-67203750D01*
X90043000Y-67203750D01*
X89884250Y-67045000D01*
X89270000Y-67041928D01*
X89145518Y-67054188D01*
X89025820Y-67090498D01*
X88915506Y-67149463D01*
X88818815Y-67228815D01*
X88739463Y-67325506D01*
X88680498Y-67435820D01*
X88674944Y-67454127D01*
X88608505Y-67387688D01*
X88357095Y-67219701D01*
X88077743Y-67103989D01*
X87781184Y-67045000D01*
X87478816Y-67045000D01*
X87182257Y-67103989D01*
X86902905Y-67219701D01*
X86651495Y-67387688D01*
X86437688Y-67601495D01*
X86360000Y-67717763D01*
X86282312Y-67601495D01*
X86068505Y-67387688D01*
X85817095Y-67219701D01*
X85537743Y-67103989D01*
X85241184Y-67045000D01*
X84938816Y-67045000D01*
X84642257Y-67103989D01*
X84362905Y-67219701D01*
X84111495Y-67387688D01*
X83897688Y-67601495D01*
X83820000Y-67717763D01*
X83742312Y-67601495D01*
X83528505Y-67387688D01*
X83277095Y-67219701D01*
X82997743Y-67103989D01*
X82701184Y-67045000D01*
X82398816Y-67045000D01*
X82141070Y-67096269D01*
X81916200Y-66871399D01*
X96412690Y-66871399D01*
X96450012Y-66875075D01*
X96487334Y-66871399D01*
X96487345Y-66871399D01*
X96598998Y-66860402D01*
X96742259Y-66816945D01*
X96874288Y-66746373D01*
X96990013Y-66651400D01*
X97013816Y-66622396D01*
X101097600Y-62538613D01*
X101097601Y-64048810D01*
X101076776Y-64079976D01*
X100991217Y-64286533D01*
X100947600Y-64505812D01*
X100947600Y-64729388D01*
X100991217Y-64948667D01*
X101076776Y-65155224D01*
X101200988Y-65341120D01*
X101359080Y-65499212D01*
X101544976Y-65623424D01*
X101751533Y-65708983D01*
X101970812Y-65752600D01*
X102194388Y-65752600D01*
X102413667Y-65708983D01*
X102620224Y-65623424D01*
X102806120Y-65499212D01*
X102964212Y-65341120D01*
X103088424Y-65155224D01*
X103173983Y-64948667D01*
X103217600Y-64729388D01*
X103217600Y-64505812D01*
X103173983Y-64286533D01*
X103088424Y-64079976D01*
X103067600Y-64048811D01*
X103067600Y-62815800D01*
X103684001Y-62199399D01*
X103684001Y-72315000D01*
X103684001Y-72315000D01*
G37*
X103684001Y-72315000D02*
X91011373Y-72315000D01*
X91054475Y-72184080D01*
X90170000Y-71299605D01*
X89285525Y-72184080D01*
X89328627Y-72315000D01*
X88604482Y-72315000D01*
X88608505Y-72312312D01*
X88822312Y-72098505D01*
X88924951Y-71944895D01*
X89105920Y-72004475D01*
X89990395Y-71120000D01*
X89976253Y-71105858D01*
X90155858Y-70926253D01*
X90170000Y-70940395D01*
X90184143Y-70926253D01*
X90363748Y-71105858D01*
X90349605Y-71120000D01*
X91234080Y-72004475D01*
X91488261Y-71920792D01*
X91619158Y-71648225D01*
X91694365Y-71355358D01*
X91710991Y-71053447D01*
X91668397Y-70754093D01*
X91568222Y-70468801D01*
X91488261Y-70319208D01*
X91234082Y-70235526D01*
X91350030Y-70119578D01*
X91303265Y-70072813D01*
X91314180Y-70069502D01*
X91424494Y-70010537D01*
X91521185Y-69931185D01*
X91600537Y-69834494D01*
X91659502Y-69724180D01*
X91695812Y-69604482D01*
X91708072Y-69480000D01*
X91705000Y-68865750D01*
X91546250Y-68707000D01*
X90297000Y-68707000D01*
X90297000Y-68727000D01*
X90043000Y-68727000D01*
X90043000Y-68707000D01*
X90023000Y-68707000D01*
X90023000Y-68453000D01*
X90043000Y-68453000D01*
X90043000Y-67203750D01*
X90297000Y-67203750D01*
X90297000Y-68453000D01*
X91546250Y-68453000D01*
X91705000Y-68294250D01*
X91708072Y-67680000D01*
X91695812Y-67555518D01*
X91659502Y-67435820D01*
X91600537Y-67325506D01*
X91521185Y-67228815D01*
X91424494Y-67149463D01*
X91314180Y-67090498D01*
X91194482Y-67054188D01*
X91070000Y-67041928D01*
X90455750Y-67045000D01*
X90297000Y-67203750D01*
X90043000Y-67203750D01*
X89884250Y-67045000D01*
X89270000Y-67041928D01*
X89145518Y-67054188D01*
X89025820Y-67090498D01*
X88915506Y-67149463D01*
X88818815Y-67228815D01*
X88739463Y-67325506D01*
X88680498Y-67435820D01*
X88674944Y-67454127D01*
X88608505Y-67387688D01*
X88357095Y-67219701D01*
X88077743Y-67103989D01*
X87781184Y-67045000D01*
X87478816Y-67045000D01*
X87182257Y-67103989D01*
X86902905Y-67219701D01*
X86651495Y-67387688D01*
X86437688Y-67601495D01*
X86360000Y-67717763D01*
X86282312Y-67601495D01*
X86068505Y-67387688D01*
X85817095Y-67219701D01*
X85537743Y-67103989D01*
X85241184Y-67045000D01*
X84938816Y-67045000D01*
X84642257Y-67103989D01*
X84362905Y-67219701D01*
X84111495Y-67387688D01*
X83897688Y-67601495D01*
X83820000Y-67717763D01*
X83742312Y-67601495D01*
X83528505Y-67387688D01*
X83277095Y-67219701D01*
X82997743Y-67103989D01*
X82701184Y-67045000D01*
X82398816Y-67045000D01*
X82141070Y-67096269D01*
X81916200Y-66871399D01*
X96412690Y-66871399D01*
X96450012Y-66875075D01*
X96487334Y-66871399D01*
X96487345Y-66871399D01*
X96598998Y-66860402D01*
X96742259Y-66816945D01*
X96874288Y-66746373D01*
X96990013Y-66651400D01*
X97013816Y-66622396D01*
X101097600Y-62538613D01*
X101097601Y-64048810D01*
X101076776Y-64079976D01*
X100991217Y-64286533D01*
X100947600Y-64505812D01*
X100947600Y-64729388D01*
X100991217Y-64948667D01*
X101076776Y-65155224D01*
X101200988Y-65341120D01*
X101359080Y-65499212D01*
X101544976Y-65623424D01*
X101751533Y-65708983D01*
X101970812Y-65752600D01*
X102194388Y-65752600D01*
X102413667Y-65708983D01*
X102620224Y-65623424D01*
X102806120Y-65499212D01*
X102964212Y-65341120D01*
X103088424Y-65155224D01*
X103173983Y-64948667D01*
X103217600Y-64729388D01*
X103217600Y-64505812D01*
X103173983Y-64286533D01*
X103088424Y-64079976D01*
X103067600Y-64048811D01*
X103067600Y-62815800D01*
X103684001Y-62199399D01*
X103684001Y-72315000D01*
G36*
X99441013Y-19277748D02*
G01*
X99262082Y-19545537D01*
X99138832Y-19843088D01*
X99076000Y-20158967D01*
X99076000Y-20481033D01*
X99138832Y-20796912D01*
X99262082Y-21094463D01*
X99402630Y-21304809D01*
X99356506Y-21329463D01*
X99259815Y-21408815D01*
X99180463Y-21505506D01*
X99121498Y-21615820D01*
X99085188Y-21735518D01*
X99072928Y-21860000D01*
X99076000Y-22574250D01*
X99234750Y-22733000D01*
X100584000Y-22733000D01*
X100584000Y-22713000D01*
X100838000Y-22713000D01*
X100838000Y-22733000D01*
X100858000Y-22733000D01*
X100858000Y-22987000D01*
X100838000Y-22987000D01*
X100838000Y-24336250D01*
X100996750Y-24495000D01*
X101711000Y-24498072D01*
X101835482Y-24485812D01*
X101955180Y-24449502D01*
X102065494Y-24390537D01*
X102162185Y-24311185D01*
X102241537Y-24214494D01*
X102300502Y-24104180D01*
X102336812Y-23984482D01*
X102349072Y-23860000D01*
X102348095Y-23632939D01*
X102495606Y-23780450D01*
X102689692Y-23910134D01*
X102905348Y-23999461D01*
X103134288Y-24045000D01*
X103367712Y-24045000D01*
X103596652Y-23999461D01*
X103684000Y-23963280D01*
X103684000Y-29693402D01*
X103469412Y-29693402D01*
X103250133Y-29737019D01*
X103043576Y-29822578D01*
X102857680Y-29946790D01*
X102699588Y-30104882D01*
X102575376Y-30290778D01*
X102489817Y-30497335D01*
X102446200Y-30716614D01*
X102446200Y-30940190D01*
X102489817Y-31159469D01*
X102575376Y-31366026D01*
X102596200Y-31397191D01*
X102596201Y-52905799D01*
X102289701Y-52599300D01*
X102314916Y-52516177D01*
X102343851Y-52222400D01*
X102314916Y-51928623D01*
X102229225Y-51646136D01*
X102090069Y-51385794D01*
X101902797Y-51157603D01*
X101674606Y-50970331D01*
X101630090Y-50946537D01*
X101726488Y-50889217D01*
X101944854Y-50692693D01*
X102120684Y-50457344D01*
X102247222Y-50192214D01*
X102292958Y-50041426D01*
X102171817Y-49809400D01*
X100965000Y-49809400D01*
X100965000Y-49829400D01*
X100711000Y-49829400D01*
X100711000Y-49809400D01*
X100691000Y-49809400D01*
X100691000Y-49555400D01*
X100711000Y-49555400D01*
X100711000Y-48347936D01*
X100965000Y-48347936D01*
X100965000Y-49555400D01*
X102171817Y-49555400D01*
X102292958Y-49323374D01*
X102247222Y-49172586D01*
X102120684Y-48907456D01*
X101944854Y-48672107D01*
X101726488Y-48475583D01*
X101473978Y-48325436D01*
X101197027Y-48227437D01*
X100965000Y-48347936D01*
X100711000Y-48347936D01*
X100478973Y-48227437D01*
X100202022Y-48325436D01*
X99949512Y-48475583D01*
X99731146Y-48672107D01*
X99571470Y-48885833D01*
X99550069Y-48845794D01*
X99362797Y-48617603D01*
X99134606Y-48430331D01*
X98874264Y-48291175D01*
X98591777Y-48205484D01*
X98371619Y-48183800D01*
X98224381Y-48183800D01*
X98004223Y-48205484D01*
X97721736Y-48291175D01*
X97461394Y-48430331D01*
X97233203Y-48617603D01*
X97045931Y-48845794D01*
X96906775Y-49106136D01*
X96821084Y-49388623D01*
X96792149Y-49682400D01*
X96821084Y-49976177D01*
X96906775Y-50258664D01*
X97045931Y-50519006D01*
X97233203Y-50747197D01*
X97461394Y-50934469D01*
X97494940Y-50952400D01*
X97461394Y-50970331D01*
X97233203Y-51157603D01*
X97045931Y-51385794D01*
X96906775Y-51646136D01*
X96821084Y-51928623D01*
X96792149Y-52222400D01*
X96821084Y-52516177D01*
X96906775Y-52798664D01*
X97045931Y-53059006D01*
X97233203Y-53287197D01*
X97461394Y-53474469D01*
X97494940Y-53492400D01*
X97461394Y-53510331D01*
X97233203Y-53697603D01*
X97045931Y-53925794D01*
X96906775Y-54186136D01*
X96821084Y-54468623D01*
X96792149Y-54762400D01*
X96821084Y-55056177D01*
X96906775Y-55338664D01*
X97045931Y-55599006D01*
X97233203Y-55827197D01*
X97461394Y-56014469D01*
X97494940Y-56032400D01*
X97461394Y-56050331D01*
X97233203Y-56237603D01*
X97045931Y-56465794D01*
X96906775Y-56726136D01*
X96821084Y-57008623D01*
X96792149Y-57302400D01*
X96821084Y-57596177D01*
X96906775Y-57878664D01*
X97045931Y-58139006D01*
X97233203Y-58367197D01*
X97461394Y-58554469D01*
X97721736Y-58693625D01*
X98004223Y-58779316D01*
X98224381Y-58801000D01*
X98371619Y-58801000D01*
X98591777Y-58779316D01*
X98874264Y-58693625D01*
X99134606Y-58554469D01*
X99362797Y-58367197D01*
X99369414Y-58359135D01*
X99384898Y-58410180D01*
X99443863Y-58520494D01*
X99523215Y-58617185D01*
X99619906Y-58696537D01*
X99730220Y-58755502D01*
X99849918Y-58791812D01*
X99974400Y-58804072D01*
X101509680Y-58804072D01*
X101509680Y-59340517D01*
X96294099Y-64556100D01*
X91223957Y-64556100D01*
X91225134Y-64555134D01*
X91410706Y-64329014D01*
X91548599Y-64071034D01*
X91633513Y-63791111D01*
X91662185Y-63500000D01*
X91633513Y-63208889D01*
X91548599Y-62928966D01*
X91410706Y-62670986D01*
X91225134Y-62444866D01*
X90999014Y-62259294D01*
X90741034Y-62121401D01*
X90461111Y-62036487D01*
X90242950Y-62015000D01*
X90097050Y-62015000D01*
X89878889Y-62036487D01*
X89598966Y-62121401D01*
X89340986Y-62259294D01*
X89114866Y-62444866D01*
X88929294Y-62670986D01*
X88900000Y-62725791D01*
X88870706Y-62670986D01*
X88685134Y-62444866D01*
X88459014Y-62259294D01*
X88201034Y-62121401D01*
X87921111Y-62036487D01*
X87702950Y-62015000D01*
X87557050Y-62015000D01*
X87338889Y-62036487D01*
X87058966Y-62121401D01*
X86800986Y-62259294D01*
X86574866Y-62444866D01*
X86389294Y-62670986D01*
X86360000Y-62725791D01*
X86330706Y-62670986D01*
X86145134Y-62444866D01*
X85919014Y-62259294D01*
X85661034Y-62121401D01*
X85381111Y-62036487D01*
X85162950Y-62015000D01*
X85017050Y-62015000D01*
X84798889Y-62036487D01*
X84518966Y-62121401D01*
X84260986Y-62259294D01*
X84034866Y-62444866D01*
X83849294Y-62670986D01*
X83820000Y-62725791D01*
X83790706Y-62670986D01*
X83605134Y-62444866D01*
X83379014Y-62259294D01*
X83121034Y-62121401D01*
X82841111Y-62036487D01*
X82622950Y-62015000D01*
X82477050Y-62015000D01*
X82258889Y-62036487D01*
X81978966Y-62121401D01*
X81720986Y-62259294D01*
X81494866Y-62444866D01*
X81309294Y-62670986D01*
X81280000Y-62725791D01*
X81250706Y-62670986D01*
X81065134Y-62444866D01*
X80839014Y-62259294D01*
X80581034Y-62121401D01*
X80301111Y-62036487D01*
X80082950Y-62015000D01*
X79937050Y-62015000D01*
X79718889Y-62036487D01*
X79438966Y-62121401D01*
X79180986Y-62259294D01*
X78954866Y-62444866D01*
X78769294Y-62670986D01*
X78740000Y-62725791D01*
X78710706Y-62670986D01*
X78525134Y-62444866D01*
X78299014Y-62259294D01*
X78041034Y-62121401D01*
X77761111Y-62036487D01*
X77542950Y-62015000D01*
X77397050Y-62015000D01*
X77178889Y-62036487D01*
X76898966Y-62121401D01*
X76640986Y-62259294D01*
X76414866Y-62444866D01*
X76229294Y-62670986D01*
X76200000Y-62725791D01*
X76170706Y-62670986D01*
X75985134Y-62444866D01*
X75759014Y-62259294D01*
X75501034Y-62121401D01*
X75221111Y-62036487D01*
X75002950Y-62015000D01*
X74857050Y-62015000D01*
X74638889Y-62036487D01*
X74358966Y-62121401D01*
X74100986Y-62259294D01*
X73874866Y-62444866D01*
X73689294Y-62670986D01*
X73660000Y-62725791D01*
X73630706Y-62670986D01*
X73445134Y-62444866D01*
X73219014Y-62259294D01*
X72961034Y-62121401D01*
X72681111Y-62036487D01*
X72462950Y-62015000D01*
X72317050Y-62015000D01*
X72098889Y-62036487D01*
X71818966Y-62121401D01*
X71560986Y-62259294D01*
X71334866Y-62444866D01*
X71149294Y-62670986D01*
X71120000Y-62725791D01*
X71090706Y-62670986D01*
X70905134Y-62444866D01*
X70679014Y-62259294D01*
X70421034Y-62121401D01*
X70141111Y-62036487D01*
X69922950Y-62015000D01*
X69777050Y-62015000D01*
X69558889Y-62036487D01*
X69278966Y-62121401D01*
X69020986Y-62259294D01*
X68794866Y-62444866D01*
X68770393Y-62474687D01*
X68749502Y-62405820D01*
X68690537Y-62295506D01*
X68611185Y-62198815D01*
X68514494Y-62119463D01*
X68404180Y-62060498D01*
X68284482Y-62024188D01*
X68160000Y-62011928D01*
X66460000Y-62011928D01*
X66335518Y-62024188D01*
X66215820Y-62060498D01*
X66105506Y-62119463D01*
X66008815Y-62198815D01*
X65929463Y-62295506D01*
X65870498Y-62405820D01*
X65834188Y-62525518D01*
X65821928Y-62650000D01*
X65821928Y-64350000D01*
X65834188Y-64474482D01*
X65870498Y-64594180D01*
X65929463Y-64704494D01*
X66008815Y-64801185D01*
X66105506Y-64880537D01*
X66215820Y-64939502D01*
X66335518Y-64975812D01*
X66460000Y-64988072D01*
X68160000Y-64988072D01*
X68284482Y-64975812D01*
X68404180Y-64939502D01*
X68514494Y-64880537D01*
X68611185Y-64801185D01*
X68690537Y-64704494D01*
X68749502Y-64594180D01*
X68770393Y-64525313D01*
X68794866Y-64555134D01*
X69020986Y-64740706D01*
X69278966Y-64878599D01*
X69558889Y-64963513D01*
X69777050Y-64985000D01*
X69922950Y-64985000D01*
X70141111Y-64963513D01*
X70421034Y-64878599D01*
X70679014Y-64740706D01*
X70905134Y-64555134D01*
X71090706Y-64329014D01*
X71120000Y-64274209D01*
X71149294Y-64329014D01*
X71334866Y-64555134D01*
X71560986Y-64740706D01*
X71818966Y-64878599D01*
X72098889Y-64963513D01*
X72317050Y-64985000D01*
X72462950Y-64985000D01*
X72681111Y-64963513D01*
X72961034Y-64878599D01*
X73219014Y-64740706D01*
X73445134Y-64555134D01*
X73630706Y-64329014D01*
X73660000Y-64274209D01*
X73689294Y-64329014D01*
X73874866Y-64555134D01*
X74100986Y-64740706D01*
X74358966Y-64878599D01*
X74638889Y-64963513D01*
X74857050Y-64985000D01*
X75002950Y-64985000D01*
X75221111Y-64963513D01*
X75501034Y-64878599D01*
X75759014Y-64740706D01*
X75985134Y-64555134D01*
X76170706Y-64329014D01*
X76200000Y-64274209D01*
X76229294Y-64329014D01*
X76414866Y-64555134D01*
X76640986Y-64740706D01*
X76898966Y-64878599D01*
X77142040Y-64952335D01*
X77104332Y-65043371D01*
X77068400Y-65224011D01*
X77068400Y-65351399D01*
X77042552Y-65351399D01*
X76951662Y-65215372D01*
X76821428Y-65085138D01*
X76668289Y-64982814D01*
X76498129Y-64912332D01*
X76317489Y-64876400D01*
X76133311Y-64876400D01*
X75952671Y-64912332D01*
X75782511Y-64982814D01*
X75629372Y-65085138D01*
X75499138Y-65215372D01*
X75396814Y-65368511D01*
X75326332Y-65538671D01*
X75290400Y-65719311D01*
X75290400Y-65903489D01*
X75326332Y-66084129D01*
X75396814Y-66254289D01*
X75467114Y-66359500D01*
X74368502Y-66359500D01*
X73398304Y-65389303D01*
X73374501Y-65360299D01*
X73258776Y-65265326D01*
X73126747Y-65194754D01*
X72983486Y-65151297D01*
X72871833Y-65140300D01*
X72871822Y-65140300D01*
X72834500Y-65136624D01*
X72797178Y-65140300D01*
X68514950Y-65140300D01*
X68476033Y-65136467D01*
X68476022Y-65136467D01*
X68438700Y-65132791D01*
X68401378Y-65136467D01*
X66274770Y-65136467D01*
X62715932Y-61577631D01*
X62944579Y-61455417D01*
X63173745Y-61267345D01*
X63361817Y-61038179D01*
X63501566Y-60776725D01*
X63587624Y-60493032D01*
X63616682Y-60198000D01*
X63587624Y-59902968D01*
X63501566Y-59619275D01*
X63361817Y-59357821D01*
X63173745Y-59128655D01*
X62944579Y-58940583D01*
X62921038Y-58928000D01*
X62944579Y-58915417D01*
X63173745Y-58727345D01*
X63361817Y-58498179D01*
X63501566Y-58236725D01*
X63587624Y-57953032D01*
X63616682Y-57658000D01*
X63587624Y-57362968D01*
X63501566Y-57079275D01*
X63361817Y-56817821D01*
X63173745Y-56588655D01*
X62944579Y-56400583D01*
X62921038Y-56388000D01*
X62944579Y-56375417D01*
X63173745Y-56187345D01*
X63361817Y-55958179D01*
X63501566Y-55696725D01*
X63587624Y-55413032D01*
X63616682Y-55118000D01*
X63605111Y-55000511D01*
X65689198Y-55000511D01*
X65689198Y-55184689D01*
X65725130Y-55365329D01*
X65795612Y-55535489D01*
X65897936Y-55688628D01*
X66028170Y-55818862D01*
X66181309Y-55921186D01*
X66351469Y-55991668D01*
X66472550Y-56015753D01*
X67990799Y-57534003D01*
X68014597Y-57563001D01*
X68130322Y-57657974D01*
X68262351Y-57728546D01*
X68405612Y-57772003D01*
X68517265Y-57783000D01*
X68517274Y-57783000D01*
X68554597Y-57786676D01*
X68591920Y-57783000D01*
X72224342Y-57783000D01*
X72217000Y-57819911D01*
X72217000Y-58004089D01*
X72252932Y-58184729D01*
X72323414Y-58354889D01*
X72425738Y-58508028D01*
X72555972Y-58638262D01*
X72709111Y-58740586D01*
X72879271Y-58811068D01*
X73059911Y-58847000D01*
X73244089Y-58847000D01*
X73424729Y-58811068D01*
X73594889Y-58740586D01*
X73697535Y-58672000D01*
X77812793Y-58672000D01*
X77662111Y-58734414D01*
X77508972Y-58836738D01*
X77378738Y-58966972D01*
X77276414Y-59120111D01*
X77205932Y-59290271D01*
X77170000Y-59470911D01*
X77170000Y-59655089D01*
X77205932Y-59835729D01*
X77276414Y-60005889D01*
X77378738Y-60159028D01*
X77508972Y-60289262D01*
X77662111Y-60391586D01*
X77832271Y-60462068D01*
X77953351Y-60486153D01*
X78557201Y-61090003D01*
X78580999Y-61119001D01*
X78609997Y-61142799D01*
X78696723Y-61213974D01*
X78828753Y-61284546D01*
X78972014Y-61328003D01*
X79083667Y-61339000D01*
X79083677Y-61339000D01*
X79121000Y-61342676D01*
X79158322Y-61339000D01*
X91275678Y-61339000D01*
X91313000Y-61342676D01*
X91350322Y-61339000D01*
X91350333Y-61339000D01*
X91461986Y-61328003D01*
X91605247Y-61284546D01*
X91737276Y-61213974D01*
X91853001Y-61119001D01*
X91876803Y-61089998D01*
X92535204Y-60431598D01*
X92564201Y-60407801D01*
X92659174Y-60292076D01*
X92729746Y-60160047D01*
X92773203Y-60016786D01*
X92784200Y-59905133D01*
X92784200Y-59905125D01*
X92787876Y-59867800D01*
X92784200Y-59830475D01*
X92784200Y-56793622D01*
X92787876Y-56756300D01*
X92784200Y-56718977D01*
X92784200Y-56718967D01*
X92773203Y-56607314D01*
X92729746Y-56464053D01*
X92709926Y-56426972D01*
X92659174Y-56332023D01*
X92587999Y-56245297D01*
X92564201Y-56216299D01*
X92535203Y-56192501D01*
X89162753Y-52820052D01*
X89138668Y-52698971D01*
X89068186Y-52528811D01*
X88965862Y-52375672D01*
X88835628Y-52245438D01*
X88682489Y-52143114D01*
X88512329Y-52072632D01*
X88331689Y-52036700D01*
X88147511Y-52036700D01*
X87966871Y-52072632D01*
X87796711Y-52143114D01*
X87643572Y-52245438D01*
X87513338Y-52375672D01*
X87411014Y-52528811D01*
X87340532Y-52698971D01*
X87304600Y-52879611D01*
X87304600Y-53063789D01*
X87340532Y-53244429D01*
X87400505Y-53389218D01*
X87372914Y-53430511D01*
X87302432Y-53600671D01*
X87266500Y-53781311D01*
X87266500Y-53965489D01*
X87302432Y-54146129D01*
X87372914Y-54316289D01*
X87475238Y-54469428D01*
X87605472Y-54599662D01*
X87758611Y-54701986D01*
X87928771Y-54772468D01*
X88049852Y-54796553D01*
X90807001Y-57553703D01*
X90807000Y-58867198D01*
X90337799Y-59336400D01*
X80767204Y-59336400D01*
X79213803Y-57783000D01*
X85814465Y-57783000D01*
X85917111Y-57851586D01*
X86087271Y-57922068D01*
X86267911Y-57958000D01*
X86452089Y-57958000D01*
X86632729Y-57922068D01*
X86802889Y-57851586D01*
X86956028Y-57749262D01*
X87086262Y-57619028D01*
X87188586Y-57465889D01*
X87259068Y-57295729D01*
X87295000Y-57115089D01*
X87295000Y-56930911D01*
X87259068Y-56750271D01*
X87188586Y-56580111D01*
X87086262Y-56426972D01*
X87047290Y-56388000D01*
X87086262Y-56349028D01*
X87188586Y-56195889D01*
X87259068Y-56025729D01*
X87295000Y-55845089D01*
X87295000Y-55660911D01*
X87259068Y-55480271D01*
X87188586Y-55310111D01*
X87086262Y-55156972D01*
X86956028Y-55026738D01*
X86802889Y-54924414D01*
X86632729Y-54853932D01*
X86452089Y-54818000D01*
X86267911Y-54818000D01*
X86087271Y-54853932D01*
X85917111Y-54924414D01*
X85763972Y-55026738D01*
X85633738Y-55156972D01*
X85531414Y-55310111D01*
X85460932Y-55480271D01*
X85436847Y-55601351D01*
X85232399Y-55805800D01*
X80654480Y-55805800D01*
X80720852Y-55739428D01*
X80823176Y-55586289D01*
X80843586Y-55537016D01*
X81914249Y-54466353D01*
X82035329Y-54442268D01*
X82205489Y-54371786D01*
X82358628Y-54269462D01*
X82488862Y-54139228D01*
X82591186Y-53986089D01*
X82661668Y-53815929D01*
X82694732Y-53649709D01*
X82722489Y-53664546D01*
X82865750Y-53708003D01*
X82878952Y-53709303D01*
X82996111Y-53787586D01*
X83166271Y-53858068D01*
X83346911Y-53894000D01*
X83531089Y-53894000D01*
X83711729Y-53858068D01*
X83881889Y-53787586D01*
X84035028Y-53685262D01*
X84165262Y-53555028D01*
X84267586Y-53401889D01*
X84338068Y-53231729D01*
X84374000Y-53051089D01*
X84374000Y-52866911D01*
X84338068Y-52686271D01*
X84267586Y-52516111D01*
X84165262Y-52362972D01*
X84035028Y-52232738D01*
X83881889Y-52130414D01*
X83711729Y-52059932D01*
X83531089Y-52024000D01*
X83346911Y-52024000D01*
X83177785Y-52057642D01*
X83149024Y-52034038D01*
X83016995Y-51963466D01*
X82873734Y-51920009D01*
X82762081Y-51909012D01*
X82762070Y-51909012D01*
X82724748Y-51905336D01*
X82687426Y-51909012D01*
X80007113Y-51909012D01*
X79969788Y-51905336D01*
X79932463Y-51909012D01*
X79932455Y-51909012D01*
X79820802Y-51920009D01*
X79677541Y-51963466D01*
X79545512Y-52034038D01*
X79429787Y-52129011D01*
X79405984Y-52158015D01*
X79070952Y-52493047D01*
X78949871Y-52517132D01*
X78779711Y-52587614D01*
X78626572Y-52689938D01*
X78496338Y-52820172D01*
X78394014Y-52973311D01*
X78323532Y-53143471D01*
X78287600Y-53324111D01*
X78287600Y-53508289D01*
X78323532Y-53688929D01*
X78394014Y-53859089D01*
X78496338Y-54012228D01*
X78626572Y-54142462D01*
X78779711Y-54244786D01*
X78949871Y-54315268D01*
X79130511Y-54351200D01*
X79314689Y-54351200D01*
X79495329Y-54315268D01*
X79665489Y-54244786D01*
X79818628Y-54142462D01*
X79948862Y-54012228D01*
X80051186Y-53859089D01*
X80121668Y-53688929D01*
X80145753Y-53567848D01*
X80284589Y-53429012D01*
X80801986Y-53429012D01*
X80022599Y-54208400D01*
X79902501Y-54208400D01*
X79721861Y-54244332D01*
X79551701Y-54314814D01*
X79398562Y-54417138D01*
X79268328Y-54547372D01*
X79166004Y-54700511D01*
X79095522Y-54870671D01*
X79059590Y-55051311D01*
X79059590Y-55235489D01*
X79095522Y-55416129D01*
X79166004Y-55586289D01*
X79268328Y-55739428D01*
X79334700Y-55805800D01*
X72769595Y-55805800D01*
X70152145Y-53188352D01*
X70128060Y-53067271D01*
X70057578Y-52897111D01*
X69955254Y-52743972D01*
X69825020Y-52613738D01*
X69671881Y-52511414D01*
X69501721Y-52440932D01*
X69321081Y-52405000D01*
X69136903Y-52405000D01*
X68956263Y-52440932D01*
X68786103Y-52511414D01*
X68632964Y-52613738D01*
X68502730Y-52743972D01*
X68400406Y-52897111D01*
X68329924Y-53067271D01*
X68293992Y-53247911D01*
X68293992Y-53432089D01*
X68329924Y-53612729D01*
X68400406Y-53782889D01*
X68502730Y-53936028D01*
X68632964Y-54066262D01*
X68786103Y-54168586D01*
X68956263Y-54239068D01*
X69077344Y-54263153D01*
X71077190Y-56263000D01*
X68869400Y-56263000D01*
X67547351Y-54940952D01*
X67523266Y-54819871D01*
X67452784Y-54649711D01*
X67350460Y-54496572D01*
X67220226Y-54366338D01*
X67067087Y-54264014D01*
X66896927Y-54193532D01*
X66716287Y-54157600D01*
X66532109Y-54157600D01*
X66351469Y-54193532D01*
X66181309Y-54264014D01*
X66028170Y-54366338D01*
X65897936Y-54496572D01*
X65795612Y-54649711D01*
X65725130Y-54819871D01*
X65689198Y-55000511D01*
X63605111Y-55000511D01*
X63587624Y-54822968D01*
X63501566Y-54539275D01*
X63361817Y-54277821D01*
X63173745Y-54048655D01*
X62944579Y-53860583D01*
X62921038Y-53848000D01*
X62944579Y-53835417D01*
X63173745Y-53647345D01*
X63361817Y-53418179D01*
X63501566Y-53156725D01*
X63587624Y-52873032D01*
X63616682Y-52578000D01*
X63587624Y-52282968D01*
X63501566Y-51999275D01*
X63361817Y-51737821D01*
X63173745Y-51508655D01*
X62944579Y-51320583D01*
X62921038Y-51308000D01*
X62944579Y-51295417D01*
X63173745Y-51107345D01*
X63361817Y-50878179D01*
X63501566Y-50616725D01*
X63587624Y-50333032D01*
X63598233Y-50225313D01*
X77906600Y-50225313D01*
X77906600Y-50409491D01*
X77942532Y-50590131D01*
X78013014Y-50760291D01*
X78115338Y-50913430D01*
X78245572Y-51043664D01*
X78398711Y-51145988D01*
X78568871Y-51216470D01*
X78749511Y-51252402D01*
X78933689Y-51252402D01*
X79114329Y-51216470D01*
X79284489Y-51145988D01*
X79387135Y-51077402D01*
X83401676Y-51077402D01*
X83438998Y-51081078D01*
X83476320Y-51077402D01*
X83476331Y-51077402D01*
X83587984Y-51066405D01*
X83731245Y-51022948D01*
X83863274Y-50952376D01*
X83978999Y-50857403D01*
X84002802Y-50828399D01*
X86617008Y-48214195D01*
X86646001Y-48190401D01*
X86669795Y-48161408D01*
X86669799Y-48161404D01*
X86740973Y-48074677D01*
X86746507Y-48064324D01*
X86811546Y-47942647D01*
X86855003Y-47799386D01*
X86866000Y-47687733D01*
X86866000Y-47687724D01*
X86869676Y-47650401D01*
X86866000Y-47613078D01*
X86866000Y-42328535D01*
X86934586Y-42225889D01*
X87005068Y-42055729D01*
X87041000Y-41875089D01*
X87041000Y-41690911D01*
X87005068Y-41510271D01*
X86934586Y-41340111D01*
X86832262Y-41186972D01*
X86702028Y-41056738D01*
X86548889Y-40954414D01*
X86378729Y-40883932D01*
X86198089Y-40848000D01*
X86013911Y-40848000D01*
X85833271Y-40883932D01*
X85663111Y-40954414D01*
X85509972Y-41056738D01*
X85379738Y-41186972D01*
X85277414Y-41340111D01*
X85206932Y-41510271D01*
X85171000Y-41690911D01*
X85171000Y-41875089D01*
X85206932Y-42055729D01*
X85277414Y-42225889D01*
X85346000Y-42328536D01*
X85346001Y-47335596D01*
X83124197Y-49557402D01*
X79387135Y-49557402D01*
X79284489Y-49488816D01*
X79114329Y-49418334D01*
X78933689Y-49382402D01*
X78749511Y-49382402D01*
X78568871Y-49418334D01*
X78398711Y-49488816D01*
X78245572Y-49591140D01*
X78115338Y-49721374D01*
X78013014Y-49874513D01*
X77942532Y-50044673D01*
X77906600Y-50225313D01*
X63598233Y-50225313D01*
X63616682Y-50038000D01*
X63587624Y-49742968D01*
X63501790Y-49460012D01*
X63909404Y-49052398D01*
X63938401Y-49028601D01*
X64033374Y-48912876D01*
X64103946Y-48780847D01*
X64147403Y-48637586D01*
X64158400Y-48525933D01*
X64158400Y-48525932D01*
X64162077Y-48488600D01*
X64158400Y-48451267D01*
X64158400Y-46742843D01*
X64162076Y-46705520D01*
X64158400Y-46668197D01*
X64158400Y-46668187D01*
X64147403Y-46556534D01*
X64103946Y-46413273D01*
X64088623Y-46384606D01*
X64033374Y-46281243D01*
X63995931Y-46235620D01*
X63938401Y-46165519D01*
X63909397Y-46141716D01*
X63492304Y-45724623D01*
X63468501Y-45695619D01*
X63432450Y-45666033D01*
X63501566Y-45536725D01*
X63587624Y-45253032D01*
X63616682Y-44958000D01*
X63587624Y-44662968D01*
X63501566Y-44379275D01*
X63361817Y-44117821D01*
X63175353Y-43890615D01*
X63218580Y-43877502D01*
X63328894Y-43818537D01*
X63425585Y-43739185D01*
X63501476Y-43646711D01*
X77017600Y-43646711D01*
X77017600Y-43830889D01*
X77053532Y-44011529D01*
X77124014Y-44181689D01*
X77226338Y-44334828D01*
X77356572Y-44465062D01*
X77509711Y-44567386D01*
X77679871Y-44637868D01*
X77860511Y-44673800D01*
X78044689Y-44673800D01*
X78225329Y-44637868D01*
X78395489Y-44567386D01*
X78548628Y-44465062D01*
X78678862Y-44334828D01*
X78781186Y-44181689D01*
X78851668Y-44011529D01*
X78879158Y-43873331D01*
X78887573Y-43863077D01*
X78958145Y-43731048D01*
X79001602Y-43587787D01*
X79012599Y-43476134D01*
X79012599Y-43476126D01*
X79016275Y-43438801D01*
X79012599Y-43401476D01*
X79012599Y-41162802D01*
X81507849Y-38667553D01*
X81628929Y-38643468D01*
X81799089Y-38572986D01*
X81952228Y-38470662D01*
X82082462Y-38340428D01*
X82184786Y-38187289D01*
X82255268Y-38017129D01*
X82291200Y-37836489D01*
X82291200Y-37652311D01*
X82255268Y-37471671D01*
X82184786Y-37301511D01*
X82082462Y-37148372D01*
X81952228Y-37018138D01*
X81799089Y-36915814D01*
X81628929Y-36845332D01*
X81448289Y-36809400D01*
X81264111Y-36809400D01*
X81083471Y-36845332D01*
X80913311Y-36915814D01*
X80760172Y-37018138D01*
X80629938Y-37148372D01*
X80527614Y-37301511D01*
X80457132Y-37471671D01*
X80433047Y-37592751D01*
X77741597Y-40284202D01*
X77712599Y-40308000D01*
X77688801Y-40336998D01*
X77688800Y-40336999D01*
X77617625Y-40423725D01*
X77547053Y-40555755D01*
X77517646Y-40652700D01*
X77506912Y-40688089D01*
X77503597Y-40699016D01*
X77488923Y-40848001D01*
X77492600Y-40885333D01*
X77492599Y-42921648D01*
X77356572Y-43012538D01*
X77226338Y-43142772D01*
X77124014Y-43295911D01*
X77053532Y-43466071D01*
X77017600Y-43646711D01*
X63501476Y-43646711D01*
X63504937Y-43642494D01*
X63563902Y-43532180D01*
X63600212Y-43412482D01*
X63612472Y-43288000D01*
X63609400Y-42703750D01*
X63450650Y-42545000D01*
X62001400Y-42545000D01*
X62001400Y-42565000D01*
X61747400Y-42565000D01*
X61747400Y-42545000D01*
X61727400Y-42545000D01*
X61727400Y-42291000D01*
X61747400Y-42291000D01*
X61747400Y-41071750D01*
X62001400Y-41071750D01*
X62001400Y-42291000D01*
X63450650Y-42291000D01*
X63609400Y-42132250D01*
X63612472Y-41548000D01*
X63600212Y-41423518D01*
X63563902Y-41303820D01*
X63504937Y-41193506D01*
X63425585Y-41096815D01*
X63328894Y-41017463D01*
X63218580Y-40958498D01*
X63098882Y-40922188D01*
X62974400Y-40909928D01*
X62160150Y-40913000D01*
X62001400Y-41071750D01*
X61747400Y-41071750D01*
X61588650Y-40913000D01*
X60774400Y-40909928D01*
X60649918Y-40922188D01*
X60530220Y-40958498D01*
X60450000Y-41001377D01*
X60450000Y-40336162D01*
X60585386Y-40426624D01*
X60791943Y-40512183D01*
X61011222Y-40555800D01*
X61234798Y-40555800D01*
X61454077Y-40512183D01*
X61660634Y-40426624D01*
X61841460Y-40305800D01*
X64345329Y-40305800D01*
X64388798Y-40310081D01*
X64432267Y-40305800D01*
X64432275Y-40305800D01*
X64562288Y-40292995D01*
X64729111Y-40242389D01*
X64882857Y-40160211D01*
X65017615Y-40049617D01*
X65045332Y-40015844D01*
X67327296Y-37733880D01*
X67444388Y-37909120D01*
X67602480Y-38067212D01*
X67788376Y-38191424D01*
X67994933Y-38276983D01*
X68214212Y-38320600D01*
X68437788Y-38320600D01*
X68657067Y-38276983D01*
X68863624Y-38191424D01*
X69044450Y-38070600D01*
X75496131Y-38070600D01*
X75539600Y-38074881D01*
X75583069Y-38070600D01*
X75583077Y-38070600D01*
X75713090Y-38057795D01*
X75879913Y-38007189D01*
X76033659Y-37925011D01*
X76168417Y-37814417D01*
X76196134Y-37780644D01*
X76203467Y-37773311D01*
X76416767Y-37730883D01*
X76623324Y-37645324D01*
X76809220Y-37521112D01*
X76967312Y-37363020D01*
X77091524Y-37177124D01*
X77177083Y-36970567D01*
X77220700Y-36751288D01*
X77220700Y-36527712D01*
X77177083Y-36308433D01*
X77091524Y-36101876D01*
X76967312Y-35915980D01*
X76809220Y-35757888D01*
X76623324Y-35633676D01*
X76416767Y-35548117D01*
X76197488Y-35504500D01*
X75973912Y-35504500D01*
X75754633Y-35548117D01*
X75548076Y-35633676D01*
X75362180Y-35757888D01*
X75204088Y-35915980D01*
X75079876Y-36101876D01*
X74997562Y-36300600D01*
X69044450Y-36300600D01*
X68874280Y-36186896D01*
X70876777Y-34184400D01*
X82376200Y-34184400D01*
X82376201Y-41968114D01*
X82376200Y-41968124D01*
X82376200Y-42864221D01*
X81040551Y-44199871D01*
X81006784Y-44227583D01*
X80979071Y-44261351D01*
X80979068Y-44261354D01*
X80896190Y-44362341D01*
X80859363Y-44431241D01*
X78728777Y-46561827D01*
X78515477Y-46604255D01*
X78308920Y-46689814D01*
X78123024Y-46814026D01*
X77964932Y-46972118D01*
X77840720Y-47158014D01*
X77755161Y-47364571D01*
X77711544Y-47583850D01*
X77711544Y-47807426D01*
X77755161Y-48026705D01*
X77840720Y-48233262D01*
X77964932Y-48419158D01*
X78123024Y-48577250D01*
X78308920Y-48701462D01*
X78515477Y-48787021D01*
X78734756Y-48830638D01*
X78958332Y-48830638D01*
X79177611Y-48787021D01*
X79384168Y-48701462D01*
X79570064Y-48577250D01*
X79728156Y-48419158D01*
X79852368Y-48233262D01*
X79937927Y-48026705D01*
X79980355Y-47813405D01*
X80003075Y-47790685D01*
X80680102Y-47113659D01*
X80629776Y-47188976D01*
X80544217Y-47395533D01*
X80500600Y-47614812D01*
X80500600Y-47838388D01*
X80544217Y-48057667D01*
X80629776Y-48264224D01*
X80753988Y-48450120D01*
X80912080Y-48608212D01*
X81097976Y-48732424D01*
X81304533Y-48817983D01*
X81523812Y-48861600D01*
X81747388Y-48861600D01*
X81966667Y-48817983D01*
X82173224Y-48732424D01*
X82359120Y-48608212D01*
X82517212Y-48450120D01*
X82641424Y-48264224D01*
X82726983Y-48057667D01*
X82770600Y-47838388D01*
X82770600Y-47614812D01*
X82726983Y-47395533D01*
X82641424Y-47188976D01*
X82520600Y-47008150D01*
X82520600Y-45273161D01*
X83856249Y-43937512D01*
X83890017Y-43909799D01*
X83921487Y-43871454D01*
X84000610Y-43775042D01*
X84000611Y-43775041D01*
X84082789Y-43621295D01*
X84133395Y-43454472D01*
X84146200Y-43324459D01*
X84146200Y-43324449D01*
X84150481Y-43280983D01*
X84148010Y-43255892D01*
X84150481Y-43230800D01*
X84146200Y-43187331D01*
X84146200Y-35435979D01*
X85563772Y-36853551D01*
X85591485Y-36887319D01*
X85625253Y-36915032D01*
X85625255Y-36915034D01*
X85642017Y-36928790D01*
X85726243Y-36997913D01*
X85879989Y-37080091D01*
X86046812Y-37130697D01*
X86176825Y-37143502D01*
X86176835Y-37143502D01*
X86220301Y-37147783D01*
X86263767Y-37143502D01*
X94645850Y-37143502D01*
X94826676Y-37264326D01*
X95033233Y-37349885D01*
X95252512Y-37393502D01*
X95476088Y-37393502D01*
X95695367Y-37349885D01*
X95901924Y-37264326D01*
X96087820Y-37140114D01*
X96245912Y-36982022D01*
X96370124Y-36796126D01*
X96455683Y-36589569D01*
X96499300Y-36370290D01*
X96499300Y-36146714D01*
X96455683Y-35927435D01*
X96370124Y-35720878D01*
X96245912Y-35534982D01*
X96087820Y-35376890D01*
X95901924Y-35252678D01*
X95695367Y-35167119D01*
X95476088Y-35123502D01*
X95252512Y-35123502D01*
X95033233Y-35167119D01*
X94826676Y-35252678D01*
X94645850Y-35373502D01*
X92209815Y-35373502D01*
X92314812Y-35268505D01*
X92482799Y-35017095D01*
X92598511Y-34737743D01*
X92613079Y-34664500D01*
X96142428Y-34664500D01*
X96154688Y-34788982D01*
X96190998Y-34908680D01*
X96249963Y-35018994D01*
X96329315Y-35115685D01*
X96426006Y-35195037D01*
X96536320Y-35254002D01*
X96656018Y-35290312D01*
X96780500Y-35302572D01*
X97694750Y-35299500D01*
X97853500Y-35140750D01*
X97853500Y-33591500D01*
X98107500Y-33591500D01*
X98107500Y-35140750D01*
X98266250Y-35299500D01*
X99180500Y-35302572D01*
X99304982Y-35290312D01*
X99424680Y-35254002D01*
X99534994Y-35195037D01*
X99631685Y-35115685D01*
X99711037Y-35018994D01*
X99770002Y-34908680D01*
X99806312Y-34788982D01*
X99818572Y-34664500D01*
X99815500Y-33750250D01*
X99656750Y-33591500D01*
X98107500Y-33591500D01*
X97853500Y-33591500D01*
X96304250Y-33591500D01*
X96145500Y-33750250D01*
X96142428Y-34664500D01*
X92613079Y-34664500D01*
X92657500Y-34441184D01*
X92657500Y-34138816D01*
X92598511Y-33842257D01*
X92482799Y-33562905D01*
X92314812Y-33311495D01*
X92101005Y-33097688D01*
X91947395Y-32995049D01*
X92006975Y-32814080D01*
X91122500Y-31929605D01*
X90238025Y-32814080D01*
X90297605Y-32995049D01*
X90143995Y-33097688D01*
X89930188Y-33311495D01*
X89762201Y-33562905D01*
X89646489Y-33842257D01*
X89587500Y-34138816D01*
X89587500Y-34441184D01*
X89646489Y-34737743D01*
X89762201Y-35017095D01*
X89930188Y-35268505D01*
X90035185Y-35373502D01*
X86586881Y-35373502D01*
X84395011Y-33181632D01*
X84352583Y-32968333D01*
X84267024Y-32761776D01*
X84142812Y-32575880D01*
X83984720Y-32417788D01*
X83798824Y-32293576D01*
X83592267Y-32208017D01*
X83372988Y-32164400D01*
X83149412Y-32164400D01*
X82930133Y-32208017D01*
X82723576Y-32293576D01*
X82542750Y-32414400D01*
X71112001Y-32414400D01*
X71709848Y-31816553D01*
X89581509Y-31816553D01*
X89624103Y-32115907D01*
X89724278Y-32401199D01*
X89804239Y-32550792D01*
X90058420Y-32634475D01*
X90942895Y-31750000D01*
X90928753Y-31735858D01*
X91108358Y-31556253D01*
X91122500Y-31570395D01*
X91136643Y-31556253D01*
X91316248Y-31735858D01*
X91302105Y-31750000D01*
X92186580Y-32634475D01*
X92440761Y-32550792D01*
X92571658Y-32278225D01*
X92575182Y-32264500D01*
X96142428Y-32264500D01*
X96145500Y-33178750D01*
X96304250Y-33337500D01*
X97853500Y-33337500D01*
X97853500Y-33317500D01*
X98107500Y-33317500D01*
X98107500Y-33337500D01*
X99656750Y-33337500D01*
X99815500Y-33178750D01*
X99818572Y-32264500D01*
X99806312Y-32140018D01*
X99770002Y-32020320D01*
X99711037Y-31910006D01*
X99631685Y-31813315D01*
X99534994Y-31733963D01*
X99424680Y-31674998D01*
X99304982Y-31638688D01*
X99180500Y-31626428D01*
X98759926Y-31627841D01*
X98849699Y-31590656D01*
X99150244Y-31389838D01*
X99405838Y-31134244D01*
X99606656Y-30833699D01*
X99744982Y-30499750D01*
X99815500Y-30145232D01*
X99815500Y-29783768D01*
X99744982Y-29429250D01*
X99606656Y-29095301D01*
X99405838Y-28794756D01*
X99150244Y-28539162D01*
X98849699Y-28338344D01*
X98515750Y-28200018D01*
X98161232Y-28129500D01*
X97799768Y-28129500D01*
X97445250Y-28200018D01*
X97111301Y-28338344D01*
X96810756Y-28539162D01*
X96555162Y-28794756D01*
X96354344Y-29095301D01*
X96216018Y-29429250D01*
X96145500Y-29783768D01*
X96145500Y-30145232D01*
X96216018Y-30499750D01*
X96354344Y-30833699D01*
X96555162Y-31134244D01*
X96810756Y-31389838D01*
X97111301Y-31590656D01*
X97201074Y-31627841D01*
X96780500Y-31626428D01*
X96656018Y-31638688D01*
X96536320Y-31674998D01*
X96426006Y-31733963D01*
X96329315Y-31813315D01*
X96249963Y-31910006D01*
X96190998Y-32020320D01*
X96154688Y-32140018D01*
X96142428Y-32264500D01*
X92575182Y-32264500D01*
X92646865Y-31985358D01*
X92663491Y-31683447D01*
X92620897Y-31384093D01*
X92520722Y-31098801D01*
X92440761Y-30949208D01*
X92186582Y-30865526D01*
X92302530Y-30749578D01*
X92255765Y-30702813D01*
X92266680Y-30699502D01*
X92376994Y-30640537D01*
X92473685Y-30561185D01*
X92553037Y-30464494D01*
X92612002Y-30354180D01*
X92648312Y-30234482D01*
X92660572Y-30110000D01*
X92660572Y-28310000D01*
X92648312Y-28185518D01*
X92612002Y-28065820D01*
X92553037Y-27955506D01*
X92473685Y-27858815D01*
X92376994Y-27779463D01*
X92266680Y-27720498D01*
X92146982Y-27684188D01*
X92022500Y-27671928D01*
X90222500Y-27671928D01*
X90098018Y-27684188D01*
X89978320Y-27720498D01*
X89868006Y-27779463D01*
X89771315Y-27858815D01*
X89691963Y-27955506D01*
X89632998Y-28065820D01*
X89596688Y-28185518D01*
X89584428Y-28310000D01*
X89584428Y-30110000D01*
X89596688Y-30234482D01*
X89632998Y-30354180D01*
X89691963Y-30464494D01*
X89771315Y-30561185D01*
X89868006Y-30640537D01*
X89978320Y-30699502D01*
X89989235Y-30702813D01*
X89942470Y-30749578D01*
X90058418Y-30865526D01*
X89804239Y-30949208D01*
X89673342Y-31221775D01*
X89598135Y-31514642D01*
X89581509Y-31816553D01*
X71709848Y-31816553D01*
X72933929Y-30592472D01*
X73899001Y-30592472D01*
X74072255Y-30575408D01*
X74238851Y-30524872D01*
X74392387Y-30442805D01*
X74526962Y-30332362D01*
X74637405Y-30197787D01*
X74695934Y-30088286D01*
X74749655Y-30153745D01*
X74978822Y-30341817D01*
X75240276Y-30481566D01*
X75523969Y-30567624D01*
X75819000Y-30596682D01*
X76114032Y-30567624D01*
X76397725Y-30481566D01*
X76659179Y-30341817D01*
X76888345Y-30153745D01*
X77076417Y-29924579D01*
X77089000Y-29901038D01*
X77101583Y-29924579D01*
X77289655Y-30153745D01*
X77518822Y-30341817D01*
X77780276Y-30481566D01*
X78063969Y-30567624D01*
X78359000Y-30596682D01*
X78654032Y-30567624D01*
X78937725Y-30481566D01*
X79199179Y-30341817D01*
X79428345Y-30153745D01*
X79616417Y-29924579D01*
X79631302Y-29896731D01*
X79720744Y-30033303D01*
X79928506Y-30244936D01*
X80173563Y-30411971D01*
X80446498Y-30527988D01*
X80538969Y-30545702D01*
X80772000Y-30424646D01*
X80772000Y-28981400D01*
X81026000Y-28981400D01*
X81026000Y-30424646D01*
X81259031Y-30545702D01*
X81351502Y-30527988D01*
X81624437Y-30411971D01*
X81869494Y-30244936D01*
X82077256Y-30033303D01*
X82239738Y-29785204D01*
X82350696Y-29510173D01*
X82405866Y-29218780D01*
X82249586Y-28981400D01*
X81026000Y-28981400D01*
X80772000Y-28981400D01*
X80752000Y-28981400D01*
X80752000Y-28727400D01*
X80772000Y-28727400D01*
X80772000Y-27284154D01*
X81026000Y-27284154D01*
X81026000Y-28727400D01*
X82249586Y-28727400D01*
X82405866Y-28490020D01*
X82350696Y-28198627D01*
X82239738Y-27923596D01*
X82077256Y-27675497D01*
X81869494Y-27463864D01*
X81624437Y-27296829D01*
X81351502Y-27180812D01*
X81259031Y-27163098D01*
X81026000Y-27284154D01*
X80772000Y-27284154D01*
X80538969Y-27163098D01*
X80446498Y-27180812D01*
X80173563Y-27296829D01*
X79928506Y-27463864D01*
X79720744Y-27675497D01*
X79631302Y-27812069D01*
X79616417Y-27784221D01*
X79428345Y-27555055D01*
X79199178Y-27366983D01*
X78937724Y-27227234D01*
X78654031Y-27141176D01*
X78359000Y-27112118D01*
X78063968Y-27141176D01*
X77780275Y-27227234D01*
X77518821Y-27366983D01*
X77289655Y-27555055D01*
X77101583Y-27784222D01*
X77089000Y-27807763D01*
X77076417Y-27784221D01*
X76888345Y-27555055D01*
X76659178Y-27366983D01*
X76397724Y-27227234D01*
X76322105Y-27204295D01*
X76773100Y-26753300D01*
X84673320Y-26753300D01*
X84721700Y-26758065D01*
X84770080Y-26753300D01*
X84914794Y-26739047D01*
X85100467Y-26682724D01*
X85271584Y-26591260D01*
X85421570Y-26468170D01*
X85452416Y-26430584D01*
X86993604Y-24889396D01*
X88826892Y-26722684D01*
X88857738Y-26760270D01*
X89007724Y-26883360D01*
X89178841Y-26974824D01*
X89321299Y-27018038D01*
X89364513Y-27031147D01*
X89557607Y-27050165D01*
X89605987Y-27045400D01*
X98211811Y-27045400D01*
X98242976Y-27066224D01*
X98449533Y-27151783D01*
X98668812Y-27195400D01*
X98892388Y-27195400D01*
X99111667Y-27151783D01*
X99318224Y-27066224D01*
X99504120Y-26942012D01*
X99662212Y-26783920D01*
X99786424Y-26598024D01*
X99871983Y-26391467D01*
X99915600Y-26172188D01*
X99915600Y-25948612D01*
X99871983Y-25729333D01*
X99786424Y-25522776D01*
X99662212Y-25336880D01*
X99504120Y-25178788D01*
X99318224Y-25054576D01*
X99111667Y-24969017D01*
X98892388Y-24925400D01*
X98668812Y-24925400D01*
X98449533Y-24969017D01*
X98242976Y-25054576D01*
X98211811Y-25075400D01*
X89965608Y-25075400D01*
X88814288Y-23924080D01*
X89285525Y-23924080D01*
X89369208Y-24178261D01*
X89641775Y-24309158D01*
X89934642Y-24384365D01*
X90236553Y-24400991D01*
X90535907Y-24358397D01*
X90821199Y-24258222D01*
X90970792Y-24178261D01*
X91054475Y-23924080D01*
X90990395Y-23860000D01*
X99072928Y-23860000D01*
X99085188Y-23984482D01*
X99121498Y-24104180D01*
X99180463Y-24214494D01*
X99259815Y-24311185D01*
X99356506Y-24390537D01*
X99466820Y-24449502D01*
X99586518Y-24485812D01*
X99711000Y-24498072D01*
X100425250Y-24495000D01*
X100584000Y-24336250D01*
X100584000Y-22987000D01*
X99234750Y-22987000D01*
X99076000Y-23145750D01*
X99072928Y-23860000D01*
X90990395Y-23860000D01*
X90170000Y-23039605D01*
X89285525Y-23924080D01*
X88814288Y-23924080D01*
X88775513Y-23885305D01*
X88822312Y-23838505D01*
X88924951Y-23684895D01*
X89105920Y-23744475D01*
X89990395Y-22860000D01*
X89976253Y-22845858D01*
X90155858Y-22666253D01*
X90170000Y-22680395D01*
X90184143Y-22666253D01*
X90363748Y-22845858D01*
X90349605Y-22860000D01*
X91234080Y-23744475D01*
X91488261Y-23660792D01*
X91619158Y-23388225D01*
X91694365Y-23095358D01*
X91710991Y-22793447D01*
X91668397Y-22494093D01*
X91568222Y-22208801D01*
X91488261Y-22059208D01*
X91234082Y-21975526D01*
X91350030Y-21859578D01*
X91303265Y-21812813D01*
X91314180Y-21809502D01*
X91424494Y-21750537D01*
X91521185Y-21671185D01*
X91600537Y-21574494D01*
X91659502Y-21464180D01*
X91695812Y-21344482D01*
X91708072Y-21220000D01*
X91705000Y-20605750D01*
X91546250Y-20447000D01*
X90297000Y-20447000D01*
X90297000Y-20467000D01*
X90043000Y-20467000D01*
X90043000Y-20447000D01*
X90023000Y-20447000D01*
X90023000Y-20193000D01*
X90043000Y-20193000D01*
X90043000Y-20173000D01*
X90297000Y-20173000D01*
X90297000Y-20193000D01*
X91546250Y-20193000D01*
X91705000Y-20034250D01*
X91708072Y-19420000D01*
X91695812Y-19295518D01*
X91659502Y-19175820D01*
X91632338Y-19125000D01*
X99593761Y-19125000D01*
X99441013Y-19277748D01*
X99441013Y-19277748D01*
G37*
X99441013Y-19277748D02*
X99262082Y-19545537D01*
X99138832Y-19843088D01*
X99076000Y-20158967D01*
X99076000Y-20481033D01*
X99138832Y-20796912D01*
X99262082Y-21094463D01*
X99402630Y-21304809D01*
X99356506Y-21329463D01*
X99259815Y-21408815D01*
X99180463Y-21505506D01*
X99121498Y-21615820D01*
X99085188Y-21735518D01*
X99072928Y-21860000D01*
X99076000Y-22574250D01*
X99234750Y-22733000D01*
X100584000Y-22733000D01*
X100584000Y-22713000D01*
X100838000Y-22713000D01*
X100838000Y-22733000D01*
X100858000Y-22733000D01*
X100858000Y-22987000D01*
X100838000Y-22987000D01*
X100838000Y-24336250D01*
X100996750Y-24495000D01*
X101711000Y-24498072D01*
X101835482Y-24485812D01*
X101955180Y-24449502D01*
X102065494Y-24390537D01*
X102162185Y-24311185D01*
X102241537Y-24214494D01*
X102300502Y-24104180D01*
X102336812Y-23984482D01*
X102349072Y-23860000D01*
X102348095Y-23632939D01*
X102495606Y-23780450D01*
X102689692Y-23910134D01*
X102905348Y-23999461D01*
X103134288Y-24045000D01*
X103367712Y-24045000D01*
X103596652Y-23999461D01*
X103684000Y-23963280D01*
X103684000Y-29693402D01*
X103469412Y-29693402D01*
X103250133Y-29737019D01*
X103043576Y-29822578D01*
X102857680Y-29946790D01*
X102699588Y-30104882D01*
X102575376Y-30290778D01*
X102489817Y-30497335D01*
X102446200Y-30716614D01*
X102446200Y-30940190D01*
X102489817Y-31159469D01*
X102575376Y-31366026D01*
X102596200Y-31397191D01*
X102596201Y-52905799D01*
X102289701Y-52599300D01*
X102314916Y-52516177D01*
X102343851Y-52222400D01*
X102314916Y-51928623D01*
X102229225Y-51646136D01*
X102090069Y-51385794D01*
X101902797Y-51157603D01*
X101674606Y-50970331D01*
X101630090Y-50946537D01*
X101726488Y-50889217D01*
X101944854Y-50692693D01*
X102120684Y-50457344D01*
X102247222Y-50192214D01*
X102292958Y-50041426D01*
X102171817Y-49809400D01*
X100965000Y-49809400D01*
X100965000Y-49829400D01*
X100711000Y-49829400D01*
X100711000Y-49809400D01*
X100691000Y-49809400D01*
X100691000Y-49555400D01*
X100711000Y-49555400D01*
X100711000Y-48347936D01*
X100965000Y-48347936D01*
X100965000Y-49555400D01*
X102171817Y-49555400D01*
X102292958Y-49323374D01*
X102247222Y-49172586D01*
X102120684Y-48907456D01*
X101944854Y-48672107D01*
X101726488Y-48475583D01*
X101473978Y-48325436D01*
X101197027Y-48227437D01*
X100965000Y-48347936D01*
X100711000Y-48347936D01*
X100478973Y-48227437D01*
X100202022Y-48325436D01*
X99949512Y-48475583D01*
X99731146Y-48672107D01*
X99571470Y-48885833D01*
X99550069Y-48845794D01*
X99362797Y-48617603D01*
X99134606Y-48430331D01*
X98874264Y-48291175D01*
X98591777Y-48205484D01*
X98371619Y-48183800D01*
X98224381Y-48183800D01*
X98004223Y-48205484D01*
X97721736Y-48291175D01*
X97461394Y-48430331D01*
X97233203Y-48617603D01*
X97045931Y-48845794D01*
X96906775Y-49106136D01*
X96821084Y-49388623D01*
X96792149Y-49682400D01*
X96821084Y-49976177D01*
X96906775Y-50258664D01*
X97045931Y-50519006D01*
X97233203Y-50747197D01*
X97461394Y-50934469D01*
X97494940Y-50952400D01*
X97461394Y-50970331D01*
X97233203Y-51157603D01*
X97045931Y-51385794D01*
X96906775Y-51646136D01*
X96821084Y-51928623D01*
X96792149Y-52222400D01*
X96821084Y-52516177D01*
X96906775Y-52798664D01*
X97045931Y-53059006D01*
X97233203Y-53287197D01*
X97461394Y-53474469D01*
X97494940Y-53492400D01*
X97461394Y-53510331D01*
X97233203Y-53697603D01*
X97045931Y-53925794D01*
X96906775Y-54186136D01*
X96821084Y-54468623D01*
X96792149Y-54762400D01*
X96821084Y-55056177D01*
X96906775Y-55338664D01*
X97045931Y-55599006D01*
X97233203Y-55827197D01*
X97461394Y-56014469D01*
X97494940Y-56032400D01*
X97461394Y-56050331D01*
X97233203Y-56237603D01*
X97045931Y-56465794D01*
X96906775Y-56726136D01*
X96821084Y-57008623D01*
X96792149Y-57302400D01*
X96821084Y-57596177D01*
X96906775Y-57878664D01*
X97045931Y-58139006D01*
X97233203Y-58367197D01*
X97461394Y-58554469D01*
X97721736Y-58693625D01*
X98004223Y-58779316D01*
X98224381Y-58801000D01*
X98371619Y-58801000D01*
X98591777Y-58779316D01*
X98874264Y-58693625D01*
X99134606Y-58554469D01*
X99362797Y-58367197D01*
X99369414Y-58359135D01*
X99384898Y-58410180D01*
X99443863Y-58520494D01*
X99523215Y-58617185D01*
X99619906Y-58696537D01*
X99730220Y-58755502D01*
X99849918Y-58791812D01*
X99974400Y-58804072D01*
X101509680Y-58804072D01*
X101509680Y-59340517D01*
X96294099Y-64556100D01*
X91223957Y-64556100D01*
X91225134Y-64555134D01*
X91410706Y-64329014D01*
X91548599Y-64071034D01*
X91633513Y-63791111D01*
X91662185Y-63500000D01*
X91633513Y-63208889D01*
X91548599Y-62928966D01*
X91410706Y-62670986D01*
X91225134Y-62444866D01*
X90999014Y-62259294D01*
X90741034Y-62121401D01*
X90461111Y-62036487D01*
X90242950Y-62015000D01*
X90097050Y-62015000D01*
X89878889Y-62036487D01*
X89598966Y-62121401D01*
X89340986Y-62259294D01*
X89114866Y-62444866D01*
X88929294Y-62670986D01*
X88900000Y-62725791D01*
X88870706Y-62670986D01*
X88685134Y-62444866D01*
X88459014Y-62259294D01*
X88201034Y-62121401D01*
X87921111Y-62036487D01*
X87702950Y-62015000D01*
X87557050Y-62015000D01*
X87338889Y-62036487D01*
X87058966Y-62121401D01*
X86800986Y-62259294D01*
X86574866Y-62444866D01*
X86389294Y-62670986D01*
X86360000Y-62725791D01*
X86330706Y-62670986D01*
X86145134Y-62444866D01*
X85919014Y-62259294D01*
X85661034Y-62121401D01*
X85381111Y-62036487D01*
X85162950Y-62015000D01*
X85017050Y-62015000D01*
X84798889Y-62036487D01*
X84518966Y-62121401D01*
X84260986Y-62259294D01*
X84034866Y-62444866D01*
X83849294Y-62670986D01*
X83820000Y-62725791D01*
X83790706Y-62670986D01*
X83605134Y-62444866D01*
X83379014Y-62259294D01*
X83121034Y-62121401D01*
X82841111Y-62036487D01*
X82622950Y-62015000D01*
X82477050Y-62015000D01*
X82258889Y-62036487D01*
X81978966Y-62121401D01*
X81720986Y-62259294D01*
X81494866Y-62444866D01*
X81309294Y-62670986D01*
X81280000Y-62725791D01*
X81250706Y-62670986D01*
X81065134Y-62444866D01*
X80839014Y-62259294D01*
X80581034Y-62121401D01*
X80301111Y-62036487D01*
X80082950Y-62015000D01*
X79937050Y-62015000D01*
X79718889Y-62036487D01*
X79438966Y-62121401D01*
X79180986Y-62259294D01*
X78954866Y-62444866D01*
X78769294Y-62670986D01*
X78740000Y-62725791D01*
X78710706Y-62670986D01*
X78525134Y-62444866D01*
X78299014Y-62259294D01*
X78041034Y-62121401D01*
X77761111Y-62036487D01*
X77542950Y-62015000D01*
X77397050Y-62015000D01*
X77178889Y-62036487D01*
X76898966Y-62121401D01*
X76640986Y-62259294D01*
X76414866Y-62444866D01*
X76229294Y-62670986D01*
X76200000Y-62725791D01*
X76170706Y-62670986D01*
X75985134Y-62444866D01*
X75759014Y-62259294D01*
X75501034Y-62121401D01*
X75221111Y-62036487D01*
X75002950Y-62015000D01*
X74857050Y-62015000D01*
X74638889Y-62036487D01*
X74358966Y-62121401D01*
X74100986Y-62259294D01*
X73874866Y-62444866D01*
X73689294Y-62670986D01*
X73660000Y-62725791D01*
X73630706Y-62670986D01*
X73445134Y-62444866D01*
X73219014Y-62259294D01*
X72961034Y-62121401D01*
X72681111Y-62036487D01*
X72462950Y-62015000D01*
X72317050Y-62015000D01*
X72098889Y-62036487D01*
X71818966Y-62121401D01*
X71560986Y-62259294D01*
X71334866Y-62444866D01*
X71149294Y-62670986D01*
X71120000Y-62725791D01*
X71090706Y-62670986D01*
X70905134Y-62444866D01*
X70679014Y-62259294D01*
X70421034Y-62121401D01*
X70141111Y-62036487D01*
X69922950Y-62015000D01*
X69777050Y-62015000D01*
X69558889Y-62036487D01*
X69278966Y-62121401D01*
X69020986Y-62259294D01*
X68794866Y-62444866D01*
X68770393Y-62474687D01*
X68749502Y-62405820D01*
X68690537Y-62295506D01*
X68611185Y-62198815D01*
X68514494Y-62119463D01*
X68404180Y-62060498D01*
X68284482Y-62024188D01*
X68160000Y-62011928D01*
X66460000Y-62011928D01*
X66335518Y-62024188D01*
X66215820Y-62060498D01*
X66105506Y-62119463D01*
X66008815Y-62198815D01*
X65929463Y-62295506D01*
X65870498Y-62405820D01*
X65834188Y-62525518D01*
X65821928Y-62650000D01*
X65821928Y-64350000D01*
X65834188Y-64474482D01*
X65870498Y-64594180D01*
X65929463Y-64704494D01*
X66008815Y-64801185D01*
X66105506Y-64880537D01*
X66215820Y-64939502D01*
X66335518Y-64975812D01*
X66460000Y-64988072D01*
X68160000Y-64988072D01*
X68284482Y-64975812D01*
X68404180Y-64939502D01*
X68514494Y-64880537D01*
X68611185Y-64801185D01*
X68690537Y-64704494D01*
X68749502Y-64594180D01*
X68770393Y-64525313D01*
X68794866Y-64555134D01*
X69020986Y-64740706D01*
X69278966Y-64878599D01*
X69558889Y-64963513D01*
X69777050Y-64985000D01*
X69922950Y-64985000D01*
X70141111Y-64963513D01*
X70421034Y-64878599D01*
X70679014Y-64740706D01*
X70905134Y-64555134D01*
X71090706Y-64329014D01*
X71120000Y-64274209D01*
X71149294Y-64329014D01*
X71334866Y-64555134D01*
X71560986Y-64740706D01*
X71818966Y-64878599D01*
X72098889Y-64963513D01*
X72317050Y-64985000D01*
X72462950Y-64985000D01*
X72681111Y-64963513D01*
X72961034Y-64878599D01*
X73219014Y-64740706D01*
X73445134Y-64555134D01*
X73630706Y-64329014D01*
X73660000Y-64274209D01*
X73689294Y-64329014D01*
X73874866Y-64555134D01*
X74100986Y-64740706D01*
X74358966Y-64878599D01*
X74638889Y-64963513D01*
X74857050Y-64985000D01*
X75002950Y-64985000D01*
X75221111Y-64963513D01*
X75501034Y-64878599D01*
X75759014Y-64740706D01*
X75985134Y-64555134D01*
X76170706Y-64329014D01*
X76200000Y-64274209D01*
X76229294Y-64329014D01*
X76414866Y-64555134D01*
X76640986Y-64740706D01*
X76898966Y-64878599D01*
X77142040Y-64952335D01*
X77104332Y-65043371D01*
X77068400Y-65224011D01*
X77068400Y-65351399D01*
X77042552Y-65351399D01*
X76951662Y-65215372D01*
X76821428Y-65085138D01*
X76668289Y-64982814D01*
X76498129Y-64912332D01*
X76317489Y-64876400D01*
X76133311Y-64876400D01*
X75952671Y-64912332D01*
X75782511Y-64982814D01*
X75629372Y-65085138D01*
X75499138Y-65215372D01*
X75396814Y-65368511D01*
X75326332Y-65538671D01*
X75290400Y-65719311D01*
X75290400Y-65903489D01*
X75326332Y-66084129D01*
X75396814Y-66254289D01*
X75467114Y-66359500D01*
X74368502Y-66359500D01*
X73398304Y-65389303D01*
X73374501Y-65360299D01*
X73258776Y-65265326D01*
X73126747Y-65194754D01*
X72983486Y-65151297D01*
X72871833Y-65140300D01*
X72871822Y-65140300D01*
X72834500Y-65136624D01*
X72797178Y-65140300D01*
X68514950Y-65140300D01*
X68476033Y-65136467D01*
X68476022Y-65136467D01*
X68438700Y-65132791D01*
X68401378Y-65136467D01*
X66274770Y-65136467D01*
X62715932Y-61577631D01*
X62944579Y-61455417D01*
X63173745Y-61267345D01*
X63361817Y-61038179D01*
X63501566Y-60776725D01*
X63587624Y-60493032D01*
X63616682Y-60198000D01*
X63587624Y-59902968D01*
X63501566Y-59619275D01*
X63361817Y-59357821D01*
X63173745Y-59128655D01*
X62944579Y-58940583D01*
X62921038Y-58928000D01*
X62944579Y-58915417D01*
X63173745Y-58727345D01*
X63361817Y-58498179D01*
X63501566Y-58236725D01*
X63587624Y-57953032D01*
X63616682Y-57658000D01*
X63587624Y-57362968D01*
X63501566Y-57079275D01*
X63361817Y-56817821D01*
X63173745Y-56588655D01*
X62944579Y-56400583D01*
X62921038Y-56388000D01*
X62944579Y-56375417D01*
X63173745Y-56187345D01*
X63361817Y-55958179D01*
X63501566Y-55696725D01*
X63587624Y-55413032D01*
X63616682Y-55118000D01*
X63605111Y-55000511D01*
X65689198Y-55000511D01*
X65689198Y-55184689D01*
X65725130Y-55365329D01*
X65795612Y-55535489D01*
X65897936Y-55688628D01*
X66028170Y-55818862D01*
X66181309Y-55921186D01*
X66351469Y-55991668D01*
X66472550Y-56015753D01*
X67990799Y-57534003D01*
X68014597Y-57563001D01*
X68130322Y-57657974D01*
X68262351Y-57728546D01*
X68405612Y-57772003D01*
X68517265Y-57783000D01*
X68517274Y-57783000D01*
X68554597Y-57786676D01*
X68591920Y-57783000D01*
X72224342Y-57783000D01*
X72217000Y-57819911D01*
X72217000Y-58004089D01*
X72252932Y-58184729D01*
X72323414Y-58354889D01*
X72425738Y-58508028D01*
X72555972Y-58638262D01*
X72709111Y-58740586D01*
X72879271Y-58811068D01*
X73059911Y-58847000D01*
X73244089Y-58847000D01*
X73424729Y-58811068D01*
X73594889Y-58740586D01*
X73697535Y-58672000D01*
X77812793Y-58672000D01*
X77662111Y-58734414D01*
X77508972Y-58836738D01*
X77378738Y-58966972D01*
X77276414Y-59120111D01*
X77205932Y-59290271D01*
X77170000Y-59470911D01*
X77170000Y-59655089D01*
X77205932Y-59835729D01*
X77276414Y-60005889D01*
X77378738Y-60159028D01*
X77508972Y-60289262D01*
X77662111Y-60391586D01*
X77832271Y-60462068D01*
X77953351Y-60486153D01*
X78557201Y-61090003D01*
X78580999Y-61119001D01*
X78609997Y-61142799D01*
X78696723Y-61213974D01*
X78828753Y-61284546D01*
X78972014Y-61328003D01*
X79083667Y-61339000D01*
X79083677Y-61339000D01*
X79121000Y-61342676D01*
X79158322Y-61339000D01*
X91275678Y-61339000D01*
X91313000Y-61342676D01*
X91350322Y-61339000D01*
X91350333Y-61339000D01*
X91461986Y-61328003D01*
X91605247Y-61284546D01*
X91737276Y-61213974D01*
X91853001Y-61119001D01*
X91876803Y-61089998D01*
X92535204Y-60431598D01*
X92564201Y-60407801D01*
X92659174Y-60292076D01*
X92729746Y-60160047D01*
X92773203Y-60016786D01*
X92784200Y-59905133D01*
X92784200Y-59905125D01*
X92787876Y-59867800D01*
X92784200Y-59830475D01*
X92784200Y-56793622D01*
X92787876Y-56756300D01*
X92784200Y-56718977D01*
X92784200Y-56718967D01*
X92773203Y-56607314D01*
X92729746Y-56464053D01*
X92709926Y-56426972D01*
X92659174Y-56332023D01*
X92587999Y-56245297D01*
X92564201Y-56216299D01*
X92535203Y-56192501D01*
X89162753Y-52820052D01*
X89138668Y-52698971D01*
X89068186Y-52528811D01*
X88965862Y-52375672D01*
X88835628Y-52245438D01*
X88682489Y-52143114D01*
X88512329Y-52072632D01*
X88331689Y-52036700D01*
X88147511Y-52036700D01*
X87966871Y-52072632D01*
X87796711Y-52143114D01*
X87643572Y-52245438D01*
X87513338Y-52375672D01*
X87411014Y-52528811D01*
X87340532Y-52698971D01*
X87304600Y-52879611D01*
X87304600Y-53063789D01*
X87340532Y-53244429D01*
X87400505Y-53389218D01*
X87372914Y-53430511D01*
X87302432Y-53600671D01*
X87266500Y-53781311D01*
X87266500Y-53965489D01*
X87302432Y-54146129D01*
X87372914Y-54316289D01*
X87475238Y-54469428D01*
X87605472Y-54599662D01*
X87758611Y-54701986D01*
X87928771Y-54772468D01*
X88049852Y-54796553D01*
X90807001Y-57553703D01*
X90807000Y-58867198D01*
X90337799Y-59336400D01*
X80767204Y-59336400D01*
X79213803Y-57783000D01*
X85814465Y-57783000D01*
X85917111Y-57851586D01*
X86087271Y-57922068D01*
X86267911Y-57958000D01*
X86452089Y-57958000D01*
X86632729Y-57922068D01*
X86802889Y-57851586D01*
X86956028Y-57749262D01*
X87086262Y-57619028D01*
X87188586Y-57465889D01*
X87259068Y-57295729D01*
X87295000Y-57115089D01*
X87295000Y-56930911D01*
X87259068Y-56750271D01*
X87188586Y-56580111D01*
X87086262Y-56426972D01*
X87047290Y-56388000D01*
X87086262Y-56349028D01*
X87188586Y-56195889D01*
X87259068Y-56025729D01*
X87295000Y-55845089D01*
X87295000Y-55660911D01*
X87259068Y-55480271D01*
X87188586Y-55310111D01*
X87086262Y-55156972D01*
X86956028Y-55026738D01*
X86802889Y-54924414D01*
X86632729Y-54853932D01*
X86452089Y-54818000D01*
X86267911Y-54818000D01*
X86087271Y-54853932D01*
X85917111Y-54924414D01*
X85763972Y-55026738D01*
X85633738Y-55156972D01*
X85531414Y-55310111D01*
X85460932Y-55480271D01*
X85436847Y-55601351D01*
X85232399Y-55805800D01*
X80654480Y-55805800D01*
X80720852Y-55739428D01*
X80823176Y-55586289D01*
X80843586Y-55537016D01*
X81914249Y-54466353D01*
X82035329Y-54442268D01*
X82205489Y-54371786D01*
X82358628Y-54269462D01*
X82488862Y-54139228D01*
X82591186Y-53986089D01*
X82661668Y-53815929D01*
X82694732Y-53649709D01*
X82722489Y-53664546D01*
X82865750Y-53708003D01*
X82878952Y-53709303D01*
X82996111Y-53787586D01*
X83166271Y-53858068D01*
X83346911Y-53894000D01*
X83531089Y-53894000D01*
X83711729Y-53858068D01*
X83881889Y-53787586D01*
X84035028Y-53685262D01*
X84165262Y-53555028D01*
X84267586Y-53401889D01*
X84338068Y-53231729D01*
X84374000Y-53051089D01*
X84374000Y-52866911D01*
X84338068Y-52686271D01*
X84267586Y-52516111D01*
X84165262Y-52362972D01*
X84035028Y-52232738D01*
X83881889Y-52130414D01*
X83711729Y-52059932D01*
X83531089Y-52024000D01*
X83346911Y-52024000D01*
X83177785Y-52057642D01*
X83149024Y-52034038D01*
X83016995Y-51963466D01*
X82873734Y-51920009D01*
X82762081Y-51909012D01*
X82762070Y-51909012D01*
X82724748Y-51905336D01*
X82687426Y-51909012D01*
X80007113Y-51909012D01*
X79969788Y-51905336D01*
X79932463Y-51909012D01*
X79932455Y-51909012D01*
X79820802Y-51920009D01*
X79677541Y-51963466D01*
X79545512Y-52034038D01*
X79429787Y-52129011D01*
X79405984Y-52158015D01*
X79070952Y-52493047D01*
X78949871Y-52517132D01*
X78779711Y-52587614D01*
X78626572Y-52689938D01*
X78496338Y-52820172D01*
X78394014Y-52973311D01*
X78323532Y-53143471D01*
X78287600Y-53324111D01*
X78287600Y-53508289D01*
X78323532Y-53688929D01*
X78394014Y-53859089D01*
X78496338Y-54012228D01*
X78626572Y-54142462D01*
X78779711Y-54244786D01*
X78949871Y-54315268D01*
X79130511Y-54351200D01*
X79314689Y-54351200D01*
X79495329Y-54315268D01*
X79665489Y-54244786D01*
X79818628Y-54142462D01*
X79948862Y-54012228D01*
X80051186Y-53859089D01*
X80121668Y-53688929D01*
X80145753Y-53567848D01*
X80284589Y-53429012D01*
X80801986Y-53429012D01*
X80022599Y-54208400D01*
X79902501Y-54208400D01*
X79721861Y-54244332D01*
X79551701Y-54314814D01*
X79398562Y-54417138D01*
X79268328Y-54547372D01*
X79166004Y-54700511D01*
X79095522Y-54870671D01*
X79059590Y-55051311D01*
X79059590Y-55235489D01*
X79095522Y-55416129D01*
X79166004Y-55586289D01*
X79268328Y-55739428D01*
X79334700Y-55805800D01*
X72769595Y-55805800D01*
X70152145Y-53188352D01*
X70128060Y-53067271D01*
X70057578Y-52897111D01*
X69955254Y-52743972D01*
X69825020Y-52613738D01*
X69671881Y-52511414D01*
X69501721Y-52440932D01*
X69321081Y-52405000D01*
X69136903Y-52405000D01*
X68956263Y-52440932D01*
X68786103Y-52511414D01*
X68632964Y-52613738D01*
X68502730Y-52743972D01*
X68400406Y-52897111D01*
X68329924Y-53067271D01*
X68293992Y-53247911D01*
X68293992Y-53432089D01*
X68329924Y-53612729D01*
X68400406Y-53782889D01*
X68502730Y-53936028D01*
X68632964Y-54066262D01*
X68786103Y-54168586D01*
X68956263Y-54239068D01*
X69077344Y-54263153D01*
X71077190Y-56263000D01*
X68869400Y-56263000D01*
X67547351Y-54940952D01*
X67523266Y-54819871D01*
X67452784Y-54649711D01*
X67350460Y-54496572D01*
X67220226Y-54366338D01*
X67067087Y-54264014D01*
X66896927Y-54193532D01*
X66716287Y-54157600D01*
X66532109Y-54157600D01*
X66351469Y-54193532D01*
X66181309Y-54264014D01*
X66028170Y-54366338D01*
X65897936Y-54496572D01*
X65795612Y-54649711D01*
X65725130Y-54819871D01*
X65689198Y-55000511D01*
X63605111Y-55000511D01*
X63587624Y-54822968D01*
X63501566Y-54539275D01*
X63361817Y-54277821D01*
X63173745Y-54048655D01*
X62944579Y-53860583D01*
X62921038Y-53848000D01*
X62944579Y-53835417D01*
X63173745Y-53647345D01*
X63361817Y-53418179D01*
X63501566Y-53156725D01*
X63587624Y-52873032D01*
X63616682Y-52578000D01*
X63587624Y-52282968D01*
X63501566Y-51999275D01*
X63361817Y-51737821D01*
X63173745Y-51508655D01*
X62944579Y-51320583D01*
X62921038Y-51308000D01*
X62944579Y-51295417D01*
X63173745Y-51107345D01*
X63361817Y-50878179D01*
X63501566Y-50616725D01*
X63587624Y-50333032D01*
X63598233Y-50225313D01*
X77906600Y-50225313D01*
X77906600Y-50409491D01*
X77942532Y-50590131D01*
X78013014Y-50760291D01*
X78115338Y-50913430D01*
X78245572Y-51043664D01*
X78398711Y-51145988D01*
X78568871Y-51216470D01*
X78749511Y-51252402D01*
X78933689Y-51252402D01*
X79114329Y-51216470D01*
X79284489Y-51145988D01*
X79387135Y-51077402D01*
X83401676Y-51077402D01*
X83438998Y-51081078D01*
X83476320Y-51077402D01*
X83476331Y-51077402D01*
X83587984Y-51066405D01*
X83731245Y-51022948D01*
X83863274Y-50952376D01*
X83978999Y-50857403D01*
X84002802Y-50828399D01*
X86617008Y-48214195D01*
X86646001Y-48190401D01*
X86669795Y-48161408D01*
X86669799Y-48161404D01*
X86740973Y-48074677D01*
X86746507Y-48064324D01*
X86811546Y-47942647D01*
X86855003Y-47799386D01*
X86866000Y-47687733D01*
X86866000Y-47687724D01*
X86869676Y-47650401D01*
X86866000Y-47613078D01*
X86866000Y-42328535D01*
X86934586Y-42225889D01*
X87005068Y-42055729D01*
X87041000Y-41875089D01*
X87041000Y-41690911D01*
X87005068Y-41510271D01*
X86934586Y-41340111D01*
X86832262Y-41186972D01*
X86702028Y-41056738D01*
X86548889Y-40954414D01*
X86378729Y-40883932D01*
X86198089Y-40848000D01*
X86013911Y-40848000D01*
X85833271Y-40883932D01*
X85663111Y-40954414D01*
X85509972Y-41056738D01*
X85379738Y-41186972D01*
X85277414Y-41340111D01*
X85206932Y-41510271D01*
X85171000Y-41690911D01*
X85171000Y-41875089D01*
X85206932Y-42055729D01*
X85277414Y-42225889D01*
X85346000Y-42328536D01*
X85346001Y-47335596D01*
X83124197Y-49557402D01*
X79387135Y-49557402D01*
X79284489Y-49488816D01*
X79114329Y-49418334D01*
X78933689Y-49382402D01*
X78749511Y-49382402D01*
X78568871Y-49418334D01*
X78398711Y-49488816D01*
X78245572Y-49591140D01*
X78115338Y-49721374D01*
X78013014Y-49874513D01*
X77942532Y-50044673D01*
X77906600Y-50225313D01*
X63598233Y-50225313D01*
X63616682Y-50038000D01*
X63587624Y-49742968D01*
X63501790Y-49460012D01*
X63909404Y-49052398D01*
X63938401Y-49028601D01*
X64033374Y-48912876D01*
X64103946Y-48780847D01*
X64147403Y-48637586D01*
X64158400Y-48525933D01*
X64158400Y-48525932D01*
X64162077Y-48488600D01*
X64158400Y-48451267D01*
X64158400Y-46742843D01*
X64162076Y-46705520D01*
X64158400Y-46668197D01*
X64158400Y-46668187D01*
X64147403Y-46556534D01*
X64103946Y-46413273D01*
X64088623Y-46384606D01*
X64033374Y-46281243D01*
X63995931Y-46235620D01*
X63938401Y-46165519D01*
X63909397Y-46141716D01*
X63492304Y-45724623D01*
X63468501Y-45695619D01*
X63432450Y-45666033D01*
X63501566Y-45536725D01*
X63587624Y-45253032D01*
X63616682Y-44958000D01*
X63587624Y-44662968D01*
X63501566Y-44379275D01*
X63361817Y-44117821D01*
X63175353Y-43890615D01*
X63218580Y-43877502D01*
X63328894Y-43818537D01*
X63425585Y-43739185D01*
X63501476Y-43646711D01*
X77017600Y-43646711D01*
X77017600Y-43830889D01*
X77053532Y-44011529D01*
X77124014Y-44181689D01*
X77226338Y-44334828D01*
X77356572Y-44465062D01*
X77509711Y-44567386D01*
X77679871Y-44637868D01*
X77860511Y-44673800D01*
X78044689Y-44673800D01*
X78225329Y-44637868D01*
X78395489Y-44567386D01*
X78548628Y-44465062D01*
X78678862Y-44334828D01*
X78781186Y-44181689D01*
X78851668Y-44011529D01*
X78879158Y-43873331D01*
X78887573Y-43863077D01*
X78958145Y-43731048D01*
X79001602Y-43587787D01*
X79012599Y-43476134D01*
X79012599Y-43476126D01*
X79016275Y-43438801D01*
X79012599Y-43401476D01*
X79012599Y-41162802D01*
X81507849Y-38667553D01*
X81628929Y-38643468D01*
X81799089Y-38572986D01*
X81952228Y-38470662D01*
X82082462Y-38340428D01*
X82184786Y-38187289D01*
X82255268Y-38017129D01*
X82291200Y-37836489D01*
X82291200Y-37652311D01*
X82255268Y-37471671D01*
X82184786Y-37301511D01*
X82082462Y-37148372D01*
X81952228Y-37018138D01*
X81799089Y-36915814D01*
X81628929Y-36845332D01*
X81448289Y-36809400D01*
X81264111Y-36809400D01*
X81083471Y-36845332D01*
X80913311Y-36915814D01*
X80760172Y-37018138D01*
X80629938Y-37148372D01*
X80527614Y-37301511D01*
X80457132Y-37471671D01*
X80433047Y-37592751D01*
X77741597Y-40284202D01*
X77712599Y-40308000D01*
X77688801Y-40336998D01*
X77688800Y-40336999D01*
X77617625Y-40423725D01*
X77547053Y-40555755D01*
X77517646Y-40652700D01*
X77506912Y-40688089D01*
X77503597Y-40699016D01*
X77488923Y-40848001D01*
X77492600Y-40885333D01*
X77492599Y-42921648D01*
X77356572Y-43012538D01*
X77226338Y-43142772D01*
X77124014Y-43295911D01*
X77053532Y-43466071D01*
X77017600Y-43646711D01*
X63501476Y-43646711D01*
X63504937Y-43642494D01*
X63563902Y-43532180D01*
X63600212Y-43412482D01*
X63612472Y-43288000D01*
X63609400Y-42703750D01*
X63450650Y-42545000D01*
X62001400Y-42545000D01*
X62001400Y-42565000D01*
X61747400Y-42565000D01*
X61747400Y-42545000D01*
X61727400Y-42545000D01*
X61727400Y-42291000D01*
X61747400Y-42291000D01*
X61747400Y-41071750D01*
X62001400Y-41071750D01*
X62001400Y-42291000D01*
X63450650Y-42291000D01*
X63609400Y-42132250D01*
X63612472Y-41548000D01*
X63600212Y-41423518D01*
X63563902Y-41303820D01*
X63504937Y-41193506D01*
X63425585Y-41096815D01*
X63328894Y-41017463D01*
X63218580Y-40958498D01*
X63098882Y-40922188D01*
X62974400Y-40909928D01*
X62160150Y-40913000D01*
X62001400Y-41071750D01*
X61747400Y-41071750D01*
X61588650Y-40913000D01*
X60774400Y-40909928D01*
X60649918Y-40922188D01*
X60530220Y-40958498D01*
X60450000Y-41001377D01*
X60450000Y-40336162D01*
X60585386Y-40426624D01*
X60791943Y-40512183D01*
X61011222Y-40555800D01*
X61234798Y-40555800D01*
X61454077Y-40512183D01*
X61660634Y-40426624D01*
X61841460Y-40305800D01*
X64345329Y-40305800D01*
X64388798Y-40310081D01*
X64432267Y-40305800D01*
X64432275Y-40305800D01*
X64562288Y-40292995D01*
X64729111Y-40242389D01*
X64882857Y-40160211D01*
X65017615Y-40049617D01*
X65045332Y-40015844D01*
X67327296Y-37733880D01*
X67444388Y-37909120D01*
X67602480Y-38067212D01*
X67788376Y-38191424D01*
X67994933Y-38276983D01*
X68214212Y-38320600D01*
X68437788Y-38320600D01*
X68657067Y-38276983D01*
X68863624Y-38191424D01*
X69044450Y-38070600D01*
X75496131Y-38070600D01*
X75539600Y-38074881D01*
X75583069Y-38070600D01*
X75583077Y-38070600D01*
X75713090Y-38057795D01*
X75879913Y-38007189D01*
X76033659Y-37925011D01*
X76168417Y-37814417D01*
X76196134Y-37780644D01*
X76203467Y-37773311D01*
X76416767Y-37730883D01*
X76623324Y-37645324D01*
X76809220Y-37521112D01*
X76967312Y-37363020D01*
X77091524Y-37177124D01*
X77177083Y-36970567D01*
X77220700Y-36751288D01*
X77220700Y-36527712D01*
X77177083Y-36308433D01*
X77091524Y-36101876D01*
X76967312Y-35915980D01*
X76809220Y-35757888D01*
X76623324Y-35633676D01*
X76416767Y-35548117D01*
X76197488Y-35504500D01*
X75973912Y-35504500D01*
X75754633Y-35548117D01*
X75548076Y-35633676D01*
X75362180Y-35757888D01*
X75204088Y-35915980D01*
X75079876Y-36101876D01*
X74997562Y-36300600D01*
X69044450Y-36300600D01*
X68874280Y-36186896D01*
X70876777Y-34184400D01*
X82376200Y-34184400D01*
X82376201Y-41968114D01*
X82376200Y-41968124D01*
X82376200Y-42864221D01*
X81040551Y-44199871D01*
X81006784Y-44227583D01*
X80979071Y-44261351D01*
X80979068Y-44261354D01*
X80896190Y-44362341D01*
X80859363Y-44431241D01*
X78728777Y-46561827D01*
X78515477Y-46604255D01*
X78308920Y-46689814D01*
X78123024Y-46814026D01*
X77964932Y-46972118D01*
X77840720Y-47158014D01*
X77755161Y-47364571D01*
X77711544Y-47583850D01*
X77711544Y-47807426D01*
X77755161Y-48026705D01*
X77840720Y-48233262D01*
X77964932Y-48419158D01*
X78123024Y-48577250D01*
X78308920Y-48701462D01*
X78515477Y-48787021D01*
X78734756Y-48830638D01*
X78958332Y-48830638D01*
X79177611Y-48787021D01*
X79384168Y-48701462D01*
X79570064Y-48577250D01*
X79728156Y-48419158D01*
X79852368Y-48233262D01*
X79937927Y-48026705D01*
X79980355Y-47813405D01*
X80003075Y-47790685D01*
X80680102Y-47113659D01*
X80629776Y-47188976D01*
X80544217Y-47395533D01*
X80500600Y-47614812D01*
X80500600Y-47838388D01*
X80544217Y-48057667D01*
X80629776Y-48264224D01*
X80753988Y-48450120D01*
X80912080Y-48608212D01*
X81097976Y-48732424D01*
X81304533Y-48817983D01*
X81523812Y-48861600D01*
X81747388Y-48861600D01*
X81966667Y-48817983D01*
X82173224Y-48732424D01*
X82359120Y-48608212D01*
X82517212Y-48450120D01*
X82641424Y-48264224D01*
X82726983Y-48057667D01*
X82770600Y-47838388D01*
X82770600Y-47614812D01*
X82726983Y-47395533D01*
X82641424Y-47188976D01*
X82520600Y-47008150D01*
X82520600Y-45273161D01*
X83856249Y-43937512D01*
X83890017Y-43909799D01*
X83921487Y-43871454D01*
X84000610Y-43775042D01*
X84000611Y-43775041D01*
X84082789Y-43621295D01*
X84133395Y-43454472D01*
X84146200Y-43324459D01*
X84146200Y-43324449D01*
X84150481Y-43280983D01*
X84148010Y-43255892D01*
X84150481Y-43230800D01*
X84146200Y-43187331D01*
X84146200Y-35435979D01*
X85563772Y-36853551D01*
X85591485Y-36887319D01*
X85625253Y-36915032D01*
X85625255Y-36915034D01*
X85642017Y-36928790D01*
X85726243Y-36997913D01*
X85879989Y-37080091D01*
X86046812Y-37130697D01*
X86176825Y-37143502D01*
X86176835Y-37143502D01*
X86220301Y-37147783D01*
X86263767Y-37143502D01*
X94645850Y-37143502D01*
X94826676Y-37264326D01*
X95033233Y-37349885D01*
X95252512Y-37393502D01*
X95476088Y-37393502D01*
X95695367Y-37349885D01*
X95901924Y-37264326D01*
X96087820Y-37140114D01*
X96245912Y-36982022D01*
X96370124Y-36796126D01*
X96455683Y-36589569D01*
X96499300Y-36370290D01*
X96499300Y-36146714D01*
X96455683Y-35927435D01*
X96370124Y-35720878D01*
X96245912Y-35534982D01*
X96087820Y-35376890D01*
X95901924Y-35252678D01*
X95695367Y-35167119D01*
X95476088Y-35123502D01*
X95252512Y-35123502D01*
X95033233Y-35167119D01*
X94826676Y-35252678D01*
X94645850Y-35373502D01*
X92209815Y-35373502D01*
X92314812Y-35268505D01*
X92482799Y-35017095D01*
X92598511Y-34737743D01*
X92613079Y-34664500D01*
X96142428Y-34664500D01*
X96154688Y-34788982D01*
X96190998Y-34908680D01*
X96249963Y-35018994D01*
X96329315Y-35115685D01*
X96426006Y-35195037D01*
X96536320Y-35254002D01*
X96656018Y-35290312D01*
X96780500Y-35302572D01*
X97694750Y-35299500D01*
X97853500Y-35140750D01*
X97853500Y-33591500D01*
X98107500Y-33591500D01*
X98107500Y-35140750D01*
X98266250Y-35299500D01*
X99180500Y-35302572D01*
X99304982Y-35290312D01*
X99424680Y-35254002D01*
X99534994Y-35195037D01*
X99631685Y-35115685D01*
X99711037Y-35018994D01*
X99770002Y-34908680D01*
X99806312Y-34788982D01*
X99818572Y-34664500D01*
X99815500Y-33750250D01*
X99656750Y-33591500D01*
X98107500Y-33591500D01*
X97853500Y-33591500D01*
X96304250Y-33591500D01*
X96145500Y-33750250D01*
X96142428Y-34664500D01*
X92613079Y-34664500D01*
X92657500Y-34441184D01*
X92657500Y-34138816D01*
X92598511Y-33842257D01*
X92482799Y-33562905D01*
X92314812Y-33311495D01*
X92101005Y-33097688D01*
X91947395Y-32995049D01*
X92006975Y-32814080D01*
X91122500Y-31929605D01*
X90238025Y-32814080D01*
X90297605Y-32995049D01*
X90143995Y-33097688D01*
X89930188Y-33311495D01*
X89762201Y-33562905D01*
X89646489Y-33842257D01*
X89587500Y-34138816D01*
X89587500Y-34441184D01*
X89646489Y-34737743D01*
X89762201Y-35017095D01*
X89930188Y-35268505D01*
X90035185Y-35373502D01*
X86586881Y-35373502D01*
X84395011Y-33181632D01*
X84352583Y-32968333D01*
X84267024Y-32761776D01*
X84142812Y-32575880D01*
X83984720Y-32417788D01*
X83798824Y-32293576D01*
X83592267Y-32208017D01*
X83372988Y-32164400D01*
X83149412Y-32164400D01*
X82930133Y-32208017D01*
X82723576Y-32293576D01*
X82542750Y-32414400D01*
X71112001Y-32414400D01*
X71709848Y-31816553D01*
X89581509Y-31816553D01*
X89624103Y-32115907D01*
X89724278Y-32401199D01*
X89804239Y-32550792D01*
X90058420Y-32634475D01*
X90942895Y-31750000D01*
X90928753Y-31735858D01*
X91108358Y-31556253D01*
X91122500Y-31570395D01*
X91136643Y-31556253D01*
X91316248Y-31735858D01*
X91302105Y-31750000D01*
X92186580Y-32634475D01*
X92440761Y-32550792D01*
X92571658Y-32278225D01*
X92575182Y-32264500D01*
X96142428Y-32264500D01*
X96145500Y-33178750D01*
X96304250Y-33337500D01*
X97853500Y-33337500D01*
X97853500Y-33317500D01*
X98107500Y-33317500D01*
X98107500Y-33337500D01*
X99656750Y-33337500D01*
X99815500Y-33178750D01*
X99818572Y-32264500D01*
X99806312Y-32140018D01*
X99770002Y-32020320D01*
X99711037Y-31910006D01*
X99631685Y-31813315D01*
X99534994Y-31733963D01*
X99424680Y-31674998D01*
X99304982Y-31638688D01*
X99180500Y-31626428D01*
X98759926Y-31627841D01*
X98849699Y-31590656D01*
X99150244Y-31389838D01*
X99405838Y-31134244D01*
X99606656Y-30833699D01*
X99744982Y-30499750D01*
X99815500Y-30145232D01*
X99815500Y-29783768D01*
X99744982Y-29429250D01*
X99606656Y-29095301D01*
X99405838Y-28794756D01*
X99150244Y-28539162D01*
X98849699Y-28338344D01*
X98515750Y-28200018D01*
X98161232Y-28129500D01*
X97799768Y-28129500D01*
X97445250Y-28200018D01*
X97111301Y-28338344D01*
X96810756Y-28539162D01*
X96555162Y-28794756D01*
X96354344Y-29095301D01*
X96216018Y-29429250D01*
X96145500Y-29783768D01*
X96145500Y-30145232D01*
X96216018Y-30499750D01*
X96354344Y-30833699D01*
X96555162Y-31134244D01*
X96810756Y-31389838D01*
X97111301Y-31590656D01*
X97201074Y-31627841D01*
X96780500Y-31626428D01*
X96656018Y-31638688D01*
X96536320Y-31674998D01*
X96426006Y-31733963D01*
X96329315Y-31813315D01*
X96249963Y-31910006D01*
X96190998Y-32020320D01*
X96154688Y-32140018D01*
X96142428Y-32264500D01*
X92575182Y-32264500D01*
X92646865Y-31985358D01*
X92663491Y-31683447D01*
X92620897Y-31384093D01*
X92520722Y-31098801D01*
X92440761Y-30949208D01*
X92186582Y-30865526D01*
X92302530Y-30749578D01*
X92255765Y-30702813D01*
X92266680Y-30699502D01*
X92376994Y-30640537D01*
X92473685Y-30561185D01*
X92553037Y-30464494D01*
X92612002Y-30354180D01*
X92648312Y-30234482D01*
X92660572Y-30110000D01*
X92660572Y-28310000D01*
X92648312Y-28185518D01*
X92612002Y-28065820D01*
X92553037Y-27955506D01*
X92473685Y-27858815D01*
X92376994Y-27779463D01*
X92266680Y-27720498D01*
X92146982Y-27684188D01*
X92022500Y-27671928D01*
X90222500Y-27671928D01*
X90098018Y-27684188D01*
X89978320Y-27720498D01*
X89868006Y-27779463D01*
X89771315Y-27858815D01*
X89691963Y-27955506D01*
X89632998Y-28065820D01*
X89596688Y-28185518D01*
X89584428Y-28310000D01*
X89584428Y-30110000D01*
X89596688Y-30234482D01*
X89632998Y-30354180D01*
X89691963Y-30464494D01*
X89771315Y-30561185D01*
X89868006Y-30640537D01*
X89978320Y-30699502D01*
X89989235Y-30702813D01*
X89942470Y-30749578D01*
X90058418Y-30865526D01*
X89804239Y-30949208D01*
X89673342Y-31221775D01*
X89598135Y-31514642D01*
X89581509Y-31816553D01*
X71709848Y-31816553D01*
X72933929Y-30592472D01*
X73899001Y-30592472D01*
X74072255Y-30575408D01*
X74238851Y-30524872D01*
X74392387Y-30442805D01*
X74526962Y-30332362D01*
X74637405Y-30197787D01*
X74695934Y-30088286D01*
X74749655Y-30153745D01*
X74978822Y-30341817D01*
X75240276Y-30481566D01*
X75523969Y-30567624D01*
X75819000Y-30596682D01*
X76114032Y-30567624D01*
X76397725Y-30481566D01*
X76659179Y-30341817D01*
X76888345Y-30153745D01*
X77076417Y-29924579D01*
X77089000Y-29901038D01*
X77101583Y-29924579D01*
X77289655Y-30153745D01*
X77518822Y-30341817D01*
X77780276Y-30481566D01*
X78063969Y-30567624D01*
X78359000Y-30596682D01*
X78654032Y-30567624D01*
X78937725Y-30481566D01*
X79199179Y-30341817D01*
X79428345Y-30153745D01*
X79616417Y-29924579D01*
X79631302Y-29896731D01*
X79720744Y-30033303D01*
X79928506Y-30244936D01*
X80173563Y-30411971D01*
X80446498Y-30527988D01*
X80538969Y-30545702D01*
X80772000Y-30424646D01*
X80772000Y-28981400D01*
X81026000Y-28981400D01*
X81026000Y-30424646D01*
X81259031Y-30545702D01*
X81351502Y-30527988D01*
X81624437Y-30411971D01*
X81869494Y-30244936D01*
X82077256Y-30033303D01*
X82239738Y-29785204D01*
X82350696Y-29510173D01*
X82405866Y-29218780D01*
X82249586Y-28981400D01*
X81026000Y-28981400D01*
X80772000Y-28981400D01*
X80752000Y-28981400D01*
X80752000Y-28727400D01*
X80772000Y-28727400D01*
X80772000Y-27284154D01*
X81026000Y-27284154D01*
X81026000Y-28727400D01*
X82249586Y-28727400D01*
X82405866Y-28490020D01*
X82350696Y-28198627D01*
X82239738Y-27923596D01*
X82077256Y-27675497D01*
X81869494Y-27463864D01*
X81624437Y-27296829D01*
X81351502Y-27180812D01*
X81259031Y-27163098D01*
X81026000Y-27284154D01*
X80772000Y-27284154D01*
X80538969Y-27163098D01*
X80446498Y-27180812D01*
X80173563Y-27296829D01*
X79928506Y-27463864D01*
X79720744Y-27675497D01*
X79631302Y-27812069D01*
X79616417Y-27784221D01*
X79428345Y-27555055D01*
X79199178Y-27366983D01*
X78937724Y-27227234D01*
X78654031Y-27141176D01*
X78359000Y-27112118D01*
X78063968Y-27141176D01*
X77780275Y-27227234D01*
X77518821Y-27366983D01*
X77289655Y-27555055D01*
X77101583Y-27784222D01*
X77089000Y-27807763D01*
X77076417Y-27784221D01*
X76888345Y-27555055D01*
X76659178Y-27366983D01*
X76397724Y-27227234D01*
X76322105Y-27204295D01*
X76773100Y-26753300D01*
X84673320Y-26753300D01*
X84721700Y-26758065D01*
X84770080Y-26753300D01*
X84914794Y-26739047D01*
X85100467Y-26682724D01*
X85271584Y-26591260D01*
X85421570Y-26468170D01*
X85452416Y-26430584D01*
X86993604Y-24889396D01*
X88826892Y-26722684D01*
X88857738Y-26760270D01*
X89007724Y-26883360D01*
X89178841Y-26974824D01*
X89321299Y-27018038D01*
X89364513Y-27031147D01*
X89557607Y-27050165D01*
X89605987Y-27045400D01*
X98211811Y-27045400D01*
X98242976Y-27066224D01*
X98449533Y-27151783D01*
X98668812Y-27195400D01*
X98892388Y-27195400D01*
X99111667Y-27151783D01*
X99318224Y-27066224D01*
X99504120Y-26942012D01*
X99662212Y-26783920D01*
X99786424Y-26598024D01*
X99871983Y-26391467D01*
X99915600Y-26172188D01*
X99915600Y-25948612D01*
X99871983Y-25729333D01*
X99786424Y-25522776D01*
X99662212Y-25336880D01*
X99504120Y-25178788D01*
X99318224Y-25054576D01*
X99111667Y-24969017D01*
X98892388Y-24925400D01*
X98668812Y-24925400D01*
X98449533Y-24969017D01*
X98242976Y-25054576D01*
X98211811Y-25075400D01*
X89965608Y-25075400D01*
X88814288Y-23924080D01*
X89285525Y-23924080D01*
X89369208Y-24178261D01*
X89641775Y-24309158D01*
X89934642Y-24384365D01*
X90236553Y-24400991D01*
X90535907Y-24358397D01*
X90821199Y-24258222D01*
X90970792Y-24178261D01*
X91054475Y-23924080D01*
X90990395Y-23860000D01*
X99072928Y-23860000D01*
X99085188Y-23984482D01*
X99121498Y-24104180D01*
X99180463Y-24214494D01*
X99259815Y-24311185D01*
X99356506Y-24390537D01*
X99466820Y-24449502D01*
X99586518Y-24485812D01*
X99711000Y-24498072D01*
X100425250Y-24495000D01*
X100584000Y-24336250D01*
X100584000Y-22987000D01*
X99234750Y-22987000D01*
X99076000Y-23145750D01*
X99072928Y-23860000D01*
X90990395Y-23860000D01*
X90170000Y-23039605D01*
X89285525Y-23924080D01*
X88814288Y-23924080D01*
X88775513Y-23885305D01*
X88822312Y-23838505D01*
X88924951Y-23684895D01*
X89105920Y-23744475D01*
X89990395Y-22860000D01*
X89976253Y-22845858D01*
X90155858Y-22666253D01*
X90170000Y-22680395D01*
X90184143Y-22666253D01*
X90363748Y-22845858D01*
X90349605Y-22860000D01*
X91234080Y-23744475D01*
X91488261Y-23660792D01*
X91619158Y-23388225D01*
X91694365Y-23095358D01*
X91710991Y-22793447D01*
X91668397Y-22494093D01*
X91568222Y-22208801D01*
X91488261Y-22059208D01*
X91234082Y-21975526D01*
X91350030Y-21859578D01*
X91303265Y-21812813D01*
X91314180Y-21809502D01*
X91424494Y-21750537D01*
X91521185Y-21671185D01*
X91600537Y-21574494D01*
X91659502Y-21464180D01*
X91695812Y-21344482D01*
X91708072Y-21220000D01*
X91705000Y-20605750D01*
X91546250Y-20447000D01*
X90297000Y-20447000D01*
X90297000Y-20467000D01*
X90043000Y-20467000D01*
X90043000Y-20447000D01*
X90023000Y-20447000D01*
X90023000Y-20193000D01*
X90043000Y-20193000D01*
X90043000Y-20173000D01*
X90297000Y-20173000D01*
X90297000Y-20193000D01*
X91546250Y-20193000D01*
X91705000Y-20034250D01*
X91708072Y-19420000D01*
X91695812Y-19295518D01*
X91659502Y-19175820D01*
X91632338Y-19125000D01*
X99593761Y-19125000D01*
X99441013Y-19277748D01*
G36*
X33405525Y-19255920D02*
G01*
X34290000Y-20140395D01*
X35174475Y-19255920D01*
X35131373Y-19125000D01*
X35988627Y-19125000D01*
X35945525Y-19255920D01*
X36830000Y-20140395D01*
X37714475Y-19255920D01*
X37671373Y-19125000D01*
X38395518Y-19125000D01*
X38391495Y-19127688D01*
X38177688Y-19341495D01*
X38075049Y-19495105D01*
X37894080Y-19435525D01*
X37009605Y-20320000D01*
X37894080Y-21204475D01*
X38075049Y-21144895D01*
X38177688Y-21298505D01*
X38391495Y-21512312D01*
X38507763Y-21590000D01*
X38391495Y-21667688D01*
X38177688Y-21881495D01*
X38075049Y-22035105D01*
X37894080Y-21975525D01*
X37009605Y-22860000D01*
X37894080Y-23744475D01*
X38075049Y-23684895D01*
X38177688Y-23838505D01*
X38391495Y-24052312D01*
X38642905Y-24220299D01*
X38922257Y-24336011D01*
X39218816Y-24395000D01*
X39521184Y-24395000D01*
X39817743Y-24336011D01*
X40097095Y-24220299D01*
X40348505Y-24052312D01*
X40562312Y-23838505D01*
X40640000Y-23722237D01*
X40717688Y-23838505D01*
X40931495Y-24052312D01*
X41182905Y-24220299D01*
X41462257Y-24336011D01*
X41758816Y-24395000D01*
X42061184Y-24395000D01*
X42357743Y-24336011D01*
X42637095Y-24220299D01*
X42888505Y-24052312D01*
X43102312Y-23838505D01*
X43180000Y-23722237D01*
X43257688Y-23838505D01*
X43471495Y-24052312D01*
X43722905Y-24220299D01*
X44002257Y-24336011D01*
X44298816Y-24395000D01*
X44601184Y-24395000D01*
X44897743Y-24336011D01*
X45177095Y-24220299D01*
X45428505Y-24052312D01*
X45642312Y-23838505D01*
X45720000Y-23722237D01*
X45797688Y-23838505D01*
X46011495Y-24052312D01*
X46262905Y-24220299D01*
X46542257Y-24336011D01*
X46838816Y-24395000D01*
X47141184Y-24395000D01*
X47437743Y-24336011D01*
X47717095Y-24220299D01*
X47968505Y-24052312D01*
X48182312Y-23838505D01*
X48260000Y-23722237D01*
X48337688Y-23838505D01*
X48551495Y-24052312D01*
X48802905Y-24220299D01*
X49082257Y-24336011D01*
X49378816Y-24395000D01*
X49681184Y-24395000D01*
X49977743Y-24336011D01*
X50257095Y-24220299D01*
X50508505Y-24052312D01*
X50722312Y-23838505D01*
X50800000Y-23722237D01*
X50877688Y-23838505D01*
X51091495Y-24052312D01*
X51342905Y-24220299D01*
X51622257Y-24336011D01*
X51918816Y-24395000D01*
X52221184Y-24395000D01*
X52517743Y-24336011D01*
X52797095Y-24220299D01*
X53048505Y-24052312D01*
X53262312Y-23838505D01*
X53340000Y-23722237D01*
X53417688Y-23838505D01*
X53631495Y-24052312D01*
X53882905Y-24220299D01*
X54162257Y-24336011D01*
X54458816Y-24395000D01*
X54761184Y-24395000D01*
X55057743Y-24336011D01*
X55337095Y-24220299D01*
X55588505Y-24052312D01*
X55802312Y-23838505D01*
X55880000Y-23722237D01*
X55957688Y-23838505D01*
X56171495Y-24052312D01*
X56422905Y-24220299D01*
X56702257Y-24336011D01*
X56998816Y-24395000D01*
X57301184Y-24395000D01*
X57597743Y-24336011D01*
X57877095Y-24220299D01*
X58128505Y-24052312D01*
X58342312Y-23838505D01*
X58420000Y-23722237D01*
X58497688Y-23838505D01*
X58711495Y-24052312D01*
X58962905Y-24220299D01*
X59242257Y-24336011D01*
X59538816Y-24395000D01*
X59841184Y-24395000D01*
X60137743Y-24336011D01*
X60417095Y-24220299D01*
X60668505Y-24052312D01*
X60882312Y-23838505D01*
X60960000Y-23722237D01*
X61037688Y-23838505D01*
X61251495Y-24052312D01*
X61502905Y-24220299D01*
X61782257Y-24336011D01*
X62078816Y-24395000D01*
X62381184Y-24395000D01*
X62677743Y-24336011D01*
X62957095Y-24220299D01*
X63208505Y-24052312D01*
X63422312Y-23838505D01*
X63500000Y-23722237D01*
X63577688Y-23838505D01*
X63791495Y-24052312D01*
X64042905Y-24220299D01*
X64322257Y-24336011D01*
X64618816Y-24395000D01*
X64921184Y-24395000D01*
X65217743Y-24336011D01*
X65497095Y-24220299D01*
X65748505Y-24052312D01*
X65962312Y-23838505D01*
X66040000Y-23722237D01*
X66117688Y-23838505D01*
X66331495Y-24052312D01*
X66582905Y-24220299D01*
X66862257Y-24336011D01*
X67158816Y-24395000D01*
X67461184Y-24395000D01*
X67757743Y-24336011D01*
X68037095Y-24220299D01*
X68288505Y-24052312D01*
X68502312Y-23838505D01*
X68580000Y-23722237D01*
X68657688Y-23838505D01*
X68871495Y-24052312D01*
X69122905Y-24220299D01*
X69402257Y-24336011D01*
X69698816Y-24395000D01*
X70001184Y-24395000D01*
X70297743Y-24336011D01*
X70577095Y-24220299D01*
X70828505Y-24052312D01*
X71042312Y-23838505D01*
X71120000Y-23722237D01*
X71197688Y-23838505D01*
X71411495Y-24052312D01*
X71662905Y-24220299D01*
X71942257Y-24336011D01*
X72238816Y-24395000D01*
X72541184Y-24395000D01*
X72837743Y-24336011D01*
X73117095Y-24220299D01*
X73368505Y-24052312D01*
X73582312Y-23838505D01*
X73660000Y-23722237D01*
X73737688Y-23838505D01*
X73951495Y-24052312D01*
X74202905Y-24220299D01*
X74482257Y-24336011D01*
X74778816Y-24395000D01*
X75081184Y-24395000D01*
X75377743Y-24336011D01*
X75657095Y-24220299D01*
X75908505Y-24052312D01*
X76122312Y-23838505D01*
X76200000Y-23722237D01*
X76277688Y-23838505D01*
X76491495Y-24052312D01*
X76742905Y-24220299D01*
X77022257Y-24336011D01*
X77318816Y-24395000D01*
X77621184Y-24395000D01*
X77917743Y-24336011D01*
X78197095Y-24220299D01*
X78448505Y-24052312D01*
X78662312Y-23838505D01*
X78740000Y-23722237D01*
X78817688Y-23838505D01*
X79031495Y-24052312D01*
X79282905Y-24220299D01*
X79562257Y-24336011D01*
X79858816Y-24395000D01*
X80161184Y-24395000D01*
X80457743Y-24336011D01*
X80737095Y-24220299D01*
X80988505Y-24052312D01*
X81202312Y-23838505D01*
X81280000Y-23722237D01*
X81357688Y-23838505D01*
X81571495Y-24052312D01*
X81822905Y-24220299D01*
X82102257Y-24336011D01*
X82398816Y-24395000D01*
X82701184Y-24395000D01*
X82997743Y-24336011D01*
X83277095Y-24220299D01*
X83528505Y-24052312D01*
X83742312Y-23838505D01*
X83820000Y-23722237D01*
X83897688Y-23838505D01*
X84111495Y-24052312D01*
X84362905Y-24220299D01*
X84642257Y-24336011D01*
X84741290Y-24355710D01*
X84313700Y-24783300D01*
X76413477Y-24783300D01*
X76365099Y-24778535D01*
X76316721Y-24783300D01*
X76316720Y-24783300D01*
X76172006Y-24797553D01*
X75986333Y-24853876D01*
X75815216Y-24945340D01*
X75665230Y-25068430D01*
X75634384Y-25106016D01*
X73624072Y-27116328D01*
X72658999Y-27116328D01*
X72485745Y-27133392D01*
X72319149Y-27183928D01*
X72165613Y-27265995D01*
X72031038Y-27376438D01*
X71920595Y-27511013D01*
X71838528Y-27664549D01*
X71787992Y-27831145D01*
X71770928Y-28004399D01*
X71770928Y-28969471D01*
X63967695Y-36772705D01*
X63930933Y-36780017D01*
X63724376Y-36865576D01*
X63538480Y-36989788D01*
X63380388Y-37147880D01*
X63256176Y-37333776D01*
X63170617Y-37540333D01*
X63127000Y-37759612D01*
X63127000Y-37983188D01*
X63170617Y-38202467D01*
X63256176Y-38409024D01*
X63340885Y-38535800D01*
X61841460Y-38535800D01*
X61660634Y-38414976D01*
X61454077Y-38329417D01*
X61234798Y-38285800D01*
X61011222Y-38285800D01*
X60791943Y-38329417D01*
X60585386Y-38414976D01*
X60450000Y-38505438D01*
X60450000Y-30390535D01*
X60518586Y-30287889D01*
X60589068Y-30117729D01*
X60625000Y-29937089D01*
X60625000Y-29752911D01*
X60589068Y-29572271D01*
X60518586Y-29402111D01*
X60416262Y-29248972D01*
X60286028Y-29118738D01*
X60132889Y-29016414D01*
X59962729Y-28945932D01*
X59782089Y-28910000D01*
X59597911Y-28910000D01*
X59417271Y-28945932D01*
X59247111Y-29016414D01*
X59093972Y-29118738D01*
X58963738Y-29248972D01*
X58861414Y-29402111D01*
X58790932Y-29572271D01*
X58755000Y-29752911D01*
X58755000Y-29937089D01*
X58790932Y-30117729D01*
X58861414Y-30287889D01*
X58930001Y-30390537D01*
X58930000Y-39325899D01*
X58638072Y-39033971D01*
X58638072Y-37770700D01*
X58625812Y-37646218D01*
X58589502Y-37526520D01*
X58530537Y-37416206D01*
X58451185Y-37319515D01*
X58354494Y-37240163D01*
X58244180Y-37181198D01*
X58124482Y-37144888D01*
X58000000Y-37132628D01*
X56300000Y-37132628D01*
X56175518Y-37144888D01*
X56055820Y-37181198D01*
X56007000Y-37207293D01*
X56007000Y-33655000D01*
X56004560Y-33630224D01*
X55997333Y-33606399D01*
X55985597Y-33584443D01*
X55969803Y-33565197D01*
X55950557Y-33549403D01*
X55928601Y-33537667D01*
X55904776Y-33530440D01*
X55880000Y-33528000D01*
X45847000Y-33528000D01*
X45847000Y-27305000D01*
X45844560Y-27280224D01*
X45837333Y-27256399D01*
X45825597Y-27234443D01*
X45809803Y-27215197D01*
X45790557Y-27199403D01*
X45768601Y-27187667D01*
X45744776Y-27180440D01*
X45720000Y-27178000D01*
X32460000Y-27178000D01*
X32460000Y-23924080D01*
X33405525Y-23924080D01*
X33489208Y-24178261D01*
X33761775Y-24309158D01*
X34054642Y-24384365D01*
X34356553Y-24400991D01*
X34655907Y-24358397D01*
X34941199Y-24258222D01*
X35090792Y-24178261D01*
X35174475Y-23924080D01*
X35945525Y-23924080D01*
X36029208Y-24178261D01*
X36301775Y-24309158D01*
X36594642Y-24384365D01*
X36896553Y-24400991D01*
X37195907Y-24358397D01*
X37481199Y-24258222D01*
X37630792Y-24178261D01*
X37714475Y-23924080D01*
X36830000Y-23039605D01*
X35945525Y-23924080D01*
X35174475Y-23924080D01*
X34290000Y-23039605D01*
X33405525Y-23924080D01*
X32460000Y-23924080D01*
X32460000Y-22926553D01*
X32749009Y-22926553D01*
X32791603Y-23225907D01*
X32891778Y-23511199D01*
X32971739Y-23660792D01*
X33225920Y-23744475D01*
X34110395Y-22860000D01*
X34469605Y-22860000D01*
X35354080Y-23744475D01*
X35560000Y-23676681D01*
X35765920Y-23744475D01*
X36650395Y-22860000D01*
X35765920Y-21975525D01*
X35560000Y-22043319D01*
X35354080Y-21975525D01*
X34469605Y-22860000D01*
X34110395Y-22860000D01*
X33225920Y-21975525D01*
X32971739Y-22059208D01*
X32840842Y-22331775D01*
X32765635Y-22624642D01*
X32749009Y-22926553D01*
X32460000Y-22926553D01*
X32460000Y-21384080D01*
X33405525Y-21384080D01*
X33473319Y-21590000D01*
X33405525Y-21795920D01*
X34290000Y-22680395D01*
X35174475Y-21795920D01*
X35106681Y-21590000D01*
X35174475Y-21384080D01*
X35945525Y-21384080D01*
X36013319Y-21590000D01*
X35945525Y-21795920D01*
X36830000Y-22680395D01*
X37714475Y-21795920D01*
X37646681Y-21590000D01*
X37714475Y-21384080D01*
X36830000Y-20499605D01*
X35945525Y-21384080D01*
X35174475Y-21384080D01*
X34290000Y-20499605D01*
X33405525Y-21384080D01*
X32460000Y-21384080D01*
X32460000Y-20386553D01*
X32749009Y-20386553D01*
X32791603Y-20685907D01*
X32891778Y-20971199D01*
X32971739Y-21120792D01*
X33225920Y-21204475D01*
X34110395Y-20320000D01*
X34469605Y-20320000D01*
X35354080Y-21204475D01*
X35560000Y-21136681D01*
X35765920Y-21204475D01*
X36650395Y-20320000D01*
X35765920Y-19435525D01*
X35560000Y-19503319D01*
X35354080Y-19435525D01*
X34469605Y-20320000D01*
X34110395Y-20320000D01*
X33225920Y-19435525D01*
X32971739Y-19519208D01*
X32840842Y-19791775D01*
X32765635Y-20084642D01*
X32749009Y-20386553D01*
X32460000Y-20386553D01*
X32460000Y-19125000D01*
X33448627Y-19125000D01*
X33405525Y-19255920D01*
X33405525Y-19255920D01*
G37*
X33405525Y-19255920D02*
X34290000Y-20140395D01*
X35174475Y-19255920D01*
X35131373Y-19125000D01*
X35988627Y-19125000D01*
X35945525Y-19255920D01*
X36830000Y-20140395D01*
X37714475Y-19255920D01*
X37671373Y-19125000D01*
X38395518Y-19125000D01*
X38391495Y-19127688D01*
X38177688Y-19341495D01*
X38075049Y-19495105D01*
X37894080Y-19435525D01*
X37009605Y-20320000D01*
X37894080Y-21204475D01*
X38075049Y-21144895D01*
X38177688Y-21298505D01*
X38391495Y-21512312D01*
X38507763Y-21590000D01*
X38391495Y-21667688D01*
X38177688Y-21881495D01*
X38075049Y-22035105D01*
X37894080Y-21975525D01*
X37009605Y-22860000D01*
X37894080Y-23744475D01*
X38075049Y-23684895D01*
X38177688Y-23838505D01*
X38391495Y-24052312D01*
X38642905Y-24220299D01*
X38922257Y-24336011D01*
X39218816Y-24395000D01*
X39521184Y-24395000D01*
X39817743Y-24336011D01*
X40097095Y-24220299D01*
X40348505Y-24052312D01*
X40562312Y-23838505D01*
X40640000Y-23722237D01*
X40717688Y-23838505D01*
X40931495Y-24052312D01*
X41182905Y-24220299D01*
X41462257Y-24336011D01*
X41758816Y-24395000D01*
X42061184Y-24395000D01*
X42357743Y-24336011D01*
X42637095Y-24220299D01*
X42888505Y-24052312D01*
X43102312Y-23838505D01*
X43180000Y-23722237D01*
X43257688Y-23838505D01*
X43471495Y-24052312D01*
X43722905Y-24220299D01*
X44002257Y-24336011D01*
X44298816Y-24395000D01*
X44601184Y-24395000D01*
X44897743Y-24336011D01*
X45177095Y-24220299D01*
X45428505Y-24052312D01*
X45642312Y-23838505D01*
X45720000Y-23722237D01*
X45797688Y-23838505D01*
X46011495Y-24052312D01*
X46262905Y-24220299D01*
X46542257Y-24336011D01*
X46838816Y-24395000D01*
X47141184Y-24395000D01*
X47437743Y-24336011D01*
X47717095Y-24220299D01*
X47968505Y-24052312D01*
X48182312Y-23838505D01*
X48260000Y-23722237D01*
X48337688Y-23838505D01*
X48551495Y-24052312D01*
X48802905Y-24220299D01*
X49082257Y-24336011D01*
X49378816Y-24395000D01*
X49681184Y-24395000D01*
X49977743Y-24336011D01*
X50257095Y-24220299D01*
X50508505Y-24052312D01*
X50722312Y-23838505D01*
X50800000Y-23722237D01*
X50877688Y-23838505D01*
X51091495Y-24052312D01*
X51342905Y-24220299D01*
X51622257Y-24336011D01*
X51918816Y-24395000D01*
X52221184Y-24395000D01*
X52517743Y-24336011D01*
X52797095Y-24220299D01*
X53048505Y-24052312D01*
X53262312Y-23838505D01*
X53340000Y-23722237D01*
X53417688Y-23838505D01*
X53631495Y-24052312D01*
X53882905Y-24220299D01*
X54162257Y-24336011D01*
X54458816Y-24395000D01*
X54761184Y-24395000D01*
X55057743Y-24336011D01*
X55337095Y-24220299D01*
X55588505Y-24052312D01*
X55802312Y-23838505D01*
X55880000Y-23722237D01*
X55957688Y-23838505D01*
X56171495Y-24052312D01*
X56422905Y-24220299D01*
X56702257Y-24336011D01*
X56998816Y-24395000D01*
X57301184Y-24395000D01*
X57597743Y-24336011D01*
X57877095Y-24220299D01*
X58128505Y-24052312D01*
X58342312Y-23838505D01*
X58420000Y-23722237D01*
X58497688Y-23838505D01*
X58711495Y-24052312D01*
X58962905Y-24220299D01*
X59242257Y-24336011D01*
X59538816Y-24395000D01*
X59841184Y-24395000D01*
X60137743Y-24336011D01*
X60417095Y-24220299D01*
X60668505Y-24052312D01*
X60882312Y-23838505D01*
X60960000Y-23722237D01*
X61037688Y-23838505D01*
X61251495Y-24052312D01*
X61502905Y-24220299D01*
X61782257Y-24336011D01*
X62078816Y-24395000D01*
X62381184Y-24395000D01*
X62677743Y-24336011D01*
X62957095Y-24220299D01*
X63208505Y-24052312D01*
X63422312Y-23838505D01*
X63500000Y-23722237D01*
X63577688Y-23838505D01*
X63791495Y-24052312D01*
X64042905Y-24220299D01*
X64322257Y-24336011D01*
X64618816Y-24395000D01*
X64921184Y-24395000D01*
X65217743Y-24336011D01*
X65497095Y-24220299D01*
X65748505Y-24052312D01*
X65962312Y-23838505D01*
X66040000Y-23722237D01*
X66117688Y-23838505D01*
X66331495Y-24052312D01*
X66582905Y-24220299D01*
X66862257Y-24336011D01*
X67158816Y-24395000D01*
X67461184Y-24395000D01*
X67757743Y-24336011D01*
X68037095Y-24220299D01*
X68288505Y-24052312D01*
X68502312Y-23838505D01*
X68580000Y-23722237D01*
X68657688Y-23838505D01*
X68871495Y-24052312D01*
X69122905Y-24220299D01*
X69402257Y-24336011D01*
X69698816Y-24395000D01*
X70001184Y-24395000D01*
X70297743Y-24336011D01*
X70577095Y-24220299D01*
X70828505Y-24052312D01*
X71042312Y-23838505D01*
X71120000Y-23722237D01*
X71197688Y-23838505D01*
X71411495Y-24052312D01*
X71662905Y-24220299D01*
X71942257Y-24336011D01*
X72238816Y-24395000D01*
X72541184Y-24395000D01*
X72837743Y-24336011D01*
X73117095Y-24220299D01*
X73368505Y-24052312D01*
X73582312Y-23838505D01*
X73660000Y-23722237D01*
X73737688Y-23838505D01*
X73951495Y-24052312D01*
X74202905Y-24220299D01*
X74482257Y-24336011D01*
X74778816Y-24395000D01*
X75081184Y-24395000D01*
X75377743Y-24336011D01*
X75657095Y-24220299D01*
X75908505Y-24052312D01*
X76122312Y-23838505D01*
X76200000Y-23722237D01*
X76277688Y-23838505D01*
X76491495Y-24052312D01*
X76742905Y-24220299D01*
X77022257Y-24336011D01*
X77318816Y-24395000D01*
X77621184Y-24395000D01*
X77917743Y-24336011D01*
X78197095Y-24220299D01*
X78448505Y-24052312D01*
X78662312Y-23838505D01*
X78740000Y-23722237D01*
X78817688Y-23838505D01*
X79031495Y-24052312D01*
X79282905Y-24220299D01*
X79562257Y-24336011D01*
X79858816Y-24395000D01*
X80161184Y-24395000D01*
X80457743Y-24336011D01*
X80737095Y-24220299D01*
X80988505Y-24052312D01*
X81202312Y-23838505D01*
X81280000Y-23722237D01*
X81357688Y-23838505D01*
X81571495Y-24052312D01*
X81822905Y-24220299D01*
X82102257Y-24336011D01*
X82398816Y-24395000D01*
X82701184Y-24395000D01*
X82997743Y-24336011D01*
X83277095Y-24220299D01*
X83528505Y-24052312D01*
X83742312Y-23838505D01*
X83820000Y-23722237D01*
X83897688Y-23838505D01*
X84111495Y-24052312D01*
X84362905Y-24220299D01*
X84642257Y-24336011D01*
X84741290Y-24355710D01*
X84313700Y-24783300D01*
X76413477Y-24783300D01*
X76365099Y-24778535D01*
X76316721Y-24783300D01*
X76316720Y-24783300D01*
X76172006Y-24797553D01*
X75986333Y-24853876D01*
X75815216Y-24945340D01*
X75665230Y-25068430D01*
X75634384Y-25106016D01*
X73624072Y-27116328D01*
X72658999Y-27116328D01*
X72485745Y-27133392D01*
X72319149Y-27183928D01*
X72165613Y-27265995D01*
X72031038Y-27376438D01*
X71920595Y-27511013D01*
X71838528Y-27664549D01*
X71787992Y-27831145D01*
X71770928Y-28004399D01*
X71770928Y-28969471D01*
X63967695Y-36772705D01*
X63930933Y-36780017D01*
X63724376Y-36865576D01*
X63538480Y-36989788D01*
X63380388Y-37147880D01*
X63256176Y-37333776D01*
X63170617Y-37540333D01*
X63127000Y-37759612D01*
X63127000Y-37983188D01*
X63170617Y-38202467D01*
X63256176Y-38409024D01*
X63340885Y-38535800D01*
X61841460Y-38535800D01*
X61660634Y-38414976D01*
X61454077Y-38329417D01*
X61234798Y-38285800D01*
X61011222Y-38285800D01*
X60791943Y-38329417D01*
X60585386Y-38414976D01*
X60450000Y-38505438D01*
X60450000Y-30390535D01*
X60518586Y-30287889D01*
X60589068Y-30117729D01*
X60625000Y-29937089D01*
X60625000Y-29752911D01*
X60589068Y-29572271D01*
X60518586Y-29402111D01*
X60416262Y-29248972D01*
X60286028Y-29118738D01*
X60132889Y-29016414D01*
X59962729Y-28945932D01*
X59782089Y-28910000D01*
X59597911Y-28910000D01*
X59417271Y-28945932D01*
X59247111Y-29016414D01*
X59093972Y-29118738D01*
X58963738Y-29248972D01*
X58861414Y-29402111D01*
X58790932Y-29572271D01*
X58755000Y-29752911D01*
X58755000Y-29937089D01*
X58790932Y-30117729D01*
X58861414Y-30287889D01*
X58930001Y-30390537D01*
X58930000Y-39325899D01*
X58638072Y-39033971D01*
X58638072Y-37770700D01*
X58625812Y-37646218D01*
X58589502Y-37526520D01*
X58530537Y-37416206D01*
X58451185Y-37319515D01*
X58354494Y-37240163D01*
X58244180Y-37181198D01*
X58124482Y-37144888D01*
X58000000Y-37132628D01*
X56300000Y-37132628D01*
X56175518Y-37144888D01*
X56055820Y-37181198D01*
X56007000Y-37207293D01*
X56007000Y-33655000D01*
X56004560Y-33630224D01*
X55997333Y-33606399D01*
X55985597Y-33584443D01*
X55969803Y-33565197D01*
X55950557Y-33549403D01*
X55928601Y-33537667D01*
X55904776Y-33530440D01*
X55880000Y-33528000D01*
X45847000Y-33528000D01*
X45847000Y-27305000D01*
X45844560Y-27280224D01*
X45837333Y-27256399D01*
X45825597Y-27234443D01*
X45809803Y-27215197D01*
X45790557Y-27199403D01*
X45768601Y-27187667D01*
X45744776Y-27180440D01*
X45720000Y-27178000D01*
X32460000Y-27178000D01*
X32460000Y-23924080D01*
X33405525Y-23924080D01*
X33489208Y-24178261D01*
X33761775Y-24309158D01*
X34054642Y-24384365D01*
X34356553Y-24400991D01*
X34655907Y-24358397D01*
X34941199Y-24258222D01*
X35090792Y-24178261D01*
X35174475Y-23924080D01*
X35945525Y-23924080D01*
X36029208Y-24178261D01*
X36301775Y-24309158D01*
X36594642Y-24384365D01*
X36896553Y-24400991D01*
X37195907Y-24358397D01*
X37481199Y-24258222D01*
X37630792Y-24178261D01*
X37714475Y-23924080D01*
X36830000Y-23039605D01*
X35945525Y-23924080D01*
X35174475Y-23924080D01*
X34290000Y-23039605D01*
X33405525Y-23924080D01*
X32460000Y-23924080D01*
X32460000Y-22926553D01*
X32749009Y-22926553D01*
X32791603Y-23225907D01*
X32891778Y-23511199D01*
X32971739Y-23660792D01*
X33225920Y-23744475D01*
X34110395Y-22860000D01*
X34469605Y-22860000D01*
X35354080Y-23744475D01*
X35560000Y-23676681D01*
X35765920Y-23744475D01*
X36650395Y-22860000D01*
X35765920Y-21975525D01*
X35560000Y-22043319D01*
X35354080Y-21975525D01*
X34469605Y-22860000D01*
X34110395Y-22860000D01*
X33225920Y-21975525D01*
X32971739Y-22059208D01*
X32840842Y-22331775D01*
X32765635Y-22624642D01*
X32749009Y-22926553D01*
X32460000Y-22926553D01*
X32460000Y-21384080D01*
X33405525Y-21384080D01*
X33473319Y-21590000D01*
X33405525Y-21795920D01*
X34290000Y-22680395D01*
X35174475Y-21795920D01*
X35106681Y-21590000D01*
X35174475Y-21384080D01*
X35945525Y-21384080D01*
X36013319Y-21590000D01*
X35945525Y-21795920D01*
X36830000Y-22680395D01*
X37714475Y-21795920D01*
X37646681Y-21590000D01*
X37714475Y-21384080D01*
X36830000Y-20499605D01*
X35945525Y-21384080D01*
X35174475Y-21384080D01*
X34290000Y-20499605D01*
X33405525Y-21384080D01*
X32460000Y-21384080D01*
X32460000Y-20386553D01*
X32749009Y-20386553D01*
X32791603Y-20685907D01*
X32891778Y-20971199D01*
X32971739Y-21120792D01*
X33225920Y-21204475D01*
X34110395Y-20320000D01*
X34469605Y-20320000D01*
X35354080Y-21204475D01*
X35560000Y-21136681D01*
X35765920Y-21204475D01*
X36650395Y-20320000D01*
X35765920Y-19435525D01*
X35560000Y-19503319D01*
X35354080Y-19435525D01*
X34469605Y-20320000D01*
X34110395Y-20320000D01*
X33225920Y-19435525D01*
X32971739Y-19519208D01*
X32840842Y-19791775D01*
X32765635Y-20084642D01*
X32749009Y-20386553D01*
X32460000Y-20386553D01*
X32460000Y-19125000D01*
X33448627Y-19125000D01*
X33405525Y-19255920D01*
G36*
X44831000Y-34417000D02*
G01*
X44833440Y-34441776D01*
X44840667Y-34465601D01*
X44852403Y-34487557D01*
X44868197Y-34506803D01*
X44887443Y-34522597D01*
X44909399Y-34534333D01*
X44933224Y-34541560D01*
X44958000Y-34544000D01*
X54991000Y-34544000D01*
X54991000Y-42037000D01*
X54993440Y-42061776D01*
X55000667Y-42085601D01*
X55012403Y-42107557D01*
X55028197Y-42126803D01*
X55047443Y-42142597D01*
X55069399Y-42154333D01*
X55093224Y-42161560D01*
X55118000Y-42164000D01*
X58422000Y-42164000D01*
X58422001Y-44539668D01*
X58418324Y-44577000D01*
X58422001Y-44614333D01*
X58432998Y-44725986D01*
X58438766Y-44745000D01*
X58476454Y-44869246D01*
X58547000Y-45001227D01*
X58547000Y-49495199D01*
X58431376Y-49610823D01*
X58402378Y-49634621D01*
X58378580Y-49663619D01*
X58378579Y-49663620D01*
X58307404Y-49750346D01*
X58236832Y-49882376D01*
X58209954Y-49970986D01*
X58196295Y-50016015D01*
X58193376Y-50025637D01*
X58178702Y-50174622D01*
X58182379Y-50211954D01*
X58182378Y-60990678D01*
X58178702Y-61028000D01*
X58182378Y-61065322D01*
X58182378Y-61065332D01*
X58193375Y-61176985D01*
X58220785Y-61267345D01*
X58236832Y-61320246D01*
X58307404Y-61452276D01*
X58327345Y-61476574D01*
X58402377Y-61568001D01*
X58431381Y-61591804D01*
X58547000Y-61707423D01*
X58547000Y-61849000D01*
X58549440Y-61873776D01*
X58556667Y-61897601D01*
X58568403Y-61919557D01*
X58584197Y-61938803D01*
X63936316Y-67290922D01*
X63907763Y-67310000D01*
X63092237Y-67310000D01*
X62957095Y-67219701D01*
X62677743Y-67103989D01*
X62381184Y-67045000D01*
X62078816Y-67045000D01*
X61782257Y-67103989D01*
X61502905Y-67219701D01*
X61367763Y-67310000D01*
X60552237Y-67310000D01*
X60417095Y-67219701D01*
X60137743Y-67103989D01*
X59841184Y-67045000D01*
X59538816Y-67045000D01*
X59242257Y-67103989D01*
X58962905Y-67219701D01*
X58827763Y-67310000D01*
X58012237Y-67310000D01*
X57877095Y-67219701D01*
X57597743Y-67103989D01*
X57301184Y-67045000D01*
X56998816Y-67045000D01*
X56702257Y-67103989D01*
X56422905Y-67219701D01*
X56287763Y-67310000D01*
X55472237Y-67310000D01*
X55337095Y-67219701D01*
X55057743Y-67103989D01*
X54761184Y-67045000D01*
X54458816Y-67045000D01*
X54162257Y-67103989D01*
X53882905Y-67219701D01*
X53747763Y-67310000D01*
X52932237Y-67310000D01*
X52797095Y-67219701D01*
X52517743Y-67103989D01*
X52221184Y-67045000D01*
X51918816Y-67045000D01*
X51622257Y-67103989D01*
X51342905Y-67219701D01*
X51207763Y-67310000D01*
X50392237Y-67310000D01*
X50257095Y-67219701D01*
X49977743Y-67103989D01*
X49681184Y-67045000D01*
X49378816Y-67045000D01*
X49082257Y-67103989D01*
X48802905Y-67219701D01*
X48667763Y-67310000D01*
X47852237Y-67310000D01*
X47717095Y-67219701D01*
X47437743Y-67103989D01*
X47141184Y-67045000D01*
X46838816Y-67045000D01*
X46542257Y-67103989D01*
X46262905Y-67219701D01*
X46127763Y-67310000D01*
X45312237Y-67310000D01*
X45177095Y-67219701D01*
X44897743Y-67103989D01*
X44601184Y-67045000D01*
X44298816Y-67045000D01*
X44002257Y-67103989D01*
X43722905Y-67219701D01*
X43587763Y-67310000D01*
X42772237Y-67310000D01*
X42637095Y-67219701D01*
X42357743Y-67103989D01*
X42061184Y-67045000D01*
X41758816Y-67045000D01*
X41462257Y-67103989D01*
X41182905Y-67219701D01*
X41047763Y-67310000D01*
X40232237Y-67310000D01*
X40097095Y-67219701D01*
X39817743Y-67103989D01*
X39521184Y-67045000D01*
X39218816Y-67045000D01*
X38922257Y-67103989D01*
X38642905Y-67219701D01*
X38507763Y-67310000D01*
X37692237Y-67310000D01*
X37557095Y-67219701D01*
X37277743Y-67103989D01*
X36981184Y-67045000D01*
X36678816Y-67045000D01*
X36382257Y-67103989D01*
X36102905Y-67219701D01*
X35967763Y-67310000D01*
X35152237Y-67310000D01*
X35017095Y-67219701D01*
X34737743Y-67103989D01*
X34441184Y-67045000D01*
X34138816Y-67045000D01*
X33842257Y-67103989D01*
X33562905Y-67219701D01*
X33427763Y-67310000D01*
X32460000Y-67310000D01*
X32460000Y-59523439D01*
X32965000Y-59523439D01*
X32965000Y-59776561D01*
X33014381Y-60024821D01*
X33111247Y-60258676D01*
X33251875Y-60469140D01*
X33430860Y-60648125D01*
X33641324Y-60788753D01*
X33875179Y-60885619D01*
X34123439Y-60935000D01*
X34376561Y-60935000D01*
X34624821Y-60885619D01*
X34858676Y-60788753D01*
X35069140Y-60648125D01*
X35248125Y-60469140D01*
X35388753Y-60258676D01*
X35485619Y-60024821D01*
X35535000Y-59776561D01*
X35535000Y-59523439D01*
X39265000Y-59523439D01*
X39265000Y-59776561D01*
X39314381Y-60024821D01*
X39411247Y-60258676D01*
X39551875Y-60469140D01*
X39730860Y-60648125D01*
X39941324Y-60788753D01*
X40175179Y-60885619D01*
X40423439Y-60935000D01*
X40676561Y-60935000D01*
X40924821Y-60885619D01*
X41158676Y-60788753D01*
X41369140Y-60648125D01*
X41548125Y-60469140D01*
X41688753Y-60258676D01*
X41785619Y-60024821D01*
X41835000Y-59776561D01*
X41835000Y-59523439D01*
X41785619Y-59275179D01*
X41688753Y-59041324D01*
X41548125Y-58830860D01*
X41369140Y-58651875D01*
X41158676Y-58511247D01*
X40924821Y-58414381D01*
X40676561Y-58365000D01*
X40423439Y-58365000D01*
X40175179Y-58414381D01*
X39941324Y-58511247D01*
X39730860Y-58651875D01*
X39551875Y-58830860D01*
X39411247Y-59041324D01*
X39314381Y-59275179D01*
X39265000Y-59523439D01*
X35535000Y-59523439D01*
X35485619Y-59275179D01*
X35388753Y-59041324D01*
X35248125Y-58830860D01*
X35069140Y-58651875D01*
X34858676Y-58511247D01*
X34624821Y-58414381D01*
X34376561Y-58365000D01*
X34123439Y-58365000D01*
X33875179Y-58414381D01*
X33641324Y-58511247D01*
X33430860Y-58651875D01*
X33251875Y-58830860D01*
X33111247Y-59041324D01*
X33014381Y-59275179D01*
X32965000Y-59523439D01*
X32460000Y-59523439D01*
X32460000Y-44823439D01*
X32965000Y-44823439D01*
X32965000Y-45076561D01*
X33014381Y-45324821D01*
X33111247Y-45558676D01*
X33251875Y-45769140D01*
X33430860Y-45948125D01*
X33641324Y-46088753D01*
X33875179Y-46185619D01*
X34123439Y-46235000D01*
X34376561Y-46235000D01*
X34624821Y-46185619D01*
X34858676Y-46088753D01*
X35069140Y-45948125D01*
X35248125Y-45769140D01*
X35388753Y-45558676D01*
X35485619Y-45324821D01*
X35535000Y-45076561D01*
X35535000Y-44823439D01*
X39265000Y-44823439D01*
X39265000Y-45076561D01*
X39314381Y-45324821D01*
X39411247Y-45558676D01*
X39551875Y-45769140D01*
X39730860Y-45948125D01*
X39941324Y-46088753D01*
X40175179Y-46185619D01*
X40423439Y-46235000D01*
X40676561Y-46235000D01*
X40924821Y-46185619D01*
X41158676Y-46088753D01*
X41369140Y-45948125D01*
X41548125Y-45769140D01*
X41688753Y-45558676D01*
X41785619Y-45324821D01*
X41835000Y-45076561D01*
X41835000Y-44823439D01*
X41785619Y-44575179D01*
X41688753Y-44341324D01*
X41548125Y-44130860D01*
X41369140Y-43951875D01*
X41158676Y-43811247D01*
X40924821Y-43714381D01*
X40676561Y-43665000D01*
X40423439Y-43665000D01*
X40175179Y-43714381D01*
X39941324Y-43811247D01*
X39730860Y-43951875D01*
X39551875Y-44130860D01*
X39411247Y-44341324D01*
X39314381Y-44575179D01*
X39265000Y-44823439D01*
X35535000Y-44823439D01*
X35485619Y-44575179D01*
X35388753Y-44341324D01*
X35248125Y-44130860D01*
X35069140Y-43951875D01*
X34858676Y-43811247D01*
X34624821Y-43714381D01*
X34376561Y-43665000D01*
X34123439Y-43665000D01*
X33875179Y-43714381D01*
X33641324Y-43811247D01*
X33430860Y-43951875D01*
X33251875Y-44130860D01*
X33111247Y-44341324D01*
X33014381Y-44575179D01*
X32965000Y-44823439D01*
X32460000Y-44823439D01*
X32460000Y-43180000D01*
X48037815Y-43180000D01*
X48066487Y-43471111D01*
X48151401Y-43751034D01*
X48289294Y-44009014D01*
X48474866Y-44235134D01*
X48700986Y-44420706D01*
X48755791Y-44450000D01*
X48700986Y-44479294D01*
X48474866Y-44664866D01*
X48289294Y-44890986D01*
X48151401Y-45148966D01*
X48066487Y-45428889D01*
X48037815Y-45720000D01*
X48066487Y-46011111D01*
X48151401Y-46291034D01*
X48289294Y-46549014D01*
X48474866Y-46775134D01*
X48700986Y-46960706D01*
X48755791Y-46990000D01*
X48700986Y-47019294D01*
X48474866Y-47204866D01*
X48289294Y-47430986D01*
X48151401Y-47688966D01*
X48066487Y-47968889D01*
X48037815Y-48260000D01*
X48066487Y-48551111D01*
X48151401Y-48831034D01*
X48289294Y-49089014D01*
X48474866Y-49315134D01*
X48700986Y-49500706D01*
X48755791Y-49530000D01*
X48700986Y-49559294D01*
X48474866Y-49744866D01*
X48289294Y-49970986D01*
X48151401Y-50228966D01*
X48066487Y-50508889D01*
X48037815Y-50800000D01*
X48066487Y-51091111D01*
X48151401Y-51371034D01*
X48289294Y-51629014D01*
X48474866Y-51855134D01*
X48700986Y-52040706D01*
X48755791Y-52070000D01*
X48700986Y-52099294D01*
X48474866Y-52284866D01*
X48289294Y-52510986D01*
X48151401Y-52768966D01*
X48066487Y-53048889D01*
X48037815Y-53340000D01*
X48066487Y-53631111D01*
X48151401Y-53911034D01*
X48289294Y-54169014D01*
X48474866Y-54395134D01*
X48700986Y-54580706D01*
X48755791Y-54610000D01*
X48700986Y-54639294D01*
X48474866Y-54824866D01*
X48289294Y-55050986D01*
X48151401Y-55308966D01*
X48066487Y-55588889D01*
X48037815Y-55880000D01*
X48066487Y-56171111D01*
X48151401Y-56451034D01*
X48289294Y-56709014D01*
X48474866Y-56935134D01*
X48700986Y-57120706D01*
X48755791Y-57150000D01*
X48700986Y-57179294D01*
X48474866Y-57364866D01*
X48289294Y-57590986D01*
X48151401Y-57848966D01*
X48066487Y-58128889D01*
X48037815Y-58420000D01*
X48066487Y-58711111D01*
X48151401Y-58991034D01*
X48289294Y-59249014D01*
X48474866Y-59475134D01*
X48700986Y-59660706D01*
X48755791Y-59690000D01*
X48700986Y-59719294D01*
X48474866Y-59904866D01*
X48289294Y-60130986D01*
X48151401Y-60388966D01*
X48066487Y-60668889D01*
X48037815Y-60960000D01*
X48066487Y-61251111D01*
X48151401Y-61531034D01*
X48289294Y-61789014D01*
X48474866Y-62015134D01*
X48700986Y-62200706D01*
X48755791Y-62230000D01*
X48700986Y-62259294D01*
X48474866Y-62444866D01*
X48289294Y-62670986D01*
X48151401Y-62928966D01*
X48066487Y-63208889D01*
X48037815Y-63500000D01*
X48066487Y-63791111D01*
X48151401Y-64071034D01*
X48289294Y-64329014D01*
X48474866Y-64555134D01*
X48700986Y-64740706D01*
X48958966Y-64878599D01*
X49238889Y-64963513D01*
X49457050Y-64985000D01*
X49602950Y-64985000D01*
X49821111Y-64963513D01*
X50101034Y-64878599D01*
X50359014Y-64740706D01*
X50585134Y-64555134D01*
X50770706Y-64329014D01*
X50908599Y-64071034D01*
X50993513Y-63791111D01*
X51022185Y-63500000D01*
X50993513Y-63208889D01*
X50908599Y-62928966D01*
X50770706Y-62670986D01*
X50585134Y-62444866D01*
X50359014Y-62259294D01*
X50304209Y-62230000D01*
X50359014Y-62200706D01*
X50585134Y-62015134D01*
X50770706Y-61789014D01*
X50908599Y-61531034D01*
X50993513Y-61251111D01*
X51022185Y-60960000D01*
X50993513Y-60668889D01*
X50908599Y-60388966D01*
X50770706Y-60130986D01*
X50585134Y-59904866D01*
X50359014Y-59719294D01*
X50304209Y-59690000D01*
X50359014Y-59660706D01*
X50585134Y-59475134D01*
X50770706Y-59249014D01*
X50908599Y-58991034D01*
X50993513Y-58711111D01*
X51022185Y-58420000D01*
X50993513Y-58128889D01*
X50908599Y-57848966D01*
X50770706Y-57590986D01*
X50585134Y-57364866D01*
X50359014Y-57179294D01*
X50304209Y-57150000D01*
X50359014Y-57120706D01*
X50585134Y-56935134D01*
X50770706Y-56709014D01*
X50908599Y-56451034D01*
X50993513Y-56171111D01*
X51022185Y-55880000D01*
X50993513Y-55588889D01*
X50908599Y-55308966D01*
X50770706Y-55050986D01*
X50585134Y-54824866D01*
X50359014Y-54639294D01*
X50304209Y-54610000D01*
X50359014Y-54580706D01*
X50585134Y-54395134D01*
X50770706Y-54169014D01*
X50908599Y-53911034D01*
X50993513Y-53631111D01*
X51022185Y-53340000D01*
X50993513Y-53048889D01*
X50908599Y-52768966D01*
X50770706Y-52510986D01*
X50585134Y-52284866D01*
X50359014Y-52099294D01*
X50304209Y-52070000D01*
X50359014Y-52040706D01*
X50585134Y-51855134D01*
X50770706Y-51629014D01*
X50908599Y-51371034D01*
X50993513Y-51091111D01*
X51022185Y-50800000D01*
X50993513Y-50508889D01*
X50908599Y-50228966D01*
X50770706Y-49970986D01*
X50585134Y-49744866D01*
X50359014Y-49559294D01*
X50304209Y-49530000D01*
X50359014Y-49500706D01*
X50585134Y-49315134D01*
X50770706Y-49089014D01*
X50908599Y-48831034D01*
X50993513Y-48551111D01*
X51017181Y-48310800D01*
X53070918Y-48310800D01*
X53099976Y-48605832D01*
X53186034Y-48889525D01*
X53325783Y-49150979D01*
X53513855Y-49380145D01*
X53743021Y-49568217D01*
X53766562Y-49580800D01*
X53743021Y-49593383D01*
X53513855Y-49781455D01*
X53325783Y-50010621D01*
X53186034Y-50272075D01*
X53099976Y-50555768D01*
X53070918Y-50850800D01*
X53099976Y-51145832D01*
X53186034Y-51429525D01*
X53325783Y-51690979D01*
X53513855Y-51920145D01*
X53743021Y-52108217D01*
X53766562Y-52120800D01*
X53743021Y-52133383D01*
X53513855Y-52321455D01*
X53325783Y-52550621D01*
X53186034Y-52812075D01*
X53099976Y-53095768D01*
X53070918Y-53390800D01*
X53099976Y-53685832D01*
X53186034Y-53969525D01*
X53325783Y-54230979D01*
X53513855Y-54460145D01*
X53743021Y-54648217D01*
X53766562Y-54660800D01*
X53743021Y-54673383D01*
X53513855Y-54861455D01*
X53325783Y-55090621D01*
X53186034Y-55352075D01*
X53099976Y-55635768D01*
X53070918Y-55930800D01*
X53099976Y-56225832D01*
X53186034Y-56509525D01*
X53325783Y-56770979D01*
X53513855Y-57000145D01*
X53743021Y-57188217D01*
X53766562Y-57200800D01*
X53743021Y-57213383D01*
X53513855Y-57401455D01*
X53325783Y-57630621D01*
X53186034Y-57892075D01*
X53099976Y-58175768D01*
X53070918Y-58470800D01*
X53099976Y-58765832D01*
X53186034Y-59049525D01*
X53325783Y-59310979D01*
X53513855Y-59540145D01*
X53743021Y-59728217D01*
X53766562Y-59740800D01*
X53743021Y-59753383D01*
X53513855Y-59941455D01*
X53325783Y-60170621D01*
X53186034Y-60432075D01*
X53099976Y-60715768D01*
X53070918Y-61010800D01*
X53099976Y-61305832D01*
X53186034Y-61589525D01*
X53325783Y-61850979D01*
X53513855Y-62080145D01*
X53743021Y-62268217D01*
X53766562Y-62280800D01*
X53743021Y-62293383D01*
X53513855Y-62481455D01*
X53325783Y-62710621D01*
X53186034Y-62972075D01*
X53099976Y-63255768D01*
X53070918Y-63550800D01*
X53099976Y-63845832D01*
X53186034Y-64129525D01*
X53325783Y-64390979D01*
X53513855Y-64620145D01*
X53743021Y-64808217D01*
X54004475Y-64947966D01*
X54288168Y-65034024D01*
X54509264Y-65055800D01*
X55117136Y-65055800D01*
X55338232Y-65034024D01*
X55621925Y-64947966D01*
X55883379Y-64808217D01*
X56112545Y-64620145D01*
X56300617Y-64390979D01*
X56440366Y-64129525D01*
X56526424Y-63845832D01*
X56555482Y-63550800D01*
X56526424Y-63255768D01*
X56440366Y-62972075D01*
X56300617Y-62710621D01*
X56112545Y-62481455D01*
X55883379Y-62293383D01*
X55859838Y-62280800D01*
X55883379Y-62268217D01*
X56112545Y-62080145D01*
X56300617Y-61850979D01*
X56440366Y-61589525D01*
X56526424Y-61305832D01*
X56555482Y-61010800D01*
X56526424Y-60715768D01*
X56440366Y-60432075D01*
X56300617Y-60170621D01*
X56112545Y-59941455D01*
X55883379Y-59753383D01*
X55859838Y-59740800D01*
X55883379Y-59728217D01*
X56112545Y-59540145D01*
X56300617Y-59310979D01*
X56440366Y-59049525D01*
X56526424Y-58765832D01*
X56555482Y-58470800D01*
X56526424Y-58175768D01*
X56440366Y-57892075D01*
X56300617Y-57630621D01*
X56112545Y-57401455D01*
X55883379Y-57213383D01*
X55859838Y-57200800D01*
X55883379Y-57188217D01*
X56112545Y-57000145D01*
X56300617Y-56770979D01*
X56440366Y-56509525D01*
X56526424Y-56225832D01*
X56555482Y-55930800D01*
X56526424Y-55635768D01*
X56440366Y-55352075D01*
X56300617Y-55090621D01*
X56112545Y-54861455D01*
X55883379Y-54673383D01*
X55859838Y-54660800D01*
X55883379Y-54648217D01*
X56112545Y-54460145D01*
X56300617Y-54230979D01*
X56440366Y-53969525D01*
X56526424Y-53685832D01*
X56555482Y-53390800D01*
X56526424Y-53095768D01*
X56440366Y-52812075D01*
X56300617Y-52550621D01*
X56112545Y-52321455D01*
X55883379Y-52133383D01*
X55859838Y-52120800D01*
X55883379Y-52108217D01*
X56112545Y-51920145D01*
X56300617Y-51690979D01*
X56440366Y-51429525D01*
X56526424Y-51145832D01*
X56555482Y-50850800D01*
X56526424Y-50555768D01*
X56440366Y-50272075D01*
X56300617Y-50010621D01*
X56112545Y-49781455D01*
X55883379Y-49593383D01*
X55859838Y-49580800D01*
X55883379Y-49568217D01*
X56112545Y-49380145D01*
X56300617Y-49150979D01*
X56440366Y-48889525D01*
X56526424Y-48605832D01*
X56555482Y-48310800D01*
X56526424Y-48015768D01*
X56440366Y-47732075D01*
X56300617Y-47470621D01*
X56114153Y-47243415D01*
X56157380Y-47230302D01*
X56267694Y-47171337D01*
X56364385Y-47091985D01*
X56443737Y-46995294D01*
X56502702Y-46884980D01*
X56539012Y-46765282D01*
X56551272Y-46640800D01*
X56548200Y-46056550D01*
X56389450Y-45897800D01*
X54940200Y-45897800D01*
X54940200Y-45917800D01*
X54686200Y-45917800D01*
X54686200Y-45897800D01*
X53236950Y-45897800D01*
X53078200Y-46056550D01*
X53075128Y-46640800D01*
X53087388Y-46765282D01*
X53123698Y-46884980D01*
X53182663Y-46995294D01*
X53262015Y-47091985D01*
X53358706Y-47171337D01*
X53469020Y-47230302D01*
X53512247Y-47243415D01*
X53325783Y-47470621D01*
X53186034Y-47732075D01*
X53099976Y-48015768D01*
X53070918Y-48310800D01*
X51017181Y-48310800D01*
X51022185Y-48260000D01*
X50993513Y-47968889D01*
X50908599Y-47688966D01*
X50770706Y-47430986D01*
X50585134Y-47204866D01*
X50359014Y-47019294D01*
X50304209Y-46990000D01*
X50359014Y-46960706D01*
X50585134Y-46775134D01*
X50770706Y-46549014D01*
X50908599Y-46291034D01*
X50993513Y-46011111D01*
X51022185Y-45720000D01*
X50993513Y-45428889D01*
X50908599Y-45148966D01*
X50775952Y-44900800D01*
X53075128Y-44900800D01*
X53078200Y-45485050D01*
X53236950Y-45643800D01*
X54686200Y-45643800D01*
X54686200Y-44424550D01*
X54940200Y-44424550D01*
X54940200Y-45643800D01*
X56389450Y-45643800D01*
X56548200Y-45485050D01*
X56551272Y-44900800D01*
X56539012Y-44776318D01*
X56502702Y-44656620D01*
X56443737Y-44546306D01*
X56364385Y-44449615D01*
X56267694Y-44370263D01*
X56157380Y-44311298D01*
X56037682Y-44274988D01*
X55913200Y-44262728D01*
X55098950Y-44265800D01*
X54940200Y-44424550D01*
X54686200Y-44424550D01*
X54527450Y-44265800D01*
X53713200Y-44262728D01*
X53588718Y-44274988D01*
X53469020Y-44311298D01*
X53358706Y-44370263D01*
X53262015Y-44449615D01*
X53182663Y-44546306D01*
X53123698Y-44656620D01*
X53087388Y-44776318D01*
X53075128Y-44900800D01*
X50775952Y-44900800D01*
X50770706Y-44890986D01*
X50585134Y-44664866D01*
X50359014Y-44479294D01*
X50304209Y-44450000D01*
X50359014Y-44420706D01*
X50585134Y-44235134D01*
X50770706Y-44009014D01*
X50908599Y-43751034D01*
X50993513Y-43471111D01*
X51022185Y-43180000D01*
X50993513Y-42888889D01*
X50908599Y-42608966D01*
X50770706Y-42350986D01*
X50585134Y-42124866D01*
X50555313Y-42100393D01*
X50624180Y-42079502D01*
X50734494Y-42020537D01*
X50831185Y-41941185D01*
X50910537Y-41844494D01*
X50969502Y-41734180D01*
X51005812Y-41614482D01*
X51018072Y-41490000D01*
X51018072Y-39790000D01*
X51005812Y-39665518D01*
X50969502Y-39545820D01*
X50910537Y-39435506D01*
X50831185Y-39338815D01*
X50734494Y-39259463D01*
X50624180Y-39200498D01*
X50504482Y-39164188D01*
X50380000Y-39151928D01*
X48680000Y-39151928D01*
X48555518Y-39164188D01*
X48435820Y-39200498D01*
X48325506Y-39259463D01*
X48228815Y-39338815D01*
X48149463Y-39435506D01*
X48090498Y-39545820D01*
X48054188Y-39665518D01*
X48041928Y-39790000D01*
X48041928Y-41490000D01*
X48054188Y-41614482D01*
X48090498Y-41734180D01*
X48149463Y-41844494D01*
X48228815Y-41941185D01*
X48325506Y-42020537D01*
X48435820Y-42079502D01*
X48504687Y-42100393D01*
X48474866Y-42124866D01*
X48289294Y-42350986D01*
X48151401Y-42608966D01*
X48066487Y-42888889D01*
X48037815Y-43180000D01*
X32460000Y-43180000D01*
X32460000Y-30123439D01*
X32965000Y-30123439D01*
X32965000Y-30376561D01*
X33014381Y-30624821D01*
X33111247Y-30858676D01*
X33251875Y-31069140D01*
X33430860Y-31248125D01*
X33641324Y-31388753D01*
X33875179Y-31485619D01*
X34123439Y-31535000D01*
X34376561Y-31535000D01*
X34624821Y-31485619D01*
X34858676Y-31388753D01*
X35069140Y-31248125D01*
X35248125Y-31069140D01*
X35388753Y-30858676D01*
X35485619Y-30624821D01*
X35535000Y-30376561D01*
X35535000Y-30123439D01*
X39265000Y-30123439D01*
X39265000Y-30376561D01*
X39314381Y-30624821D01*
X39411247Y-30858676D01*
X39551875Y-31069140D01*
X39730860Y-31248125D01*
X39941324Y-31388753D01*
X40175179Y-31485619D01*
X40423439Y-31535000D01*
X40676561Y-31535000D01*
X40924821Y-31485619D01*
X41158676Y-31388753D01*
X41369140Y-31248125D01*
X41548125Y-31069140D01*
X41688753Y-30858676D01*
X41785619Y-30624821D01*
X41835000Y-30376561D01*
X41835000Y-30123439D01*
X41785619Y-29875179D01*
X41688753Y-29641324D01*
X41548125Y-29430860D01*
X41369140Y-29251875D01*
X41158676Y-29111247D01*
X40924821Y-29014381D01*
X40676561Y-28965000D01*
X40423439Y-28965000D01*
X40175179Y-29014381D01*
X39941324Y-29111247D01*
X39730860Y-29251875D01*
X39551875Y-29430860D01*
X39411247Y-29641324D01*
X39314381Y-29875179D01*
X39265000Y-30123439D01*
X35535000Y-30123439D01*
X35485619Y-29875179D01*
X35388753Y-29641324D01*
X35248125Y-29430860D01*
X35069140Y-29251875D01*
X34858676Y-29111247D01*
X34624821Y-29014381D01*
X34376561Y-28965000D01*
X34123439Y-28965000D01*
X33875179Y-29014381D01*
X33641324Y-29111247D01*
X33430860Y-29251875D01*
X33251875Y-29430860D01*
X33111247Y-29641324D01*
X33014381Y-29875179D01*
X32965000Y-30123439D01*
X32460000Y-30123439D01*
X32460000Y-27940000D01*
X44831000Y-27940000D01*
X44831000Y-34417000D01*
X44831000Y-34417000D01*
G37*
X44831000Y-34417000D02*
X44833440Y-34441776D01*
X44840667Y-34465601D01*
X44852403Y-34487557D01*
X44868197Y-34506803D01*
X44887443Y-34522597D01*
X44909399Y-34534333D01*
X44933224Y-34541560D01*
X44958000Y-34544000D01*
X54991000Y-34544000D01*
X54991000Y-42037000D01*
X54993440Y-42061776D01*
X55000667Y-42085601D01*
X55012403Y-42107557D01*
X55028197Y-42126803D01*
X55047443Y-42142597D01*
X55069399Y-42154333D01*
X55093224Y-42161560D01*
X55118000Y-42164000D01*
X58422000Y-42164000D01*
X58422001Y-44539668D01*
X58418324Y-44577000D01*
X58422001Y-44614333D01*
X58432998Y-44725986D01*
X58438766Y-44745000D01*
X58476454Y-44869246D01*
X58547000Y-45001227D01*
X58547000Y-49495199D01*
X58431376Y-49610823D01*
X58402378Y-49634621D01*
X58378580Y-49663619D01*
X58378579Y-49663620D01*
X58307404Y-49750346D01*
X58236832Y-49882376D01*
X58209954Y-49970986D01*
X58196295Y-50016015D01*
X58193376Y-50025637D01*
X58178702Y-50174622D01*
X58182379Y-50211954D01*
X58182378Y-60990678D01*
X58178702Y-61028000D01*
X58182378Y-61065322D01*
X58182378Y-61065332D01*
X58193375Y-61176985D01*
X58220785Y-61267345D01*
X58236832Y-61320246D01*
X58307404Y-61452276D01*
X58327345Y-61476574D01*
X58402377Y-61568001D01*
X58431381Y-61591804D01*
X58547000Y-61707423D01*
X58547000Y-61849000D01*
X58549440Y-61873776D01*
X58556667Y-61897601D01*
X58568403Y-61919557D01*
X58584197Y-61938803D01*
X63936316Y-67290922D01*
X63907763Y-67310000D01*
X63092237Y-67310000D01*
X62957095Y-67219701D01*
X62677743Y-67103989D01*
X62381184Y-67045000D01*
X62078816Y-67045000D01*
X61782257Y-67103989D01*
X61502905Y-67219701D01*
X61367763Y-67310000D01*
X60552237Y-67310000D01*
X60417095Y-67219701D01*
X60137743Y-67103989D01*
X59841184Y-67045000D01*
X59538816Y-67045000D01*
X59242257Y-67103989D01*
X58962905Y-67219701D01*
X58827763Y-67310000D01*
X58012237Y-67310000D01*
X57877095Y-67219701D01*
X57597743Y-67103989D01*
X57301184Y-67045000D01*
X56998816Y-67045000D01*
X56702257Y-67103989D01*
X56422905Y-67219701D01*
X56287763Y-67310000D01*
X55472237Y-67310000D01*
X55337095Y-67219701D01*
X55057743Y-67103989D01*
X54761184Y-67045000D01*
X54458816Y-67045000D01*
X54162257Y-67103989D01*
X53882905Y-67219701D01*
X53747763Y-67310000D01*
X52932237Y-67310000D01*
X52797095Y-67219701D01*
X52517743Y-67103989D01*
X52221184Y-67045000D01*
X51918816Y-67045000D01*
X51622257Y-67103989D01*
X51342905Y-67219701D01*
X51207763Y-67310000D01*
X50392237Y-67310000D01*
X50257095Y-67219701D01*
X49977743Y-67103989D01*
X49681184Y-67045000D01*
X49378816Y-67045000D01*
X49082257Y-67103989D01*
X48802905Y-67219701D01*
X48667763Y-67310000D01*
X47852237Y-67310000D01*
X47717095Y-67219701D01*
X47437743Y-67103989D01*
X47141184Y-67045000D01*
X46838816Y-67045000D01*
X46542257Y-67103989D01*
X46262905Y-67219701D01*
X46127763Y-67310000D01*
X45312237Y-67310000D01*
X45177095Y-67219701D01*
X44897743Y-67103989D01*
X44601184Y-67045000D01*
X44298816Y-67045000D01*
X44002257Y-67103989D01*
X43722905Y-67219701D01*
X43587763Y-67310000D01*
X42772237Y-67310000D01*
X42637095Y-67219701D01*
X42357743Y-67103989D01*
X42061184Y-67045000D01*
X41758816Y-67045000D01*
X41462257Y-67103989D01*
X41182905Y-67219701D01*
X41047763Y-67310000D01*
X40232237Y-67310000D01*
X40097095Y-67219701D01*
X39817743Y-67103989D01*
X39521184Y-67045000D01*
X39218816Y-67045000D01*
X38922257Y-67103989D01*
X38642905Y-67219701D01*
X38507763Y-67310000D01*
X37692237Y-67310000D01*
X37557095Y-67219701D01*
X37277743Y-67103989D01*
X36981184Y-67045000D01*
X36678816Y-67045000D01*
X36382257Y-67103989D01*
X36102905Y-67219701D01*
X35967763Y-67310000D01*
X35152237Y-67310000D01*
X35017095Y-67219701D01*
X34737743Y-67103989D01*
X34441184Y-67045000D01*
X34138816Y-67045000D01*
X33842257Y-67103989D01*
X33562905Y-67219701D01*
X33427763Y-67310000D01*
X32460000Y-67310000D01*
X32460000Y-59523439D01*
X32965000Y-59523439D01*
X32965000Y-59776561D01*
X33014381Y-60024821D01*
X33111247Y-60258676D01*
X33251875Y-60469140D01*
X33430860Y-60648125D01*
X33641324Y-60788753D01*
X33875179Y-60885619D01*
X34123439Y-60935000D01*
X34376561Y-60935000D01*
X34624821Y-60885619D01*
X34858676Y-60788753D01*
X35069140Y-60648125D01*
X35248125Y-60469140D01*
X35388753Y-60258676D01*
X35485619Y-60024821D01*
X35535000Y-59776561D01*
X35535000Y-59523439D01*
X39265000Y-59523439D01*
X39265000Y-59776561D01*
X39314381Y-60024821D01*
X39411247Y-60258676D01*
X39551875Y-60469140D01*
X39730860Y-60648125D01*
X39941324Y-60788753D01*
X40175179Y-60885619D01*
X40423439Y-60935000D01*
X40676561Y-60935000D01*
X40924821Y-60885619D01*
X41158676Y-60788753D01*
X41369140Y-60648125D01*
X41548125Y-60469140D01*
X41688753Y-60258676D01*
X41785619Y-60024821D01*
X41835000Y-59776561D01*
X41835000Y-59523439D01*
X41785619Y-59275179D01*
X41688753Y-59041324D01*
X41548125Y-58830860D01*
X41369140Y-58651875D01*
X41158676Y-58511247D01*
X40924821Y-58414381D01*
X40676561Y-58365000D01*
X40423439Y-58365000D01*
X40175179Y-58414381D01*
X39941324Y-58511247D01*
X39730860Y-58651875D01*
X39551875Y-58830860D01*
X39411247Y-59041324D01*
X39314381Y-59275179D01*
X39265000Y-59523439D01*
X35535000Y-59523439D01*
X35485619Y-59275179D01*
X35388753Y-59041324D01*
X35248125Y-58830860D01*
X35069140Y-58651875D01*
X34858676Y-58511247D01*
X34624821Y-58414381D01*
X34376561Y-58365000D01*
X34123439Y-58365000D01*
X33875179Y-58414381D01*
X33641324Y-58511247D01*
X33430860Y-58651875D01*
X33251875Y-58830860D01*
X33111247Y-59041324D01*
X33014381Y-59275179D01*
X32965000Y-59523439D01*
X32460000Y-59523439D01*
X32460000Y-44823439D01*
X32965000Y-44823439D01*
X32965000Y-45076561D01*
X33014381Y-45324821D01*
X33111247Y-45558676D01*
X33251875Y-45769140D01*
X33430860Y-45948125D01*
X33641324Y-46088753D01*
X33875179Y-46185619D01*
X34123439Y-46235000D01*
X34376561Y-46235000D01*
X34624821Y-46185619D01*
X34858676Y-46088753D01*
X35069140Y-45948125D01*
X35248125Y-45769140D01*
X35388753Y-45558676D01*
X35485619Y-45324821D01*
X35535000Y-45076561D01*
X35535000Y-44823439D01*
X39265000Y-44823439D01*
X39265000Y-45076561D01*
X39314381Y-45324821D01*
X39411247Y-45558676D01*
X39551875Y-45769140D01*
X39730860Y-45948125D01*
X39941324Y-46088753D01*
X40175179Y-46185619D01*
X40423439Y-46235000D01*
X40676561Y-46235000D01*
X40924821Y-46185619D01*
X41158676Y-46088753D01*
X41369140Y-45948125D01*
X41548125Y-45769140D01*
X41688753Y-45558676D01*
X41785619Y-45324821D01*
X41835000Y-45076561D01*
X41835000Y-44823439D01*
X41785619Y-44575179D01*
X41688753Y-44341324D01*
X41548125Y-44130860D01*
X41369140Y-43951875D01*
X41158676Y-43811247D01*
X40924821Y-43714381D01*
X40676561Y-43665000D01*
X40423439Y-43665000D01*
X40175179Y-43714381D01*
X39941324Y-43811247D01*
X39730860Y-43951875D01*
X39551875Y-44130860D01*
X39411247Y-44341324D01*
X39314381Y-44575179D01*
X39265000Y-44823439D01*
X35535000Y-44823439D01*
X35485619Y-44575179D01*
X35388753Y-44341324D01*
X35248125Y-44130860D01*
X35069140Y-43951875D01*
X34858676Y-43811247D01*
X34624821Y-43714381D01*
X34376561Y-43665000D01*
X34123439Y-43665000D01*
X33875179Y-43714381D01*
X33641324Y-43811247D01*
X33430860Y-43951875D01*
X33251875Y-44130860D01*
X33111247Y-44341324D01*
X33014381Y-44575179D01*
X32965000Y-44823439D01*
X32460000Y-44823439D01*
X32460000Y-43180000D01*
X48037815Y-43180000D01*
X48066487Y-43471111D01*
X48151401Y-43751034D01*
X48289294Y-44009014D01*
X48474866Y-44235134D01*
X48700986Y-44420706D01*
X48755791Y-44450000D01*
X48700986Y-44479294D01*
X48474866Y-44664866D01*
X48289294Y-44890986D01*
X48151401Y-45148966D01*
X48066487Y-45428889D01*
X48037815Y-45720000D01*
X48066487Y-46011111D01*
X48151401Y-46291034D01*
X48289294Y-46549014D01*
X48474866Y-46775134D01*
X48700986Y-46960706D01*
X48755791Y-46990000D01*
X48700986Y-47019294D01*
X48474866Y-47204866D01*
X48289294Y-47430986D01*
X48151401Y-47688966D01*
X48066487Y-47968889D01*
X48037815Y-48260000D01*
X48066487Y-48551111D01*
X48151401Y-48831034D01*
X48289294Y-49089014D01*
X48474866Y-49315134D01*
X48700986Y-49500706D01*
X48755791Y-49530000D01*
X48700986Y-49559294D01*
X48474866Y-49744866D01*
X48289294Y-49970986D01*
X48151401Y-50228966D01*
X48066487Y-50508889D01*
X48037815Y-50800000D01*
X48066487Y-51091111D01*
X48151401Y-51371034D01*
X48289294Y-51629014D01*
X48474866Y-51855134D01*
X48700986Y-52040706D01*
X48755791Y-52070000D01*
X48700986Y-52099294D01*
X48474866Y-52284866D01*
X48289294Y-52510986D01*
X48151401Y-52768966D01*
X48066487Y-53048889D01*
X48037815Y-53340000D01*
X48066487Y-53631111D01*
X48151401Y-53911034D01*
X48289294Y-54169014D01*
X48474866Y-54395134D01*
X48700986Y-54580706D01*
X48755791Y-54610000D01*
X48700986Y-54639294D01*
X48474866Y-54824866D01*
X48289294Y-55050986D01*
X48151401Y-55308966D01*
X48066487Y-55588889D01*
X48037815Y-55880000D01*
X48066487Y-56171111D01*
X48151401Y-56451034D01*
X48289294Y-56709014D01*
X48474866Y-56935134D01*
X48700986Y-57120706D01*
X48755791Y-57150000D01*
X48700986Y-57179294D01*
X48474866Y-57364866D01*
X48289294Y-57590986D01*
X48151401Y-57848966D01*
X48066487Y-58128889D01*
X48037815Y-58420000D01*
X48066487Y-58711111D01*
X48151401Y-58991034D01*
X48289294Y-59249014D01*
X48474866Y-59475134D01*
X48700986Y-59660706D01*
X48755791Y-59690000D01*
X48700986Y-59719294D01*
X48474866Y-59904866D01*
X48289294Y-60130986D01*
X48151401Y-60388966D01*
X48066487Y-60668889D01*
X48037815Y-60960000D01*
X48066487Y-61251111D01*
X48151401Y-61531034D01*
X48289294Y-61789014D01*
X48474866Y-62015134D01*
X48700986Y-62200706D01*
X48755791Y-62230000D01*
X48700986Y-62259294D01*
X48474866Y-62444866D01*
X48289294Y-62670986D01*
X48151401Y-62928966D01*
X48066487Y-63208889D01*
X48037815Y-63500000D01*
X48066487Y-63791111D01*
X48151401Y-64071034D01*
X48289294Y-64329014D01*
X48474866Y-64555134D01*
X48700986Y-64740706D01*
X48958966Y-64878599D01*
X49238889Y-64963513D01*
X49457050Y-64985000D01*
X49602950Y-64985000D01*
X49821111Y-64963513D01*
X50101034Y-64878599D01*
X50359014Y-64740706D01*
X50585134Y-64555134D01*
X50770706Y-64329014D01*
X50908599Y-64071034D01*
X50993513Y-63791111D01*
X51022185Y-63500000D01*
X50993513Y-63208889D01*
X50908599Y-62928966D01*
X50770706Y-62670986D01*
X50585134Y-62444866D01*
X50359014Y-62259294D01*
X50304209Y-62230000D01*
X50359014Y-62200706D01*
X50585134Y-62015134D01*
X50770706Y-61789014D01*
X50908599Y-61531034D01*
X50993513Y-61251111D01*
X51022185Y-60960000D01*
X50993513Y-60668889D01*
X50908599Y-60388966D01*
X50770706Y-60130986D01*
X50585134Y-59904866D01*
X50359014Y-59719294D01*
X50304209Y-59690000D01*
X50359014Y-59660706D01*
X50585134Y-59475134D01*
X50770706Y-59249014D01*
X50908599Y-58991034D01*
X50993513Y-58711111D01*
X51022185Y-58420000D01*
X50993513Y-58128889D01*
X50908599Y-57848966D01*
X50770706Y-57590986D01*
X50585134Y-57364866D01*
X50359014Y-57179294D01*
X50304209Y-57150000D01*
X50359014Y-57120706D01*
X50585134Y-56935134D01*
X50770706Y-56709014D01*
X50908599Y-56451034D01*
X50993513Y-56171111D01*
X51022185Y-55880000D01*
X50993513Y-55588889D01*
X50908599Y-55308966D01*
X50770706Y-55050986D01*
X50585134Y-54824866D01*
X50359014Y-54639294D01*
X50304209Y-54610000D01*
X50359014Y-54580706D01*
X50585134Y-54395134D01*
X50770706Y-54169014D01*
X50908599Y-53911034D01*
X50993513Y-53631111D01*
X51022185Y-53340000D01*
X50993513Y-53048889D01*
X50908599Y-52768966D01*
X50770706Y-52510986D01*
X50585134Y-52284866D01*
X50359014Y-52099294D01*
X50304209Y-52070000D01*
X50359014Y-52040706D01*
X50585134Y-51855134D01*
X50770706Y-51629014D01*
X50908599Y-51371034D01*
X50993513Y-51091111D01*
X51022185Y-50800000D01*
X50993513Y-50508889D01*
X50908599Y-50228966D01*
X50770706Y-49970986D01*
X50585134Y-49744866D01*
X50359014Y-49559294D01*
X50304209Y-49530000D01*
X50359014Y-49500706D01*
X50585134Y-49315134D01*
X50770706Y-49089014D01*
X50908599Y-48831034D01*
X50993513Y-48551111D01*
X51017181Y-48310800D01*
X53070918Y-48310800D01*
X53099976Y-48605832D01*
X53186034Y-48889525D01*
X53325783Y-49150979D01*
X53513855Y-49380145D01*
X53743021Y-49568217D01*
X53766562Y-49580800D01*
X53743021Y-49593383D01*
X53513855Y-49781455D01*
X53325783Y-50010621D01*
X53186034Y-50272075D01*
X53099976Y-50555768D01*
X53070918Y-50850800D01*
X53099976Y-51145832D01*
X53186034Y-51429525D01*
X53325783Y-51690979D01*
X53513855Y-51920145D01*
X53743021Y-52108217D01*
X53766562Y-52120800D01*
X53743021Y-52133383D01*
X53513855Y-52321455D01*
X53325783Y-52550621D01*
X53186034Y-52812075D01*
X53099976Y-53095768D01*
X53070918Y-53390800D01*
X53099976Y-53685832D01*
X53186034Y-53969525D01*
X53325783Y-54230979D01*
X53513855Y-54460145D01*
X53743021Y-54648217D01*
X53766562Y-54660800D01*
X53743021Y-54673383D01*
X53513855Y-54861455D01*
X53325783Y-55090621D01*
X53186034Y-55352075D01*
X53099976Y-55635768D01*
X53070918Y-55930800D01*
X53099976Y-56225832D01*
X53186034Y-56509525D01*
X53325783Y-56770979D01*
X53513855Y-57000145D01*
X53743021Y-57188217D01*
X53766562Y-57200800D01*
X53743021Y-57213383D01*
X53513855Y-57401455D01*
X53325783Y-57630621D01*
X53186034Y-57892075D01*
X53099976Y-58175768D01*
X53070918Y-58470800D01*
X53099976Y-58765832D01*
X53186034Y-59049525D01*
X53325783Y-59310979D01*
X53513855Y-59540145D01*
X53743021Y-59728217D01*
X53766562Y-59740800D01*
X53743021Y-59753383D01*
X53513855Y-59941455D01*
X53325783Y-60170621D01*
X53186034Y-60432075D01*
X53099976Y-60715768D01*
X53070918Y-61010800D01*
X53099976Y-61305832D01*
X53186034Y-61589525D01*
X53325783Y-61850979D01*
X53513855Y-62080145D01*
X53743021Y-62268217D01*
X53766562Y-62280800D01*
X53743021Y-62293383D01*
X53513855Y-62481455D01*
X53325783Y-62710621D01*
X53186034Y-62972075D01*
X53099976Y-63255768D01*
X53070918Y-63550800D01*
X53099976Y-63845832D01*
X53186034Y-64129525D01*
X53325783Y-64390979D01*
X53513855Y-64620145D01*
X53743021Y-64808217D01*
X54004475Y-64947966D01*
X54288168Y-65034024D01*
X54509264Y-65055800D01*
X55117136Y-65055800D01*
X55338232Y-65034024D01*
X55621925Y-64947966D01*
X55883379Y-64808217D01*
X56112545Y-64620145D01*
X56300617Y-64390979D01*
X56440366Y-64129525D01*
X56526424Y-63845832D01*
X56555482Y-63550800D01*
X56526424Y-63255768D01*
X56440366Y-62972075D01*
X56300617Y-62710621D01*
X56112545Y-62481455D01*
X55883379Y-62293383D01*
X55859838Y-62280800D01*
X55883379Y-62268217D01*
X56112545Y-62080145D01*
X56300617Y-61850979D01*
X56440366Y-61589525D01*
X56526424Y-61305832D01*
X56555482Y-61010800D01*
X56526424Y-60715768D01*
X56440366Y-60432075D01*
X56300617Y-60170621D01*
X56112545Y-59941455D01*
X55883379Y-59753383D01*
X55859838Y-59740800D01*
X55883379Y-59728217D01*
X56112545Y-59540145D01*
X56300617Y-59310979D01*
X56440366Y-59049525D01*
X56526424Y-58765832D01*
X56555482Y-58470800D01*
X56526424Y-58175768D01*
X56440366Y-57892075D01*
X56300617Y-57630621D01*
X56112545Y-57401455D01*
X55883379Y-57213383D01*
X55859838Y-57200800D01*
X55883379Y-57188217D01*
X56112545Y-57000145D01*
X56300617Y-56770979D01*
X56440366Y-56509525D01*
X56526424Y-56225832D01*
X56555482Y-55930800D01*
X56526424Y-55635768D01*
X56440366Y-55352075D01*
X56300617Y-55090621D01*
X56112545Y-54861455D01*
X55883379Y-54673383D01*
X55859838Y-54660800D01*
X55883379Y-54648217D01*
X56112545Y-54460145D01*
X56300617Y-54230979D01*
X56440366Y-53969525D01*
X56526424Y-53685832D01*
X56555482Y-53390800D01*
X56526424Y-53095768D01*
X56440366Y-52812075D01*
X56300617Y-52550621D01*
X56112545Y-52321455D01*
X55883379Y-52133383D01*
X55859838Y-52120800D01*
X55883379Y-52108217D01*
X56112545Y-51920145D01*
X56300617Y-51690979D01*
X56440366Y-51429525D01*
X56526424Y-51145832D01*
X56555482Y-50850800D01*
X56526424Y-50555768D01*
X56440366Y-50272075D01*
X56300617Y-50010621D01*
X56112545Y-49781455D01*
X55883379Y-49593383D01*
X55859838Y-49580800D01*
X55883379Y-49568217D01*
X56112545Y-49380145D01*
X56300617Y-49150979D01*
X56440366Y-48889525D01*
X56526424Y-48605832D01*
X56555482Y-48310800D01*
X56526424Y-48015768D01*
X56440366Y-47732075D01*
X56300617Y-47470621D01*
X56114153Y-47243415D01*
X56157380Y-47230302D01*
X56267694Y-47171337D01*
X56364385Y-47091985D01*
X56443737Y-46995294D01*
X56502702Y-46884980D01*
X56539012Y-46765282D01*
X56551272Y-46640800D01*
X56548200Y-46056550D01*
X56389450Y-45897800D01*
X54940200Y-45897800D01*
X54940200Y-45917800D01*
X54686200Y-45917800D01*
X54686200Y-45897800D01*
X53236950Y-45897800D01*
X53078200Y-46056550D01*
X53075128Y-46640800D01*
X53087388Y-46765282D01*
X53123698Y-46884980D01*
X53182663Y-46995294D01*
X53262015Y-47091985D01*
X53358706Y-47171337D01*
X53469020Y-47230302D01*
X53512247Y-47243415D01*
X53325783Y-47470621D01*
X53186034Y-47732075D01*
X53099976Y-48015768D01*
X53070918Y-48310800D01*
X51017181Y-48310800D01*
X51022185Y-48260000D01*
X50993513Y-47968889D01*
X50908599Y-47688966D01*
X50770706Y-47430986D01*
X50585134Y-47204866D01*
X50359014Y-47019294D01*
X50304209Y-46990000D01*
X50359014Y-46960706D01*
X50585134Y-46775134D01*
X50770706Y-46549014D01*
X50908599Y-46291034D01*
X50993513Y-46011111D01*
X51022185Y-45720000D01*
X50993513Y-45428889D01*
X50908599Y-45148966D01*
X50775952Y-44900800D01*
X53075128Y-44900800D01*
X53078200Y-45485050D01*
X53236950Y-45643800D01*
X54686200Y-45643800D01*
X54686200Y-44424550D01*
X54940200Y-44424550D01*
X54940200Y-45643800D01*
X56389450Y-45643800D01*
X56548200Y-45485050D01*
X56551272Y-44900800D01*
X56539012Y-44776318D01*
X56502702Y-44656620D01*
X56443737Y-44546306D01*
X56364385Y-44449615D01*
X56267694Y-44370263D01*
X56157380Y-44311298D01*
X56037682Y-44274988D01*
X55913200Y-44262728D01*
X55098950Y-44265800D01*
X54940200Y-44424550D01*
X54686200Y-44424550D01*
X54527450Y-44265800D01*
X53713200Y-44262728D01*
X53588718Y-44274988D01*
X53469020Y-44311298D01*
X53358706Y-44370263D01*
X53262015Y-44449615D01*
X53182663Y-44546306D01*
X53123698Y-44656620D01*
X53087388Y-44776318D01*
X53075128Y-44900800D01*
X50775952Y-44900800D01*
X50770706Y-44890986D01*
X50585134Y-44664866D01*
X50359014Y-44479294D01*
X50304209Y-44450000D01*
X50359014Y-44420706D01*
X50585134Y-44235134D01*
X50770706Y-44009014D01*
X50908599Y-43751034D01*
X50993513Y-43471111D01*
X51022185Y-43180000D01*
X50993513Y-42888889D01*
X50908599Y-42608966D01*
X50770706Y-42350986D01*
X50585134Y-42124866D01*
X50555313Y-42100393D01*
X50624180Y-42079502D01*
X50734494Y-42020537D01*
X50831185Y-41941185D01*
X50910537Y-41844494D01*
X50969502Y-41734180D01*
X51005812Y-41614482D01*
X51018072Y-41490000D01*
X51018072Y-39790000D01*
X51005812Y-39665518D01*
X50969502Y-39545820D01*
X50910537Y-39435506D01*
X50831185Y-39338815D01*
X50734494Y-39259463D01*
X50624180Y-39200498D01*
X50504482Y-39164188D01*
X50380000Y-39151928D01*
X48680000Y-39151928D01*
X48555518Y-39164188D01*
X48435820Y-39200498D01*
X48325506Y-39259463D01*
X48228815Y-39338815D01*
X48149463Y-39435506D01*
X48090498Y-39545820D01*
X48054188Y-39665518D01*
X48041928Y-39790000D01*
X48041928Y-41490000D01*
X48054188Y-41614482D01*
X48090498Y-41734180D01*
X48149463Y-41844494D01*
X48228815Y-41941185D01*
X48325506Y-42020537D01*
X48435820Y-42079502D01*
X48504687Y-42100393D01*
X48474866Y-42124866D01*
X48289294Y-42350986D01*
X48151401Y-42608966D01*
X48066487Y-42888889D01*
X48037815Y-43180000D01*
X32460000Y-43180000D01*
X32460000Y-30123439D01*
X32965000Y-30123439D01*
X32965000Y-30376561D01*
X33014381Y-30624821D01*
X33111247Y-30858676D01*
X33251875Y-31069140D01*
X33430860Y-31248125D01*
X33641324Y-31388753D01*
X33875179Y-31485619D01*
X34123439Y-31535000D01*
X34376561Y-31535000D01*
X34624821Y-31485619D01*
X34858676Y-31388753D01*
X35069140Y-31248125D01*
X35248125Y-31069140D01*
X35388753Y-30858676D01*
X35485619Y-30624821D01*
X35535000Y-30376561D01*
X35535000Y-30123439D01*
X39265000Y-30123439D01*
X39265000Y-30376561D01*
X39314381Y-30624821D01*
X39411247Y-30858676D01*
X39551875Y-31069140D01*
X39730860Y-31248125D01*
X39941324Y-31388753D01*
X40175179Y-31485619D01*
X40423439Y-31535000D01*
X40676561Y-31535000D01*
X40924821Y-31485619D01*
X41158676Y-31388753D01*
X41369140Y-31248125D01*
X41548125Y-31069140D01*
X41688753Y-30858676D01*
X41785619Y-30624821D01*
X41835000Y-30376561D01*
X41835000Y-30123439D01*
X41785619Y-29875179D01*
X41688753Y-29641324D01*
X41548125Y-29430860D01*
X41369140Y-29251875D01*
X41158676Y-29111247D01*
X40924821Y-29014381D01*
X40676561Y-28965000D01*
X40423439Y-28965000D01*
X40175179Y-29014381D01*
X39941324Y-29111247D01*
X39730860Y-29251875D01*
X39551875Y-29430860D01*
X39411247Y-29641324D01*
X39314381Y-29875179D01*
X39265000Y-30123439D01*
X35535000Y-30123439D01*
X35485619Y-29875179D01*
X35388753Y-29641324D01*
X35248125Y-29430860D01*
X35069140Y-29251875D01*
X34858676Y-29111247D01*
X34624821Y-29014381D01*
X34376561Y-28965000D01*
X34123439Y-28965000D01*
X33875179Y-29014381D01*
X33641324Y-29111247D01*
X33430860Y-29251875D01*
X33251875Y-29430860D01*
X33111247Y-29641324D01*
X33014381Y-29875179D01*
X32965000Y-30123439D01*
X32460000Y-30123439D01*
X32460000Y-27940000D01*
X44831000Y-27940000D01*
X44831000Y-34417000D01*
M02*
